M48
; DRILL file {KiCad 8.0.2} date 2024-08-24T20:41:13-0500
; FORMAT={-:-/ absolute / metric / decimal}
; #@! TF.CreationDate,2024-08-24T20:41:13-05:00
; #@! TF.GenerationSoftware,Kicad,Pcbnew,8.0.2
; #@! TF.FileFunction,MixedPlating,1,2
FMAT,2
METRIC
; #@! TA.AperFunction,Plated,PTH,ViaDrill
T1C0.300
; #@! TA.AperFunction,Plated,PTH,ComponentDrill
T2C0.800
; #@! TA.AperFunction,Plated,PTH,ComponentDrill
T3C0.830
; #@! TA.AperFunction,Plated,PTH,ComponentDrill
T4C0.900
; #@! TA.AperFunction,Plated,PTH,ComponentDrill
T5C1.000
; #@! TA.AperFunction,Plated,PTH,ComponentDrill
T6C1.020
; #@! TA.AperFunction,Plated,PTH,ComponentDrill
T7C1.350
; #@! TA.AperFunction,Plated,PTH,ComponentDrill
T8C1.600
; #@! TA.AperFunction,Plated,PTH,ComponentDrill
T9C2.700
; #@! TA.AperFunction,NonPlated,NPTH,ComponentDrill
T10C3.200
; #@! TA.AperFunction,NonPlated,NPTH,ComponentDrill
T11C3.250
%
G90
G05
T1
X105.5Y-110.25
X105.5Y-111.5
X111.3Y-115.3
X112.4Y-115.3
X119.337Y-113.1
X119.337Y-114.5
X119.5Y-74.8
X120.5Y-74.8
X122.1Y-70.9
X123.5Y-70.9
X127.9Y-93.9
X129.5Y-74.25
X129.5Y-75.75
X133.4Y-120.3
X133.4Y-121.5
T2
X132.5Y-93.0
X132.5Y-95.0
X132.5Y-97.0
X134.5Y-93.0
X134.5Y-95.0
X134.5Y-97.0
T3
X100.375Y-64.87
X100.375Y-67.41
X100.375Y-69.95
T4
X142.51Y-115.855
X142.51Y-118.395
X142.51Y-120.935
X142.51Y-123.475
X145.05Y-117.125
X145.05Y-119.665
X145.05Y-122.205
X145.05Y-124.745
T5
X89.045Y-84.2
X89.08Y-99.4
X91.585Y-84.2
X91.62Y-99.4
X94.125Y-84.2
X94.16Y-99.4
X96.665Y-84.2
X96.7Y-99.4
X99.205Y-84.2
X99.24Y-99.4
X101.745Y-84.2
X101.78Y-99.4
X104.285Y-84.2
X104.32Y-99.4
X106.825Y-84.2
X106.86Y-99.4
X109.365Y-84.2
X109.4Y-99.4
X111.905Y-84.2
X111.94Y-99.4
X114.445Y-84.2
X114.48Y-99.4
X116.985Y-84.2
X117.02Y-99.4
X119.525Y-84.2
X119.56Y-99.4
X122.065Y-84.2
X122.1Y-99.4
X124.605Y-84.2
X124.64Y-99.4
X126.025Y-113.8
X127.145Y-84.2
X127.18Y-99.4
X128.565Y-113.8
X129.685Y-84.2
X129.72Y-99.4
X132.225Y-84.2
X132.26Y-99.4
X134.765Y-84.2
X134.8Y-99.4
X137.305Y-84.2
X137.34Y-99.4
X139.845Y-84.2
X139.88Y-99.4
X142.385Y-84.2
X142.42Y-99.4
X144.925Y-84.2
X144.96Y-99.4
X147.465Y-84.2
X147.5Y-99.4
T6
X154.78Y-113.975
X154.78Y-124.085
X156.48Y-116.515
X156.48Y-126.625
T7
X90.0Y-43.0
X90.0Y-46.5
X90.0Y-50.0
X90.0Y-140.0
X90.0Y-143.5
X90.0Y-147.0
X100.0Y-43.0
X100.0Y-46.5
X100.0Y-50.0
X100.0Y-140.0
X100.0Y-143.5
X100.0Y-147.0
X110.0Y-43.0
X110.0Y-46.5
X110.0Y-50.0
X110.0Y-140.0
X110.0Y-143.5
X110.0Y-147.0
X120.0Y-43.0
X120.0Y-46.5
X120.0Y-50.0
X120.0Y-140.0
X120.0Y-143.5
X120.0Y-147.0
X130.0Y-43.0
X130.0Y-46.5
X130.0Y-50.0
X130.0Y-140.0
X130.0Y-143.5
X130.0Y-147.0
X140.0Y-43.0
X140.0Y-46.5
X140.0Y-50.0
X140.0Y-140.0
X140.0Y-143.5
X140.0Y-147.0
X150.0Y-43.0
X150.0Y-46.5
X150.0Y-50.0
X150.0Y-140.0
X150.0Y-143.5
X150.0Y-147.0
X160.0Y-43.0
X160.0Y-46.5
X160.0Y-50.0
X160.0Y-140.0
X160.0Y-143.5
X160.0Y-147.0
T8
X148.35Y-112.425
X148.35Y-128.175
T9
X90.0Y-65.0
X90.0Y-70.0
T10
X80.0Y-40.0
X80.0Y-150.0
X170.0Y-40.0
X170.0Y-150.0
T11
X151.4Y-114.585
X151.4Y-126.015
M30
