%TF.GenerationSoftware,KiCad,Pcbnew,8.0.2*%
%TF.CreationDate,2024-08-24T20:41:20-05:00*%
%TF.ProjectId,ReceiverBoard,52656365-6976-4657-9242-6f6172642e6b,rev?*%
%TF.SameCoordinates,Original*%
%TF.FileFunction,Legend,Top*%
%TF.FilePolarity,Positive*%
%FSLAX46Y46*%
G04 Gerber Fmt 4.6, Leading zero omitted, Abs format (unit mm)*
G04 Created by KiCad (PCBNEW 8.0.2) date 2024-08-24 20:41:20*
%MOMM*%
%LPD*%
G01*
G04 APERTURE LIST*
%ADD10C,0.100000*%
%ADD11C,0.200000*%
%ADD12C,0.300000*%
%ADD13C,0.150000*%
%ADD14C,0.120000*%
%ADD15C,0.000000*%
G04 APERTURE END LIST*
D10*
X124175312Y-124808940D02*
X123718169Y-124808940D01*
X123946741Y-124808940D02*
X123946741Y-124008940D01*
X123946741Y-124008940D02*
X123870550Y-124123225D01*
X123870550Y-124123225D02*
X123794360Y-124199416D01*
X123794360Y-124199416D02*
X123718169Y-124237511D01*
X124670551Y-124008940D02*
X124746741Y-124008940D01*
X124746741Y-124008940D02*
X124822932Y-124047035D01*
X124822932Y-124047035D02*
X124861027Y-124085130D01*
X124861027Y-124085130D02*
X124899122Y-124161321D01*
X124899122Y-124161321D02*
X124937217Y-124313702D01*
X124937217Y-124313702D02*
X124937217Y-124504178D01*
X124937217Y-124504178D02*
X124899122Y-124656559D01*
X124899122Y-124656559D02*
X124861027Y-124732749D01*
X124861027Y-124732749D02*
X124822932Y-124770845D01*
X124822932Y-124770845D02*
X124746741Y-124808940D01*
X124746741Y-124808940D02*
X124670551Y-124808940D01*
X124670551Y-124808940D02*
X124594360Y-124770845D01*
X124594360Y-124770845D02*
X124556265Y-124732749D01*
X124556265Y-124732749D02*
X124518170Y-124656559D01*
X124518170Y-124656559D02*
X124480074Y-124504178D01*
X124480074Y-124504178D02*
X124480074Y-124313702D01*
X124480074Y-124313702D02*
X124518170Y-124161321D01*
X124518170Y-124161321D02*
X124556265Y-124085130D01*
X124556265Y-124085130D02*
X124594360Y-124047035D01*
X124594360Y-124047035D02*
X124670551Y-124008940D01*
X125432456Y-124008940D02*
X125508646Y-124008940D01*
X125508646Y-124008940D02*
X125584837Y-124047035D01*
X125584837Y-124047035D02*
X125622932Y-124085130D01*
X125622932Y-124085130D02*
X125661027Y-124161321D01*
X125661027Y-124161321D02*
X125699122Y-124313702D01*
X125699122Y-124313702D02*
X125699122Y-124504178D01*
X125699122Y-124504178D02*
X125661027Y-124656559D01*
X125661027Y-124656559D02*
X125622932Y-124732749D01*
X125622932Y-124732749D02*
X125584837Y-124770845D01*
X125584837Y-124770845D02*
X125508646Y-124808940D01*
X125508646Y-124808940D02*
X125432456Y-124808940D01*
X125432456Y-124808940D02*
X125356265Y-124770845D01*
X125356265Y-124770845D02*
X125318170Y-124732749D01*
X125318170Y-124732749D02*
X125280075Y-124656559D01*
X125280075Y-124656559D02*
X125241979Y-124504178D01*
X125241979Y-124504178D02*
X125241979Y-124313702D01*
X125241979Y-124313702D02*
X125280075Y-124161321D01*
X125280075Y-124161321D02*
X125318170Y-124085130D01*
X125318170Y-124085130D02*
X125356265Y-124047035D01*
X125356265Y-124047035D02*
X125432456Y-124008940D01*
X126156265Y-124808940D02*
X126080075Y-124770845D01*
X126080075Y-124770845D02*
X126041980Y-124732749D01*
X126041980Y-124732749D02*
X126003884Y-124656559D01*
X126003884Y-124656559D02*
X126003884Y-124427987D01*
X126003884Y-124427987D02*
X126041980Y-124351797D01*
X126041980Y-124351797D02*
X126080075Y-124313702D01*
X126080075Y-124313702D02*
X126156265Y-124275606D01*
X126156265Y-124275606D02*
X126270551Y-124275606D01*
X126270551Y-124275606D02*
X126346742Y-124313702D01*
X126346742Y-124313702D02*
X126384837Y-124351797D01*
X126384837Y-124351797D02*
X126422932Y-124427987D01*
X126422932Y-124427987D02*
X126422932Y-124656559D01*
X126422932Y-124656559D02*
X126384837Y-124732749D01*
X126384837Y-124732749D02*
X126346742Y-124770845D01*
X126346742Y-124770845D02*
X126270551Y-124808940D01*
X126270551Y-124808940D02*
X126156265Y-124808940D01*
X123984836Y-126401657D02*
X123946741Y-126363561D01*
X123946741Y-126363561D02*
X123870550Y-126249276D01*
X123870550Y-126249276D02*
X123832455Y-126173085D01*
X123832455Y-126173085D02*
X123794360Y-126058800D01*
X123794360Y-126058800D02*
X123756265Y-125868323D01*
X123756265Y-125868323D02*
X123756265Y-125715942D01*
X123756265Y-125715942D02*
X123794360Y-125525466D01*
X123794360Y-125525466D02*
X123832455Y-125411180D01*
X123832455Y-125411180D02*
X123870550Y-125334990D01*
X123870550Y-125334990D02*
X123946741Y-125220704D01*
X123946741Y-125220704D02*
X123984836Y-125182609D01*
X124213407Y-126096895D02*
X124632455Y-125563561D01*
X124213407Y-125563561D02*
X124632455Y-126096895D01*
X125051502Y-125639752D02*
X124975312Y-125601657D01*
X124975312Y-125601657D02*
X124937217Y-125563561D01*
X124937217Y-125563561D02*
X124899121Y-125487371D01*
X124899121Y-125487371D02*
X124899121Y-125449276D01*
X124899121Y-125449276D02*
X124937217Y-125373085D01*
X124937217Y-125373085D02*
X124975312Y-125334990D01*
X124975312Y-125334990D02*
X125051502Y-125296895D01*
X125051502Y-125296895D02*
X125203883Y-125296895D01*
X125203883Y-125296895D02*
X125280074Y-125334990D01*
X125280074Y-125334990D02*
X125318169Y-125373085D01*
X125318169Y-125373085D02*
X125356264Y-125449276D01*
X125356264Y-125449276D02*
X125356264Y-125487371D01*
X125356264Y-125487371D02*
X125318169Y-125563561D01*
X125318169Y-125563561D02*
X125280074Y-125601657D01*
X125280074Y-125601657D02*
X125203883Y-125639752D01*
X125203883Y-125639752D02*
X125051502Y-125639752D01*
X125051502Y-125639752D02*
X124975312Y-125677847D01*
X124975312Y-125677847D02*
X124937217Y-125715942D01*
X124937217Y-125715942D02*
X124899121Y-125792133D01*
X124899121Y-125792133D02*
X124899121Y-125944514D01*
X124899121Y-125944514D02*
X124937217Y-126020704D01*
X124937217Y-126020704D02*
X124975312Y-126058800D01*
X124975312Y-126058800D02*
X125051502Y-126096895D01*
X125051502Y-126096895D02*
X125203883Y-126096895D01*
X125203883Y-126096895D02*
X125280074Y-126058800D01*
X125280074Y-126058800D02*
X125318169Y-126020704D01*
X125318169Y-126020704D02*
X125356264Y-125944514D01*
X125356264Y-125944514D02*
X125356264Y-125792133D01*
X125356264Y-125792133D02*
X125318169Y-125715942D01*
X125318169Y-125715942D02*
X125280074Y-125677847D01*
X125280074Y-125677847D02*
X125203883Y-125639752D01*
X125622931Y-126401657D02*
X125661026Y-126363561D01*
X125661026Y-126363561D02*
X125737217Y-126249276D01*
X125737217Y-126249276D02*
X125775312Y-126173085D01*
X125775312Y-126173085D02*
X125813407Y-126058800D01*
X125813407Y-126058800D02*
X125851503Y-125868323D01*
X125851503Y-125868323D02*
X125851503Y-125715942D01*
X125851503Y-125715942D02*
X125813407Y-125525466D01*
X125813407Y-125525466D02*
X125775312Y-125411180D01*
X125775312Y-125411180D02*
X125737217Y-125334990D01*
X125737217Y-125334990D02*
X125661026Y-125220704D01*
X125661026Y-125220704D02*
X125622931Y-125182609D01*
X110975312Y-62008940D02*
X110518169Y-62008940D01*
X110746741Y-62008940D02*
X110746741Y-61208940D01*
X110746741Y-61208940D02*
X110670550Y-61323225D01*
X110670550Y-61323225D02*
X110594360Y-61399416D01*
X110594360Y-61399416D02*
X110518169Y-61437511D01*
X111470551Y-61208940D02*
X111546741Y-61208940D01*
X111546741Y-61208940D02*
X111622932Y-61247035D01*
X111622932Y-61247035D02*
X111661027Y-61285130D01*
X111661027Y-61285130D02*
X111699122Y-61361321D01*
X111699122Y-61361321D02*
X111737217Y-61513702D01*
X111737217Y-61513702D02*
X111737217Y-61704178D01*
X111737217Y-61704178D02*
X111699122Y-61856559D01*
X111699122Y-61856559D02*
X111661027Y-61932749D01*
X111661027Y-61932749D02*
X111622932Y-61970845D01*
X111622932Y-61970845D02*
X111546741Y-62008940D01*
X111546741Y-62008940D02*
X111470551Y-62008940D01*
X111470551Y-62008940D02*
X111394360Y-61970845D01*
X111394360Y-61970845D02*
X111356265Y-61932749D01*
X111356265Y-61932749D02*
X111318170Y-61856559D01*
X111318170Y-61856559D02*
X111280074Y-61704178D01*
X111280074Y-61704178D02*
X111280074Y-61513702D01*
X111280074Y-61513702D02*
X111318170Y-61361321D01*
X111318170Y-61361321D02*
X111356265Y-61285130D01*
X111356265Y-61285130D02*
X111394360Y-61247035D01*
X111394360Y-61247035D02*
X111470551Y-61208940D01*
X112232456Y-61208940D02*
X112308646Y-61208940D01*
X112308646Y-61208940D02*
X112384837Y-61247035D01*
X112384837Y-61247035D02*
X112422932Y-61285130D01*
X112422932Y-61285130D02*
X112461027Y-61361321D01*
X112461027Y-61361321D02*
X112499122Y-61513702D01*
X112499122Y-61513702D02*
X112499122Y-61704178D01*
X112499122Y-61704178D02*
X112461027Y-61856559D01*
X112461027Y-61856559D02*
X112422932Y-61932749D01*
X112422932Y-61932749D02*
X112384837Y-61970845D01*
X112384837Y-61970845D02*
X112308646Y-62008940D01*
X112308646Y-62008940D02*
X112232456Y-62008940D01*
X112232456Y-62008940D02*
X112156265Y-61970845D01*
X112156265Y-61970845D02*
X112118170Y-61932749D01*
X112118170Y-61932749D02*
X112080075Y-61856559D01*
X112080075Y-61856559D02*
X112041979Y-61704178D01*
X112041979Y-61704178D02*
X112041979Y-61513702D01*
X112041979Y-61513702D02*
X112080075Y-61361321D01*
X112080075Y-61361321D02*
X112118170Y-61285130D01*
X112118170Y-61285130D02*
X112156265Y-61247035D01*
X112156265Y-61247035D02*
X112232456Y-61208940D01*
X112956265Y-62008940D02*
X112880075Y-61970845D01*
X112880075Y-61970845D02*
X112841980Y-61932749D01*
X112841980Y-61932749D02*
X112803884Y-61856559D01*
X112803884Y-61856559D02*
X112803884Y-61627987D01*
X112803884Y-61627987D02*
X112841980Y-61551797D01*
X112841980Y-61551797D02*
X112880075Y-61513702D01*
X112880075Y-61513702D02*
X112956265Y-61475606D01*
X112956265Y-61475606D02*
X113070551Y-61475606D01*
X113070551Y-61475606D02*
X113146742Y-61513702D01*
X113146742Y-61513702D02*
X113184837Y-61551797D01*
X113184837Y-61551797D02*
X113222932Y-61627987D01*
X113222932Y-61627987D02*
X113222932Y-61856559D01*
X113222932Y-61856559D02*
X113184837Y-61932749D01*
X113184837Y-61932749D02*
X113146742Y-61970845D01*
X113146742Y-61970845D02*
X113070551Y-62008940D01*
X113070551Y-62008940D02*
X112956265Y-62008940D01*
X110784836Y-63601657D02*
X110746741Y-63563561D01*
X110746741Y-63563561D02*
X110670550Y-63449276D01*
X110670550Y-63449276D02*
X110632455Y-63373085D01*
X110632455Y-63373085D02*
X110594360Y-63258800D01*
X110594360Y-63258800D02*
X110556265Y-63068323D01*
X110556265Y-63068323D02*
X110556265Y-62915942D01*
X110556265Y-62915942D02*
X110594360Y-62725466D01*
X110594360Y-62725466D02*
X110632455Y-62611180D01*
X110632455Y-62611180D02*
X110670550Y-62534990D01*
X110670550Y-62534990D02*
X110746741Y-62420704D01*
X110746741Y-62420704D02*
X110784836Y-62382609D01*
X111013407Y-63296895D02*
X111432455Y-62763561D01*
X111013407Y-62763561D02*
X111432455Y-63296895D01*
X111851502Y-62839752D02*
X111775312Y-62801657D01*
X111775312Y-62801657D02*
X111737217Y-62763561D01*
X111737217Y-62763561D02*
X111699121Y-62687371D01*
X111699121Y-62687371D02*
X111699121Y-62649276D01*
X111699121Y-62649276D02*
X111737217Y-62573085D01*
X111737217Y-62573085D02*
X111775312Y-62534990D01*
X111775312Y-62534990D02*
X111851502Y-62496895D01*
X111851502Y-62496895D02*
X112003883Y-62496895D01*
X112003883Y-62496895D02*
X112080074Y-62534990D01*
X112080074Y-62534990D02*
X112118169Y-62573085D01*
X112118169Y-62573085D02*
X112156264Y-62649276D01*
X112156264Y-62649276D02*
X112156264Y-62687371D01*
X112156264Y-62687371D02*
X112118169Y-62763561D01*
X112118169Y-62763561D02*
X112080074Y-62801657D01*
X112080074Y-62801657D02*
X112003883Y-62839752D01*
X112003883Y-62839752D02*
X111851502Y-62839752D01*
X111851502Y-62839752D02*
X111775312Y-62877847D01*
X111775312Y-62877847D02*
X111737217Y-62915942D01*
X111737217Y-62915942D02*
X111699121Y-62992133D01*
X111699121Y-62992133D02*
X111699121Y-63144514D01*
X111699121Y-63144514D02*
X111737217Y-63220704D01*
X111737217Y-63220704D02*
X111775312Y-63258800D01*
X111775312Y-63258800D02*
X111851502Y-63296895D01*
X111851502Y-63296895D02*
X112003883Y-63296895D01*
X112003883Y-63296895D02*
X112080074Y-63258800D01*
X112080074Y-63258800D02*
X112118169Y-63220704D01*
X112118169Y-63220704D02*
X112156264Y-63144514D01*
X112156264Y-63144514D02*
X112156264Y-62992133D01*
X112156264Y-62992133D02*
X112118169Y-62915942D01*
X112118169Y-62915942D02*
X112080074Y-62877847D01*
X112080074Y-62877847D02*
X112003883Y-62839752D01*
X112422931Y-63601657D02*
X112461026Y-63563561D01*
X112461026Y-63563561D02*
X112537217Y-63449276D01*
X112537217Y-63449276D02*
X112575312Y-63373085D01*
X112575312Y-63373085D02*
X112613407Y-63258800D01*
X112613407Y-63258800D02*
X112651503Y-63068323D01*
X112651503Y-63068323D02*
X112651503Y-62915942D01*
X112651503Y-62915942D02*
X112613407Y-62725466D01*
X112613407Y-62725466D02*
X112575312Y-62611180D01*
X112575312Y-62611180D02*
X112537217Y-62534990D01*
X112537217Y-62534990D02*
X112461026Y-62420704D01*
X112461026Y-62420704D02*
X112422931Y-62382609D01*
X117175312Y-72696895D02*
X116718169Y-72696895D01*
X116946741Y-72696895D02*
X116946741Y-71896895D01*
X116946741Y-71896895D02*
X116870550Y-72011180D01*
X116870550Y-72011180D02*
X116794360Y-72087371D01*
X116794360Y-72087371D02*
X116718169Y-72125466D01*
X117861027Y-72163561D02*
X117861027Y-72696895D01*
X117518170Y-72163561D02*
X117518170Y-72582609D01*
X117518170Y-72582609D02*
X117556265Y-72658800D01*
X117556265Y-72658800D02*
X117632455Y-72696895D01*
X117632455Y-72696895D02*
X117746741Y-72696895D01*
X117746741Y-72696895D02*
X117822932Y-72658800D01*
X117822932Y-72658800D02*
X117861027Y-72620704D01*
X118508646Y-72277847D02*
X118241980Y-72277847D01*
X118241980Y-72696895D02*
X118241980Y-71896895D01*
X118241980Y-71896895D02*
X118622932Y-71896895D01*
X116175312Y-112096895D02*
X115718169Y-112096895D01*
X115946741Y-112096895D02*
X115946741Y-111296895D01*
X115946741Y-111296895D02*
X115870550Y-111411180D01*
X115870550Y-111411180D02*
X115794360Y-111487371D01*
X115794360Y-111487371D02*
X115718169Y-111525466D01*
X116861027Y-111563561D02*
X116861027Y-112096895D01*
X116518170Y-111563561D02*
X116518170Y-111982609D01*
X116518170Y-111982609D02*
X116556265Y-112058800D01*
X116556265Y-112058800D02*
X116632455Y-112096895D01*
X116632455Y-112096895D02*
X116746741Y-112096895D01*
X116746741Y-112096895D02*
X116822932Y-112058800D01*
X116822932Y-112058800D02*
X116861027Y-112020704D01*
X117508646Y-111677847D02*
X117241980Y-111677847D01*
X117241980Y-112096895D02*
X117241980Y-111296895D01*
X117241980Y-111296895D02*
X117622932Y-111296895D01*
X135708646Y-122296895D02*
X135784836Y-122296895D01*
X135784836Y-122296895D02*
X135861027Y-122334990D01*
X135861027Y-122334990D02*
X135899122Y-122373085D01*
X135899122Y-122373085D02*
X135937217Y-122449276D01*
X135937217Y-122449276D02*
X135975312Y-122601657D01*
X135975312Y-122601657D02*
X135975312Y-122792133D01*
X135975312Y-122792133D02*
X135937217Y-122944514D01*
X135937217Y-122944514D02*
X135899122Y-123020704D01*
X135899122Y-123020704D02*
X135861027Y-123058800D01*
X135861027Y-123058800D02*
X135784836Y-123096895D01*
X135784836Y-123096895D02*
X135708646Y-123096895D01*
X135708646Y-123096895D02*
X135632455Y-123058800D01*
X135632455Y-123058800D02*
X135594360Y-123020704D01*
X135594360Y-123020704D02*
X135556265Y-122944514D01*
X135556265Y-122944514D02*
X135518169Y-122792133D01*
X135518169Y-122792133D02*
X135518169Y-122601657D01*
X135518169Y-122601657D02*
X135556265Y-122449276D01*
X135556265Y-122449276D02*
X135594360Y-122373085D01*
X135594360Y-122373085D02*
X135632455Y-122334990D01*
X135632455Y-122334990D02*
X135708646Y-122296895D01*
X136318170Y-123020704D02*
X136356265Y-123058800D01*
X136356265Y-123058800D02*
X136318170Y-123096895D01*
X136318170Y-123096895D02*
X136280074Y-123058800D01*
X136280074Y-123058800D02*
X136318170Y-123020704D01*
X136318170Y-123020704D02*
X136318170Y-123096895D01*
X137118169Y-123096895D02*
X136661026Y-123096895D01*
X136889598Y-123096895D02*
X136889598Y-122296895D01*
X136889598Y-122296895D02*
X136813407Y-122411180D01*
X136813407Y-122411180D02*
X136737217Y-122487371D01*
X136737217Y-122487371D02*
X136661026Y-122525466D01*
X137803884Y-122563561D02*
X137803884Y-123096895D01*
X137461027Y-122563561D02*
X137461027Y-122982609D01*
X137461027Y-122982609D02*
X137499122Y-123058800D01*
X137499122Y-123058800D02*
X137575312Y-123096895D01*
X137575312Y-123096895D02*
X137689598Y-123096895D01*
X137689598Y-123096895D02*
X137765789Y-123058800D01*
X137765789Y-123058800D02*
X137803884Y-123020704D01*
X138451503Y-122677847D02*
X138184837Y-122677847D01*
X138184837Y-123096895D02*
X138184837Y-122296895D01*
X138184837Y-122296895D02*
X138565789Y-122296895D01*
D11*
X158905387Y-136494838D02*
X157762530Y-136494838D01*
X158333958Y-136494838D02*
X158333958Y-134494838D01*
X158333958Y-134494838D02*
X158143482Y-134780552D01*
X158143482Y-134780552D02*
X157953006Y-134971028D01*
X157953006Y-134971028D02*
X157762530Y-135066266D01*
X160714911Y-134494838D02*
X159762530Y-134494838D01*
X159762530Y-134494838D02*
X159667292Y-135447219D01*
X159667292Y-135447219D02*
X159762530Y-135351980D01*
X159762530Y-135351980D02*
X159953006Y-135256742D01*
X159953006Y-135256742D02*
X160429197Y-135256742D01*
X160429197Y-135256742D02*
X160619673Y-135351980D01*
X160619673Y-135351980D02*
X160714911Y-135447219D01*
X160714911Y-135447219D02*
X160810149Y-135637695D01*
X160810149Y-135637695D02*
X160810149Y-136113885D01*
X160810149Y-136113885D02*
X160714911Y-136304361D01*
X160714911Y-136304361D02*
X160619673Y-136399600D01*
X160619673Y-136399600D02*
X160429197Y-136494838D01*
X160429197Y-136494838D02*
X159953006Y-136494838D01*
X159953006Y-136494838D02*
X159762530Y-136399600D01*
X159762530Y-136399600D02*
X159667292Y-136304361D01*
X148905387Y-136494838D02*
X147762530Y-136494838D01*
X148333958Y-136494838D02*
X148333958Y-134494838D01*
X148333958Y-134494838D02*
X148143482Y-134780552D01*
X148143482Y-134780552D02*
X147953006Y-134971028D01*
X147953006Y-134971028D02*
X147762530Y-135066266D01*
X150619673Y-135161504D02*
X150619673Y-136494838D01*
X150143482Y-134399600D02*
X149667292Y-135828171D01*
X149667292Y-135828171D02*
X150905387Y-135828171D01*
X139155387Y-136494838D02*
X138012530Y-136494838D01*
X138583958Y-136494838D02*
X138583958Y-134494838D01*
X138583958Y-134494838D02*
X138393482Y-134780552D01*
X138393482Y-134780552D02*
X138203006Y-134971028D01*
X138203006Y-134971028D02*
X138012530Y-135066266D01*
X139822054Y-134494838D02*
X141060149Y-134494838D01*
X141060149Y-134494838D02*
X140393482Y-135256742D01*
X140393482Y-135256742D02*
X140679197Y-135256742D01*
X140679197Y-135256742D02*
X140869673Y-135351980D01*
X140869673Y-135351980D02*
X140964911Y-135447219D01*
X140964911Y-135447219D02*
X141060149Y-135637695D01*
X141060149Y-135637695D02*
X141060149Y-136113885D01*
X141060149Y-136113885D02*
X140964911Y-136304361D01*
X140964911Y-136304361D02*
X140869673Y-136399600D01*
X140869673Y-136399600D02*
X140679197Y-136494838D01*
X140679197Y-136494838D02*
X140107768Y-136494838D01*
X140107768Y-136494838D02*
X139917292Y-136399600D01*
X139917292Y-136399600D02*
X139822054Y-136304361D01*
X129155387Y-136494838D02*
X128012530Y-136494838D01*
X128583958Y-136494838D02*
X128583958Y-134494838D01*
X128583958Y-134494838D02*
X128393482Y-134780552D01*
X128393482Y-134780552D02*
X128203006Y-134971028D01*
X128203006Y-134971028D02*
X128012530Y-135066266D01*
X129917292Y-134685314D02*
X130012530Y-134590076D01*
X130012530Y-134590076D02*
X130203006Y-134494838D01*
X130203006Y-134494838D02*
X130679197Y-134494838D01*
X130679197Y-134494838D02*
X130869673Y-134590076D01*
X130869673Y-134590076D02*
X130964911Y-134685314D01*
X130964911Y-134685314D02*
X131060149Y-134875790D01*
X131060149Y-134875790D02*
X131060149Y-135066266D01*
X131060149Y-135066266D02*
X130964911Y-135351980D01*
X130964911Y-135351980D02*
X129822054Y-136494838D01*
X129822054Y-136494838D02*
X131060149Y-136494838D01*
X118655387Y-136494838D02*
X117512530Y-136494838D01*
X118083958Y-136494838D02*
X118083958Y-134494838D01*
X118083958Y-134494838D02*
X117893482Y-134780552D01*
X117893482Y-134780552D02*
X117703006Y-134971028D01*
X117703006Y-134971028D02*
X117512530Y-135066266D01*
X120560149Y-136494838D02*
X119417292Y-136494838D01*
X119988720Y-136494838D02*
X119988720Y-134494838D01*
X119988720Y-134494838D02*
X119798244Y-134780552D01*
X119798244Y-134780552D02*
X119607768Y-134971028D01*
X119607768Y-134971028D02*
X119417292Y-135066266D01*
X109155387Y-136494838D02*
X108012530Y-136494838D01*
X108583958Y-136494838D02*
X108583958Y-134494838D01*
X108583958Y-134494838D02*
X108393482Y-134780552D01*
X108393482Y-134780552D02*
X108203006Y-134971028D01*
X108203006Y-134971028D02*
X108012530Y-135066266D01*
X110393482Y-134494838D02*
X110583959Y-134494838D01*
X110583959Y-134494838D02*
X110774435Y-134590076D01*
X110774435Y-134590076D02*
X110869673Y-134685314D01*
X110869673Y-134685314D02*
X110964911Y-134875790D01*
X110964911Y-134875790D02*
X111060149Y-135256742D01*
X111060149Y-135256742D02*
X111060149Y-135732933D01*
X111060149Y-135732933D02*
X110964911Y-136113885D01*
X110964911Y-136113885D02*
X110869673Y-136304361D01*
X110869673Y-136304361D02*
X110774435Y-136399600D01*
X110774435Y-136399600D02*
X110583959Y-136494838D01*
X110583959Y-136494838D02*
X110393482Y-136494838D01*
X110393482Y-136494838D02*
X110203006Y-136399600D01*
X110203006Y-136399600D02*
X110107768Y-136304361D01*
X110107768Y-136304361D02*
X110012530Y-136113885D01*
X110012530Y-136113885D02*
X109917292Y-135732933D01*
X109917292Y-135732933D02*
X109917292Y-135256742D01*
X109917292Y-135256742D02*
X110012530Y-134875790D01*
X110012530Y-134875790D02*
X110107768Y-134685314D01*
X110107768Y-134685314D02*
X110203006Y-134590076D01*
X110203006Y-134590076D02*
X110393482Y-134494838D01*
X99203006Y-135994838D02*
X99583958Y-135994838D01*
X99583958Y-135994838D02*
X99774435Y-135899600D01*
X99774435Y-135899600D02*
X99869673Y-135804361D01*
X99869673Y-135804361D02*
X100060149Y-135518647D01*
X100060149Y-135518647D02*
X100155387Y-135137695D01*
X100155387Y-135137695D02*
X100155387Y-134375790D01*
X100155387Y-134375790D02*
X100060149Y-134185314D01*
X100060149Y-134185314D02*
X99964911Y-134090076D01*
X99964911Y-134090076D02*
X99774435Y-133994838D01*
X99774435Y-133994838D02*
X99393482Y-133994838D01*
X99393482Y-133994838D02*
X99203006Y-134090076D01*
X99203006Y-134090076D02*
X99107768Y-134185314D01*
X99107768Y-134185314D02*
X99012530Y-134375790D01*
X99012530Y-134375790D02*
X99012530Y-134851980D01*
X99012530Y-134851980D02*
X99107768Y-135042457D01*
X99107768Y-135042457D02*
X99203006Y-135137695D01*
X99203006Y-135137695D02*
X99393482Y-135232933D01*
X99393482Y-135232933D02*
X99774435Y-135232933D01*
X99774435Y-135232933D02*
X99964911Y-135137695D01*
X99964911Y-135137695D02*
X100060149Y-135042457D01*
X100060149Y-135042457D02*
X100155387Y-134851980D01*
X89143482Y-135101980D02*
X88953006Y-135006742D01*
X88953006Y-135006742D02*
X88857768Y-134911504D01*
X88857768Y-134911504D02*
X88762530Y-134721028D01*
X88762530Y-134721028D02*
X88762530Y-134625790D01*
X88762530Y-134625790D02*
X88857768Y-134435314D01*
X88857768Y-134435314D02*
X88953006Y-134340076D01*
X88953006Y-134340076D02*
X89143482Y-134244838D01*
X89143482Y-134244838D02*
X89524435Y-134244838D01*
X89524435Y-134244838D02*
X89714911Y-134340076D01*
X89714911Y-134340076D02*
X89810149Y-134435314D01*
X89810149Y-134435314D02*
X89905387Y-134625790D01*
X89905387Y-134625790D02*
X89905387Y-134721028D01*
X89905387Y-134721028D02*
X89810149Y-134911504D01*
X89810149Y-134911504D02*
X89714911Y-135006742D01*
X89714911Y-135006742D02*
X89524435Y-135101980D01*
X89524435Y-135101980D02*
X89143482Y-135101980D01*
X89143482Y-135101980D02*
X88953006Y-135197219D01*
X88953006Y-135197219D02*
X88857768Y-135292457D01*
X88857768Y-135292457D02*
X88762530Y-135482933D01*
X88762530Y-135482933D02*
X88762530Y-135863885D01*
X88762530Y-135863885D02*
X88857768Y-136054361D01*
X88857768Y-136054361D02*
X88953006Y-136149600D01*
X88953006Y-136149600D02*
X89143482Y-136244838D01*
X89143482Y-136244838D02*
X89524435Y-136244838D01*
X89524435Y-136244838D02*
X89714911Y-136149600D01*
X89714911Y-136149600D02*
X89810149Y-136054361D01*
X89810149Y-136054361D02*
X89905387Y-135863885D01*
X89905387Y-135863885D02*
X89905387Y-135482933D01*
X89905387Y-135482933D02*
X89810149Y-135292457D01*
X89810149Y-135292457D02*
X89714911Y-135197219D01*
X89714911Y-135197219D02*
X89524435Y-135101980D01*
X89167292Y-53994838D02*
X90500625Y-53994838D01*
X90500625Y-53994838D02*
X89643482Y-55994838D01*
X101714911Y-53994838D02*
X101333958Y-53994838D01*
X101333958Y-53994838D02*
X101143482Y-54090076D01*
X101143482Y-54090076D02*
X101048244Y-54185314D01*
X101048244Y-54185314D02*
X100857768Y-54471028D01*
X100857768Y-54471028D02*
X100762530Y-54851980D01*
X100762530Y-54851980D02*
X100762530Y-55613885D01*
X100762530Y-55613885D02*
X100857768Y-55804361D01*
X100857768Y-55804361D02*
X100953006Y-55899600D01*
X100953006Y-55899600D02*
X101143482Y-55994838D01*
X101143482Y-55994838D02*
X101524435Y-55994838D01*
X101524435Y-55994838D02*
X101714911Y-55899600D01*
X101714911Y-55899600D02*
X101810149Y-55804361D01*
X101810149Y-55804361D02*
X101905387Y-55613885D01*
X101905387Y-55613885D02*
X101905387Y-55137695D01*
X101905387Y-55137695D02*
X101810149Y-54947219D01*
X101810149Y-54947219D02*
X101714911Y-54851980D01*
X101714911Y-54851980D02*
X101524435Y-54756742D01*
X101524435Y-54756742D02*
X101143482Y-54756742D01*
X101143482Y-54756742D02*
X100953006Y-54851980D01*
X100953006Y-54851980D02*
X100857768Y-54947219D01*
X100857768Y-54947219D02*
X100762530Y-55137695D01*
X111810149Y-53744838D02*
X110857768Y-53744838D01*
X110857768Y-53744838D02*
X110762530Y-54697219D01*
X110762530Y-54697219D02*
X110857768Y-54601980D01*
X110857768Y-54601980D02*
X111048244Y-54506742D01*
X111048244Y-54506742D02*
X111524435Y-54506742D01*
X111524435Y-54506742D02*
X111714911Y-54601980D01*
X111714911Y-54601980D02*
X111810149Y-54697219D01*
X111810149Y-54697219D02*
X111905387Y-54887695D01*
X111905387Y-54887695D02*
X111905387Y-55363885D01*
X111905387Y-55363885D02*
X111810149Y-55554361D01*
X111810149Y-55554361D02*
X111714911Y-55649600D01*
X111714911Y-55649600D02*
X111524435Y-55744838D01*
X111524435Y-55744838D02*
X111048244Y-55744838D01*
X111048244Y-55744838D02*
X110857768Y-55649600D01*
X110857768Y-55649600D02*
X110762530Y-55554361D01*
X120964911Y-54411504D02*
X120964911Y-55744838D01*
X120488720Y-53649600D02*
X120012530Y-55078171D01*
X120012530Y-55078171D02*
X121250625Y-55078171D01*
X129917292Y-53744838D02*
X131155387Y-53744838D01*
X131155387Y-53744838D02*
X130488720Y-54506742D01*
X130488720Y-54506742D02*
X130774435Y-54506742D01*
X130774435Y-54506742D02*
X130964911Y-54601980D01*
X130964911Y-54601980D02*
X131060149Y-54697219D01*
X131060149Y-54697219D02*
X131155387Y-54887695D01*
X131155387Y-54887695D02*
X131155387Y-55363885D01*
X131155387Y-55363885D02*
X131060149Y-55554361D01*
X131060149Y-55554361D02*
X130964911Y-55649600D01*
X130964911Y-55649600D02*
X130774435Y-55744838D01*
X130774435Y-55744838D02*
X130203006Y-55744838D01*
X130203006Y-55744838D02*
X130012530Y-55649600D01*
X130012530Y-55649600D02*
X129917292Y-55554361D01*
X140012530Y-53685314D02*
X140107768Y-53590076D01*
X140107768Y-53590076D02*
X140298244Y-53494838D01*
X140298244Y-53494838D02*
X140774435Y-53494838D01*
X140774435Y-53494838D02*
X140964911Y-53590076D01*
X140964911Y-53590076D02*
X141060149Y-53685314D01*
X141060149Y-53685314D02*
X141155387Y-53875790D01*
X141155387Y-53875790D02*
X141155387Y-54066266D01*
X141155387Y-54066266D02*
X141060149Y-54351980D01*
X141060149Y-54351980D02*
X139917292Y-55494838D01*
X139917292Y-55494838D02*
X141155387Y-55494838D01*
X150655387Y-55494838D02*
X149512530Y-55494838D01*
X150083958Y-55494838D02*
X150083958Y-53494838D01*
X150083958Y-53494838D02*
X149893482Y-53780552D01*
X149893482Y-53780552D02*
X149703006Y-53971028D01*
X149703006Y-53971028D02*
X149512530Y-54066266D01*
X160988720Y-53494838D02*
X161179197Y-53494838D01*
X161179197Y-53494838D02*
X161369673Y-53590076D01*
X161369673Y-53590076D02*
X161464911Y-53685314D01*
X161464911Y-53685314D02*
X161560149Y-53875790D01*
X161560149Y-53875790D02*
X161655387Y-54256742D01*
X161655387Y-54256742D02*
X161655387Y-54732933D01*
X161655387Y-54732933D02*
X161560149Y-55113885D01*
X161560149Y-55113885D02*
X161464911Y-55304361D01*
X161464911Y-55304361D02*
X161369673Y-55399600D01*
X161369673Y-55399600D02*
X161179197Y-55494838D01*
X161179197Y-55494838D02*
X160988720Y-55494838D01*
X160988720Y-55494838D02*
X160798244Y-55399600D01*
X160798244Y-55399600D02*
X160703006Y-55304361D01*
X160703006Y-55304361D02*
X160607768Y-55113885D01*
X160607768Y-55113885D02*
X160512530Y-54732933D01*
X160512530Y-54732933D02*
X160512530Y-54256742D01*
X160512530Y-54256742D02*
X160607768Y-53875790D01*
X160607768Y-53875790D02*
X160703006Y-53685314D01*
X160703006Y-53685314D02*
X160798244Y-53590076D01*
X160798244Y-53590076D02*
X160988720Y-53494838D01*
X84357768Y-46744838D02*
X84357768Y-44744838D01*
X84357768Y-44744838D02*
X84833958Y-44744838D01*
X84833958Y-44744838D02*
X85119673Y-44840076D01*
X85119673Y-44840076D02*
X85310149Y-45030552D01*
X85310149Y-45030552D02*
X85405387Y-45221028D01*
X85405387Y-45221028D02*
X85500625Y-45601980D01*
X85500625Y-45601980D02*
X85500625Y-45887695D01*
X85500625Y-45887695D02*
X85405387Y-46268647D01*
X85405387Y-46268647D02*
X85310149Y-46459123D01*
X85310149Y-46459123D02*
X85119673Y-46649600D01*
X85119673Y-46649600D02*
X84833958Y-46744838D01*
X84833958Y-46744838D02*
X84357768Y-46744838D01*
X84107768Y-41982933D02*
X85631578Y-41982933D01*
X84869673Y-42744838D02*
X84869673Y-41221028D01*
X84107768Y-49482933D02*
X85631578Y-49482933D01*
X83357768Y-140232933D02*
X84881578Y-140232933D01*
X83607768Y-144994838D02*
X83607768Y-142994838D01*
X83607768Y-142994838D02*
X84083958Y-142994838D01*
X84083958Y-142994838D02*
X84369673Y-143090076D01*
X84369673Y-143090076D02*
X84560149Y-143280552D01*
X84560149Y-143280552D02*
X84655387Y-143471028D01*
X84655387Y-143471028D02*
X84750625Y-143851980D01*
X84750625Y-143851980D02*
X84750625Y-144137695D01*
X84750625Y-144137695D02*
X84655387Y-144518647D01*
X84655387Y-144518647D02*
X84560149Y-144709123D01*
X84560149Y-144709123D02*
X84369673Y-144899600D01*
X84369673Y-144899600D02*
X84083958Y-144994838D01*
X84083958Y-144994838D02*
X83607768Y-144994838D01*
X83357768Y-147732933D02*
X84881578Y-147732933D01*
X84119673Y-148494838D02*
X84119673Y-146971028D01*
X164107768Y-139982933D02*
X165631578Y-139982933D01*
X164357768Y-144744838D02*
X164357768Y-142744838D01*
X164357768Y-142744838D02*
X164833958Y-142744838D01*
X164833958Y-142744838D02*
X165119673Y-142840076D01*
X165119673Y-142840076D02*
X165310149Y-143030552D01*
X165310149Y-143030552D02*
X165405387Y-143221028D01*
X165405387Y-143221028D02*
X165500625Y-143601980D01*
X165500625Y-143601980D02*
X165500625Y-143887695D01*
X165500625Y-143887695D02*
X165405387Y-144268647D01*
X165405387Y-144268647D02*
X165310149Y-144459123D01*
X165310149Y-144459123D02*
X165119673Y-144649600D01*
X165119673Y-144649600D02*
X164833958Y-144744838D01*
X164833958Y-144744838D02*
X164357768Y-144744838D01*
X164107768Y-147482933D02*
X165631578Y-147482933D01*
X164869673Y-148244838D02*
X164869673Y-146721028D01*
X153607768Y-139982933D02*
X155131578Y-139982933D01*
X153857768Y-144744838D02*
X153857768Y-142744838D01*
X153857768Y-142744838D02*
X154333958Y-142744838D01*
X154333958Y-142744838D02*
X154619673Y-142840076D01*
X154619673Y-142840076D02*
X154810149Y-143030552D01*
X154810149Y-143030552D02*
X154905387Y-143221028D01*
X154905387Y-143221028D02*
X155000625Y-143601980D01*
X155000625Y-143601980D02*
X155000625Y-143887695D01*
X155000625Y-143887695D02*
X154905387Y-144268647D01*
X154905387Y-144268647D02*
X154810149Y-144459123D01*
X154810149Y-144459123D02*
X154619673Y-144649600D01*
X154619673Y-144649600D02*
X154333958Y-144744838D01*
X154333958Y-144744838D02*
X153857768Y-144744838D01*
X153607768Y-147482933D02*
X155131578Y-147482933D01*
X154369673Y-148244838D02*
X154369673Y-146721028D01*
X143607768Y-139732933D02*
X145131578Y-139732933D01*
X143857768Y-144494838D02*
X143857768Y-142494838D01*
X143857768Y-142494838D02*
X144333958Y-142494838D01*
X144333958Y-142494838D02*
X144619673Y-142590076D01*
X144619673Y-142590076D02*
X144810149Y-142780552D01*
X144810149Y-142780552D02*
X144905387Y-142971028D01*
X144905387Y-142971028D02*
X145000625Y-143351980D01*
X145000625Y-143351980D02*
X145000625Y-143637695D01*
X145000625Y-143637695D02*
X144905387Y-144018647D01*
X144905387Y-144018647D02*
X144810149Y-144209123D01*
X144810149Y-144209123D02*
X144619673Y-144399600D01*
X144619673Y-144399600D02*
X144333958Y-144494838D01*
X144333958Y-144494838D02*
X143857768Y-144494838D01*
X143607768Y-147232933D02*
X145131578Y-147232933D01*
X144369673Y-147994838D02*
X144369673Y-146471028D01*
X133607768Y-139982933D02*
X135131578Y-139982933D01*
X133857768Y-144744838D02*
X133857768Y-142744838D01*
X133857768Y-142744838D02*
X134333958Y-142744838D01*
X134333958Y-142744838D02*
X134619673Y-142840076D01*
X134619673Y-142840076D02*
X134810149Y-143030552D01*
X134810149Y-143030552D02*
X134905387Y-143221028D01*
X134905387Y-143221028D02*
X135000625Y-143601980D01*
X135000625Y-143601980D02*
X135000625Y-143887695D01*
X135000625Y-143887695D02*
X134905387Y-144268647D01*
X134905387Y-144268647D02*
X134810149Y-144459123D01*
X134810149Y-144459123D02*
X134619673Y-144649600D01*
X134619673Y-144649600D02*
X134333958Y-144744838D01*
X134333958Y-144744838D02*
X133857768Y-144744838D01*
X133607768Y-147482933D02*
X135131578Y-147482933D01*
X134369673Y-148244838D02*
X134369673Y-146721028D01*
X123607768Y-139732933D02*
X125131578Y-139732933D01*
X123857768Y-144494838D02*
X123857768Y-142494838D01*
X123857768Y-142494838D02*
X124333958Y-142494838D01*
X124333958Y-142494838D02*
X124619673Y-142590076D01*
X124619673Y-142590076D02*
X124810149Y-142780552D01*
X124810149Y-142780552D02*
X124905387Y-142971028D01*
X124905387Y-142971028D02*
X125000625Y-143351980D01*
X125000625Y-143351980D02*
X125000625Y-143637695D01*
X125000625Y-143637695D02*
X124905387Y-144018647D01*
X124905387Y-144018647D02*
X124810149Y-144209123D01*
X124810149Y-144209123D02*
X124619673Y-144399600D01*
X124619673Y-144399600D02*
X124333958Y-144494838D01*
X124333958Y-144494838D02*
X123857768Y-144494838D01*
X123607768Y-147232933D02*
X125131578Y-147232933D01*
X124369673Y-147994838D02*
X124369673Y-146471028D01*
X113607768Y-139732933D02*
X115131578Y-139732933D01*
X113857768Y-144494838D02*
X113857768Y-142494838D01*
X113857768Y-142494838D02*
X114333958Y-142494838D01*
X114333958Y-142494838D02*
X114619673Y-142590076D01*
X114619673Y-142590076D02*
X114810149Y-142780552D01*
X114810149Y-142780552D02*
X114905387Y-142971028D01*
X114905387Y-142971028D02*
X115000625Y-143351980D01*
X115000625Y-143351980D02*
X115000625Y-143637695D01*
X115000625Y-143637695D02*
X114905387Y-144018647D01*
X114905387Y-144018647D02*
X114810149Y-144209123D01*
X114810149Y-144209123D02*
X114619673Y-144399600D01*
X114619673Y-144399600D02*
X114333958Y-144494838D01*
X114333958Y-144494838D02*
X113857768Y-144494838D01*
X113607768Y-147232933D02*
X115131578Y-147232933D01*
X114369673Y-147994838D02*
X114369673Y-146471028D01*
X103607768Y-139732933D02*
X105131578Y-139732933D01*
X103857768Y-144494838D02*
X103857768Y-142494838D01*
X103857768Y-142494838D02*
X104333958Y-142494838D01*
X104333958Y-142494838D02*
X104619673Y-142590076D01*
X104619673Y-142590076D02*
X104810149Y-142780552D01*
X104810149Y-142780552D02*
X104905387Y-142971028D01*
X104905387Y-142971028D02*
X105000625Y-143351980D01*
X105000625Y-143351980D02*
X105000625Y-143637695D01*
X105000625Y-143637695D02*
X104905387Y-144018647D01*
X104905387Y-144018647D02*
X104810149Y-144209123D01*
X104810149Y-144209123D02*
X104619673Y-144399600D01*
X104619673Y-144399600D02*
X104333958Y-144494838D01*
X104333958Y-144494838D02*
X103857768Y-144494838D01*
X103607768Y-147232933D02*
X105131578Y-147232933D01*
X104369673Y-147994838D02*
X104369673Y-146471028D01*
X93857768Y-144744838D02*
X93857768Y-142744838D01*
X93857768Y-142744838D02*
X94333958Y-142744838D01*
X94333958Y-142744838D02*
X94619673Y-142840076D01*
X94619673Y-142840076D02*
X94810149Y-143030552D01*
X94810149Y-143030552D02*
X94905387Y-143221028D01*
X94905387Y-143221028D02*
X95000625Y-143601980D01*
X95000625Y-143601980D02*
X95000625Y-143887695D01*
X95000625Y-143887695D02*
X94905387Y-144268647D01*
X94905387Y-144268647D02*
X94810149Y-144459123D01*
X94810149Y-144459123D02*
X94619673Y-144649600D01*
X94619673Y-144649600D02*
X94333958Y-144744838D01*
X94333958Y-144744838D02*
X93857768Y-144744838D01*
X93607768Y-147482933D02*
X95131578Y-147482933D01*
X94369673Y-148244838D02*
X94369673Y-146721028D01*
X93607768Y-139982933D02*
X95131578Y-139982933D01*
X95107768Y-47244838D02*
X95107768Y-45244838D01*
X95107768Y-45244838D02*
X95583958Y-45244838D01*
X95583958Y-45244838D02*
X95869673Y-45340076D01*
X95869673Y-45340076D02*
X96060149Y-45530552D01*
X96060149Y-45530552D02*
X96155387Y-45721028D01*
X96155387Y-45721028D02*
X96250625Y-46101980D01*
X96250625Y-46101980D02*
X96250625Y-46387695D01*
X96250625Y-46387695D02*
X96155387Y-46768647D01*
X96155387Y-46768647D02*
X96060149Y-46959123D01*
X96060149Y-46959123D02*
X95869673Y-47149600D01*
X95869673Y-47149600D02*
X95583958Y-47244838D01*
X95583958Y-47244838D02*
X95107768Y-47244838D01*
X94857768Y-49982933D02*
X96381578Y-49982933D01*
X94857768Y-42482933D02*
X96381578Y-42482933D01*
X95619673Y-43244838D02*
X95619673Y-41721028D01*
X105107768Y-47244838D02*
X105107768Y-45244838D01*
X105107768Y-45244838D02*
X105583958Y-45244838D01*
X105583958Y-45244838D02*
X105869673Y-45340076D01*
X105869673Y-45340076D02*
X106060149Y-45530552D01*
X106060149Y-45530552D02*
X106155387Y-45721028D01*
X106155387Y-45721028D02*
X106250625Y-46101980D01*
X106250625Y-46101980D02*
X106250625Y-46387695D01*
X106250625Y-46387695D02*
X106155387Y-46768647D01*
X106155387Y-46768647D02*
X106060149Y-46959123D01*
X106060149Y-46959123D02*
X105869673Y-47149600D01*
X105869673Y-47149600D02*
X105583958Y-47244838D01*
X105583958Y-47244838D02*
X105107768Y-47244838D01*
X104857768Y-49982933D02*
X106381578Y-49982933D01*
X104857768Y-42482933D02*
X106381578Y-42482933D01*
X105619673Y-43244838D02*
X105619673Y-41721028D01*
X115107768Y-47244838D02*
X115107768Y-45244838D01*
X115107768Y-45244838D02*
X115583958Y-45244838D01*
X115583958Y-45244838D02*
X115869673Y-45340076D01*
X115869673Y-45340076D02*
X116060149Y-45530552D01*
X116060149Y-45530552D02*
X116155387Y-45721028D01*
X116155387Y-45721028D02*
X116250625Y-46101980D01*
X116250625Y-46101980D02*
X116250625Y-46387695D01*
X116250625Y-46387695D02*
X116155387Y-46768647D01*
X116155387Y-46768647D02*
X116060149Y-46959123D01*
X116060149Y-46959123D02*
X115869673Y-47149600D01*
X115869673Y-47149600D02*
X115583958Y-47244838D01*
X115583958Y-47244838D02*
X115107768Y-47244838D01*
X114857768Y-49982933D02*
X116381578Y-49982933D01*
X114857768Y-42482933D02*
X116381578Y-42482933D01*
X115619673Y-43244838D02*
X115619673Y-41721028D01*
X125107768Y-47494838D02*
X125107768Y-45494838D01*
X125107768Y-45494838D02*
X125583958Y-45494838D01*
X125583958Y-45494838D02*
X125869673Y-45590076D01*
X125869673Y-45590076D02*
X126060149Y-45780552D01*
X126060149Y-45780552D02*
X126155387Y-45971028D01*
X126155387Y-45971028D02*
X126250625Y-46351980D01*
X126250625Y-46351980D02*
X126250625Y-46637695D01*
X126250625Y-46637695D02*
X126155387Y-47018647D01*
X126155387Y-47018647D02*
X126060149Y-47209123D01*
X126060149Y-47209123D02*
X125869673Y-47399600D01*
X125869673Y-47399600D02*
X125583958Y-47494838D01*
X125583958Y-47494838D02*
X125107768Y-47494838D01*
X124857768Y-50232933D02*
X126381578Y-50232933D01*
X124857768Y-42732933D02*
X126381578Y-42732933D01*
X125619673Y-43494838D02*
X125619673Y-41971028D01*
X135107768Y-47244838D02*
X135107768Y-45244838D01*
X135107768Y-45244838D02*
X135583958Y-45244838D01*
X135583958Y-45244838D02*
X135869673Y-45340076D01*
X135869673Y-45340076D02*
X136060149Y-45530552D01*
X136060149Y-45530552D02*
X136155387Y-45721028D01*
X136155387Y-45721028D02*
X136250625Y-46101980D01*
X136250625Y-46101980D02*
X136250625Y-46387695D01*
X136250625Y-46387695D02*
X136155387Y-46768647D01*
X136155387Y-46768647D02*
X136060149Y-46959123D01*
X136060149Y-46959123D02*
X135869673Y-47149600D01*
X135869673Y-47149600D02*
X135583958Y-47244838D01*
X135583958Y-47244838D02*
X135107768Y-47244838D01*
X134857768Y-49982933D02*
X136381578Y-49982933D01*
X134857768Y-42482933D02*
X136381578Y-42482933D01*
X135619673Y-43244838D02*
X135619673Y-41721028D01*
X145107768Y-47744838D02*
X145107768Y-45744838D01*
X145107768Y-45744838D02*
X145583958Y-45744838D01*
X145583958Y-45744838D02*
X145869673Y-45840076D01*
X145869673Y-45840076D02*
X146060149Y-46030552D01*
X146060149Y-46030552D02*
X146155387Y-46221028D01*
X146155387Y-46221028D02*
X146250625Y-46601980D01*
X146250625Y-46601980D02*
X146250625Y-46887695D01*
X146250625Y-46887695D02*
X146155387Y-47268647D01*
X146155387Y-47268647D02*
X146060149Y-47459123D01*
X146060149Y-47459123D02*
X145869673Y-47649600D01*
X145869673Y-47649600D02*
X145583958Y-47744838D01*
X145583958Y-47744838D02*
X145107768Y-47744838D01*
X144857768Y-50482933D02*
X146381578Y-50482933D01*
X144857768Y-42982933D02*
X146381578Y-42982933D01*
X145619673Y-43744838D02*
X145619673Y-42221028D01*
X155107768Y-47494838D02*
X155107768Y-45494838D01*
X155107768Y-45494838D02*
X155583958Y-45494838D01*
X155583958Y-45494838D02*
X155869673Y-45590076D01*
X155869673Y-45590076D02*
X156060149Y-45780552D01*
X156060149Y-45780552D02*
X156155387Y-45971028D01*
X156155387Y-45971028D02*
X156250625Y-46351980D01*
X156250625Y-46351980D02*
X156250625Y-46637695D01*
X156250625Y-46637695D02*
X156155387Y-47018647D01*
X156155387Y-47018647D02*
X156060149Y-47209123D01*
X156060149Y-47209123D02*
X155869673Y-47399600D01*
X155869673Y-47399600D02*
X155583958Y-47494838D01*
X155583958Y-47494838D02*
X155107768Y-47494838D01*
X154857768Y-50232933D02*
X156381578Y-50232933D01*
X154857768Y-42732933D02*
X156381578Y-42732933D01*
X155619673Y-43494838D02*
X155619673Y-41971028D01*
X165357768Y-42232933D02*
X166881578Y-42232933D01*
X166119673Y-42994838D02*
X166119673Y-41471028D01*
X165357768Y-49732933D02*
X166881578Y-49732933D01*
X165607768Y-46994838D02*
X165607768Y-44994838D01*
X165607768Y-44994838D02*
X166083958Y-44994838D01*
X166083958Y-44994838D02*
X166369673Y-45090076D01*
X166369673Y-45090076D02*
X166560149Y-45280552D01*
X166560149Y-45280552D02*
X166655387Y-45471028D01*
X166655387Y-45471028D02*
X166750625Y-45851980D01*
X166750625Y-45851980D02*
X166750625Y-46137695D01*
X166750625Y-46137695D02*
X166655387Y-46518647D01*
X166655387Y-46518647D02*
X166560149Y-46709123D01*
X166560149Y-46709123D02*
X166369673Y-46899600D01*
X166369673Y-46899600D02*
X166083958Y-46994838D01*
X166083958Y-46994838D02*
X165607768Y-46994838D01*
D10*
X121196741Y-76872419D02*
X121101503Y-76824800D01*
X121101503Y-76824800D02*
X121053884Y-76777180D01*
X121053884Y-76777180D02*
X121006265Y-76681942D01*
X121006265Y-76681942D02*
X121006265Y-76396228D01*
X121006265Y-76396228D02*
X121053884Y-76300990D01*
X121053884Y-76300990D02*
X121101503Y-76253371D01*
X121101503Y-76253371D02*
X121196741Y-76205752D01*
X121196741Y-76205752D02*
X121339598Y-76205752D01*
X121339598Y-76205752D02*
X121434836Y-76253371D01*
X121434836Y-76253371D02*
X121482455Y-76300990D01*
X121482455Y-76300990D02*
X121530074Y-76396228D01*
X121530074Y-76396228D02*
X121530074Y-76681942D01*
X121530074Y-76681942D02*
X121482455Y-76777180D01*
X121482455Y-76777180D02*
X121434836Y-76824800D01*
X121434836Y-76824800D02*
X121339598Y-76872419D01*
X121339598Y-76872419D02*
X121196741Y-76872419D01*
X113446741Y-109622419D02*
X113351503Y-109574800D01*
X113351503Y-109574800D02*
X113303884Y-109527180D01*
X113303884Y-109527180D02*
X113256265Y-109431942D01*
X113256265Y-109431942D02*
X113256265Y-109146228D01*
X113256265Y-109146228D02*
X113303884Y-109050990D01*
X113303884Y-109050990D02*
X113351503Y-109003371D01*
X113351503Y-109003371D02*
X113446741Y-108955752D01*
X113446741Y-108955752D02*
X113589598Y-108955752D01*
X113589598Y-108955752D02*
X113684836Y-109003371D01*
X113684836Y-109003371D02*
X113732455Y-109050990D01*
X113732455Y-109050990D02*
X113780074Y-109146228D01*
X113780074Y-109146228D02*
X113780074Y-109431942D01*
X113780074Y-109431942D02*
X113732455Y-109527180D01*
X113732455Y-109527180D02*
X113684836Y-109574800D01*
X113684836Y-109574800D02*
X113589598Y-109622419D01*
X113589598Y-109622419D02*
X113446741Y-109622419D01*
D12*
X145978320Y-74248321D02*
X146930701Y-74248321D01*
X145787844Y-74819750D02*
X146454510Y-72819750D01*
X146454510Y-72819750D02*
X147121177Y-74819750D01*
X147787844Y-74819750D02*
X147787844Y-73486416D01*
X147787844Y-73867369D02*
X147883082Y-73676892D01*
X147883082Y-73676892D02*
X147978320Y-73581654D01*
X147978320Y-73581654D02*
X148168796Y-73486416D01*
X148168796Y-73486416D02*
X148359273Y-73486416D01*
X148740225Y-73486416D02*
X149502129Y-73486416D01*
X149025939Y-72819750D02*
X149025939Y-74534035D01*
X149025939Y-74534035D02*
X149121177Y-74724512D01*
X149121177Y-74724512D02*
X149311653Y-74819750D01*
X149311653Y-74819750D02*
X149502129Y-74819750D01*
X150168796Y-73486416D02*
X150168796Y-74819750D01*
X150168796Y-73676892D02*
X150264034Y-73581654D01*
X150264034Y-73581654D02*
X150454510Y-73486416D01*
X150454510Y-73486416D02*
X150740225Y-73486416D01*
X150740225Y-73486416D02*
X150930701Y-73581654D01*
X150930701Y-73581654D02*
X151025939Y-73772131D01*
X151025939Y-73772131D02*
X151025939Y-74819750D01*
X152740225Y-74724512D02*
X152549749Y-74819750D01*
X152549749Y-74819750D02*
X152168796Y-74819750D01*
X152168796Y-74819750D02*
X151978320Y-74724512D01*
X151978320Y-74724512D02*
X151883082Y-74534035D01*
X151883082Y-74534035D02*
X151883082Y-73772131D01*
X151883082Y-73772131D02*
X151978320Y-73581654D01*
X151978320Y-73581654D02*
X152168796Y-73486416D01*
X152168796Y-73486416D02*
X152549749Y-73486416D01*
X152549749Y-73486416D02*
X152740225Y-73581654D01*
X152740225Y-73581654D02*
X152835463Y-73772131D01*
X152835463Y-73772131D02*
X152835463Y-73962607D01*
X152835463Y-73962607D02*
X151883082Y-74153083D01*
X153406892Y-73486416D02*
X154168796Y-73486416D01*
X153692606Y-72819750D02*
X153692606Y-74534035D01*
X153692606Y-74534035D02*
X153787844Y-74724512D01*
X153787844Y-74724512D02*
X153978320Y-74819750D01*
X153978320Y-74819750D02*
X154168796Y-74819750D01*
X157502130Y-74819750D02*
X156835463Y-73867369D01*
X156359273Y-74819750D02*
X156359273Y-72819750D01*
X156359273Y-72819750D02*
X157121178Y-72819750D01*
X157121178Y-72819750D02*
X157311654Y-72914988D01*
X157311654Y-72914988D02*
X157406892Y-73010226D01*
X157406892Y-73010226D02*
X157502130Y-73200702D01*
X157502130Y-73200702D02*
X157502130Y-73486416D01*
X157502130Y-73486416D02*
X157406892Y-73676892D01*
X157406892Y-73676892D02*
X157311654Y-73772131D01*
X157311654Y-73772131D02*
X157121178Y-73867369D01*
X157121178Y-73867369D02*
X156359273Y-73867369D01*
X159121178Y-74724512D02*
X158930702Y-74819750D01*
X158930702Y-74819750D02*
X158549749Y-74819750D01*
X158549749Y-74819750D02*
X158359273Y-74724512D01*
X158359273Y-74724512D02*
X158264035Y-74534035D01*
X158264035Y-74534035D02*
X158264035Y-73772131D01*
X158264035Y-73772131D02*
X158359273Y-73581654D01*
X158359273Y-73581654D02*
X158549749Y-73486416D01*
X158549749Y-73486416D02*
X158930702Y-73486416D01*
X158930702Y-73486416D02*
X159121178Y-73581654D01*
X159121178Y-73581654D02*
X159216416Y-73772131D01*
X159216416Y-73772131D02*
X159216416Y-73962607D01*
X159216416Y-73962607D02*
X158264035Y-74153083D01*
X160930702Y-74724512D02*
X160740226Y-74819750D01*
X160740226Y-74819750D02*
X160359273Y-74819750D01*
X160359273Y-74819750D02*
X160168797Y-74724512D01*
X160168797Y-74724512D02*
X160073559Y-74629273D01*
X160073559Y-74629273D02*
X159978321Y-74438797D01*
X159978321Y-74438797D02*
X159978321Y-73867369D01*
X159978321Y-73867369D02*
X160073559Y-73676892D01*
X160073559Y-73676892D02*
X160168797Y-73581654D01*
X160168797Y-73581654D02*
X160359273Y-73486416D01*
X160359273Y-73486416D02*
X160740226Y-73486416D01*
X160740226Y-73486416D02*
X160930702Y-73581654D01*
X162549750Y-74724512D02*
X162359274Y-74819750D01*
X162359274Y-74819750D02*
X161978321Y-74819750D01*
X161978321Y-74819750D02*
X161787845Y-74724512D01*
X161787845Y-74724512D02*
X161692607Y-74534035D01*
X161692607Y-74534035D02*
X161692607Y-73772131D01*
X161692607Y-73772131D02*
X161787845Y-73581654D01*
X161787845Y-73581654D02*
X161978321Y-73486416D01*
X161978321Y-73486416D02*
X162359274Y-73486416D01*
X162359274Y-73486416D02*
X162549750Y-73581654D01*
X162549750Y-73581654D02*
X162644988Y-73772131D01*
X162644988Y-73772131D02*
X162644988Y-73962607D01*
X162644988Y-73962607D02*
X161692607Y-74153083D01*
X163502131Y-74819750D02*
X163502131Y-73486416D01*
X163502131Y-72819750D02*
X163406893Y-72914988D01*
X163406893Y-72914988D02*
X163502131Y-73010226D01*
X163502131Y-73010226D02*
X163597369Y-72914988D01*
X163597369Y-72914988D02*
X163502131Y-72819750D01*
X163502131Y-72819750D02*
X163502131Y-73010226D01*
X164264036Y-73486416D02*
X164740226Y-74819750D01*
X164740226Y-74819750D02*
X165216417Y-73486416D01*
X166740227Y-74724512D02*
X166549751Y-74819750D01*
X166549751Y-74819750D02*
X166168798Y-74819750D01*
X166168798Y-74819750D02*
X165978322Y-74724512D01*
X165978322Y-74724512D02*
X165883084Y-74534035D01*
X165883084Y-74534035D02*
X165883084Y-73772131D01*
X165883084Y-73772131D02*
X165978322Y-73581654D01*
X165978322Y-73581654D02*
X166168798Y-73486416D01*
X166168798Y-73486416D02*
X166549751Y-73486416D01*
X166549751Y-73486416D02*
X166740227Y-73581654D01*
X166740227Y-73581654D02*
X166835465Y-73772131D01*
X166835465Y-73772131D02*
X166835465Y-73962607D01*
X166835465Y-73962607D02*
X165883084Y-74153083D01*
X167692608Y-74819750D02*
X167692608Y-73486416D01*
X167692608Y-73867369D02*
X167787846Y-73676892D01*
X167787846Y-73676892D02*
X167883084Y-73581654D01*
X167883084Y-73581654D02*
X168073560Y-73486416D01*
X168073560Y-73486416D02*
X168264037Y-73486416D01*
X146359272Y-76896780D02*
X146168796Y-76801542D01*
X146168796Y-76801542D02*
X146073558Y-76706304D01*
X146073558Y-76706304D02*
X145978320Y-76515828D01*
X145978320Y-76515828D02*
X145978320Y-76420590D01*
X145978320Y-76420590D02*
X146073558Y-76230114D01*
X146073558Y-76230114D02*
X146168796Y-76134876D01*
X146168796Y-76134876D02*
X146359272Y-76039638D01*
X146359272Y-76039638D02*
X146740225Y-76039638D01*
X146740225Y-76039638D02*
X146930701Y-76134876D01*
X146930701Y-76134876D02*
X147025939Y-76230114D01*
X147025939Y-76230114D02*
X147121177Y-76420590D01*
X147121177Y-76420590D02*
X147121177Y-76515828D01*
X147121177Y-76515828D02*
X147025939Y-76706304D01*
X147025939Y-76706304D02*
X146930701Y-76801542D01*
X146930701Y-76801542D02*
X146740225Y-76896780D01*
X146740225Y-76896780D02*
X146359272Y-76896780D01*
X146359272Y-76896780D02*
X146168796Y-76992019D01*
X146168796Y-76992019D02*
X146073558Y-77087257D01*
X146073558Y-77087257D02*
X145978320Y-77277733D01*
X145978320Y-77277733D02*
X145978320Y-77658685D01*
X145978320Y-77658685D02*
X146073558Y-77849161D01*
X146073558Y-77849161D02*
X146168796Y-77944400D01*
X146168796Y-77944400D02*
X146359272Y-78039638D01*
X146359272Y-78039638D02*
X146740225Y-78039638D01*
X146740225Y-78039638D02*
X146930701Y-77944400D01*
X146930701Y-77944400D02*
X147025939Y-77849161D01*
X147025939Y-77849161D02*
X147121177Y-77658685D01*
X147121177Y-77658685D02*
X147121177Y-77277733D01*
X147121177Y-77277733D02*
X147025939Y-77087257D01*
X147025939Y-77087257D02*
X146930701Y-76992019D01*
X146930701Y-76992019D02*
X146740225Y-76896780D01*
X149406891Y-75944400D02*
X147692606Y-78515828D01*
X149978320Y-76230114D02*
X150073558Y-76134876D01*
X150073558Y-76134876D02*
X150264034Y-76039638D01*
X150264034Y-76039638D02*
X150740225Y-76039638D01*
X150740225Y-76039638D02*
X150930701Y-76134876D01*
X150930701Y-76134876D02*
X151025939Y-76230114D01*
X151025939Y-76230114D02*
X151121177Y-76420590D01*
X151121177Y-76420590D02*
X151121177Y-76611066D01*
X151121177Y-76611066D02*
X151025939Y-76896780D01*
X151025939Y-76896780D02*
X149883082Y-78039638D01*
X149883082Y-78039638D02*
X151121177Y-78039638D01*
X152835463Y-76706304D02*
X152835463Y-78039638D01*
X152359272Y-75944400D02*
X151883082Y-77372971D01*
X151883082Y-77372971D02*
X153121177Y-77372971D01*
X155121178Y-76039638D02*
X155787844Y-78039638D01*
X155787844Y-78039638D02*
X156454511Y-76039638D01*
X157502130Y-76039638D02*
X157692607Y-76039638D01*
X157692607Y-76039638D02*
X157883083Y-76134876D01*
X157883083Y-76134876D02*
X157978321Y-76230114D01*
X157978321Y-76230114D02*
X158073559Y-76420590D01*
X158073559Y-76420590D02*
X158168797Y-76801542D01*
X158168797Y-76801542D02*
X158168797Y-77277733D01*
X158168797Y-77277733D02*
X158073559Y-77658685D01*
X158073559Y-77658685D02*
X157978321Y-77849161D01*
X157978321Y-77849161D02*
X157883083Y-77944400D01*
X157883083Y-77944400D02*
X157692607Y-78039638D01*
X157692607Y-78039638D02*
X157502130Y-78039638D01*
X157502130Y-78039638D02*
X157311654Y-77944400D01*
X157311654Y-77944400D02*
X157216416Y-77849161D01*
X157216416Y-77849161D02*
X157121178Y-77658685D01*
X157121178Y-77658685D02*
X157025940Y-77277733D01*
X157025940Y-77277733D02*
X157025940Y-76801542D01*
X157025940Y-76801542D02*
X157121178Y-76420590D01*
X157121178Y-76420590D02*
X157216416Y-76230114D01*
X157216416Y-76230114D02*
X157311654Y-76134876D01*
X157311654Y-76134876D02*
X157502130Y-76039638D01*
X159025940Y-77849161D02*
X159121178Y-77944400D01*
X159121178Y-77944400D02*
X159025940Y-78039638D01*
X159025940Y-78039638D02*
X158930702Y-77944400D01*
X158930702Y-77944400D02*
X159025940Y-77849161D01*
X159025940Y-77849161D02*
X159025940Y-78039638D01*
X159883083Y-76230114D02*
X159978321Y-76134876D01*
X159978321Y-76134876D02*
X160168797Y-76039638D01*
X160168797Y-76039638D02*
X160644988Y-76039638D01*
X160644988Y-76039638D02*
X160835464Y-76134876D01*
X160835464Y-76134876D02*
X160930702Y-76230114D01*
X160930702Y-76230114D02*
X161025940Y-76420590D01*
X161025940Y-76420590D02*
X161025940Y-76611066D01*
X161025940Y-76611066D02*
X160930702Y-76896780D01*
X160930702Y-76896780D02*
X159787845Y-78039638D01*
X159787845Y-78039638D02*
X161025940Y-78039638D01*
D13*
X90114700Y-74571428D02*
X90114700Y-73428571D01*
X90114700Y-61571428D02*
X90114700Y-60428571D01*
X90686128Y-60999999D02*
X89543271Y-60999999D01*
D14*
%TO.C,R6*%
X129090000Y-63227064D02*
X129090000Y-61772936D01*
X130910000Y-63227064D02*
X130910000Y-61772936D01*
%TO.C,R1*%
X114090000Y-63227064D02*
X114090000Y-61772936D01*
X115910000Y-63227064D02*
X115910000Y-61772936D01*
D11*
%TO.C,J5*%
X156925000Y-39600000D02*
X156925000Y-52400000D01*
X156925000Y-52400000D02*
X160000000Y-52400000D01*
X164325000Y-39600000D02*
X156925000Y-39600000D01*
X164325000Y-50000000D02*
X164325000Y-39600000D01*
%TO.C,J18*%
X125675000Y-140000000D02*
X125675000Y-150400000D01*
X125675000Y-150400000D02*
X133075000Y-150400000D01*
X133075000Y-137600000D02*
X130000000Y-137600000D01*
X133075000Y-150400000D02*
X133075000Y-137600000D01*
D14*
%TO.C,C2*%
X116711252Y-112890000D02*
X115288748Y-112890000D01*
X116711252Y-114710000D02*
X115288748Y-114710000D01*
%TO.C,C1*%
X119090000Y-72311252D02*
X119090000Y-70888748D01*
X120910000Y-72311252D02*
X120910000Y-70888748D01*
D11*
%TO.C,J19*%
X135675000Y-140000000D02*
X135675000Y-150400000D01*
X135675000Y-150400000D02*
X143075000Y-150400000D01*
X143075000Y-137600000D02*
X140000000Y-137600000D01*
X143075000Y-150400000D02*
X143075000Y-137600000D01*
D15*
%TO.C,G\u002A\u002A\u002A*%
G36*
X151994484Y-61554663D02*
G01*
X152087435Y-61585291D01*
X152183314Y-61641024D01*
X152241760Y-61687940D01*
X152294656Y-61730739D01*
X152341272Y-61751415D01*
X152400726Y-61757544D01*
X152417845Y-61757692D01*
X152480157Y-61760606D01*
X152518619Y-61773473D01*
X152548280Y-61802480D01*
X152557654Y-61815174D01*
X152602264Y-61888577D01*
X152638178Y-61974367D01*
X152668527Y-62081581D01*
X152695137Y-62211961D01*
X152729402Y-62402461D01*
X152599970Y-62405396D01*
X152533149Y-62407179D01*
X152502716Y-62409350D01*
X152505988Y-62412982D01*
X152540282Y-62419147D01*
X152558461Y-62422000D01*
X152605378Y-62430487D01*
X152626542Y-62436817D01*
X152624240Y-62438604D01*
X152601496Y-62457551D01*
X152592444Y-62478447D01*
X152593293Y-62498993D01*
X152610807Y-62514487D01*
X152649168Y-62525574D01*
X152712557Y-62532903D01*
X152805156Y-62537118D01*
X152931147Y-62538866D01*
X152984201Y-62539015D01*
X153094795Y-62538328D01*
X153174718Y-62535392D01*
X153232358Y-62529216D01*
X153276101Y-62518809D01*
X153314332Y-62503180D01*
X153322724Y-62498999D01*
X153383383Y-62475237D01*
X153439639Y-62464501D01*
X153453830Y-62464807D01*
X153489357Y-62474261D01*
X153503762Y-62499757D01*
X153506077Y-62539230D01*
X153506077Y-62607615D01*
X153154384Y-62619025D01*
X153038171Y-62623545D01*
X152933098Y-62629035D01*
X152846396Y-62635006D01*
X152785299Y-62640969D01*
X152758730Y-62645727D01*
X152740140Y-62654092D01*
X152727696Y-62668475D01*
X152720169Y-62695840D01*
X152716327Y-62743151D01*
X152714939Y-62817374D01*
X152714769Y-62894486D01*
X152713129Y-62989391D01*
X152708670Y-63072565D01*
X152702085Y-63134720D01*
X152694543Y-63165746D01*
X152681422Y-63182884D01*
X152659024Y-63193936D01*
X152619704Y-63200199D01*
X152555817Y-63202966D01*
X152471449Y-63203538D01*
X152383536Y-63204640D01*
X152308288Y-63207612D01*
X152255558Y-63211952D01*
X152237592Y-63215429D01*
X152216421Y-63239596D01*
X152190904Y-63292389D01*
X152165572Y-63364378D01*
X152164827Y-63366852D01*
X152111133Y-63514956D01*
X152044453Y-63634112D01*
X151957897Y-63732549D01*
X151844575Y-63818494D01*
X151733448Y-63882009D01*
X151591307Y-63955769D01*
X150809146Y-63961659D01*
X150638107Y-63962680D01*
X150479441Y-63963115D01*
X150337361Y-63962990D01*
X150216077Y-63962332D01*
X150119802Y-63961167D01*
X150052745Y-63959523D01*
X150019119Y-63957426D01*
X150016050Y-63956614D01*
X149992869Y-63949439D01*
X149940588Y-63939812D01*
X149868962Y-63929442D01*
X149840827Y-63925917D01*
X149757751Y-63915412D01*
X149683746Y-63905152D01*
X149631993Y-63896988D01*
X149623876Y-63895451D01*
X149571213Y-63884749D01*
X149565260Y-63634702D01*
X149559307Y-63384655D01*
X149762616Y-63372251D01*
X149862974Y-63366826D01*
X149962855Y-63362605D01*
X150046937Y-63360189D01*
X150078963Y-63359846D01*
X150141329Y-63357512D01*
X150185865Y-63351473D01*
X150200479Y-63345192D01*
X150202471Y-63308223D01*
X150177524Y-63270569D01*
X150135304Y-63245216D01*
X150123981Y-63242457D01*
X150067307Y-63232529D01*
X150061783Y-63012880D01*
X150056258Y-62793230D01*
X150474533Y-62793230D01*
X150602265Y-62792682D01*
X150720013Y-62791151D01*
X150820994Y-62788805D01*
X150898428Y-62785815D01*
X150945534Y-62782351D01*
X150952553Y-62781281D01*
X150992819Y-62769360D01*
X151002479Y-62749578D01*
X150995319Y-62724675D01*
X150986538Y-62686177D01*
X150990119Y-62668239D01*
X150981090Y-62660628D01*
X150943885Y-62656636D01*
X150932085Y-62656461D01*
X150886263Y-62653489D01*
X150870057Y-62640441D01*
X150872660Y-62616742D01*
X150869073Y-62570762D01*
X150854048Y-62543473D01*
X150827214Y-62501335D01*
X150813352Y-62458381D01*
X150815369Y-62427508D01*
X150826252Y-62420052D01*
X150845090Y-62415519D01*
X150831988Y-62409014D01*
X150793965Y-62401568D01*
X150738041Y-62394214D01*
X150671238Y-62387983D01*
X150600575Y-62383907D01*
X150575307Y-62383162D01*
X150467830Y-62378409D01*
X150348775Y-62369298D01*
X150242279Y-62357711D01*
X150233384Y-62356507D01*
X150067307Y-62333509D01*
X150055579Y-62050485D01*
X150048351Y-61911897D01*
X150038627Y-61807734D01*
X150024785Y-61733357D01*
X150005207Y-61684123D01*
X149978269Y-61655391D01*
X149942353Y-61642521D01*
X149912395Y-61640461D01*
X149873710Y-61632130D01*
X149862184Y-61602099D01*
X149862154Y-61599497D01*
X149862154Y-61558534D01*
X150853730Y-61562413D01*
X151049213Y-61562914D01*
X151234596Y-61562882D01*
X151405864Y-61562352D01*
X151558999Y-61561361D01*
X151689984Y-61559945D01*
X151794803Y-61558140D01*
X151869438Y-61555980D01*
X151909871Y-61553503D01*
X151913692Y-61552936D01*
X151994484Y-61554663D01*
G37*
G36*
X155801846Y-64200000D02*
G01*
X155801846Y-69201846D01*
X150800000Y-69201846D01*
X145798154Y-69201846D01*
X145798154Y-66240692D01*
X147882368Y-66240692D01*
X147902070Y-66249502D01*
X147908307Y-66251538D01*
X147935432Y-66263265D01*
X147931577Y-66269129D01*
X147914915Y-66281158D01*
X147917242Y-66289265D01*
X147913893Y-66313992D01*
X147903741Y-66323457D01*
X147904405Y-66334356D01*
X147942388Y-66342985D01*
X148015993Y-66349264D01*
X148123523Y-66353111D01*
X148263281Y-66354447D01*
X148433571Y-66353190D01*
X148503809Y-66352055D01*
X148655269Y-66348244D01*
X148767794Y-66343054D01*
X148841502Y-66336475D01*
X148876510Y-66328499D01*
X148879659Y-66324395D01*
X148893443Y-66307258D01*
X148932334Y-66291844D01*
X148982401Y-66281609D01*
X149029714Y-66280006D01*
X149046423Y-66283031D01*
X149063594Y-66293763D01*
X149073953Y-66318660D01*
X149079091Y-66365701D01*
X149080602Y-66442861D01*
X149080615Y-66454274D01*
X149083170Y-66551128D01*
X149093693Y-66615838D01*
X149116467Y-66655163D01*
X149155778Y-66675861D01*
X149215911Y-66684692D01*
X149227154Y-66685420D01*
X149284934Y-66690008D01*
X149313768Y-66699988D01*
X149323718Y-66722995D01*
X149324846Y-66759538D01*
X149322623Y-66800246D01*
X149309393Y-66823116D01*
X149275316Y-66837007D01*
X149227154Y-66847461D01*
X149165815Y-66861775D01*
X149118925Y-66876364D01*
X149105038Y-66882807D01*
X149097659Y-66897002D01*
X149091798Y-66931179D01*
X149087324Y-66988607D01*
X149084103Y-67072560D01*
X149082001Y-67186309D01*
X149080886Y-67333127D01*
X149080615Y-67483242D01*
X149080615Y-68067871D01*
X149036654Y-68077251D01*
X148982222Y-68088832D01*
X148953615Y-68094896D01*
X148930536Y-68101215D01*
X148944228Y-68104444D01*
X148960892Y-68105425D01*
X148992358Y-68110827D01*
X148990263Y-68127449D01*
X148982531Y-68137472D01*
X148968324Y-68167881D01*
X148971905Y-68181433D01*
X149001487Y-68191210D01*
X149067581Y-68199388D01*
X149167652Y-68205887D01*
X149299166Y-68210624D01*
X149459588Y-68213518D01*
X149646382Y-68214488D01*
X149857013Y-68213453D01*
X149940307Y-68212547D01*
X150087535Y-68210215D01*
X150225029Y-68207077D01*
X150347054Y-68203338D01*
X150447879Y-68199205D01*
X150521769Y-68194884D01*
X150562992Y-68190580D01*
X150565431Y-68190084D01*
X150607536Y-68176043D01*
X150612812Y-68162090D01*
X150609392Y-68159491D01*
X150586761Y-68133622D01*
X150594537Y-68112453D01*
X150614384Y-68107692D01*
X150640403Y-68098353D01*
X150643692Y-68090432D01*
X150626259Y-68072292D01*
X150582374Y-68057399D01*
X150524653Y-68049684D01*
X150511807Y-68049343D01*
X150477244Y-68039926D01*
X150467217Y-68024654D01*
X150466702Y-67981722D01*
X150466506Y-67910423D01*
X150466591Y-67817055D01*
X150466917Y-67707914D01*
X150467446Y-67589299D01*
X150468139Y-67467507D01*
X150468959Y-67348835D01*
X150469866Y-67239581D01*
X150470822Y-67146042D01*
X150471789Y-67074516D01*
X150472727Y-67031299D01*
X150473355Y-67021254D01*
X150493431Y-67018653D01*
X150542982Y-67015342D01*
X150612429Y-67011932D01*
X150633923Y-67011050D01*
X150735760Y-67002972D01*
X150800916Y-66988320D01*
X150828666Y-66967325D01*
X150825907Y-66949719D01*
X150804339Y-66943647D01*
X150797343Y-66946796D01*
X150784076Y-66941860D01*
X150784039Y-66922691D01*
X150775270Y-66890690D01*
X150749166Y-66880674D01*
X150718945Y-66866742D01*
X150716498Y-66830925D01*
X150716813Y-66829234D01*
X150715621Y-66788891D01*
X150704147Y-66770444D01*
X150688071Y-66742839D01*
X150682470Y-66704654D01*
X150674996Y-66648884D01*
X150647907Y-66611883D01*
X150593036Y-66584762D01*
X150563660Y-66575334D01*
X150511311Y-66557948D01*
X150486167Y-66537957D01*
X150478251Y-66501896D01*
X150477615Y-66459245D01*
X150472567Y-66396404D01*
X150457702Y-66369633D01*
X150453192Y-66368737D01*
X150434848Y-66352076D01*
X150428769Y-66319923D01*
X150415146Y-66268391D01*
X150392067Y-66234374D01*
X150377048Y-66222387D01*
X150355592Y-66213117D01*
X150322585Y-66206089D01*
X150272914Y-66200824D01*
X150201464Y-66196847D01*
X150103121Y-66193682D01*
X149972771Y-66190850D01*
X149913415Y-66189756D01*
X149760900Y-66186846D01*
X149642923Y-66183258D01*
X149554956Y-66177502D01*
X149492469Y-66168085D01*
X149450931Y-66153516D01*
X149425814Y-66132304D01*
X149412588Y-66102957D01*
X149406724Y-66063984D01*
X149404138Y-66022067D01*
X149398874Y-65924358D01*
X149659197Y-65910563D01*
X149757021Y-65906328D01*
X149841161Y-65904468D01*
X149903728Y-65905026D01*
X149936838Y-65908047D01*
X149939306Y-65908996D01*
X149965146Y-65912860D01*
X150020625Y-65914246D01*
X150098018Y-65913505D01*
X150189598Y-65910987D01*
X150287641Y-65907043D01*
X150384420Y-65902024D01*
X150472210Y-65896280D01*
X150543287Y-65890163D01*
X150589923Y-65884022D01*
X150604615Y-65878799D01*
X150588481Y-65862368D01*
X150570423Y-65856071D01*
X150573591Y-65851522D01*
X150609282Y-65845251D01*
X150671034Y-65838201D01*
X150726306Y-65833308D01*
X150916381Y-65818109D01*
X150886996Y-65761285D01*
X150848843Y-65715237D01*
X150811192Y-65704461D01*
X150789991Y-65702941D01*
X150776451Y-65693589D01*
X150768812Y-65669222D01*
X150765315Y-65622653D01*
X150764201Y-65546699D01*
X150764048Y-65511972D01*
X150763323Y-65319483D01*
X150970316Y-65306818D01*
X151076326Y-65301237D01*
X151186616Y-65296911D01*
X151283765Y-65294470D01*
X151320808Y-65294154D01*
X151399820Y-65292075D01*
X151444547Y-65285297D01*
X151459590Y-65273012D01*
X151459423Y-65269730D01*
X151466143Y-65263833D01*
X151490567Y-65258634D01*
X151535321Y-65254034D01*
X151603030Y-65249930D01*
X151696319Y-65246220D01*
X151817814Y-65242803D01*
X151970142Y-65239577D01*
X152155927Y-65236441D01*
X152377795Y-65233293D01*
X152411923Y-65232845D01*
X152664917Y-65229225D01*
X152882930Y-65225287D01*
X153070058Y-65220800D01*
X153230395Y-65215531D01*
X153368039Y-65209248D01*
X153487084Y-65201718D01*
X153591626Y-65192709D01*
X153685761Y-65181990D01*
X153773584Y-65169327D01*
X153859192Y-65154488D01*
X153887077Y-65149186D01*
X154047377Y-65112567D01*
X154206739Y-65066000D01*
X154357169Y-65012529D01*
X154490675Y-64955197D01*
X154599265Y-64897048D01*
X154658846Y-64855310D01*
X154717461Y-64807097D01*
X154585577Y-64806395D01*
X154519515Y-64803985D01*
X154472201Y-64798334D01*
X154453699Y-64790653D01*
X154453692Y-64790496D01*
X154467000Y-64767701D01*
X154492769Y-64741841D01*
X154523485Y-64709846D01*
X154527115Y-64681166D01*
X154502688Y-64643897D01*
X154483000Y-64621923D01*
X154446513Y-64572654D01*
X154435356Y-64534513D01*
X154450775Y-64514241D01*
X154462774Y-64512615D01*
X154493425Y-64496835D01*
X154517890Y-64461497D01*
X154525330Y-64424600D01*
X154521827Y-64414519D01*
X154517965Y-64388554D01*
X154528921Y-64367315D01*
X154545403Y-64366032D01*
X154548942Y-64370079D01*
X154573694Y-64375513D01*
X154610000Y-64362683D01*
X154636464Y-64347546D01*
X154636199Y-64340027D01*
X154604525Y-64337411D01*
X154565807Y-64337057D01*
X154472769Y-64336769D01*
X154485266Y-64258615D01*
X154491439Y-64209462D01*
X154491745Y-64181157D01*
X154490381Y-64178626D01*
X154468940Y-64176204D01*
X154417730Y-64171261D01*
X154345916Y-64164669D01*
X154307154Y-64161204D01*
X154205425Y-64150648D01*
X154097429Y-64137006D01*
X154004055Y-64122954D01*
X153991401Y-64120763D01*
X153851495Y-64095908D01*
X153861998Y-64031183D01*
X153865022Y-63984874D01*
X153848456Y-63960004D01*
X153818559Y-63945949D01*
X153771416Y-63932060D01*
X153701471Y-63916001D01*
X153630462Y-63902435D01*
X153554674Y-63887427D01*
X153512691Y-63869944D01*
X153499531Y-63842759D01*
X153510210Y-63798644D01*
X153528733Y-63754872D01*
X153546006Y-63713641D01*
X153557919Y-63675267D01*
X153566880Y-63628246D01*
X153575295Y-63561068D01*
X153581417Y-63503053D01*
X153589310Y-63447540D01*
X153598792Y-63408601D01*
X153601550Y-63402513D01*
X153624256Y-63394984D01*
X153678841Y-63387057D01*
X153758123Y-63379491D01*
X153854923Y-63373046D01*
X153901625Y-63370743D01*
X154039966Y-63364024D01*
X154142575Y-63357442D01*
X154212793Y-63350543D01*
X154253961Y-63342876D01*
X154269420Y-63333987D01*
X154262509Y-63323424D01*
X154260504Y-63322127D01*
X154238942Y-63301242D01*
X154237100Y-63294161D01*
X154234996Y-63259268D01*
X154209420Y-63240603D01*
X154182299Y-63233317D01*
X154125829Y-63220914D01*
X154122905Y-63007072D01*
X154119981Y-62793230D01*
X154538394Y-62793230D01*
X154666147Y-62792682D01*
X154783914Y-62791151D01*
X154884917Y-62788807D01*
X154962375Y-62785818D01*
X155009508Y-62782354D01*
X155016553Y-62781281D01*
X155056819Y-62769360D01*
X155066479Y-62749578D01*
X155059319Y-62724675D01*
X155050538Y-62686177D01*
X155054119Y-62668239D01*
X155044428Y-62661057D01*
X155006146Y-62656886D01*
X154985100Y-62656461D01*
X154933266Y-62653165D01*
X154913624Y-62641595D01*
X154914828Y-62629033D01*
X154915291Y-62594926D01*
X154904123Y-62541123D01*
X154896624Y-62516687D01*
X154881155Y-62456331D01*
X154883831Y-62423071D01*
X154887061Y-62419873D01*
X154887296Y-62408438D01*
X154853931Y-62398074D01*
X154792445Y-62389575D01*
X154708313Y-62383736D01*
X154622211Y-62381450D01*
X154520560Y-62377625D01*
X154404962Y-62368987D01*
X154299976Y-62357383D01*
X154297384Y-62357027D01*
X154131307Y-62334077D01*
X154118332Y-62207077D01*
X154105203Y-62098098D01*
X154089664Y-61999859D01*
X154073153Y-61919333D01*
X154057110Y-61863495D01*
X154042971Y-61839320D01*
X154042444Y-61839102D01*
X154025849Y-61816675D01*
X154023153Y-61800025D01*
X154003224Y-61731712D01*
X153948033Y-61676960D01*
X153875308Y-61642895D01*
X153816681Y-61620130D01*
X153786362Y-61596739D01*
X153774360Y-61564339D01*
X153773433Y-61557423D01*
X153772005Y-61525648D01*
X153783557Y-61509779D01*
X153817497Y-61504300D01*
X153865087Y-61503692D01*
X153930322Y-61499547D01*
X153967344Y-61488801D01*
X153972807Y-61473990D01*
X153943364Y-61457649D01*
X153930903Y-61453828D01*
X153899290Y-61443920D01*
X153897913Y-61436891D01*
X153930130Y-61428604D01*
X153955461Y-61423563D01*
X154013857Y-61415884D01*
X154094775Y-61409943D01*
X154181664Y-61406922D01*
X154189923Y-61406826D01*
X154267424Y-61403881D01*
X154331807Y-61397362D01*
X154371367Y-61388554D01*
X154375538Y-61386461D01*
X154390129Y-61372466D01*
X154370391Y-61367507D01*
X154357628Y-61367222D01*
X154326814Y-61362620D01*
X154323478Y-61353854D01*
X154322321Y-61332097D01*
X154300732Y-61301869D01*
X154270586Y-61276683D01*
X154249129Y-61269230D01*
X154226238Y-61253366D01*
X154199177Y-61214327D01*
X154194663Y-61205730D01*
X154161008Y-61148217D01*
X154117953Y-61086200D01*
X154108375Y-61073846D01*
X154059023Y-61016433D01*
X153995486Y-60948835D01*
X153925372Y-60878439D01*
X153856287Y-60812626D01*
X153795841Y-60758782D01*
X153751639Y-60724290D01*
X153742502Y-60718723D01*
X153698106Y-60693573D01*
X153637552Y-60657523D01*
X153600039Y-60634535D01*
X153555673Y-60608832D01*
X153514395Y-60591383D01*
X153466295Y-60580050D01*
X153401462Y-60572697D01*
X153309984Y-60567186D01*
X153281384Y-60565826D01*
X153176580Y-60559788D01*
X153098760Y-60551399D01*
X153035835Y-60538269D01*
X152975711Y-60518006D01*
X152919923Y-60494348D01*
X152733990Y-60421289D01*
X152538478Y-60362137D01*
X152350026Y-60321662D01*
X152285435Y-60312378D01*
X152235048Y-60308746D01*
X152147484Y-60305422D01*
X152024645Y-60302425D01*
X151868430Y-60299776D01*
X151680740Y-60297495D01*
X151463474Y-60295602D01*
X151218533Y-60294117D01*
X150947816Y-60293062D01*
X150653224Y-60292456D01*
X150406264Y-60292307D01*
X148692658Y-60292307D01*
X148681614Y-60394884D01*
X148675493Y-60500132D01*
X148681020Y-60584833D01*
X148697617Y-60640675D01*
X148698903Y-60642848D01*
X148720169Y-60655321D01*
X148767895Y-60661597D01*
X148847130Y-60662142D01*
X148892543Y-60660716D01*
X149070846Y-60653769D01*
X149070846Y-60937077D01*
X149070846Y-61220384D01*
X148908544Y-61232446D01*
X148824102Y-61240301D01*
X148767808Y-61250823D01*
X148728737Y-61267223D01*
X148695963Y-61292715D01*
X148692552Y-61295946D01*
X148624971Y-61338911D01*
X148577118Y-61347384D01*
X148528769Y-61355793D01*
X148497348Y-61384421D01*
X148480645Y-61438368D01*
X148476448Y-61522736D01*
X148478226Y-61575527D01*
X148485462Y-61661480D01*
X148499740Y-61715509D01*
X148525710Y-61744697D01*
X148568020Y-61756122D01*
X148597651Y-61757393D01*
X148640042Y-61765427D01*
X148660223Y-61782115D01*
X148663455Y-61809373D01*
X148666894Y-61868255D01*
X148670217Y-61951313D01*
X148673098Y-62051098D01*
X148674264Y-62104512D01*
X148680077Y-62402487D01*
X148562846Y-62405409D01*
X148445615Y-62408330D01*
X148533538Y-62422000D01*
X148577899Y-62430385D01*
X148594046Y-62436696D01*
X148587882Y-62438604D01*
X148563879Y-62452911D01*
X148565549Y-62470846D01*
X148562650Y-62497057D01*
X148550282Y-62502101D01*
X148546022Y-62508163D01*
X148572615Y-62519692D01*
X148612015Y-62525933D01*
X148680703Y-62530617D01*
X148770159Y-62533745D01*
X148871863Y-62535317D01*
X148977294Y-62535333D01*
X149077933Y-62533793D01*
X149165258Y-62530696D01*
X149230751Y-62526043D01*
X149265891Y-62519834D01*
X149266230Y-62519692D01*
X149289171Y-62505816D01*
X149285769Y-62500153D01*
X149278199Y-62493618D01*
X149298416Y-62483268D01*
X149335790Y-62472444D01*
X149379691Y-62464486D01*
X149405766Y-62462450D01*
X149451552Y-62467762D01*
X149473945Y-62492841D01*
X149479877Y-62511792D01*
X149486273Y-62548950D01*
X149480939Y-62576262D01*
X149459149Y-62595219D01*
X149416176Y-62607316D01*
X149347294Y-62614043D01*
X149247779Y-62616893D01*
X149145490Y-62617384D01*
X149033564Y-62618723D01*
X148928877Y-62622406D01*
X148840722Y-62627934D01*
X148778395Y-62634807D01*
X148761998Y-62638013D01*
X148680077Y-62658642D01*
X148673493Y-62916166D01*
X148670380Y-63013000D01*
X148666525Y-63095561D01*
X148662379Y-63156080D01*
X148658393Y-63186784D01*
X148657686Y-63188614D01*
X148635454Y-63194907D01*
X148582946Y-63199889D01*
X148508958Y-63202919D01*
X148452947Y-63203538D01*
X148365586Y-63205497D01*
X148289941Y-63210766D01*
X148236547Y-63218430D01*
X148219638Y-63223764D01*
X148206278Y-63233305D01*
X148196491Y-63249215D01*
X148189726Y-63277036D01*
X148185430Y-63322312D01*
X148183053Y-63390585D01*
X148182042Y-63487398D01*
X148181846Y-63603611D01*
X148180800Y-63734946D01*
X148177802Y-63841671D01*
X148173063Y-63919783D01*
X148166793Y-63965280D01*
X148162307Y-63975307D01*
X148147183Y-64002240D01*
X148142769Y-64035076D01*
X148144899Y-64059918D01*
X148156938Y-64074179D01*
X148187360Y-64080789D01*
X148244639Y-64082678D01*
X148280691Y-64082769D01*
X148346567Y-64080593D01*
X148392112Y-64074856D01*
X148408464Y-64066744D01*
X148408079Y-64065724D01*
X148418014Y-64052463D01*
X148457414Y-64039880D01*
X148516690Y-64029970D01*
X148586251Y-64024729D01*
X148606807Y-64024369D01*
X148654058Y-64030686D01*
X148671946Y-64052803D01*
X148672631Y-64058346D01*
X148676719Y-64128141D01*
X148674801Y-64168268D01*
X148663499Y-64188046D01*
X148639431Y-64196797D01*
X148621253Y-64200000D01*
X148578447Y-64213927D01*
X148563401Y-64243051D01*
X148562637Y-64258615D01*
X148562846Y-64307461D01*
X148892492Y-64312829D01*
X149016747Y-64314336D01*
X149107489Y-64313953D01*
X149170254Y-64311298D01*
X149210578Y-64305991D01*
X149233996Y-64297652D01*
X149244185Y-64288669D01*
X149281011Y-64262989D01*
X149334729Y-64247448D01*
X149385945Y-64246229D01*
X149406686Y-64253613D01*
X149418199Y-64280074D01*
X149426788Y-64335302D01*
X149432278Y-64409083D01*
X149434492Y-64491204D01*
X149433254Y-64571452D01*
X149428387Y-64639612D01*
X149419714Y-64685471D01*
X149414332Y-64696347D01*
X149401437Y-64723610D01*
X149413906Y-64738010D01*
X149424606Y-64755266D01*
X149409970Y-64768758D01*
X149413929Y-64777094D01*
X149452649Y-64782924D01*
X149521862Y-64785702D01*
X149543025Y-64785854D01*
X149628746Y-64783432D01*
X149686022Y-64776236D01*
X149709659Y-64764925D01*
X149709743Y-64764693D01*
X149733447Y-64746996D01*
X149781163Y-64735309D01*
X149838136Y-64730706D01*
X149889615Y-64734263D01*
X149920846Y-64747054D01*
X149922490Y-64749192D01*
X149930734Y-64781569D01*
X149936454Y-64840766D01*
X149939447Y-64914596D01*
X149939511Y-64990870D01*
X149936443Y-65057402D01*
X149930039Y-65102002D01*
X149928448Y-65106940D01*
X149917560Y-65120194D01*
X149892692Y-65129131D01*
X149847495Y-65134532D01*
X149775621Y-65137177D01*
X149676840Y-65137846D01*
X149561089Y-65139444D01*
X149481120Y-65144438D01*
X149433762Y-65153127D01*
X149417719Y-65162269D01*
X149408856Y-65190679D01*
X149399507Y-65249249D01*
X149390854Y-65329095D01*
X149384718Y-65410470D01*
X149378511Y-65500609D01*
X149371958Y-65576251D01*
X149365877Y-65628952D01*
X149361469Y-65649816D01*
X149337949Y-65658848D01*
X149288789Y-65664465D01*
X149255780Y-65665384D01*
X149156061Y-65678675D01*
X149095741Y-65704388D01*
X149071949Y-65717230D01*
X149044635Y-65726920D01*
X149008227Y-65733901D01*
X148957153Y-65738618D01*
X148885840Y-65741513D01*
X148788717Y-65743030D01*
X148660210Y-65743612D01*
X148601923Y-65743680D01*
X148429173Y-65744446D01*
X148292171Y-65746665D01*
X148187606Y-65750604D01*
X148112168Y-65756532D01*
X148062545Y-65764716D01*
X148035426Y-65775423D01*
X148027501Y-65788921D01*
X148027593Y-65790098D01*
X148028445Y-65817678D01*
X148028737Y-65875211D01*
X148028458Y-65953577D01*
X148027853Y-66021961D01*
X148025538Y-66232000D01*
X147942500Y-66233947D01*
X147894666Y-66236113D01*
X147882368Y-66240692D01*
X145798154Y-66240692D01*
X145798154Y-64200000D01*
X145798154Y-59198154D01*
X150800000Y-59198154D01*
X155801846Y-59198154D01*
X155801846Y-64200000D01*
G37*
D14*
%TO.C,J4*%
X131440000Y-91940000D02*
X132500000Y-91940000D01*
X131440000Y-93000000D02*
X131440000Y-91940000D01*
X131440000Y-94000000D02*
X131440000Y-98060000D01*
X131440000Y-94000000D02*
X133560000Y-94000000D01*
X131440000Y-98060000D02*
X133560000Y-98060000D01*
X133560000Y-94000000D02*
X133560000Y-98060000D01*
%TO.C,JP1*%
X124695000Y-115130000D02*
X124695000Y-113800000D01*
X126025000Y-115130000D02*
X124695000Y-115130000D01*
X127295000Y-112470000D02*
X129895000Y-112470000D01*
X127295000Y-115130000D02*
X127295000Y-112470000D01*
X127295000Y-115130000D02*
X129895000Y-115130000D01*
X129895000Y-115130000D02*
X129895000Y-112470000D01*
D11*
%TO.C,J15*%
X95675000Y-140000000D02*
X95675000Y-150400000D01*
X95675000Y-150400000D02*
X103075000Y-150400000D01*
X103075000Y-137600000D02*
X100000000Y-137600000D01*
X103075000Y-150400000D02*
X103075000Y-137600000D01*
D14*
%TO.C,R14*%
X104690000Y-123110436D02*
X104690000Y-124564564D01*
X106510000Y-123110436D02*
X106510000Y-124564564D01*
%TO.C,R15*%
X101690000Y-123110436D02*
X101690000Y-124564564D01*
X103510000Y-123110436D02*
X103510000Y-124564564D01*
D11*
%TO.C,IC1*%
X121500000Y-75675000D02*
X121500000Y-74200000D01*
X121750000Y-70150000D02*
X128250000Y-70150000D01*
X121750000Y-73850000D02*
X121750000Y-70150000D01*
X128250000Y-70150000D02*
X128250000Y-73850000D01*
X128250000Y-73850000D02*
X121750000Y-73850000D01*
%TO.C,J17*%
X115675000Y-140000000D02*
X115675000Y-150400000D01*
X115675000Y-150400000D02*
X123075000Y-150400000D01*
X123075000Y-137600000D02*
X120000000Y-137600000D01*
X123075000Y-150400000D02*
X123075000Y-137600000D01*
%TO.C,J11*%
X96925000Y-39600000D02*
X96925000Y-52400000D01*
X96925000Y-52400000D02*
X100000000Y-52400000D01*
X104325000Y-39600000D02*
X96925000Y-39600000D01*
X104325000Y-50000000D02*
X104325000Y-39600000D01*
%TO.C,J6*%
X146925000Y-39600000D02*
X146925000Y-52400000D01*
X146925000Y-52400000D02*
X150000000Y-52400000D01*
X154325000Y-39600000D02*
X146925000Y-39600000D01*
X154325000Y-50000000D02*
X154325000Y-39600000D01*
D14*
%TO.C,R11*%
X113690000Y-123110436D02*
X113690000Y-124564564D01*
X115510000Y-123110436D02*
X115510000Y-124564564D01*
D11*
%TO.C,J16*%
X105675000Y-140000000D02*
X105675000Y-150400000D01*
X105675000Y-150400000D02*
X113075000Y-150400000D01*
X113075000Y-137600000D02*
X110000000Y-137600000D01*
X113075000Y-150400000D02*
X113075000Y-137600000D01*
D14*
%TO.C,J3*%
X133440000Y-96000000D02*
X133440000Y-91940000D01*
X135560000Y-91940000D02*
X133440000Y-91940000D01*
X135560000Y-96000000D02*
X133440000Y-96000000D01*
X135560000Y-96000000D02*
X135560000Y-91940000D01*
X135560000Y-97000000D02*
X135560000Y-98060000D01*
X135560000Y-98060000D02*
X134500000Y-98060000D01*
%TO.C,R2*%
X117090000Y-63227064D02*
X117090000Y-61772936D01*
X118910000Y-63227064D02*
X118910000Y-61772936D01*
D10*
%TO.C,PS1*%
X97975000Y-64870000D02*
X97975000Y-64870000D01*
X97975000Y-64970000D02*
X97975000Y-64970000D01*
X98375000Y-61550000D02*
X105875000Y-61550000D01*
X98375000Y-73250000D02*
X98375000Y-61550000D01*
X105875000Y-61550000D02*
X105875000Y-73250000D01*
X105875000Y-73250000D02*
X98375000Y-73250000D01*
X97975000Y-64870000D02*
G75*
G02*
X97975000Y-64970000I0J-50000D01*
G01*
X97975000Y-64970000D02*
G75*
G02*
X97975000Y-64870000I0J50000D01*
G01*
D11*
%TO.C,IC2*%
X106350000Y-111987500D02*
X112850000Y-111987500D01*
X106350000Y-115687500D02*
X106350000Y-111987500D01*
X112850000Y-111987500D02*
X112850000Y-115687500D01*
X112850000Y-115687500D02*
X106350000Y-115687500D01*
X113100000Y-110162500D02*
X113100000Y-111637500D01*
D14*
%TO.C,R9*%
X119690000Y-123110436D02*
X119690000Y-124564564D01*
X121510000Y-123110436D02*
X121510000Y-124564564D01*
%TO.C,J1*%
X87715000Y-82870000D02*
X87715000Y-85530000D01*
X146195000Y-82870000D02*
X87715000Y-82870000D01*
X146195000Y-82870000D02*
X146195000Y-85530000D01*
X146195000Y-85530000D02*
X87715000Y-85530000D01*
X147465000Y-82870000D02*
X148795000Y-82870000D01*
X148795000Y-82870000D02*
X148795000Y-84200000D01*
%TO.C,J13*%
X87290000Y-62290000D02*
X92710000Y-62290000D01*
X87290000Y-71010000D02*
X87290000Y-62290000D01*
X88590000Y-72710000D02*
X87290000Y-71010000D01*
X88590000Y-72710000D02*
X91410000Y-72710000D01*
X91410000Y-72710000D02*
X92710000Y-71010000D01*
X92710000Y-71010000D02*
X92710000Y-62290000D01*
%TO.C,C3*%
X137111252Y-119990000D02*
X135688748Y-119990000D01*
X137111252Y-121810000D02*
X135688748Y-121810000D01*
%TO.C,R13*%
X107690000Y-123110436D02*
X107690000Y-124564564D01*
X109510000Y-123110436D02*
X109510000Y-124564564D01*
%TO.C,R5*%
X126090000Y-63227064D02*
X126090000Y-61772936D01*
X127910000Y-63227064D02*
X127910000Y-61772936D01*
%TO.C,J2*%
X87750000Y-98070000D02*
X87750000Y-100730000D01*
X146230000Y-98070000D02*
X87750000Y-98070000D01*
X146230000Y-98070000D02*
X146230000Y-100730000D01*
X146230000Y-100730000D02*
X87750000Y-100730000D01*
X147500000Y-98070000D02*
X148830000Y-98070000D01*
X148830000Y-98070000D02*
X148830000Y-99400000D01*
D10*
%TO.C,J22*%
X140850000Y-112300000D02*
X146650000Y-112300000D01*
X140850000Y-128300000D02*
X140850000Y-112300000D01*
D11*
X144950000Y-128900000D02*
X144950000Y-128900000D01*
X145150000Y-128900000D02*
X145150000Y-128900000D01*
D10*
X146650000Y-128300000D02*
X140850000Y-128300000D01*
X150150000Y-128300000D02*
X162150000Y-128300000D01*
X162150000Y-112300000D02*
X150150000Y-112300000D01*
X162150000Y-128300000D02*
X162150000Y-112300000D01*
D11*
X144950000Y-128900000D02*
G75*
G02*
X145150000Y-128900000I100000J0D01*
G01*
X145150000Y-128900000D02*
G75*
G02*
X144950000Y-128900000I-100000J0D01*
G01*
%TO.C,J10*%
X106925000Y-39600000D02*
X106925000Y-52400000D01*
X106925000Y-52400000D02*
X110000000Y-52400000D01*
X114325000Y-39600000D02*
X106925000Y-39600000D01*
X114325000Y-50000000D02*
X114325000Y-39600000D01*
D14*
%TO.C,R8*%
X135090000Y-63227064D02*
X135090000Y-61772936D01*
X136910000Y-63227064D02*
X136910000Y-61772936D01*
D11*
%TO.C,J7*%
X136925000Y-39600000D02*
X136925000Y-52400000D01*
X136925000Y-52400000D02*
X140000000Y-52400000D01*
X144325000Y-39600000D02*
X136925000Y-39600000D01*
X144325000Y-50000000D02*
X144325000Y-39600000D01*
D14*
%TO.C,R16*%
X98690000Y-123110436D02*
X98690000Y-124564564D01*
X100510000Y-123110436D02*
X100510000Y-124564564D01*
%TO.C,R7*%
X132090000Y-63227064D02*
X132090000Y-61772936D01*
X133910000Y-63227064D02*
X133910000Y-61772936D01*
D11*
%TO.C,J14*%
X85675000Y-140000000D02*
X85675000Y-150400000D01*
X85675000Y-150400000D02*
X93075000Y-150400000D01*
X93075000Y-137600000D02*
X90000000Y-137600000D01*
X93075000Y-150400000D02*
X93075000Y-137600000D01*
D14*
%TO.C,R12*%
X110690000Y-123110436D02*
X110690000Y-124564564D01*
X112510000Y-123110436D02*
X112510000Y-124564564D01*
%TO.C,R4*%
X123090000Y-63227064D02*
X123090000Y-61772936D01*
X124910000Y-63227064D02*
X124910000Y-61772936D01*
D11*
%TO.C,J20*%
X145675000Y-140000000D02*
X145675000Y-150400000D01*
X145675000Y-150400000D02*
X153075000Y-150400000D01*
X153075000Y-137600000D02*
X150000000Y-137600000D01*
X153075000Y-150400000D02*
X153075000Y-137600000D01*
%TO.C,J12*%
X86925000Y-39600000D02*
X86925000Y-52400000D01*
X86925000Y-52400000D02*
X90000000Y-52400000D01*
X94325000Y-39600000D02*
X86925000Y-39600000D01*
X94325000Y-50000000D02*
X94325000Y-39600000D01*
%TO.C,J21*%
X155675000Y-140000000D02*
X155675000Y-150400000D01*
X155675000Y-150400000D02*
X163075000Y-150400000D01*
X163075000Y-137600000D02*
X160000000Y-137600000D01*
X163075000Y-150400000D02*
X163075000Y-137600000D01*
D14*
%TO.C,R3*%
X120090000Y-63227064D02*
X120090000Y-61772936D01*
X121910000Y-63227064D02*
X121910000Y-61772936D01*
%TO.C,R10*%
X116690000Y-123110436D02*
X116690000Y-124564564D01*
X118510000Y-123110436D02*
X118510000Y-124564564D01*
D11*
%TO.C,J9*%
X116925000Y-39600000D02*
X116925000Y-52400000D01*
X116925000Y-52400000D02*
X120000000Y-52400000D01*
X124325000Y-39600000D02*
X116925000Y-39600000D01*
X124325000Y-50000000D02*
X124325000Y-39600000D01*
%TO.C,J8*%
X126925000Y-39600000D02*
X126925000Y-52400000D01*
X126925000Y-52400000D02*
X130000000Y-52400000D01*
X134325000Y-39600000D02*
X126925000Y-39600000D01*
X134325000Y-50000000D02*
X134325000Y-39600000D01*
%TD*%
M02*
