M48
; DRILL file {KiCad 8.0.2} date 2024-09-23T18:26:00-0500
; FORMAT={-:-/ absolute / metric / decimal}
; #@! TF.CreationDate,2024-09-23T18:26:00-05:00
; #@! TF.GenerationSoftware,Kicad,Pcbnew,8.0.2
; #@! TF.FileFunction,MixedPlating,1,2
FMAT,2
METRIC
; #@! TA.AperFunction,Plated,PTH,ViaDrill
T1C0.300
; #@! TA.AperFunction,Plated,PTH,ComponentDrill
T2C0.800
; #@! TA.AperFunction,Plated,PTH,ComponentDrill
T3C0.830
; #@! TA.AperFunction,Plated,PTH,ComponentDrill
T4C1.000
; #@! TA.AperFunction,Plated,PTH,ComponentDrill
T5C1.100
; #@! TA.AperFunction,Plated,PTH,ComponentDrill
T6C1.200
; #@! TA.AperFunction,Plated,PTH,ComponentDrill
T7C1.300
; #@! TA.AperFunction,Plated,PTH,ComponentDrill
T8C1.350
; #@! TA.AperFunction,Plated,PTH,ComponentDrill
T9C2.100
; #@! TA.AperFunction,Plated,PTH,ComponentDrill
T10C3.200
; #@! TA.AperFunction,NonPlated,NPTH,ComponentDrill
T11C3.400
%
G90
G05
T1
X72.75Y-44.5
X94.0Y-81.5
X95.5Y-100.5
X95.5Y-121.5
X115.5Y-83.0
X115.5Y-100.5
X115.5Y-121.5
X122.25Y-48.75
X122.25Y-61.75
X135.5Y-61.5
X135.5Y-62.5
X135.5Y-82.0
X135.5Y-100.5
X135.5Y-121.5
X141.75Y-66.25
X148.5Y-68.0
X154.0Y-81.5
X155.5Y-100.5
X155.5Y-121.5
X165.5Y-61.5
X165.5Y-62.5
X171.5Y-66.0
X173.0Y-81.5
X175.5Y-100.5
X175.5Y-120.5
X178.5Y-68.0
X194.0Y-81.5
X195.5Y-100.5
X195.5Y-120.5
X206.5Y-61.5
X206.5Y-62.5
X212.5Y-81.5
X212.75Y-66.25
X215.5Y-100.5
X215.5Y-120.5
X219.5Y-68.0
X235.5Y-83.0
X235.5Y-100.5
X235.5Y-120.5
T2
X180.925Y-39.825
X180.925Y-41.825
X180.925Y-43.825
X182.925Y-39.825
X182.925Y-41.825
X182.925Y-43.825
T3
X107.47Y-55.525
X110.01Y-55.525
X112.55Y-55.525
T4
X111.0Y-66.5
X111.0Y-74.0
X137.46Y-31.0
X137.48Y-46.24
X140.0Y-31.0
X140.02Y-46.24
X142.54Y-31.0
X142.56Y-46.24
X145.08Y-31.0
X145.1Y-46.24
X147.62Y-31.0
X147.64Y-46.24
X150.16Y-31.0
X150.18Y-46.24
X152.7Y-31.0
X152.72Y-46.24
X155.24Y-31.0
X155.26Y-46.24
X157.78Y-31.0
X157.8Y-46.24
X160.32Y-31.0
X160.34Y-46.24
X162.86Y-31.0
X162.88Y-46.24
X165.4Y-31.0
X165.42Y-46.24
X167.94Y-31.0
X167.96Y-46.24
X170.48Y-31.0
X170.5Y-46.24
X173.02Y-31.0
X173.04Y-46.24
X175.56Y-31.0
X175.58Y-46.24
X178.1Y-31.0
X178.12Y-46.24
X180.64Y-31.0
X180.66Y-46.24
X183.18Y-31.0
X183.2Y-46.24
X185.72Y-31.0
X185.74Y-46.24
X188.26Y-31.0
X188.28Y-46.24
X190.0Y-62.46
X190.0Y-65.0
X190.8Y-31.0
X190.82Y-46.24
X193.34Y-31.0
X193.36Y-46.24
X195.88Y-31.0
X195.9Y-46.24
T5
X84.75Y-38.96
X84.75Y-41.5
X84.75Y-44.04
X84.75Y-46.58
X87.29Y-40.23
X87.29Y-42.78
X87.29Y-45.31
X87.29Y-47.85
T6
X96.44Y-36.69
X96.44Y-39.23
X96.44Y-47.59
X96.44Y-50.13
T8
X88.0Y-96.0
X88.0Y-115.0
X88.0Y-136.0
X91.5Y-96.0
X91.5Y-115.0
X91.5Y-136.0
X95.0Y-96.0
X95.0Y-115.0
X95.0Y-136.0
X108.0Y-96.0
X108.0Y-115.0
X108.0Y-136.0
X111.5Y-96.0
X111.5Y-115.0
X111.5Y-136.0
X115.0Y-96.0
X115.0Y-115.0
X115.0Y-136.0
X128.0Y-96.0
X128.0Y-115.0
X128.0Y-136.0
X131.5Y-96.0
X131.5Y-115.0
X131.5Y-136.0
X135.0Y-96.0
X135.0Y-115.0
X135.0Y-136.0
X148.0Y-96.0
X148.0Y-115.0
X148.0Y-136.0
X151.5Y-96.0
X151.5Y-115.0
X151.5Y-136.0
X155.0Y-96.0
X155.0Y-115.0
X155.0Y-136.0
X168.0Y-96.0
X168.0Y-115.0
X168.0Y-136.0
X171.5Y-96.0
X171.5Y-115.0
X171.5Y-136.0
X175.0Y-96.0
X175.0Y-115.0
X175.0Y-136.0
X188.0Y-96.0
X188.0Y-115.0
X188.0Y-136.0
X191.5Y-96.0
X191.5Y-115.0
X191.5Y-136.0
X195.0Y-96.0
X195.0Y-115.0
X195.0Y-136.0
X208.0Y-96.0
X208.0Y-115.0
X208.0Y-136.0
X211.5Y-96.0
X211.5Y-115.0
X211.5Y-136.0
X215.0Y-96.0
X215.0Y-115.0
X215.0Y-136.0
X228.0Y-96.0
X228.0Y-115.0
X228.0Y-136.0
X231.5Y-96.0
X231.5Y-115.0
X231.5Y-136.0
X235.0Y-96.0
X235.0Y-115.0
X235.0Y-136.0
T9
X81.92Y-74.05
X95.92Y-66.55
T10
X70.0Y-30.0
X70.0Y-155.0
X245.0Y-30.0
X245.0Y-155.0
T11
X93.64Y-37.69
X93.64Y-49.12
T7
G00X85.56Y-35.51
M15
G01X86.56Y-35.51
M16
G05
G00X85.56Y-51.31
M15
G01X86.56Y-51.31
M16
G05
M30
