%TF.GenerationSoftware,KiCad,Pcbnew,8.0.2*%
%TF.CreationDate,2024-09-23T18:26:01-05:00*%
%TF.ProjectId,ReceiverBoard,52656365-6976-4657-9242-6f6172642e6b,rev?*%
%TF.SameCoordinates,Original*%
%TF.FileFunction,Soldermask,Top*%
%TF.FilePolarity,Negative*%
%FSLAX46Y46*%
G04 Gerber Fmt 4.6, Leading zero omitted, Abs format (unit mm)*
G04 Created by KiCad (PCBNEW 8.0.2) date 2024-09-23 18:26:01*
%MOMM*%
%LPD*%
G01*
G04 APERTURE LIST*
G04 Aperture macros list*
%AMRoundRect*
0 Rectangle with rounded corners*
0 $1 Rounding radius*
0 $2 $3 $4 $5 $6 $7 $8 $9 X,Y pos of 4 corners*
0 Add a 4 corners polygon primitive as box body*
4,1,4,$2,$3,$4,$5,$6,$7,$8,$9,$2,$3,0*
0 Add four circle primitives for the rounded corners*
1,1,$1+$1,$2,$3*
1,1,$1+$1,$4,$5*
1,1,$1+$1,$6,$7*
1,1,$1+$1,$8,$9*
0 Add four rect primitives between the rounded corners*
20,1,$1+$1,$2,$3,$4,$5,0*
20,1,$1+$1,$4,$5,$6,$7,0*
20,1,$1+$1,$6,$7,$8,$9,0*
20,1,$1+$1,$8,$9,$2,$3,0*%
G04 Aperture macros list end*
%ADD10R,2.025000X2.025000*%
%ADD11C,2.025000*%
%ADD12RoundRect,0.160000X-0.160000X0.197500X-0.160000X-0.197500X0.160000X-0.197500X0.160000X0.197500X0*%
%ADD13RoundRect,0.237500X-0.237500X0.287500X-0.237500X-0.287500X0.237500X-0.287500X0.237500X0.287500X0*%
%ADD14RoundRect,0.237500X0.237500X-0.250000X0.237500X0.250000X-0.237500X0.250000X-0.237500X-0.250000X0*%
%ADD15C,6.400000*%
%ADD16R,1.700000X1.700000*%
%ADD17O,1.700000X1.700000*%
%ADD18RoundRect,0.160000X0.160000X-0.197500X0.160000X0.197500X-0.160000X0.197500X-0.160000X-0.197500X0*%
%ADD19RoundRect,0.237500X-0.237500X0.250000X-0.237500X-0.250000X0.237500X-0.250000X0.237500X0.250000X0*%
%ADD20R,1.350000X1.350000*%
%ADD21O,1.350000X1.350000*%
%ADD22RoundRect,0.237500X0.300000X0.237500X-0.300000X0.237500X-0.300000X-0.237500X0.300000X-0.237500X0*%
%ADD23RoundRect,0.102000X-1.558000X1.558000X-1.558000X-1.558000X1.558000X-1.558000X1.558000X1.558000X0*%
%ADD24C,3.320000*%
%ADD25C,2.000000*%
%ADD26RoundRect,0.250000X0.625000X-0.400000X0.625000X0.400000X-0.625000X0.400000X-0.625000X-0.400000X0*%
%ADD27RoundRect,0.250001X-0.624999X0.462499X-0.624999X-0.462499X0.624999X-0.462499X0.624999X0.462499X0*%
%ADD28R,0.450000X1.475000*%
%ADD29C,3.400000*%
%ADD30O,3.300000X2.000000*%
%ADD31C,1.800000*%
%ADD32C,1.700000*%
%ADD33C,1.400000*%
G04 APERTURE END LIST*
D10*
%TO.C,J7*%
X95000000Y-136000000D03*
D11*
X91500000Y-136000000D03*
X88000000Y-136000000D03*
%TD*%
D10*
%TO.C,J6*%
X95000000Y-115000000D03*
D11*
X91500000Y-115000000D03*
X88000000Y-115000000D03*
%TD*%
D10*
%TO.C,J5*%
X95000000Y-96000000D03*
D11*
X91500000Y-96000000D03*
X88000000Y-96000000D03*
%TD*%
D10*
%TO.C,J8*%
X115000000Y-96000000D03*
D11*
X111500000Y-96000000D03*
X108000000Y-96000000D03*
%TD*%
D10*
%TO.C,J10*%
X115000000Y-136000000D03*
D11*
X111500000Y-136000000D03*
X108000000Y-136000000D03*
%TD*%
D10*
%TO.C,J9*%
X115000000Y-115000000D03*
D11*
X111500000Y-115000000D03*
X108000000Y-115000000D03*
%TD*%
D12*
%TO.C,R12*%
X167000000Y-72402500D03*
X167000000Y-73597500D03*
%TD*%
D13*
%TO.C,D18*%
X194000000Y-106125000D03*
X194000000Y-107875000D03*
%TD*%
D14*
%TO.C,R40*%
X174000000Y-123912500D03*
X174000000Y-122087500D03*
%TD*%
%TO.C,R37*%
X154000000Y-124912500D03*
X154000000Y-123087500D03*
%TD*%
D12*
%TO.C,R17*%
X177000000Y-72402500D03*
X177000000Y-73597500D03*
%TD*%
%TO.C,R16*%
X175000000Y-72402500D03*
X175000000Y-73597500D03*
%TD*%
D14*
%TO.C,R27*%
X94000000Y-103912500D03*
X94000000Y-102087500D03*
%TD*%
D13*
%TO.C,D14*%
X174000000Y-87125000D03*
X174000000Y-88875000D03*
%TD*%
D14*
%TO.C,R44*%
X214000000Y-84912500D03*
X214000000Y-83087500D03*
%TD*%
D15*
%TO.C,H2*%
X245000000Y-30000000D03*
%TD*%
D12*
%TO.C,R13*%
X169000000Y-72402500D03*
X169000000Y-73597500D03*
%TD*%
D16*
%TO.C,J2*%
X195900000Y-46240000D03*
D17*
X193360000Y-46240000D03*
X190820000Y-46240000D03*
X188280000Y-46240000D03*
X185740000Y-46240000D03*
X183200000Y-46240000D03*
X180660000Y-46240000D03*
X178120000Y-46240000D03*
X175580000Y-46240000D03*
X173040000Y-46240000D03*
X170500000Y-46240000D03*
X167960000Y-46240000D03*
X165420000Y-46240000D03*
X162880000Y-46240000D03*
X160340000Y-46240000D03*
X157800000Y-46240000D03*
X155260000Y-46240000D03*
X152720000Y-46240000D03*
X150180000Y-46240000D03*
X147640000Y-46240000D03*
X145100000Y-46240000D03*
X142560000Y-46240000D03*
X140020000Y-46240000D03*
X137480000Y-46240000D03*
%TD*%
D18*
%TO.C,R2*%
X133000000Y-73597500D03*
X133000000Y-72402500D03*
%TD*%
D12*
%TO.C,R25*%
X218000000Y-72402500D03*
X218000000Y-73597500D03*
%TD*%
D13*
%TO.C,D10*%
X134000000Y-127125000D03*
X134000000Y-128875000D03*
%TD*%
D19*
%TO.C,R33*%
X134000000Y-102087500D03*
X134000000Y-103912500D03*
%TD*%
D13*
%TO.C,D6*%
X114040000Y-106125000D03*
X114040000Y-107875000D03*
%TD*%
D14*
%TO.C,R47*%
X234000000Y-84912500D03*
X234000000Y-83087500D03*
%TD*%
%TO.C,R39*%
X174000000Y-103912500D03*
X174000000Y-102087500D03*
%TD*%
D13*
%TO.C,D20*%
X214000000Y-87125000D03*
X214000000Y-88875000D03*
%TD*%
D12*
%TO.C,R8*%
X145000000Y-72402500D03*
X145000000Y-73597500D03*
%TD*%
D13*
%TO.C,D8*%
X134000000Y-87125000D03*
X134000000Y-88875000D03*
%TD*%
D14*
%TO.C,R38*%
X174000000Y-84912500D03*
X174000000Y-83087500D03*
%TD*%
D12*
%TO.C,R19*%
X206000000Y-72402500D03*
X206000000Y-73597500D03*
%TD*%
D20*
%TO.C,J3*%
X180925000Y-39825000D03*
D21*
X182925000Y-39825000D03*
X180925000Y-41825000D03*
X182925000Y-41825000D03*
X180925000Y-43825000D03*
X182925000Y-43825000D03*
%TD*%
D14*
%TO.C,R32*%
X134000000Y-84912500D03*
X134000000Y-83087500D03*
%TD*%
D12*
%TO.C,R21*%
X210000000Y-72402500D03*
X210000000Y-73597500D03*
%TD*%
D13*
%TO.C,D15*%
X174000000Y-106125000D03*
X174000000Y-107875000D03*
%TD*%
D12*
%TO.C,R9*%
X147000000Y-72402500D03*
X147000000Y-73597500D03*
%TD*%
D22*
%TO.C,C5*%
X76362500Y-44500000D03*
X74637500Y-44500000D03*
%TD*%
D14*
%TO.C,R46*%
X214000000Y-123912500D03*
X214000000Y-122087500D03*
%TD*%
D13*
%TO.C,D3*%
X94040000Y-106125000D03*
X94040000Y-107875000D03*
%TD*%
D16*
%TO.C,JP1*%
X190000000Y-65000000D03*
D17*
X190000000Y-62460000D03*
%TD*%
D12*
%TO.C,R20*%
X208000000Y-72402500D03*
X208000000Y-73597500D03*
%TD*%
D13*
%TO.C,D2*%
X94000000Y-87125000D03*
X94000000Y-88875000D03*
%TD*%
D23*
%TO.C,J4*%
X95920000Y-66550000D03*
D24*
X81920000Y-74050000D03*
%TD*%
D18*
%TO.C,R18*%
X204000000Y-73597500D03*
X204000000Y-72402500D03*
%TD*%
D25*
%TO.C,C1*%
X111000000Y-74000000D03*
X111000000Y-66500000D03*
%TD*%
D12*
%TO.C,R22*%
X212000000Y-72402500D03*
X212000000Y-73597500D03*
%TD*%
D13*
%TO.C,D16*%
X174040000Y-126125000D03*
X174040000Y-127875000D03*
%TD*%
D14*
%TO.C,R42*%
X194000000Y-103825000D03*
X194000000Y-102000000D03*
%TD*%
D13*
%TO.C,D9*%
X134040000Y-106125000D03*
X134040000Y-107875000D03*
%TD*%
D14*
%TO.C,R36*%
X154000000Y-103912500D03*
X154000000Y-102087500D03*
%TD*%
%TO.C,R35*%
X154000000Y-84912500D03*
X154000000Y-83087500D03*
%TD*%
D26*
%TO.C,R50*%
X124000000Y-53550000D03*
X124000000Y-50450000D03*
%TD*%
D12*
%TO.C,R15*%
X173000000Y-72402500D03*
X173000000Y-73597500D03*
%TD*%
%TO.C,R5*%
X139000000Y-72402500D03*
X139000000Y-73597500D03*
%TD*%
D16*
%TO.C,J1*%
X195880000Y-31000000D03*
D17*
X193340000Y-31000000D03*
X190800000Y-31000000D03*
X188260000Y-31000000D03*
X185720000Y-31000000D03*
X183180000Y-31000000D03*
X180640000Y-31000000D03*
X178100000Y-31000000D03*
X175560000Y-31000000D03*
X173020000Y-31000000D03*
X170480000Y-31000000D03*
X167940000Y-31000000D03*
X165400000Y-31000000D03*
X162860000Y-31000000D03*
X160320000Y-31000000D03*
X157780000Y-31000000D03*
X155240000Y-31000000D03*
X152700000Y-31000000D03*
X150160000Y-31000000D03*
X147620000Y-31000000D03*
X145080000Y-31000000D03*
X142540000Y-31000000D03*
X140000000Y-31000000D03*
X137460000Y-31000000D03*
%TD*%
D13*
%TO.C,D13*%
X154000000Y-127125000D03*
X154000000Y-128875000D03*
%TD*%
%TO.C,D25*%
X234000000Y-126125000D03*
X234000000Y-127875000D03*
%TD*%
D15*
%TO.C,H3*%
X70000000Y-155000000D03*
%TD*%
D14*
%TO.C,R31*%
X114000000Y-124912500D03*
X114000000Y-123087500D03*
%TD*%
D13*
%TO.C,D21*%
X214000000Y-106125000D03*
X214000000Y-107875000D03*
%TD*%
D22*
%TO.C,C3*%
X176725000Y-68000000D03*
X175000000Y-68000000D03*
%TD*%
D13*
%TO.C,D7*%
X114000000Y-127125000D03*
X114000000Y-128875000D03*
%TD*%
D12*
%TO.C,R4*%
X137000000Y-72402500D03*
X137000000Y-73597500D03*
%TD*%
%TO.C,R7*%
X143000000Y-72402500D03*
X143000000Y-73597500D03*
%TD*%
D14*
%TO.C,R45*%
X214000000Y-103912500D03*
X214000000Y-102087500D03*
%TD*%
D13*
%TO.C,D24*%
X234000000Y-106125000D03*
X234000000Y-107875000D03*
%TD*%
D12*
%TO.C,R14*%
X171000000Y-72402500D03*
X171000000Y-73597500D03*
%TD*%
D15*
%TO.C,H4*%
X245000000Y-155000000D03*
%TD*%
D27*
%TO.C,D26*%
X124000000Y-56512500D03*
X124000000Y-59487500D03*
%TD*%
D14*
%TO.C,R48*%
X234000000Y-103912500D03*
X234000000Y-102087500D03*
%TD*%
%TO.C,R29*%
X114000000Y-84912500D03*
X114000000Y-83087500D03*
%TD*%
%TO.C,R28*%
X94000000Y-124912500D03*
X94000000Y-123087500D03*
%TD*%
D13*
%TO.C,D23*%
X234000000Y-87125000D03*
X234000000Y-88875000D03*
%TD*%
D22*
%TO.C,C4*%
X217862500Y-68000000D03*
X216137500Y-68000000D03*
%TD*%
D12*
%TO.C,R11*%
X165000000Y-72402500D03*
X165000000Y-73597500D03*
%TD*%
D13*
%TO.C,D5*%
X114000000Y-87125000D03*
X114000000Y-88875000D03*
%TD*%
D14*
%TO.C,R30*%
X114000000Y-103912500D03*
X114000000Y-102087500D03*
%TD*%
D12*
%TO.C,R24*%
X216000000Y-72402500D03*
X216000000Y-73597500D03*
%TD*%
D14*
%TO.C,R34*%
X134000000Y-124912500D03*
X134000000Y-123087500D03*
%TD*%
%TO.C,R49*%
X234000000Y-123912500D03*
X234000000Y-122087500D03*
%TD*%
D27*
%TO.C,D1*%
X124000000Y-69512500D03*
X124000000Y-72487500D03*
%TD*%
D22*
%TO.C,C2*%
X146862500Y-68000000D03*
X145137500Y-68000000D03*
%TD*%
D12*
%TO.C,R3*%
X135000000Y-72402500D03*
X135000000Y-73597500D03*
%TD*%
D14*
%TO.C,R41*%
X194000000Y-84912500D03*
X194000000Y-83087500D03*
%TD*%
D12*
%TO.C,R23*%
X214000000Y-72402500D03*
X214000000Y-73597500D03*
%TD*%
D14*
%TO.C,R43*%
X194000000Y-123912500D03*
X194000000Y-122087500D03*
%TD*%
D15*
%TO.C,H1*%
X70000000Y-30000000D03*
%TD*%
D18*
%TO.C,R10*%
X163000000Y-73597500D03*
X163000000Y-72402500D03*
%TD*%
D13*
%TO.C,D11*%
X154000000Y-87125000D03*
X154000000Y-88875000D03*
%TD*%
%TO.C,D4*%
X94040000Y-127125000D03*
X94040000Y-128875000D03*
%TD*%
%TO.C,D19*%
X194000000Y-126125000D03*
X194000000Y-127875000D03*
%TD*%
D26*
%TO.C,R1*%
X124000000Y-66550000D03*
X124000000Y-63450000D03*
%TD*%
D12*
%TO.C,R6*%
X141000000Y-72402500D03*
X141000000Y-73597500D03*
%TD*%
D14*
%TO.C,R26*%
X94000000Y-84912500D03*
X94000000Y-83087500D03*
%TD*%
D13*
%TO.C,D12*%
X154000000Y-106125000D03*
X154000000Y-107875000D03*
%TD*%
%TO.C,D17*%
X194000000Y-87125000D03*
X194000000Y-88875000D03*
%TD*%
%TO.C,D22*%
X214000000Y-126125000D03*
X214000000Y-127875000D03*
%TD*%
D28*
%TO.C,IC1*%
X142925000Y-62062000D03*
X142275000Y-62062000D03*
X141625000Y-62062000D03*
X140975000Y-62062000D03*
X140325000Y-62062000D03*
X139675000Y-62062000D03*
X139025000Y-62062000D03*
X138375000Y-62062000D03*
X137725000Y-62062000D03*
X137075000Y-62062000D03*
X137075000Y-67938000D03*
X137725000Y-67938000D03*
X138375000Y-67938000D03*
X139025000Y-67938000D03*
X139675000Y-67938000D03*
X140325000Y-67938000D03*
X140975000Y-67938000D03*
X141625000Y-67938000D03*
X142275000Y-67938000D03*
X142925000Y-67938000D03*
%TD*%
%TO.C,IC2*%
X172925000Y-62062000D03*
X172275000Y-62062000D03*
X171625000Y-62062000D03*
X170975000Y-62062000D03*
X170325000Y-62062000D03*
X169675000Y-62062000D03*
X169025000Y-62062000D03*
X168375000Y-62062000D03*
X167725000Y-62062000D03*
X167075000Y-62062000D03*
X167075000Y-67938000D03*
X167725000Y-67938000D03*
X168375000Y-67938000D03*
X169025000Y-67938000D03*
X169675000Y-67938000D03*
X170325000Y-67938000D03*
X170975000Y-67938000D03*
X171625000Y-67938000D03*
X172275000Y-67938000D03*
X172925000Y-67938000D03*
%TD*%
%TO.C,IC3*%
X213925000Y-62062000D03*
X213275000Y-62062000D03*
X212625000Y-62062000D03*
X211975000Y-62062000D03*
X211325000Y-62062000D03*
X210675000Y-62062000D03*
X210025000Y-62062000D03*
X209375000Y-62062000D03*
X208725000Y-62062000D03*
X208075000Y-62062000D03*
X208075000Y-67938000D03*
X208725000Y-67938000D03*
X209375000Y-67938000D03*
X210025000Y-67938000D03*
X210675000Y-67938000D03*
X211325000Y-67938000D03*
X211975000Y-67938000D03*
X212625000Y-67938000D03*
X213275000Y-67938000D03*
X213925000Y-67938000D03*
%TD*%
D11*
%TO.C,J11*%
X128000000Y-96000000D03*
X131500000Y-96000000D03*
D10*
X135000000Y-96000000D03*
%TD*%
D11*
%TO.C,J13*%
X128000000Y-136000000D03*
X131500000Y-136000000D03*
D10*
X135000000Y-136000000D03*
%TD*%
D11*
%TO.C,J14*%
X148000000Y-96000000D03*
X151500000Y-96000000D03*
D10*
X155000000Y-96000000D03*
%TD*%
%TO.C,J15*%
X155000000Y-115000000D03*
D11*
X151500000Y-115000000D03*
X148000000Y-115000000D03*
%TD*%
D10*
%TO.C,J16*%
X155000000Y-136000000D03*
D11*
X151500000Y-136000000D03*
X148000000Y-136000000D03*
%TD*%
%TO.C,J17*%
X168000000Y-96000000D03*
X171500000Y-96000000D03*
D10*
X175000000Y-96000000D03*
%TD*%
D11*
%TO.C,J18*%
X168000000Y-115000000D03*
X171500000Y-115000000D03*
D10*
X175000000Y-115000000D03*
%TD*%
D11*
%TO.C,J19*%
X168000000Y-136000000D03*
X171500000Y-136000000D03*
D10*
X175000000Y-136000000D03*
%TD*%
D11*
%TO.C,J20*%
X188000000Y-96000000D03*
X191500000Y-96000000D03*
D10*
X195000000Y-96000000D03*
%TD*%
D11*
%TO.C,J21*%
X188000000Y-115000000D03*
X191500000Y-115000000D03*
D10*
X195000000Y-115000000D03*
%TD*%
D11*
%TO.C,J22*%
X188000000Y-136000000D03*
X191500000Y-136000000D03*
D10*
X195000000Y-136000000D03*
%TD*%
D11*
%TO.C,J23*%
X208000000Y-96000000D03*
X211500000Y-96000000D03*
D10*
X215000000Y-96000000D03*
%TD*%
D11*
%TO.C,J24*%
X208000000Y-115000000D03*
X211500000Y-115000000D03*
D10*
X215000000Y-115000000D03*
%TD*%
D11*
%TO.C,J25*%
X208000000Y-136000000D03*
X211500000Y-136000000D03*
D10*
X215000000Y-136000000D03*
%TD*%
D11*
%TO.C,J26*%
X228000000Y-96000000D03*
X231500000Y-96000000D03*
D10*
X235000000Y-96000000D03*
%TD*%
D11*
%TO.C,J27*%
X228000000Y-115000000D03*
X231500000Y-115000000D03*
D10*
X235000000Y-115000000D03*
%TD*%
D11*
%TO.C,J28*%
X228000000Y-136000000D03*
X231500000Y-136000000D03*
D10*
X235000000Y-136000000D03*
%TD*%
D29*
%TO.C,J30*%
X93640000Y-37690000D03*
X93640000Y-49120000D03*
D30*
X86060000Y-35510000D03*
X86060000Y-51310000D03*
D31*
X96440000Y-50130000D03*
X96440000Y-47590000D03*
X96440000Y-39230000D03*
X96440000Y-36690000D03*
D32*
X87290000Y-47850000D03*
X84750000Y-46580000D03*
X87290000Y-45310000D03*
X84750000Y-44040000D03*
X87290000Y-42780000D03*
X84750000Y-41500000D03*
X87290000Y-40230000D03*
X84750000Y-38960000D03*
%TD*%
D33*
%TO.C,PS1*%
X107470000Y-55525000D03*
X110010000Y-55525000D03*
X112550000Y-55525000D03*
%TD*%
D10*
%TO.C,J12*%
X135000000Y-115000000D03*
D11*
X131500000Y-115000000D03*
X128000000Y-115000000D03*
%TD*%
M02*
