%TF.GenerationSoftware,KiCad,Pcbnew,8.0.2*%
%TF.CreationDate,2024-09-23T18:26:01-05:00*%
%TF.ProjectId,ReceiverBoard,52656365-6976-4657-9242-6f6172642e6b,rev?*%
%TF.SameCoordinates,Original*%
%TF.FileFunction,Paste,Top*%
%TF.FilePolarity,Positive*%
%FSLAX46Y46*%
G04 Gerber Fmt 4.6, Leading zero omitted, Abs format (unit mm)*
G04 Created by KiCad (PCBNEW 8.0.2) date 2024-09-23 18:26:01*
%MOMM*%
%LPD*%
G01*
G04 APERTURE LIST*
G04 Aperture macros list*
%AMRoundRect*
0 Rectangle with rounded corners*
0 $1 Rounding radius*
0 $2 $3 $4 $5 $6 $7 $8 $9 X,Y pos of 4 corners*
0 Add a 4 corners polygon primitive as box body*
4,1,4,$2,$3,$4,$5,$6,$7,$8,$9,$2,$3,0*
0 Add four circle primitives for the rounded corners*
1,1,$1+$1,$2,$3*
1,1,$1+$1,$4,$5*
1,1,$1+$1,$6,$7*
1,1,$1+$1,$8,$9*
0 Add four rect primitives between the rounded corners*
20,1,$1+$1,$2,$3,$4,$5,0*
20,1,$1+$1,$4,$5,$6,$7,0*
20,1,$1+$1,$6,$7,$8,$9,0*
20,1,$1+$1,$8,$9,$2,$3,0*%
G04 Aperture macros list end*
%ADD10RoundRect,0.160000X-0.160000X0.197500X-0.160000X-0.197500X0.160000X-0.197500X0.160000X0.197500X0*%
%ADD11RoundRect,0.237500X-0.237500X0.287500X-0.237500X-0.287500X0.237500X-0.287500X0.237500X0.287500X0*%
%ADD12RoundRect,0.237500X0.237500X-0.250000X0.237500X0.250000X-0.237500X0.250000X-0.237500X-0.250000X0*%
%ADD13RoundRect,0.160000X0.160000X-0.197500X0.160000X0.197500X-0.160000X0.197500X-0.160000X-0.197500X0*%
%ADD14RoundRect,0.237500X-0.237500X0.250000X-0.237500X-0.250000X0.237500X-0.250000X0.237500X0.250000X0*%
%ADD15RoundRect,0.237500X0.300000X0.237500X-0.300000X0.237500X-0.300000X-0.237500X0.300000X-0.237500X0*%
%ADD16RoundRect,0.250000X0.625000X-0.400000X0.625000X0.400000X-0.625000X0.400000X-0.625000X-0.400000X0*%
%ADD17RoundRect,0.250001X-0.624999X0.462499X-0.624999X-0.462499X0.624999X-0.462499X0.624999X0.462499X0*%
%ADD18R,0.450000X1.475000*%
G04 APERTURE END LIST*
D10*
%TO.C,R12*%
X167000000Y-72402500D03*
X167000000Y-73597500D03*
%TD*%
D11*
%TO.C,D18*%
X194000000Y-106125000D03*
X194000000Y-107875000D03*
%TD*%
D12*
%TO.C,R40*%
X174000000Y-123912500D03*
X174000000Y-122087500D03*
%TD*%
%TO.C,R37*%
X154000000Y-124912500D03*
X154000000Y-123087500D03*
%TD*%
D10*
%TO.C,R17*%
X177000000Y-72402500D03*
X177000000Y-73597500D03*
%TD*%
%TO.C,R16*%
X175000000Y-72402500D03*
X175000000Y-73597500D03*
%TD*%
D12*
%TO.C,R27*%
X94000000Y-103912500D03*
X94000000Y-102087500D03*
%TD*%
D11*
%TO.C,D14*%
X174000000Y-87125000D03*
X174000000Y-88875000D03*
%TD*%
D12*
%TO.C,R44*%
X214000000Y-84912500D03*
X214000000Y-83087500D03*
%TD*%
D10*
%TO.C,R13*%
X169000000Y-72402500D03*
X169000000Y-73597500D03*
%TD*%
D13*
%TO.C,R2*%
X133000000Y-73597500D03*
X133000000Y-72402500D03*
%TD*%
D10*
%TO.C,R25*%
X218000000Y-72402500D03*
X218000000Y-73597500D03*
%TD*%
D11*
%TO.C,D10*%
X134000000Y-127125000D03*
X134000000Y-128875000D03*
%TD*%
D14*
%TO.C,R33*%
X134000000Y-102087500D03*
X134000000Y-103912500D03*
%TD*%
D11*
%TO.C,D6*%
X114040000Y-106125000D03*
X114040000Y-107875000D03*
%TD*%
D12*
%TO.C,R47*%
X234000000Y-84912500D03*
X234000000Y-83087500D03*
%TD*%
%TO.C,R39*%
X174000000Y-103912500D03*
X174000000Y-102087500D03*
%TD*%
D11*
%TO.C,D20*%
X214000000Y-87125000D03*
X214000000Y-88875000D03*
%TD*%
D10*
%TO.C,R8*%
X145000000Y-72402500D03*
X145000000Y-73597500D03*
%TD*%
D11*
%TO.C,D8*%
X134000000Y-87125000D03*
X134000000Y-88875000D03*
%TD*%
D12*
%TO.C,R38*%
X174000000Y-84912500D03*
X174000000Y-83087500D03*
%TD*%
D10*
%TO.C,R19*%
X206000000Y-72402500D03*
X206000000Y-73597500D03*
%TD*%
D12*
%TO.C,R32*%
X134000000Y-84912500D03*
X134000000Y-83087500D03*
%TD*%
D10*
%TO.C,R21*%
X210000000Y-72402500D03*
X210000000Y-73597500D03*
%TD*%
D11*
%TO.C,D15*%
X174000000Y-106125000D03*
X174000000Y-107875000D03*
%TD*%
D10*
%TO.C,R9*%
X147000000Y-72402500D03*
X147000000Y-73597500D03*
%TD*%
D15*
%TO.C,C5*%
X76362500Y-44500000D03*
X74637500Y-44500000D03*
%TD*%
D12*
%TO.C,R46*%
X214000000Y-123912500D03*
X214000000Y-122087500D03*
%TD*%
D11*
%TO.C,D3*%
X94040000Y-106125000D03*
X94040000Y-107875000D03*
%TD*%
D10*
%TO.C,R20*%
X208000000Y-72402500D03*
X208000000Y-73597500D03*
%TD*%
D11*
%TO.C,D2*%
X94000000Y-87125000D03*
X94000000Y-88875000D03*
%TD*%
D13*
%TO.C,R18*%
X204000000Y-73597500D03*
X204000000Y-72402500D03*
%TD*%
D10*
%TO.C,R22*%
X212000000Y-72402500D03*
X212000000Y-73597500D03*
%TD*%
D11*
%TO.C,D16*%
X174040000Y-126125000D03*
X174040000Y-127875000D03*
%TD*%
D12*
%TO.C,R42*%
X194000000Y-103825000D03*
X194000000Y-102000000D03*
%TD*%
D11*
%TO.C,D9*%
X134040000Y-106125000D03*
X134040000Y-107875000D03*
%TD*%
D12*
%TO.C,R36*%
X154000000Y-103912500D03*
X154000000Y-102087500D03*
%TD*%
%TO.C,R35*%
X154000000Y-84912500D03*
X154000000Y-83087500D03*
%TD*%
D16*
%TO.C,R50*%
X124000000Y-53550000D03*
X124000000Y-50450000D03*
%TD*%
D10*
%TO.C,R15*%
X173000000Y-72402500D03*
X173000000Y-73597500D03*
%TD*%
%TO.C,R5*%
X139000000Y-72402500D03*
X139000000Y-73597500D03*
%TD*%
D11*
%TO.C,D13*%
X154000000Y-127125000D03*
X154000000Y-128875000D03*
%TD*%
%TO.C,D25*%
X234000000Y-126125000D03*
X234000000Y-127875000D03*
%TD*%
D12*
%TO.C,R31*%
X114000000Y-124912500D03*
X114000000Y-123087500D03*
%TD*%
D11*
%TO.C,D21*%
X214000000Y-106125000D03*
X214000000Y-107875000D03*
%TD*%
D15*
%TO.C,C3*%
X176725000Y-68000000D03*
X175000000Y-68000000D03*
%TD*%
D11*
%TO.C,D7*%
X114000000Y-127125000D03*
X114000000Y-128875000D03*
%TD*%
D10*
%TO.C,R4*%
X137000000Y-72402500D03*
X137000000Y-73597500D03*
%TD*%
%TO.C,R7*%
X143000000Y-72402500D03*
X143000000Y-73597500D03*
%TD*%
D12*
%TO.C,R45*%
X214000000Y-103912500D03*
X214000000Y-102087500D03*
%TD*%
D11*
%TO.C,D24*%
X234000000Y-106125000D03*
X234000000Y-107875000D03*
%TD*%
D10*
%TO.C,R14*%
X171000000Y-72402500D03*
X171000000Y-73597500D03*
%TD*%
D17*
%TO.C,D26*%
X124000000Y-56512500D03*
X124000000Y-59487500D03*
%TD*%
D12*
%TO.C,R48*%
X234000000Y-103912500D03*
X234000000Y-102087500D03*
%TD*%
%TO.C,R29*%
X114000000Y-84912500D03*
X114000000Y-83087500D03*
%TD*%
%TO.C,R28*%
X94000000Y-124912500D03*
X94000000Y-123087500D03*
%TD*%
D11*
%TO.C,D23*%
X234000000Y-87125000D03*
X234000000Y-88875000D03*
%TD*%
D15*
%TO.C,C4*%
X217862500Y-68000000D03*
X216137500Y-68000000D03*
%TD*%
D10*
%TO.C,R11*%
X165000000Y-72402500D03*
X165000000Y-73597500D03*
%TD*%
D11*
%TO.C,D5*%
X114000000Y-87125000D03*
X114000000Y-88875000D03*
%TD*%
D12*
%TO.C,R30*%
X114000000Y-103912500D03*
X114000000Y-102087500D03*
%TD*%
D10*
%TO.C,R24*%
X216000000Y-72402500D03*
X216000000Y-73597500D03*
%TD*%
D12*
%TO.C,R34*%
X134000000Y-124912500D03*
X134000000Y-123087500D03*
%TD*%
%TO.C,R49*%
X234000000Y-123912500D03*
X234000000Y-122087500D03*
%TD*%
D17*
%TO.C,D1*%
X124000000Y-69512500D03*
X124000000Y-72487500D03*
%TD*%
D15*
%TO.C,C2*%
X146862500Y-68000000D03*
X145137500Y-68000000D03*
%TD*%
D10*
%TO.C,R3*%
X135000000Y-72402500D03*
X135000000Y-73597500D03*
%TD*%
D12*
%TO.C,R41*%
X194000000Y-84912500D03*
X194000000Y-83087500D03*
%TD*%
D10*
%TO.C,R23*%
X214000000Y-72402500D03*
X214000000Y-73597500D03*
%TD*%
D12*
%TO.C,R43*%
X194000000Y-123912500D03*
X194000000Y-122087500D03*
%TD*%
D13*
%TO.C,R10*%
X163000000Y-73597500D03*
X163000000Y-72402500D03*
%TD*%
D11*
%TO.C,D11*%
X154000000Y-87125000D03*
X154000000Y-88875000D03*
%TD*%
%TO.C,D4*%
X94040000Y-127125000D03*
X94040000Y-128875000D03*
%TD*%
%TO.C,D19*%
X194000000Y-126125000D03*
X194000000Y-127875000D03*
%TD*%
D16*
%TO.C,R1*%
X124000000Y-66550000D03*
X124000000Y-63450000D03*
%TD*%
D10*
%TO.C,R6*%
X141000000Y-72402500D03*
X141000000Y-73597500D03*
%TD*%
D12*
%TO.C,R26*%
X94000000Y-84912500D03*
X94000000Y-83087500D03*
%TD*%
D11*
%TO.C,D12*%
X154000000Y-106125000D03*
X154000000Y-107875000D03*
%TD*%
%TO.C,D17*%
X194000000Y-87125000D03*
X194000000Y-88875000D03*
%TD*%
%TO.C,D22*%
X214000000Y-126125000D03*
X214000000Y-127875000D03*
%TD*%
D18*
%TO.C,IC1*%
X142925000Y-62062000D03*
X142275000Y-62062000D03*
X141625000Y-62062000D03*
X140975000Y-62062000D03*
X140325000Y-62062000D03*
X139675000Y-62062000D03*
X139025000Y-62062000D03*
X138375000Y-62062000D03*
X137725000Y-62062000D03*
X137075000Y-62062000D03*
X137075000Y-67938000D03*
X137725000Y-67938000D03*
X138375000Y-67938000D03*
X139025000Y-67938000D03*
X139675000Y-67938000D03*
X140325000Y-67938000D03*
X140975000Y-67938000D03*
X141625000Y-67938000D03*
X142275000Y-67938000D03*
X142925000Y-67938000D03*
%TD*%
%TO.C,IC2*%
X172925000Y-62062000D03*
X172275000Y-62062000D03*
X171625000Y-62062000D03*
X170975000Y-62062000D03*
X170325000Y-62062000D03*
X169675000Y-62062000D03*
X169025000Y-62062000D03*
X168375000Y-62062000D03*
X167725000Y-62062000D03*
X167075000Y-62062000D03*
X167075000Y-67938000D03*
X167725000Y-67938000D03*
X168375000Y-67938000D03*
X169025000Y-67938000D03*
X169675000Y-67938000D03*
X170325000Y-67938000D03*
X170975000Y-67938000D03*
X171625000Y-67938000D03*
X172275000Y-67938000D03*
X172925000Y-67938000D03*
%TD*%
%TO.C,IC3*%
X213925000Y-62062000D03*
X213275000Y-62062000D03*
X212625000Y-62062000D03*
X211975000Y-62062000D03*
X211325000Y-62062000D03*
X210675000Y-62062000D03*
X210025000Y-62062000D03*
X209375000Y-62062000D03*
X208725000Y-62062000D03*
X208075000Y-62062000D03*
X208075000Y-67938000D03*
X208725000Y-67938000D03*
X209375000Y-67938000D03*
X210025000Y-67938000D03*
X210675000Y-67938000D03*
X211325000Y-67938000D03*
X211975000Y-67938000D03*
X212625000Y-67938000D03*
X213275000Y-67938000D03*
X213925000Y-67938000D03*
%TD*%
M02*
