%TF.GenerationSoftware,KiCad,Pcbnew,8.0.2*%
%TF.CreationDate,2024-12-31T23:32:28-06:00*%
%TF.ProjectId,LampBoardDesk,4c616d70-426f-4617-9264-4465736b2e6b,rev?*%
%TF.SameCoordinates,Original*%
%TF.FileFunction,Legend,Top*%
%TF.FilePolarity,Positive*%
%FSLAX46Y46*%
G04 Gerber Fmt 4.6, Leading zero omitted, Abs format (unit mm)*
G04 Created by KiCad (PCBNEW 8.0.2) date 2024-12-31 23:32:28*
%MOMM*%
%LPD*%
G01*
G04 APERTURE LIST*
%ADD10C,0.100000*%
%ADD11C,0.200000*%
%ADD12C,0.150000*%
%ADD13C,0.254000*%
%ADD14C,0.120000*%
%ADD15C,0.500000*%
%ADD16C,0.250000*%
%ADD17C,0.000000*%
G04 APERTURE END LIST*
D10*
X120422419Y-59546115D02*
X119422419Y-59546115D01*
X119422419Y-59546115D02*
X119422419Y-59308020D01*
X119422419Y-59308020D02*
X119470038Y-59165163D01*
X119470038Y-59165163D02*
X119565276Y-59069925D01*
X119565276Y-59069925D02*
X119660514Y-59022306D01*
X119660514Y-59022306D02*
X119850990Y-58974687D01*
X119850990Y-58974687D02*
X119993847Y-58974687D01*
X119993847Y-58974687D02*
X120184323Y-59022306D01*
X120184323Y-59022306D02*
X120279561Y-59069925D01*
X120279561Y-59069925D02*
X120374800Y-59165163D01*
X120374800Y-59165163D02*
X120422419Y-59308020D01*
X120422419Y-59308020D02*
X120422419Y-59546115D01*
D11*
X70245863Y-70567219D02*
X69769673Y-70567219D01*
X69769673Y-70567219D02*
X69722054Y-71043409D01*
X69722054Y-71043409D02*
X69769673Y-70995790D01*
X69769673Y-70995790D02*
X69864911Y-70948171D01*
X69864911Y-70948171D02*
X70103006Y-70948171D01*
X70103006Y-70948171D02*
X70198244Y-70995790D01*
X70198244Y-70995790D02*
X70245863Y-71043409D01*
X70245863Y-71043409D02*
X70293482Y-71138647D01*
X70293482Y-71138647D02*
X70293482Y-71376742D01*
X70293482Y-71376742D02*
X70245863Y-71471980D01*
X70245863Y-71471980D02*
X70198244Y-71519600D01*
X70198244Y-71519600D02*
X70103006Y-71567219D01*
X70103006Y-71567219D02*
X69864911Y-71567219D01*
X69864911Y-71567219D02*
X69769673Y-71519600D01*
X69769673Y-71519600D02*
X69722054Y-71471980D01*
X70579197Y-70567219D02*
X70912530Y-71567219D01*
X70912530Y-71567219D02*
X71245863Y-70567219D01*
X30022054Y-65187457D02*
X30069673Y-65139838D01*
X30069673Y-65139838D02*
X30164911Y-65092219D01*
X30164911Y-65092219D02*
X30403006Y-65092219D01*
X30403006Y-65092219D02*
X30498244Y-65139838D01*
X30498244Y-65139838D02*
X30545863Y-65187457D01*
X30545863Y-65187457D02*
X30593482Y-65282695D01*
X30593482Y-65282695D02*
X30593482Y-65377933D01*
X30593482Y-65377933D02*
X30545863Y-65520790D01*
X30545863Y-65520790D02*
X29974435Y-66092219D01*
X29974435Y-66092219D02*
X30593482Y-66092219D01*
X31450625Y-65425552D02*
X31450625Y-66092219D01*
X31212530Y-65044600D02*
X30974435Y-65758885D01*
X30974435Y-65758885D02*
X31593482Y-65758885D01*
X31831578Y-65092219D02*
X32164911Y-66092219D01*
X32164911Y-66092219D02*
X32498244Y-65092219D01*
X21968421Y-51357275D02*
X21492231Y-51357275D01*
X21492231Y-51357275D02*
X21492231Y-50357275D01*
X22301755Y-50833465D02*
X22635088Y-50833465D01*
X22777945Y-51357275D02*
X22301755Y-51357275D01*
X22301755Y-51357275D02*
X22301755Y-50357275D01*
X22301755Y-50357275D02*
X22777945Y-50357275D01*
X23206517Y-51357275D02*
X23206517Y-50357275D01*
X23206517Y-50357275D02*
X23444612Y-50357275D01*
X23444612Y-50357275D02*
X23587469Y-50404894D01*
X23587469Y-50404894D02*
X23682707Y-50500132D01*
X23682707Y-50500132D02*
X23730326Y-50595370D01*
X23730326Y-50595370D02*
X23777945Y-50785846D01*
X23777945Y-50785846D02*
X23777945Y-50928703D01*
X23777945Y-50928703D02*
X23730326Y-51119179D01*
X23730326Y-51119179D02*
X23682707Y-51214417D01*
X23682707Y-51214417D02*
X23587469Y-51309656D01*
X23587469Y-51309656D02*
X23444612Y-51357275D01*
X23444612Y-51357275D02*
X23206517Y-51357275D01*
X22396993Y-52443409D02*
X22730326Y-52443409D01*
X22873183Y-52967219D02*
X22396993Y-52967219D01*
X22396993Y-52967219D02*
X22396993Y-51967219D01*
X22396993Y-51967219D02*
X22873183Y-51967219D01*
X23301755Y-52300552D02*
X23301755Y-52967219D01*
X23301755Y-52395790D02*
X23349374Y-52348171D01*
X23349374Y-52348171D02*
X23444612Y-52300552D01*
X23444612Y-52300552D02*
X23587469Y-52300552D01*
X23587469Y-52300552D02*
X23682707Y-52348171D01*
X23682707Y-52348171D02*
X23730326Y-52443409D01*
X23730326Y-52443409D02*
X23730326Y-52967219D01*
X61122054Y-47019600D02*
X61264911Y-47067219D01*
X61264911Y-47067219D02*
X61503006Y-47067219D01*
X61503006Y-47067219D02*
X61598244Y-47019600D01*
X61598244Y-47019600D02*
X61645863Y-46971980D01*
X61645863Y-46971980D02*
X61693482Y-46876742D01*
X61693482Y-46876742D02*
X61693482Y-46781504D01*
X61693482Y-46781504D02*
X61645863Y-46686266D01*
X61645863Y-46686266D02*
X61598244Y-46638647D01*
X61598244Y-46638647D02*
X61503006Y-46591028D01*
X61503006Y-46591028D02*
X61312530Y-46543409D01*
X61312530Y-46543409D02*
X61217292Y-46495790D01*
X61217292Y-46495790D02*
X61169673Y-46448171D01*
X61169673Y-46448171D02*
X61122054Y-46352933D01*
X61122054Y-46352933D02*
X61122054Y-46257695D01*
X61122054Y-46257695D02*
X61169673Y-46162457D01*
X61169673Y-46162457D02*
X61217292Y-46114838D01*
X61217292Y-46114838D02*
X61312530Y-46067219D01*
X61312530Y-46067219D02*
X61550625Y-46067219D01*
X61550625Y-46067219D02*
X61693482Y-46114838D01*
X62026816Y-46067219D02*
X62264911Y-47067219D01*
X62264911Y-47067219D02*
X62455387Y-46352933D01*
X62455387Y-46352933D02*
X62645863Y-47067219D01*
X62645863Y-47067219D02*
X62883959Y-46067219D01*
X63264911Y-47067219D02*
X63264911Y-46067219D01*
X63264911Y-46067219D02*
X63503006Y-46067219D01*
X63503006Y-46067219D02*
X63645863Y-46114838D01*
X63645863Y-46114838D02*
X63741101Y-46210076D01*
X63741101Y-46210076D02*
X63788720Y-46305314D01*
X63788720Y-46305314D02*
X63836339Y-46495790D01*
X63836339Y-46495790D02*
X63836339Y-46638647D01*
X63836339Y-46638647D02*
X63788720Y-46829123D01*
X63788720Y-46829123D02*
X63741101Y-46924361D01*
X63741101Y-46924361D02*
X63645863Y-47019600D01*
X63645863Y-47019600D02*
X63503006Y-47067219D01*
X63503006Y-47067219D02*
X63264911Y-47067219D01*
D10*
X117570038Y-62572306D02*
X117522419Y-62667544D01*
X117522419Y-62667544D02*
X117522419Y-62810401D01*
X117522419Y-62810401D02*
X117570038Y-62953258D01*
X117570038Y-62953258D02*
X117665276Y-63048496D01*
X117665276Y-63048496D02*
X117760514Y-63096115D01*
X117760514Y-63096115D02*
X117950990Y-63143734D01*
X117950990Y-63143734D02*
X118093847Y-63143734D01*
X118093847Y-63143734D02*
X118284323Y-63096115D01*
X118284323Y-63096115D02*
X118379561Y-63048496D01*
X118379561Y-63048496D02*
X118474800Y-62953258D01*
X118474800Y-62953258D02*
X118522419Y-62810401D01*
X118522419Y-62810401D02*
X118522419Y-62715163D01*
X118522419Y-62715163D02*
X118474800Y-62572306D01*
X118474800Y-62572306D02*
X118427180Y-62524687D01*
X118427180Y-62524687D02*
X118093847Y-62524687D01*
X118093847Y-62524687D02*
X118093847Y-62715163D01*
X118522419Y-62096115D02*
X117522419Y-62096115D01*
X117522419Y-62096115D02*
X118522419Y-61524687D01*
X118522419Y-61524687D02*
X117522419Y-61524687D01*
X118522419Y-61048496D02*
X117522419Y-61048496D01*
X117522419Y-61048496D02*
X117522419Y-60810401D01*
X117522419Y-60810401D02*
X117570038Y-60667544D01*
X117570038Y-60667544D02*
X117665276Y-60572306D01*
X117665276Y-60572306D02*
X117760514Y-60524687D01*
X117760514Y-60524687D02*
X117950990Y-60477068D01*
X117950990Y-60477068D02*
X118093847Y-60477068D01*
X118093847Y-60477068D02*
X118284323Y-60524687D01*
X118284323Y-60524687D02*
X118379561Y-60572306D01*
X118379561Y-60572306D02*
X118474800Y-60667544D01*
X118474800Y-60667544D02*
X118522419Y-60810401D01*
X118522419Y-60810401D02*
X118522419Y-61048496D01*
D11*
X48903006Y-38943409D02*
X49045863Y-38991028D01*
X49045863Y-38991028D02*
X49093482Y-39038647D01*
X49093482Y-39038647D02*
X49141101Y-39133885D01*
X49141101Y-39133885D02*
X49141101Y-39276742D01*
X49141101Y-39276742D02*
X49093482Y-39371980D01*
X49093482Y-39371980D02*
X49045863Y-39419600D01*
X49045863Y-39419600D02*
X48950625Y-39467219D01*
X48950625Y-39467219D02*
X48569673Y-39467219D01*
X48569673Y-39467219D02*
X48569673Y-38467219D01*
X48569673Y-38467219D02*
X48903006Y-38467219D01*
X48903006Y-38467219D02*
X48998244Y-38514838D01*
X48998244Y-38514838D02*
X49045863Y-38562457D01*
X49045863Y-38562457D02*
X49093482Y-38657695D01*
X49093482Y-38657695D02*
X49093482Y-38752933D01*
X49093482Y-38752933D02*
X49045863Y-38848171D01*
X49045863Y-38848171D02*
X48998244Y-38895790D01*
X48998244Y-38895790D02*
X48903006Y-38943409D01*
X48903006Y-38943409D02*
X48569673Y-38943409D01*
X49712530Y-39467219D02*
X49617292Y-39419600D01*
X49617292Y-39419600D02*
X49569673Y-39371980D01*
X49569673Y-39371980D02*
X49522054Y-39276742D01*
X49522054Y-39276742D02*
X49522054Y-38991028D01*
X49522054Y-38991028D02*
X49569673Y-38895790D01*
X49569673Y-38895790D02*
X49617292Y-38848171D01*
X49617292Y-38848171D02*
X49712530Y-38800552D01*
X49712530Y-38800552D02*
X49855387Y-38800552D01*
X49855387Y-38800552D02*
X49950625Y-38848171D01*
X49950625Y-38848171D02*
X49998244Y-38895790D01*
X49998244Y-38895790D02*
X50045863Y-38991028D01*
X50045863Y-38991028D02*
X50045863Y-39276742D01*
X50045863Y-39276742D02*
X49998244Y-39371980D01*
X49998244Y-39371980D02*
X49950625Y-39419600D01*
X49950625Y-39419600D02*
X49855387Y-39467219D01*
X49855387Y-39467219D02*
X49712530Y-39467219D01*
X50617292Y-39467219D02*
X50522054Y-39419600D01*
X50522054Y-39419600D02*
X50474435Y-39371980D01*
X50474435Y-39371980D02*
X50426816Y-39276742D01*
X50426816Y-39276742D02*
X50426816Y-38991028D01*
X50426816Y-38991028D02*
X50474435Y-38895790D01*
X50474435Y-38895790D02*
X50522054Y-38848171D01*
X50522054Y-38848171D02*
X50617292Y-38800552D01*
X50617292Y-38800552D02*
X50760149Y-38800552D01*
X50760149Y-38800552D02*
X50855387Y-38848171D01*
X50855387Y-38848171D02*
X50903006Y-38895790D01*
X50903006Y-38895790D02*
X50950625Y-38991028D01*
X50950625Y-38991028D02*
X50950625Y-39276742D01*
X50950625Y-39276742D02*
X50903006Y-39371980D01*
X50903006Y-39371980D02*
X50855387Y-39419600D01*
X50855387Y-39419600D02*
X50760149Y-39467219D01*
X50760149Y-39467219D02*
X50617292Y-39467219D01*
X51236340Y-38800552D02*
X51617292Y-38800552D01*
X51379197Y-38467219D02*
X51379197Y-39324361D01*
X51379197Y-39324361D02*
X51426816Y-39419600D01*
X51426816Y-39419600D02*
X51522054Y-39467219D01*
X51522054Y-39467219D02*
X51617292Y-39467219D01*
X89033465Y-81496993D02*
X89033465Y-81830326D01*
X89557275Y-81830326D02*
X88557275Y-81830326D01*
X88557275Y-81830326D02*
X88557275Y-81354136D01*
X89557275Y-80973183D02*
X88890608Y-80973183D01*
X88557275Y-80973183D02*
X88604894Y-81020802D01*
X88604894Y-81020802D02*
X88652513Y-80973183D01*
X88652513Y-80973183D02*
X88604894Y-80925564D01*
X88604894Y-80925564D02*
X88557275Y-80973183D01*
X88557275Y-80973183D02*
X88652513Y-80973183D01*
X89509656Y-80544612D02*
X89557275Y-80449374D01*
X89557275Y-80449374D02*
X89557275Y-80258898D01*
X89557275Y-80258898D02*
X89509656Y-80163660D01*
X89509656Y-80163660D02*
X89414417Y-80116041D01*
X89414417Y-80116041D02*
X89366798Y-80116041D01*
X89366798Y-80116041D02*
X89271560Y-80163660D01*
X89271560Y-80163660D02*
X89223941Y-80258898D01*
X89223941Y-80258898D02*
X89223941Y-80401755D01*
X89223941Y-80401755D02*
X89176322Y-80496993D01*
X89176322Y-80496993D02*
X89081084Y-80544612D01*
X89081084Y-80544612D02*
X89033465Y-80544612D01*
X89033465Y-80544612D02*
X88938227Y-80496993D01*
X88938227Y-80496993D02*
X88890608Y-80401755D01*
X88890608Y-80401755D02*
X88890608Y-80258898D01*
X88890608Y-80258898D02*
X88938227Y-80163660D01*
X89557275Y-79687469D02*
X88557275Y-79687469D01*
X89557275Y-79258898D02*
X89033465Y-79258898D01*
X89033465Y-79258898D02*
X88938227Y-79306517D01*
X88938227Y-79306517D02*
X88890608Y-79401755D01*
X88890608Y-79401755D02*
X88890608Y-79544612D01*
X88890608Y-79544612D02*
X88938227Y-79639850D01*
X88938227Y-79639850D02*
X88985846Y-79687469D01*
X89557275Y-78020802D02*
X88557275Y-78020802D01*
X88557275Y-78020802D02*
X88557275Y-77782707D01*
X88557275Y-77782707D02*
X88604894Y-77639850D01*
X88604894Y-77639850D02*
X88700132Y-77544612D01*
X88700132Y-77544612D02*
X88795370Y-77496993D01*
X88795370Y-77496993D02*
X88985846Y-77449374D01*
X88985846Y-77449374D02*
X89128703Y-77449374D01*
X89128703Y-77449374D02*
X89319179Y-77496993D01*
X89319179Y-77496993D02*
X89414417Y-77544612D01*
X89414417Y-77544612D02*
X89509656Y-77639850D01*
X89509656Y-77639850D02*
X89557275Y-77782707D01*
X89557275Y-77782707D02*
X89557275Y-78020802D01*
X89509656Y-76639850D02*
X89557275Y-76735088D01*
X89557275Y-76735088D02*
X89557275Y-76925564D01*
X89557275Y-76925564D02*
X89509656Y-77020802D01*
X89509656Y-77020802D02*
X89414417Y-77068421D01*
X89414417Y-77068421D02*
X89033465Y-77068421D01*
X89033465Y-77068421D02*
X88938227Y-77020802D01*
X88938227Y-77020802D02*
X88890608Y-76925564D01*
X88890608Y-76925564D02*
X88890608Y-76735088D01*
X88890608Y-76735088D02*
X88938227Y-76639850D01*
X88938227Y-76639850D02*
X89033465Y-76592231D01*
X89033465Y-76592231D02*
X89128703Y-76592231D01*
X89128703Y-76592231D02*
X89223941Y-77068421D01*
X89509656Y-76211278D02*
X89557275Y-76116040D01*
X89557275Y-76116040D02*
X89557275Y-75925564D01*
X89557275Y-75925564D02*
X89509656Y-75830326D01*
X89509656Y-75830326D02*
X89414417Y-75782707D01*
X89414417Y-75782707D02*
X89366798Y-75782707D01*
X89366798Y-75782707D02*
X89271560Y-75830326D01*
X89271560Y-75830326D02*
X89223941Y-75925564D01*
X89223941Y-75925564D02*
X89223941Y-76068421D01*
X89223941Y-76068421D02*
X89176322Y-76163659D01*
X89176322Y-76163659D02*
X89081084Y-76211278D01*
X89081084Y-76211278D02*
X89033465Y-76211278D01*
X89033465Y-76211278D02*
X88938227Y-76163659D01*
X88938227Y-76163659D02*
X88890608Y-76068421D01*
X88890608Y-76068421D02*
X88890608Y-75925564D01*
X88890608Y-75925564D02*
X88938227Y-75830326D01*
X89557275Y-75354135D02*
X88557275Y-75354135D01*
X89176322Y-75258897D02*
X89557275Y-74973183D01*
X88890608Y-74973183D02*
X89271560Y-75354135D01*
X88890608Y-74687468D02*
X88890608Y-74306516D01*
X88557275Y-74544611D02*
X89414417Y-74544611D01*
X89414417Y-74544611D02*
X89509656Y-74496992D01*
X89509656Y-74496992D02*
X89557275Y-74401754D01*
X89557275Y-74401754D02*
X89557275Y-74306516D01*
X89557275Y-73830325D02*
X89509656Y-73925563D01*
X89509656Y-73925563D02*
X89462036Y-73973182D01*
X89462036Y-73973182D02*
X89366798Y-74020801D01*
X89366798Y-74020801D02*
X89081084Y-74020801D01*
X89081084Y-74020801D02*
X88985846Y-73973182D01*
X88985846Y-73973182D02*
X88938227Y-73925563D01*
X88938227Y-73925563D02*
X88890608Y-73830325D01*
X88890608Y-73830325D02*
X88890608Y-73687468D01*
X88890608Y-73687468D02*
X88938227Y-73592230D01*
X88938227Y-73592230D02*
X88985846Y-73544611D01*
X88985846Y-73544611D02*
X89081084Y-73496992D01*
X89081084Y-73496992D02*
X89366798Y-73496992D01*
X89366798Y-73496992D02*
X89462036Y-73544611D01*
X89462036Y-73544611D02*
X89509656Y-73592230D01*
X89509656Y-73592230D02*
X89557275Y-73687468D01*
X89557275Y-73687468D02*
X89557275Y-73830325D01*
X88890608Y-73068420D02*
X89890608Y-73068420D01*
X88938227Y-73068420D02*
X88890608Y-72973182D01*
X88890608Y-72973182D02*
X88890608Y-72782706D01*
X88890608Y-72782706D02*
X88938227Y-72687468D01*
X88938227Y-72687468D02*
X88985846Y-72639849D01*
X88985846Y-72639849D02*
X89081084Y-72592230D01*
X89081084Y-72592230D02*
X89366798Y-72592230D01*
X89366798Y-72592230D02*
X89462036Y-72639849D01*
X89462036Y-72639849D02*
X89509656Y-72687468D01*
X89509656Y-72687468D02*
X89557275Y-72782706D01*
X89557275Y-72782706D02*
X89557275Y-72973182D01*
X89557275Y-72973182D02*
X89509656Y-73068420D01*
X91167219Y-81306517D02*
X91167219Y-81877945D01*
X91167219Y-81592231D02*
X90167219Y-81592231D01*
X90167219Y-81592231D02*
X90310076Y-81687469D01*
X90310076Y-81687469D02*
X90405314Y-81782707D01*
X90405314Y-81782707D02*
X90452933Y-81877945D01*
X90262457Y-80925564D02*
X90214838Y-80877945D01*
X90214838Y-80877945D02*
X90167219Y-80782707D01*
X90167219Y-80782707D02*
X90167219Y-80544612D01*
X90167219Y-80544612D02*
X90214838Y-80449374D01*
X90214838Y-80449374D02*
X90262457Y-80401755D01*
X90262457Y-80401755D02*
X90357695Y-80354136D01*
X90357695Y-80354136D02*
X90452933Y-80354136D01*
X90452933Y-80354136D02*
X90595790Y-80401755D01*
X90595790Y-80401755D02*
X91167219Y-80973183D01*
X91167219Y-80973183D02*
X91167219Y-80354136D01*
X90119600Y-79211279D02*
X91405314Y-80068421D01*
X90167219Y-78973183D02*
X90167219Y-78354136D01*
X90167219Y-78354136D02*
X90548171Y-78687469D01*
X90548171Y-78687469D02*
X90548171Y-78544612D01*
X90548171Y-78544612D02*
X90595790Y-78449374D01*
X90595790Y-78449374D02*
X90643409Y-78401755D01*
X90643409Y-78401755D02*
X90738647Y-78354136D01*
X90738647Y-78354136D02*
X90976742Y-78354136D01*
X90976742Y-78354136D02*
X91071980Y-78401755D01*
X91071980Y-78401755D02*
X91119600Y-78449374D01*
X91119600Y-78449374D02*
X91167219Y-78544612D01*
X91167219Y-78544612D02*
X91167219Y-78830326D01*
X91167219Y-78830326D02*
X91119600Y-78925564D01*
X91119600Y-78925564D02*
X91071980Y-78973183D01*
X91167219Y-77401755D02*
X91167219Y-77973183D01*
X91167219Y-77687469D02*
X90167219Y-77687469D01*
X90167219Y-77687469D02*
X90310076Y-77782707D01*
X90310076Y-77782707D02*
X90405314Y-77877945D01*
X90405314Y-77877945D02*
X90452933Y-77973183D01*
X90167219Y-76354135D02*
X91167219Y-76020802D01*
X91167219Y-76020802D02*
X90167219Y-75687469D01*
X90167219Y-75163659D02*
X90167219Y-75068421D01*
X90167219Y-75068421D02*
X90214838Y-74973183D01*
X90214838Y-74973183D02*
X90262457Y-74925564D01*
X90262457Y-74925564D02*
X90357695Y-74877945D01*
X90357695Y-74877945D02*
X90548171Y-74830326D01*
X90548171Y-74830326D02*
X90786266Y-74830326D01*
X90786266Y-74830326D02*
X90976742Y-74877945D01*
X90976742Y-74877945D02*
X91071980Y-74925564D01*
X91071980Y-74925564D02*
X91119600Y-74973183D01*
X91119600Y-74973183D02*
X91167219Y-75068421D01*
X91167219Y-75068421D02*
X91167219Y-75163659D01*
X91167219Y-75163659D02*
X91119600Y-75258897D01*
X91119600Y-75258897D02*
X91071980Y-75306516D01*
X91071980Y-75306516D02*
X90976742Y-75354135D01*
X90976742Y-75354135D02*
X90786266Y-75401754D01*
X90786266Y-75401754D02*
X90548171Y-75401754D01*
X90548171Y-75401754D02*
X90357695Y-75354135D01*
X90357695Y-75354135D02*
X90262457Y-75306516D01*
X90262457Y-75306516D02*
X90214838Y-75258897D01*
X90214838Y-75258897D02*
X90167219Y-75163659D01*
X91071980Y-74401754D02*
X91119600Y-74354135D01*
X91119600Y-74354135D02*
X91167219Y-74401754D01*
X91167219Y-74401754D02*
X91119600Y-74449373D01*
X91119600Y-74449373D02*
X91071980Y-74401754D01*
X91071980Y-74401754D02*
X91167219Y-74401754D01*
X90500552Y-73496993D02*
X91167219Y-73496993D01*
X90119600Y-73735088D02*
X90833885Y-73973183D01*
X90833885Y-73973183D02*
X90833885Y-73354136D01*
X22469673Y-60043409D02*
X22803006Y-60043409D01*
X22945863Y-60567219D02*
X22469673Y-60567219D01*
X22469673Y-60567219D02*
X22469673Y-59567219D01*
X22469673Y-59567219D02*
X22945863Y-59567219D01*
X23374435Y-59900552D02*
X23374435Y-60567219D01*
X23374435Y-59995790D02*
X23422054Y-59948171D01*
X23422054Y-59948171D02*
X23517292Y-59900552D01*
X23517292Y-59900552D02*
X23660149Y-59900552D01*
X23660149Y-59900552D02*
X23755387Y-59948171D01*
X23755387Y-59948171D02*
X23803006Y-60043409D01*
X23803006Y-60043409D02*
X23803006Y-60567219D01*
X24707768Y-60519600D02*
X24612530Y-60567219D01*
X24612530Y-60567219D02*
X24422054Y-60567219D01*
X24422054Y-60567219D02*
X24326816Y-60519600D01*
X24326816Y-60519600D02*
X24279197Y-60471980D01*
X24279197Y-60471980D02*
X24231578Y-60376742D01*
X24231578Y-60376742D02*
X24231578Y-60091028D01*
X24231578Y-60091028D02*
X24279197Y-59995790D01*
X24279197Y-59995790D02*
X24326816Y-59948171D01*
X24326816Y-59948171D02*
X24422054Y-59900552D01*
X24422054Y-59900552D02*
X24612530Y-59900552D01*
X24612530Y-59900552D02*
X24707768Y-59948171D01*
X18274435Y-63367219D02*
X18893482Y-63367219D01*
X18893482Y-63367219D02*
X18560149Y-63748171D01*
X18560149Y-63748171D02*
X18703006Y-63748171D01*
X18703006Y-63748171D02*
X18798244Y-63795790D01*
X18798244Y-63795790D02*
X18845863Y-63843409D01*
X18845863Y-63843409D02*
X18893482Y-63938647D01*
X18893482Y-63938647D02*
X18893482Y-64176742D01*
X18893482Y-64176742D02*
X18845863Y-64271980D01*
X18845863Y-64271980D02*
X18798244Y-64319600D01*
X18798244Y-64319600D02*
X18703006Y-64367219D01*
X18703006Y-64367219D02*
X18417292Y-64367219D01*
X18417292Y-64367219D02*
X18322054Y-64319600D01*
X18322054Y-64319600D02*
X18274435Y-64271980D01*
X19322054Y-64271980D02*
X19369673Y-64319600D01*
X19369673Y-64319600D02*
X19322054Y-64367219D01*
X19322054Y-64367219D02*
X19274435Y-64319600D01*
X19274435Y-64319600D02*
X19322054Y-64271980D01*
X19322054Y-64271980D02*
X19322054Y-64367219D01*
X19703006Y-63367219D02*
X20322053Y-63367219D01*
X20322053Y-63367219D02*
X19988720Y-63748171D01*
X19988720Y-63748171D02*
X20131577Y-63748171D01*
X20131577Y-63748171D02*
X20226815Y-63795790D01*
X20226815Y-63795790D02*
X20274434Y-63843409D01*
X20274434Y-63843409D02*
X20322053Y-63938647D01*
X20322053Y-63938647D02*
X20322053Y-64176742D01*
X20322053Y-64176742D02*
X20274434Y-64271980D01*
X20274434Y-64271980D02*
X20226815Y-64319600D01*
X20226815Y-64319600D02*
X20131577Y-64367219D01*
X20131577Y-64367219D02*
X19845863Y-64367219D01*
X19845863Y-64367219D02*
X19750625Y-64319600D01*
X19750625Y-64319600D02*
X19703006Y-64271980D01*
X20607768Y-63367219D02*
X20941101Y-64367219D01*
X20941101Y-64367219D02*
X21274434Y-63367219D01*
D10*
X117417657Y-56893734D02*
X117370038Y-56846115D01*
X117370038Y-56846115D02*
X117322419Y-56750877D01*
X117322419Y-56750877D02*
X117322419Y-56512782D01*
X117322419Y-56512782D02*
X117370038Y-56417544D01*
X117370038Y-56417544D02*
X117417657Y-56369925D01*
X117417657Y-56369925D02*
X117512895Y-56322306D01*
X117512895Y-56322306D02*
X117608133Y-56322306D01*
X117608133Y-56322306D02*
X117750990Y-56369925D01*
X117750990Y-56369925D02*
X118322419Y-56941353D01*
X118322419Y-56941353D02*
X118322419Y-56322306D01*
X117655752Y-55465163D02*
X118322419Y-55465163D01*
X117274800Y-55703258D02*
X117989085Y-55941353D01*
X117989085Y-55941353D02*
X117989085Y-55322306D01*
X117322419Y-55084210D02*
X118322419Y-54750877D01*
X118322419Y-54750877D02*
X117322419Y-54417544D01*
D11*
X37103006Y-41843409D02*
X37245863Y-41891028D01*
X37245863Y-41891028D02*
X37293482Y-41938647D01*
X37293482Y-41938647D02*
X37341101Y-42033885D01*
X37341101Y-42033885D02*
X37341101Y-42176742D01*
X37341101Y-42176742D02*
X37293482Y-42271980D01*
X37293482Y-42271980D02*
X37245863Y-42319600D01*
X37245863Y-42319600D02*
X37150625Y-42367219D01*
X37150625Y-42367219D02*
X36769673Y-42367219D01*
X36769673Y-42367219D02*
X36769673Y-41367219D01*
X36769673Y-41367219D02*
X37103006Y-41367219D01*
X37103006Y-41367219D02*
X37198244Y-41414838D01*
X37198244Y-41414838D02*
X37245863Y-41462457D01*
X37245863Y-41462457D02*
X37293482Y-41557695D01*
X37293482Y-41557695D02*
X37293482Y-41652933D01*
X37293482Y-41652933D02*
X37245863Y-41748171D01*
X37245863Y-41748171D02*
X37198244Y-41795790D01*
X37198244Y-41795790D02*
X37103006Y-41843409D01*
X37103006Y-41843409D02*
X36769673Y-41843409D01*
X37626816Y-41700552D02*
X38007768Y-41700552D01*
X37769673Y-41367219D02*
X37769673Y-42224361D01*
X37769673Y-42224361D02*
X37817292Y-42319600D01*
X37817292Y-42319600D02*
X37912530Y-42367219D01*
X37912530Y-42367219D02*
X38007768Y-42367219D01*
X38341102Y-41700552D02*
X38341102Y-42367219D01*
X38341102Y-41795790D02*
X38388721Y-41748171D01*
X38388721Y-41748171D02*
X38483959Y-41700552D01*
X38483959Y-41700552D02*
X38626816Y-41700552D01*
X38626816Y-41700552D02*
X38722054Y-41748171D01*
X38722054Y-41748171D02*
X38769673Y-41843409D01*
X38769673Y-41843409D02*
X38769673Y-42367219D01*
X107269673Y-68067219D02*
X107269673Y-67067219D01*
X107269673Y-67067219D02*
X107507768Y-67067219D01*
X107507768Y-67067219D02*
X107650625Y-67114838D01*
X107650625Y-67114838D02*
X107745863Y-67210076D01*
X107745863Y-67210076D02*
X107793482Y-67305314D01*
X107793482Y-67305314D02*
X107841101Y-67495790D01*
X107841101Y-67495790D02*
X107841101Y-67638647D01*
X107841101Y-67638647D02*
X107793482Y-67829123D01*
X107793482Y-67829123D02*
X107745863Y-67924361D01*
X107745863Y-67924361D02*
X107650625Y-68019600D01*
X107650625Y-68019600D02*
X107507768Y-68067219D01*
X107507768Y-68067219D02*
X107269673Y-68067219D01*
X108698244Y-68067219D02*
X108698244Y-67543409D01*
X108698244Y-67543409D02*
X108650625Y-67448171D01*
X108650625Y-67448171D02*
X108555387Y-67400552D01*
X108555387Y-67400552D02*
X108364911Y-67400552D01*
X108364911Y-67400552D02*
X108269673Y-67448171D01*
X108698244Y-68019600D02*
X108603006Y-68067219D01*
X108603006Y-68067219D02*
X108364911Y-68067219D01*
X108364911Y-68067219D02*
X108269673Y-68019600D01*
X108269673Y-68019600D02*
X108222054Y-67924361D01*
X108222054Y-67924361D02*
X108222054Y-67829123D01*
X108222054Y-67829123D02*
X108269673Y-67733885D01*
X108269673Y-67733885D02*
X108364911Y-67686266D01*
X108364911Y-67686266D02*
X108603006Y-67686266D01*
X108603006Y-67686266D02*
X108698244Y-67638647D01*
X109031578Y-67400552D02*
X109412530Y-67400552D01*
X109174435Y-67067219D02*
X109174435Y-67924361D01*
X109174435Y-67924361D02*
X109222054Y-68019600D01*
X109222054Y-68019600D02*
X109317292Y-68067219D01*
X109317292Y-68067219D02*
X109412530Y-68067219D01*
X110174435Y-68067219D02*
X110174435Y-67543409D01*
X110174435Y-67543409D02*
X110126816Y-67448171D01*
X110126816Y-67448171D02*
X110031578Y-67400552D01*
X110031578Y-67400552D02*
X109841102Y-67400552D01*
X109841102Y-67400552D02*
X109745864Y-67448171D01*
X110174435Y-68019600D02*
X110079197Y-68067219D01*
X110079197Y-68067219D02*
X109841102Y-68067219D01*
X109841102Y-68067219D02*
X109745864Y-68019600D01*
X109745864Y-68019600D02*
X109698245Y-67924361D01*
X109698245Y-67924361D02*
X109698245Y-67829123D01*
X109698245Y-67829123D02*
X109745864Y-67733885D01*
X109745864Y-67733885D02*
X109841102Y-67686266D01*
X109841102Y-67686266D02*
X110079197Y-67686266D01*
X110079197Y-67686266D02*
X110174435Y-67638647D01*
X18067219Y-57030326D02*
X17067219Y-57030326D01*
X17067219Y-57030326D02*
X17781504Y-56696993D01*
X17781504Y-56696993D02*
X17067219Y-56363660D01*
X17067219Y-56363660D02*
X18067219Y-56363660D01*
X17400552Y-55458898D02*
X18210076Y-55458898D01*
X18210076Y-55458898D02*
X18305314Y-55506517D01*
X18305314Y-55506517D02*
X18352933Y-55554136D01*
X18352933Y-55554136D02*
X18400552Y-55649374D01*
X18400552Y-55649374D02*
X18400552Y-55792231D01*
X18400552Y-55792231D02*
X18352933Y-55887469D01*
X18019600Y-55458898D02*
X18067219Y-55554136D01*
X18067219Y-55554136D02*
X18067219Y-55744612D01*
X18067219Y-55744612D02*
X18019600Y-55839850D01*
X18019600Y-55839850D02*
X17971980Y-55887469D01*
X17971980Y-55887469D02*
X17876742Y-55935088D01*
X17876742Y-55935088D02*
X17591028Y-55935088D01*
X17591028Y-55935088D02*
X17495790Y-55887469D01*
X17495790Y-55887469D02*
X17448171Y-55839850D01*
X17448171Y-55839850D02*
X17400552Y-55744612D01*
X17400552Y-55744612D02*
X17400552Y-55554136D01*
X17400552Y-55554136D02*
X17448171Y-55458898D01*
X18067219Y-54982707D02*
X17400552Y-54982707D01*
X17591028Y-54982707D02*
X17495790Y-54935088D01*
X17495790Y-54935088D02*
X17448171Y-54887469D01*
X17448171Y-54887469D02*
X17400552Y-54792231D01*
X17400552Y-54792231D02*
X17400552Y-54696993D01*
D12*
X40454819Y-37666666D02*
X39978628Y-37999999D01*
X40454819Y-38238094D02*
X39454819Y-38238094D01*
X39454819Y-38238094D02*
X39454819Y-37857142D01*
X39454819Y-37857142D02*
X39502438Y-37761904D01*
X39502438Y-37761904D02*
X39550057Y-37714285D01*
X39550057Y-37714285D02*
X39645295Y-37666666D01*
X39645295Y-37666666D02*
X39788152Y-37666666D01*
X39788152Y-37666666D02*
X39883390Y-37714285D01*
X39883390Y-37714285D02*
X39931009Y-37761904D01*
X39931009Y-37761904D02*
X39978628Y-37857142D01*
X39978628Y-37857142D02*
X39978628Y-38238094D01*
X39454819Y-36809523D02*
X39454819Y-36999999D01*
X39454819Y-36999999D02*
X39502438Y-37095237D01*
X39502438Y-37095237D02*
X39550057Y-37142856D01*
X39550057Y-37142856D02*
X39692914Y-37238094D01*
X39692914Y-37238094D02*
X39883390Y-37285713D01*
X39883390Y-37285713D02*
X40264342Y-37285713D01*
X40264342Y-37285713D02*
X40359580Y-37238094D01*
X40359580Y-37238094D02*
X40407200Y-37190475D01*
X40407200Y-37190475D02*
X40454819Y-37095237D01*
X40454819Y-37095237D02*
X40454819Y-36904761D01*
X40454819Y-36904761D02*
X40407200Y-36809523D01*
X40407200Y-36809523D02*
X40359580Y-36761904D01*
X40359580Y-36761904D02*
X40264342Y-36714285D01*
X40264342Y-36714285D02*
X40026247Y-36714285D01*
X40026247Y-36714285D02*
X39931009Y-36761904D01*
X39931009Y-36761904D02*
X39883390Y-36809523D01*
X39883390Y-36809523D02*
X39835771Y-36904761D01*
X39835771Y-36904761D02*
X39835771Y-37095237D01*
X39835771Y-37095237D02*
X39883390Y-37190475D01*
X39883390Y-37190475D02*
X39931009Y-37238094D01*
X39931009Y-37238094D02*
X40026247Y-37285713D01*
X57659580Y-54616666D02*
X57707200Y-54664285D01*
X57707200Y-54664285D02*
X57754819Y-54807142D01*
X57754819Y-54807142D02*
X57754819Y-54902380D01*
X57754819Y-54902380D02*
X57707200Y-55045237D01*
X57707200Y-55045237D02*
X57611961Y-55140475D01*
X57611961Y-55140475D02*
X57516723Y-55188094D01*
X57516723Y-55188094D02*
X57326247Y-55235713D01*
X57326247Y-55235713D02*
X57183390Y-55235713D01*
X57183390Y-55235713D02*
X56992914Y-55188094D01*
X56992914Y-55188094D02*
X56897676Y-55140475D01*
X56897676Y-55140475D02*
X56802438Y-55045237D01*
X56802438Y-55045237D02*
X56754819Y-54902380D01*
X56754819Y-54902380D02*
X56754819Y-54807142D01*
X56754819Y-54807142D02*
X56802438Y-54664285D01*
X56802438Y-54664285D02*
X56850057Y-54616666D01*
X56850057Y-54235713D02*
X56802438Y-54188094D01*
X56802438Y-54188094D02*
X56754819Y-54092856D01*
X56754819Y-54092856D02*
X56754819Y-53854761D01*
X56754819Y-53854761D02*
X56802438Y-53759523D01*
X56802438Y-53759523D02*
X56850057Y-53711904D01*
X56850057Y-53711904D02*
X56945295Y-53664285D01*
X56945295Y-53664285D02*
X57040533Y-53664285D01*
X57040533Y-53664285D02*
X57183390Y-53711904D01*
X57183390Y-53711904D02*
X57754819Y-54283332D01*
X57754819Y-54283332D02*
X57754819Y-53664285D01*
X33659580Y-48066666D02*
X33707200Y-48114285D01*
X33707200Y-48114285D02*
X33754819Y-48257142D01*
X33754819Y-48257142D02*
X33754819Y-48352380D01*
X33754819Y-48352380D02*
X33707200Y-48495237D01*
X33707200Y-48495237D02*
X33611961Y-48590475D01*
X33611961Y-48590475D02*
X33516723Y-48638094D01*
X33516723Y-48638094D02*
X33326247Y-48685713D01*
X33326247Y-48685713D02*
X33183390Y-48685713D01*
X33183390Y-48685713D02*
X32992914Y-48638094D01*
X32992914Y-48638094D02*
X32897676Y-48590475D01*
X32897676Y-48590475D02*
X32802438Y-48495237D01*
X32802438Y-48495237D02*
X32754819Y-48352380D01*
X32754819Y-48352380D02*
X32754819Y-48257142D01*
X32754819Y-48257142D02*
X32802438Y-48114285D01*
X32802438Y-48114285D02*
X32850057Y-48066666D01*
X33754819Y-47114285D02*
X33754819Y-47685713D01*
X33754819Y-47399999D02*
X32754819Y-47399999D01*
X32754819Y-47399999D02*
X32897676Y-47495237D01*
X32897676Y-47495237D02*
X32992914Y-47590475D01*
X32992914Y-47590475D02*
X33040533Y-47685713D01*
X99204761Y-84550057D02*
X99109523Y-84502438D01*
X99109523Y-84502438D02*
X99014285Y-84407200D01*
X99014285Y-84407200D02*
X98871428Y-84264342D01*
X98871428Y-84264342D02*
X98776190Y-84216723D01*
X98776190Y-84216723D02*
X98680952Y-84216723D01*
X98728571Y-84454819D02*
X98633333Y-84407200D01*
X98633333Y-84407200D02*
X98538095Y-84311961D01*
X98538095Y-84311961D02*
X98490476Y-84121485D01*
X98490476Y-84121485D02*
X98490476Y-83788152D01*
X98490476Y-83788152D02*
X98538095Y-83597676D01*
X98538095Y-83597676D02*
X98633333Y-83502438D01*
X98633333Y-83502438D02*
X98728571Y-83454819D01*
X98728571Y-83454819D02*
X98919047Y-83454819D01*
X98919047Y-83454819D02*
X99014285Y-83502438D01*
X99014285Y-83502438D02*
X99109523Y-83597676D01*
X99109523Y-83597676D02*
X99157142Y-83788152D01*
X99157142Y-83788152D02*
X99157142Y-84121485D01*
X99157142Y-84121485D02*
X99109523Y-84311961D01*
X99109523Y-84311961D02*
X99014285Y-84407200D01*
X99014285Y-84407200D02*
X98919047Y-84454819D01*
X98919047Y-84454819D02*
X98728571Y-84454819D01*
X100109523Y-84454819D02*
X99538095Y-84454819D01*
X99823809Y-84454819D02*
X99823809Y-83454819D01*
X99823809Y-83454819D02*
X99728571Y-83597676D01*
X99728571Y-83597676D02*
X99633333Y-83692914D01*
X99633333Y-83692914D02*
X99538095Y-83740533D01*
D13*
X41974318Y-69839762D02*
X40704318Y-69839762D01*
X41853365Y-68509285D02*
X41913842Y-68569761D01*
X41913842Y-68569761D02*
X41974318Y-68751190D01*
X41974318Y-68751190D02*
X41974318Y-68872142D01*
X41974318Y-68872142D02*
X41913842Y-69053571D01*
X41913842Y-69053571D02*
X41792889Y-69174523D01*
X41792889Y-69174523D02*
X41671937Y-69235000D01*
X41671937Y-69235000D02*
X41430032Y-69295476D01*
X41430032Y-69295476D02*
X41248603Y-69295476D01*
X41248603Y-69295476D02*
X41006699Y-69235000D01*
X41006699Y-69235000D02*
X40885746Y-69174523D01*
X40885746Y-69174523D02*
X40764794Y-69053571D01*
X40764794Y-69053571D02*
X40704318Y-68872142D01*
X40704318Y-68872142D02*
X40704318Y-68751190D01*
X40704318Y-68751190D02*
X40764794Y-68569761D01*
X40764794Y-68569761D02*
X40825270Y-68509285D01*
X41974318Y-67299761D02*
X41974318Y-68025476D01*
X41974318Y-67662619D02*
X40704318Y-67662619D01*
X40704318Y-67662619D02*
X40885746Y-67783571D01*
X40885746Y-67783571D02*
X41006699Y-67904523D01*
X41006699Y-67904523D02*
X41067175Y-68025476D01*
D12*
X52704819Y-37142857D02*
X52228628Y-37476190D01*
X52704819Y-37714285D02*
X51704819Y-37714285D01*
X51704819Y-37714285D02*
X51704819Y-37333333D01*
X51704819Y-37333333D02*
X51752438Y-37238095D01*
X51752438Y-37238095D02*
X51800057Y-37190476D01*
X51800057Y-37190476D02*
X51895295Y-37142857D01*
X51895295Y-37142857D02*
X52038152Y-37142857D01*
X52038152Y-37142857D02*
X52133390Y-37190476D01*
X52133390Y-37190476D02*
X52181009Y-37238095D01*
X52181009Y-37238095D02*
X52228628Y-37333333D01*
X52228628Y-37333333D02*
X52228628Y-37714285D01*
X51800057Y-36761904D02*
X51752438Y-36714285D01*
X51752438Y-36714285D02*
X51704819Y-36619047D01*
X51704819Y-36619047D02*
X51704819Y-36380952D01*
X51704819Y-36380952D02*
X51752438Y-36285714D01*
X51752438Y-36285714D02*
X51800057Y-36238095D01*
X51800057Y-36238095D02*
X51895295Y-36190476D01*
X51895295Y-36190476D02*
X51990533Y-36190476D01*
X51990533Y-36190476D02*
X52133390Y-36238095D01*
X52133390Y-36238095D02*
X52704819Y-36809523D01*
X52704819Y-36809523D02*
X52704819Y-36190476D01*
X51800057Y-35809523D02*
X51752438Y-35761904D01*
X51752438Y-35761904D02*
X51704819Y-35666666D01*
X51704819Y-35666666D02*
X51704819Y-35428571D01*
X51704819Y-35428571D02*
X51752438Y-35333333D01*
X51752438Y-35333333D02*
X51800057Y-35285714D01*
X51800057Y-35285714D02*
X51895295Y-35238095D01*
X51895295Y-35238095D02*
X51990533Y-35238095D01*
X51990533Y-35238095D02*
X52133390Y-35285714D01*
X52133390Y-35285714D02*
X52704819Y-35857142D01*
X52704819Y-35857142D02*
X52704819Y-35238095D01*
X70059580Y-63766666D02*
X70107200Y-63814285D01*
X70107200Y-63814285D02*
X70154819Y-63957142D01*
X70154819Y-63957142D02*
X70154819Y-64052380D01*
X70154819Y-64052380D02*
X70107200Y-64195237D01*
X70107200Y-64195237D02*
X70011961Y-64290475D01*
X70011961Y-64290475D02*
X69916723Y-64338094D01*
X69916723Y-64338094D02*
X69726247Y-64385713D01*
X69726247Y-64385713D02*
X69583390Y-64385713D01*
X69583390Y-64385713D02*
X69392914Y-64338094D01*
X69392914Y-64338094D02*
X69297676Y-64290475D01*
X69297676Y-64290475D02*
X69202438Y-64195237D01*
X69202438Y-64195237D02*
X69154819Y-64052380D01*
X69154819Y-64052380D02*
X69154819Y-63957142D01*
X69154819Y-63957142D02*
X69202438Y-63814285D01*
X69202438Y-63814285D02*
X69250057Y-63766666D01*
X70154819Y-62766666D02*
X69678628Y-63099999D01*
X70154819Y-63338094D02*
X69154819Y-63338094D01*
X69154819Y-63338094D02*
X69154819Y-62957142D01*
X69154819Y-62957142D02*
X69202438Y-62861904D01*
X69202438Y-62861904D02*
X69250057Y-62814285D01*
X69250057Y-62814285D02*
X69345295Y-62766666D01*
X69345295Y-62766666D02*
X69488152Y-62766666D01*
X69488152Y-62766666D02*
X69583390Y-62814285D01*
X69583390Y-62814285D02*
X69631009Y-62861904D01*
X69631009Y-62861904D02*
X69678628Y-62957142D01*
X69678628Y-62957142D02*
X69678628Y-63338094D01*
X70154819Y-61814285D02*
X70154819Y-62385713D01*
X70154819Y-62099999D02*
X69154819Y-62099999D01*
X69154819Y-62099999D02*
X69297676Y-62195237D01*
X69297676Y-62195237D02*
X69392914Y-62290475D01*
X69392914Y-62290475D02*
X69440533Y-62385713D01*
X36377142Y-49122080D02*
X36329523Y-49169700D01*
X36329523Y-49169700D02*
X36186666Y-49217319D01*
X36186666Y-49217319D02*
X36091428Y-49217319D01*
X36091428Y-49217319D02*
X35948571Y-49169700D01*
X35948571Y-49169700D02*
X35853333Y-49074461D01*
X35853333Y-49074461D02*
X35805714Y-48979223D01*
X35805714Y-48979223D02*
X35758095Y-48788747D01*
X35758095Y-48788747D02*
X35758095Y-48645890D01*
X35758095Y-48645890D02*
X35805714Y-48455414D01*
X35805714Y-48455414D02*
X35853333Y-48360176D01*
X35853333Y-48360176D02*
X35948571Y-48264938D01*
X35948571Y-48264938D02*
X36091428Y-48217319D01*
X36091428Y-48217319D02*
X36186666Y-48217319D01*
X36186666Y-48217319D02*
X36329523Y-48264938D01*
X36329523Y-48264938D02*
X36377142Y-48312557D01*
X36758095Y-48312557D02*
X36805714Y-48264938D01*
X36805714Y-48264938D02*
X36900952Y-48217319D01*
X36900952Y-48217319D02*
X37139047Y-48217319D01*
X37139047Y-48217319D02*
X37234285Y-48264938D01*
X37234285Y-48264938D02*
X37281904Y-48312557D01*
X37281904Y-48312557D02*
X37329523Y-48407795D01*
X37329523Y-48407795D02*
X37329523Y-48503033D01*
X37329523Y-48503033D02*
X37281904Y-48645890D01*
X37281904Y-48645890D02*
X36710476Y-49217319D01*
X36710476Y-49217319D02*
X37329523Y-49217319D01*
X38281904Y-49217319D02*
X37710476Y-49217319D01*
X37996190Y-49217319D02*
X37996190Y-48217319D01*
X37996190Y-48217319D02*
X37900952Y-48360176D01*
X37900952Y-48360176D02*
X37805714Y-48455414D01*
X37805714Y-48455414D02*
X37710476Y-48503033D01*
X60154819Y-33642857D02*
X59678628Y-33976190D01*
X60154819Y-34214285D02*
X59154819Y-34214285D01*
X59154819Y-34214285D02*
X59154819Y-33833333D01*
X59154819Y-33833333D02*
X59202438Y-33738095D01*
X59202438Y-33738095D02*
X59250057Y-33690476D01*
X59250057Y-33690476D02*
X59345295Y-33642857D01*
X59345295Y-33642857D02*
X59488152Y-33642857D01*
X59488152Y-33642857D02*
X59583390Y-33690476D01*
X59583390Y-33690476D02*
X59631009Y-33738095D01*
X59631009Y-33738095D02*
X59678628Y-33833333D01*
X59678628Y-33833333D02*
X59678628Y-34214285D01*
X59250057Y-33261904D02*
X59202438Y-33214285D01*
X59202438Y-33214285D02*
X59154819Y-33119047D01*
X59154819Y-33119047D02*
X59154819Y-32880952D01*
X59154819Y-32880952D02*
X59202438Y-32785714D01*
X59202438Y-32785714D02*
X59250057Y-32738095D01*
X59250057Y-32738095D02*
X59345295Y-32690476D01*
X59345295Y-32690476D02*
X59440533Y-32690476D01*
X59440533Y-32690476D02*
X59583390Y-32738095D01*
X59583390Y-32738095D02*
X60154819Y-33309523D01*
X60154819Y-33309523D02*
X60154819Y-32690476D01*
X60154819Y-31738095D02*
X60154819Y-32309523D01*
X60154819Y-32023809D02*
X59154819Y-32023809D01*
X59154819Y-32023809D02*
X59297676Y-32119047D01*
X59297676Y-32119047D02*
X59392914Y-32214285D01*
X59392914Y-32214285D02*
X59440533Y-32309523D01*
X44454819Y-37916666D02*
X43978628Y-38249999D01*
X44454819Y-38488094D02*
X43454819Y-38488094D01*
X43454819Y-38488094D02*
X43454819Y-38107142D01*
X43454819Y-38107142D02*
X43502438Y-38011904D01*
X43502438Y-38011904D02*
X43550057Y-37964285D01*
X43550057Y-37964285D02*
X43645295Y-37916666D01*
X43645295Y-37916666D02*
X43788152Y-37916666D01*
X43788152Y-37916666D02*
X43883390Y-37964285D01*
X43883390Y-37964285D02*
X43931009Y-38011904D01*
X43931009Y-38011904D02*
X43978628Y-38107142D01*
X43978628Y-38107142D02*
X43978628Y-38488094D01*
X43883390Y-37345237D02*
X43835771Y-37440475D01*
X43835771Y-37440475D02*
X43788152Y-37488094D01*
X43788152Y-37488094D02*
X43692914Y-37535713D01*
X43692914Y-37535713D02*
X43645295Y-37535713D01*
X43645295Y-37535713D02*
X43550057Y-37488094D01*
X43550057Y-37488094D02*
X43502438Y-37440475D01*
X43502438Y-37440475D02*
X43454819Y-37345237D01*
X43454819Y-37345237D02*
X43454819Y-37154761D01*
X43454819Y-37154761D02*
X43502438Y-37059523D01*
X43502438Y-37059523D02*
X43550057Y-37011904D01*
X43550057Y-37011904D02*
X43645295Y-36964285D01*
X43645295Y-36964285D02*
X43692914Y-36964285D01*
X43692914Y-36964285D02*
X43788152Y-37011904D01*
X43788152Y-37011904D02*
X43835771Y-37059523D01*
X43835771Y-37059523D02*
X43883390Y-37154761D01*
X43883390Y-37154761D02*
X43883390Y-37345237D01*
X43883390Y-37345237D02*
X43931009Y-37440475D01*
X43931009Y-37440475D02*
X43978628Y-37488094D01*
X43978628Y-37488094D02*
X44073866Y-37535713D01*
X44073866Y-37535713D02*
X44264342Y-37535713D01*
X44264342Y-37535713D02*
X44359580Y-37488094D01*
X44359580Y-37488094D02*
X44407200Y-37440475D01*
X44407200Y-37440475D02*
X44454819Y-37345237D01*
X44454819Y-37345237D02*
X44454819Y-37154761D01*
X44454819Y-37154761D02*
X44407200Y-37059523D01*
X44407200Y-37059523D02*
X44359580Y-37011904D01*
X44359580Y-37011904D02*
X44264342Y-36964285D01*
X44264342Y-36964285D02*
X44073866Y-36964285D01*
X44073866Y-36964285D02*
X43978628Y-37011904D01*
X43978628Y-37011904D02*
X43931009Y-37059523D01*
X43931009Y-37059523D02*
X43883390Y-37154761D01*
X56359580Y-37142857D02*
X56407200Y-37190476D01*
X56407200Y-37190476D02*
X56454819Y-37333333D01*
X56454819Y-37333333D02*
X56454819Y-37428571D01*
X56454819Y-37428571D02*
X56407200Y-37571428D01*
X56407200Y-37571428D02*
X56311961Y-37666666D01*
X56311961Y-37666666D02*
X56216723Y-37714285D01*
X56216723Y-37714285D02*
X56026247Y-37761904D01*
X56026247Y-37761904D02*
X55883390Y-37761904D01*
X55883390Y-37761904D02*
X55692914Y-37714285D01*
X55692914Y-37714285D02*
X55597676Y-37666666D01*
X55597676Y-37666666D02*
X55502438Y-37571428D01*
X55502438Y-37571428D02*
X55454819Y-37428571D01*
X55454819Y-37428571D02*
X55454819Y-37333333D01*
X55454819Y-37333333D02*
X55502438Y-37190476D01*
X55502438Y-37190476D02*
X55550057Y-37142857D01*
X55550057Y-36761904D02*
X55502438Y-36714285D01*
X55502438Y-36714285D02*
X55454819Y-36619047D01*
X55454819Y-36619047D02*
X55454819Y-36380952D01*
X55454819Y-36380952D02*
X55502438Y-36285714D01*
X55502438Y-36285714D02*
X55550057Y-36238095D01*
X55550057Y-36238095D02*
X55645295Y-36190476D01*
X55645295Y-36190476D02*
X55740533Y-36190476D01*
X55740533Y-36190476D02*
X55883390Y-36238095D01*
X55883390Y-36238095D02*
X56454819Y-36809523D01*
X56454819Y-36809523D02*
X56454819Y-36190476D01*
X55454819Y-35857142D02*
X55454819Y-35238095D01*
X55454819Y-35238095D02*
X55835771Y-35571428D01*
X55835771Y-35571428D02*
X55835771Y-35428571D01*
X55835771Y-35428571D02*
X55883390Y-35333333D01*
X55883390Y-35333333D02*
X55931009Y-35285714D01*
X55931009Y-35285714D02*
X56026247Y-35238095D01*
X56026247Y-35238095D02*
X56264342Y-35238095D01*
X56264342Y-35238095D02*
X56359580Y-35285714D01*
X56359580Y-35285714D02*
X56407200Y-35333333D01*
X56407200Y-35333333D02*
X56454819Y-35428571D01*
X56454819Y-35428571D02*
X56454819Y-35714285D01*
X56454819Y-35714285D02*
X56407200Y-35809523D01*
X56407200Y-35809523D02*
X56359580Y-35857142D01*
X54257142Y-45659580D02*
X54209523Y-45707200D01*
X54209523Y-45707200D02*
X54066666Y-45754819D01*
X54066666Y-45754819D02*
X53971428Y-45754819D01*
X53971428Y-45754819D02*
X53828571Y-45707200D01*
X53828571Y-45707200D02*
X53733333Y-45611961D01*
X53733333Y-45611961D02*
X53685714Y-45516723D01*
X53685714Y-45516723D02*
X53638095Y-45326247D01*
X53638095Y-45326247D02*
X53638095Y-45183390D01*
X53638095Y-45183390D02*
X53685714Y-44992914D01*
X53685714Y-44992914D02*
X53733333Y-44897676D01*
X53733333Y-44897676D02*
X53828571Y-44802438D01*
X53828571Y-44802438D02*
X53971428Y-44754819D01*
X53971428Y-44754819D02*
X54066666Y-44754819D01*
X54066666Y-44754819D02*
X54209523Y-44802438D01*
X54209523Y-44802438D02*
X54257142Y-44850057D01*
X55209523Y-45754819D02*
X54638095Y-45754819D01*
X54923809Y-45754819D02*
X54923809Y-44754819D01*
X54923809Y-44754819D02*
X54828571Y-44897676D01*
X54828571Y-44897676D02*
X54733333Y-44992914D01*
X54733333Y-44992914D02*
X54638095Y-45040533D01*
X55590476Y-44850057D02*
X55638095Y-44802438D01*
X55638095Y-44802438D02*
X55733333Y-44754819D01*
X55733333Y-44754819D02*
X55971428Y-44754819D01*
X55971428Y-44754819D02*
X56066666Y-44802438D01*
X56066666Y-44802438D02*
X56114285Y-44850057D01*
X56114285Y-44850057D02*
X56161904Y-44945295D01*
X56161904Y-44945295D02*
X56161904Y-45040533D01*
X56161904Y-45040533D02*
X56114285Y-45183390D01*
X56114285Y-45183390D02*
X55542857Y-45754819D01*
X55542857Y-45754819D02*
X56161904Y-45754819D01*
X49859580Y-36416666D02*
X49907200Y-36464285D01*
X49907200Y-36464285D02*
X49954819Y-36607142D01*
X49954819Y-36607142D02*
X49954819Y-36702380D01*
X49954819Y-36702380D02*
X49907200Y-36845237D01*
X49907200Y-36845237D02*
X49811961Y-36940475D01*
X49811961Y-36940475D02*
X49716723Y-36988094D01*
X49716723Y-36988094D02*
X49526247Y-37035713D01*
X49526247Y-37035713D02*
X49383390Y-37035713D01*
X49383390Y-37035713D02*
X49192914Y-36988094D01*
X49192914Y-36988094D02*
X49097676Y-36940475D01*
X49097676Y-36940475D02*
X49002438Y-36845237D01*
X49002438Y-36845237D02*
X48954819Y-36702380D01*
X48954819Y-36702380D02*
X48954819Y-36607142D01*
X48954819Y-36607142D02*
X49002438Y-36464285D01*
X49002438Y-36464285D02*
X49050057Y-36416666D01*
X49954819Y-35940475D02*
X49954819Y-35749999D01*
X49954819Y-35749999D02*
X49907200Y-35654761D01*
X49907200Y-35654761D02*
X49859580Y-35607142D01*
X49859580Y-35607142D02*
X49716723Y-35511904D01*
X49716723Y-35511904D02*
X49526247Y-35464285D01*
X49526247Y-35464285D02*
X49145295Y-35464285D01*
X49145295Y-35464285D02*
X49050057Y-35511904D01*
X49050057Y-35511904D02*
X49002438Y-35559523D01*
X49002438Y-35559523D02*
X48954819Y-35654761D01*
X48954819Y-35654761D02*
X48954819Y-35845237D01*
X48954819Y-35845237D02*
X49002438Y-35940475D01*
X49002438Y-35940475D02*
X49050057Y-35988094D01*
X49050057Y-35988094D02*
X49145295Y-36035713D01*
X49145295Y-36035713D02*
X49383390Y-36035713D01*
X49383390Y-36035713D02*
X49478628Y-35988094D01*
X49478628Y-35988094D02*
X49526247Y-35940475D01*
X49526247Y-35940475D02*
X49573866Y-35845237D01*
X49573866Y-35845237D02*
X49573866Y-35654761D01*
X49573866Y-35654761D02*
X49526247Y-35559523D01*
X49526247Y-35559523D02*
X49478628Y-35511904D01*
X49478628Y-35511904D02*
X49383390Y-35464285D01*
X106604761Y-82150057D02*
X106509523Y-82102438D01*
X106509523Y-82102438D02*
X106414285Y-82007200D01*
X106414285Y-82007200D02*
X106271428Y-81864342D01*
X106271428Y-81864342D02*
X106176190Y-81816723D01*
X106176190Y-81816723D02*
X106080952Y-81816723D01*
X106128571Y-82054819D02*
X106033333Y-82007200D01*
X106033333Y-82007200D02*
X105938095Y-81911961D01*
X105938095Y-81911961D02*
X105890476Y-81721485D01*
X105890476Y-81721485D02*
X105890476Y-81388152D01*
X105890476Y-81388152D02*
X105938095Y-81197676D01*
X105938095Y-81197676D02*
X106033333Y-81102438D01*
X106033333Y-81102438D02*
X106128571Y-81054819D01*
X106128571Y-81054819D02*
X106319047Y-81054819D01*
X106319047Y-81054819D02*
X106414285Y-81102438D01*
X106414285Y-81102438D02*
X106509523Y-81197676D01*
X106509523Y-81197676D02*
X106557142Y-81388152D01*
X106557142Y-81388152D02*
X106557142Y-81721485D01*
X106557142Y-81721485D02*
X106509523Y-81911961D01*
X106509523Y-81911961D02*
X106414285Y-82007200D01*
X106414285Y-82007200D02*
X106319047Y-82054819D01*
X106319047Y-82054819D02*
X106128571Y-82054819D01*
X106938095Y-81150057D02*
X106985714Y-81102438D01*
X106985714Y-81102438D02*
X107080952Y-81054819D01*
X107080952Y-81054819D02*
X107319047Y-81054819D01*
X107319047Y-81054819D02*
X107414285Y-81102438D01*
X107414285Y-81102438D02*
X107461904Y-81150057D01*
X107461904Y-81150057D02*
X107509523Y-81245295D01*
X107509523Y-81245295D02*
X107509523Y-81340533D01*
X107509523Y-81340533D02*
X107461904Y-81483390D01*
X107461904Y-81483390D02*
X106890476Y-82054819D01*
X106890476Y-82054819D02*
X107509523Y-82054819D01*
X37357142Y-45997080D02*
X37309523Y-46044700D01*
X37309523Y-46044700D02*
X37166666Y-46092319D01*
X37166666Y-46092319D02*
X37071428Y-46092319D01*
X37071428Y-46092319D02*
X36928571Y-46044700D01*
X36928571Y-46044700D02*
X36833333Y-45949461D01*
X36833333Y-45949461D02*
X36785714Y-45854223D01*
X36785714Y-45854223D02*
X36738095Y-45663747D01*
X36738095Y-45663747D02*
X36738095Y-45520890D01*
X36738095Y-45520890D02*
X36785714Y-45330414D01*
X36785714Y-45330414D02*
X36833333Y-45235176D01*
X36833333Y-45235176D02*
X36928571Y-45139938D01*
X36928571Y-45139938D02*
X37071428Y-45092319D01*
X37071428Y-45092319D02*
X37166666Y-45092319D01*
X37166666Y-45092319D02*
X37309523Y-45139938D01*
X37309523Y-45139938D02*
X37357142Y-45187557D01*
X38309523Y-46092319D02*
X37738095Y-46092319D01*
X38023809Y-46092319D02*
X38023809Y-45092319D01*
X38023809Y-45092319D02*
X37928571Y-45235176D01*
X37928571Y-45235176D02*
X37833333Y-45330414D01*
X37833333Y-45330414D02*
X37738095Y-45378033D01*
X39214285Y-45092319D02*
X38738095Y-45092319D01*
X38738095Y-45092319D02*
X38690476Y-45568509D01*
X38690476Y-45568509D02*
X38738095Y-45520890D01*
X38738095Y-45520890D02*
X38833333Y-45473271D01*
X38833333Y-45473271D02*
X39071428Y-45473271D01*
X39071428Y-45473271D02*
X39166666Y-45520890D01*
X39166666Y-45520890D02*
X39214285Y-45568509D01*
X39214285Y-45568509D02*
X39261904Y-45663747D01*
X39261904Y-45663747D02*
X39261904Y-45901842D01*
X39261904Y-45901842D02*
X39214285Y-45997080D01*
X39214285Y-45997080D02*
X39166666Y-46044700D01*
X39166666Y-46044700D02*
X39071428Y-46092319D01*
X39071428Y-46092319D02*
X38833333Y-46092319D01*
X38833333Y-46092319D02*
X38738095Y-46044700D01*
X38738095Y-46044700D02*
X38690476Y-45997080D01*
X36377142Y-50372080D02*
X36329523Y-50419700D01*
X36329523Y-50419700D02*
X36186666Y-50467319D01*
X36186666Y-50467319D02*
X36091428Y-50467319D01*
X36091428Y-50467319D02*
X35948571Y-50419700D01*
X35948571Y-50419700D02*
X35853333Y-50324461D01*
X35853333Y-50324461D02*
X35805714Y-50229223D01*
X35805714Y-50229223D02*
X35758095Y-50038747D01*
X35758095Y-50038747D02*
X35758095Y-49895890D01*
X35758095Y-49895890D02*
X35805714Y-49705414D01*
X35805714Y-49705414D02*
X35853333Y-49610176D01*
X35853333Y-49610176D02*
X35948571Y-49514938D01*
X35948571Y-49514938D02*
X36091428Y-49467319D01*
X36091428Y-49467319D02*
X36186666Y-49467319D01*
X36186666Y-49467319D02*
X36329523Y-49514938D01*
X36329523Y-49514938D02*
X36377142Y-49562557D01*
X37329523Y-50467319D02*
X36758095Y-50467319D01*
X37043809Y-50467319D02*
X37043809Y-49467319D01*
X37043809Y-49467319D02*
X36948571Y-49610176D01*
X36948571Y-49610176D02*
X36853333Y-49705414D01*
X36853333Y-49705414D02*
X36758095Y-49753033D01*
X38186666Y-49800652D02*
X38186666Y-50467319D01*
X37948571Y-49419700D02*
X37710476Y-50133985D01*
X37710476Y-50133985D02*
X38329523Y-50133985D01*
X35704819Y-76114285D02*
X34704819Y-76114285D01*
X34704819Y-76114285D02*
X34704819Y-75876190D01*
X34704819Y-75876190D02*
X34752438Y-75733333D01*
X34752438Y-75733333D02*
X34847676Y-75638095D01*
X34847676Y-75638095D02*
X34942914Y-75590476D01*
X34942914Y-75590476D02*
X35133390Y-75542857D01*
X35133390Y-75542857D02*
X35276247Y-75542857D01*
X35276247Y-75542857D02*
X35466723Y-75590476D01*
X35466723Y-75590476D02*
X35561961Y-75638095D01*
X35561961Y-75638095D02*
X35657200Y-75733333D01*
X35657200Y-75733333D02*
X35704819Y-75876190D01*
X35704819Y-75876190D02*
X35704819Y-76114285D01*
X35704819Y-74590476D02*
X35704819Y-75161904D01*
X35704819Y-74876190D02*
X34704819Y-74876190D01*
X34704819Y-74876190D02*
X34847676Y-74971428D01*
X34847676Y-74971428D02*
X34942914Y-75066666D01*
X34942914Y-75066666D02*
X34990533Y-75161904D01*
X35704819Y-73638095D02*
X35704819Y-74209523D01*
X35704819Y-73923809D02*
X34704819Y-73923809D01*
X34704819Y-73923809D02*
X34847676Y-74019047D01*
X34847676Y-74019047D02*
X34942914Y-74114285D01*
X34942914Y-74114285D02*
X34990533Y-74209523D01*
X100757142Y-89654819D02*
X100423809Y-89178628D01*
X100185714Y-89654819D02*
X100185714Y-88654819D01*
X100185714Y-88654819D02*
X100566666Y-88654819D01*
X100566666Y-88654819D02*
X100661904Y-88702438D01*
X100661904Y-88702438D02*
X100709523Y-88750057D01*
X100709523Y-88750057D02*
X100757142Y-88845295D01*
X100757142Y-88845295D02*
X100757142Y-88988152D01*
X100757142Y-88988152D02*
X100709523Y-89083390D01*
X100709523Y-89083390D02*
X100661904Y-89131009D01*
X100661904Y-89131009D02*
X100566666Y-89178628D01*
X100566666Y-89178628D02*
X100185714Y-89178628D01*
X101709523Y-89654819D02*
X101138095Y-89654819D01*
X101423809Y-89654819D02*
X101423809Y-88654819D01*
X101423809Y-88654819D02*
X101328571Y-88797676D01*
X101328571Y-88797676D02*
X101233333Y-88892914D01*
X101233333Y-88892914D02*
X101138095Y-88940533D01*
X102042857Y-88654819D02*
X102709523Y-88654819D01*
X102709523Y-88654819D02*
X102280952Y-89654819D01*
X30954819Y-58349404D02*
X31764342Y-58349404D01*
X31764342Y-58349404D02*
X31859580Y-58301785D01*
X31859580Y-58301785D02*
X31907200Y-58254166D01*
X31907200Y-58254166D02*
X31954819Y-58158928D01*
X31954819Y-58158928D02*
X31954819Y-57968452D01*
X31954819Y-57968452D02*
X31907200Y-57873214D01*
X31907200Y-57873214D02*
X31859580Y-57825595D01*
X31859580Y-57825595D02*
X31764342Y-57777976D01*
X31764342Y-57777976D02*
X30954819Y-57777976D01*
X31050057Y-57349404D02*
X31002438Y-57301785D01*
X31002438Y-57301785D02*
X30954819Y-57206547D01*
X30954819Y-57206547D02*
X30954819Y-56968452D01*
X30954819Y-56968452D02*
X31002438Y-56873214D01*
X31002438Y-56873214D02*
X31050057Y-56825595D01*
X31050057Y-56825595D02*
X31145295Y-56777976D01*
X31145295Y-56777976D02*
X31240533Y-56777976D01*
X31240533Y-56777976D02*
X31383390Y-56825595D01*
X31383390Y-56825595D02*
X31954819Y-57397023D01*
X31954819Y-57397023D02*
X31954819Y-56777976D01*
X17823986Y-70074076D02*
X17823986Y-69074076D01*
X17823986Y-69550266D02*
X18395414Y-69550266D01*
X18395414Y-70074076D02*
X18395414Y-69074076D01*
X18776367Y-69074076D02*
X19395414Y-69074076D01*
X19395414Y-69074076D02*
X19062081Y-69455028D01*
X19062081Y-69455028D02*
X19204938Y-69455028D01*
X19204938Y-69455028D02*
X19300176Y-69502647D01*
X19300176Y-69502647D02*
X19347795Y-69550266D01*
X19347795Y-69550266D02*
X19395414Y-69645504D01*
X19395414Y-69645504D02*
X19395414Y-69883599D01*
X19395414Y-69883599D02*
X19347795Y-69978837D01*
X19347795Y-69978837D02*
X19300176Y-70026457D01*
X19300176Y-70026457D02*
X19204938Y-70074076D01*
X19204938Y-70074076D02*
X18919224Y-70074076D01*
X18919224Y-70074076D02*
X18823986Y-70026457D01*
X18823986Y-70026457D02*
X18776367Y-69978837D01*
X54359580Y-37167857D02*
X54407200Y-37215476D01*
X54407200Y-37215476D02*
X54454819Y-37358333D01*
X54454819Y-37358333D02*
X54454819Y-37453571D01*
X54454819Y-37453571D02*
X54407200Y-37596428D01*
X54407200Y-37596428D02*
X54311961Y-37691666D01*
X54311961Y-37691666D02*
X54216723Y-37739285D01*
X54216723Y-37739285D02*
X54026247Y-37786904D01*
X54026247Y-37786904D02*
X53883390Y-37786904D01*
X53883390Y-37786904D02*
X53692914Y-37739285D01*
X53692914Y-37739285D02*
X53597676Y-37691666D01*
X53597676Y-37691666D02*
X53502438Y-37596428D01*
X53502438Y-37596428D02*
X53454819Y-37453571D01*
X53454819Y-37453571D02*
X53454819Y-37358333D01*
X53454819Y-37358333D02*
X53502438Y-37215476D01*
X53502438Y-37215476D02*
X53550057Y-37167857D01*
X53550057Y-36786904D02*
X53502438Y-36739285D01*
X53502438Y-36739285D02*
X53454819Y-36644047D01*
X53454819Y-36644047D02*
X53454819Y-36405952D01*
X53454819Y-36405952D02*
X53502438Y-36310714D01*
X53502438Y-36310714D02*
X53550057Y-36263095D01*
X53550057Y-36263095D02*
X53645295Y-36215476D01*
X53645295Y-36215476D02*
X53740533Y-36215476D01*
X53740533Y-36215476D02*
X53883390Y-36263095D01*
X53883390Y-36263095D02*
X54454819Y-36834523D01*
X54454819Y-36834523D02*
X54454819Y-36215476D01*
X53788152Y-35358333D02*
X54454819Y-35358333D01*
X53407200Y-35596428D02*
X54121485Y-35834523D01*
X54121485Y-35834523D02*
X54121485Y-35215476D01*
X47157142Y-56859580D02*
X47109523Y-56907200D01*
X47109523Y-56907200D02*
X46966666Y-56954819D01*
X46966666Y-56954819D02*
X46871428Y-56954819D01*
X46871428Y-56954819D02*
X46728571Y-56907200D01*
X46728571Y-56907200D02*
X46633333Y-56811961D01*
X46633333Y-56811961D02*
X46585714Y-56716723D01*
X46585714Y-56716723D02*
X46538095Y-56526247D01*
X46538095Y-56526247D02*
X46538095Y-56383390D01*
X46538095Y-56383390D02*
X46585714Y-56192914D01*
X46585714Y-56192914D02*
X46633333Y-56097676D01*
X46633333Y-56097676D02*
X46728571Y-56002438D01*
X46728571Y-56002438D02*
X46871428Y-55954819D01*
X46871428Y-55954819D02*
X46966666Y-55954819D01*
X46966666Y-55954819D02*
X47109523Y-56002438D01*
X47109523Y-56002438D02*
X47157142Y-56050057D01*
X48109523Y-56954819D02*
X47538095Y-56954819D01*
X47823809Y-56954819D02*
X47823809Y-55954819D01*
X47823809Y-55954819D02*
X47728571Y-56097676D01*
X47728571Y-56097676D02*
X47633333Y-56192914D01*
X47633333Y-56192914D02*
X47538095Y-56240533D01*
X48442857Y-55954819D02*
X49109523Y-55954819D01*
X49109523Y-55954819D02*
X48680952Y-56954819D01*
X54033333Y-75459580D02*
X53985714Y-75507200D01*
X53985714Y-75507200D02*
X53842857Y-75554819D01*
X53842857Y-75554819D02*
X53747619Y-75554819D01*
X53747619Y-75554819D02*
X53604762Y-75507200D01*
X53604762Y-75507200D02*
X53509524Y-75411961D01*
X53509524Y-75411961D02*
X53461905Y-75316723D01*
X53461905Y-75316723D02*
X53414286Y-75126247D01*
X53414286Y-75126247D02*
X53414286Y-74983390D01*
X53414286Y-74983390D02*
X53461905Y-74792914D01*
X53461905Y-74792914D02*
X53509524Y-74697676D01*
X53509524Y-74697676D02*
X53604762Y-74602438D01*
X53604762Y-74602438D02*
X53747619Y-74554819D01*
X53747619Y-74554819D02*
X53842857Y-74554819D01*
X53842857Y-74554819D02*
X53985714Y-74602438D01*
X53985714Y-74602438D02*
X54033333Y-74650057D01*
X54890476Y-74554819D02*
X54700000Y-74554819D01*
X54700000Y-74554819D02*
X54604762Y-74602438D01*
X54604762Y-74602438D02*
X54557143Y-74650057D01*
X54557143Y-74650057D02*
X54461905Y-74792914D01*
X54461905Y-74792914D02*
X54414286Y-74983390D01*
X54414286Y-74983390D02*
X54414286Y-75364342D01*
X54414286Y-75364342D02*
X54461905Y-75459580D01*
X54461905Y-75459580D02*
X54509524Y-75507200D01*
X54509524Y-75507200D02*
X54604762Y-75554819D01*
X54604762Y-75554819D02*
X54795238Y-75554819D01*
X54795238Y-75554819D02*
X54890476Y-75507200D01*
X54890476Y-75507200D02*
X54938095Y-75459580D01*
X54938095Y-75459580D02*
X54985714Y-75364342D01*
X54985714Y-75364342D02*
X54985714Y-75126247D01*
X54985714Y-75126247D02*
X54938095Y-75031009D01*
X54938095Y-75031009D02*
X54890476Y-74983390D01*
X54890476Y-74983390D02*
X54795238Y-74935771D01*
X54795238Y-74935771D02*
X54604762Y-74935771D01*
X54604762Y-74935771D02*
X54509524Y-74983390D01*
X54509524Y-74983390D02*
X54461905Y-75031009D01*
X54461905Y-75031009D02*
X54414286Y-75126247D01*
X103433333Y-70554819D02*
X103100000Y-70078628D01*
X102861905Y-70554819D02*
X102861905Y-69554819D01*
X102861905Y-69554819D02*
X103242857Y-69554819D01*
X103242857Y-69554819D02*
X103338095Y-69602438D01*
X103338095Y-69602438D02*
X103385714Y-69650057D01*
X103385714Y-69650057D02*
X103433333Y-69745295D01*
X103433333Y-69745295D02*
X103433333Y-69888152D01*
X103433333Y-69888152D02*
X103385714Y-69983390D01*
X103385714Y-69983390D02*
X103338095Y-70031009D01*
X103338095Y-70031009D02*
X103242857Y-70078628D01*
X103242857Y-70078628D02*
X102861905Y-70078628D01*
X103909524Y-70554819D02*
X104100000Y-70554819D01*
X104100000Y-70554819D02*
X104195238Y-70507200D01*
X104195238Y-70507200D02*
X104242857Y-70459580D01*
X104242857Y-70459580D02*
X104338095Y-70316723D01*
X104338095Y-70316723D02*
X104385714Y-70126247D01*
X104385714Y-70126247D02*
X104385714Y-69745295D01*
X104385714Y-69745295D02*
X104338095Y-69650057D01*
X104338095Y-69650057D02*
X104290476Y-69602438D01*
X104290476Y-69602438D02*
X104195238Y-69554819D01*
X104195238Y-69554819D02*
X104004762Y-69554819D01*
X104004762Y-69554819D02*
X103909524Y-69602438D01*
X103909524Y-69602438D02*
X103861905Y-69650057D01*
X103861905Y-69650057D02*
X103814286Y-69745295D01*
X103814286Y-69745295D02*
X103814286Y-69983390D01*
X103814286Y-69983390D02*
X103861905Y-70078628D01*
X103861905Y-70078628D02*
X103909524Y-70126247D01*
X103909524Y-70126247D02*
X104004762Y-70173866D01*
X104004762Y-70173866D02*
X104195238Y-70173866D01*
X104195238Y-70173866D02*
X104290476Y-70126247D01*
X104290476Y-70126247D02*
X104338095Y-70078628D01*
X104338095Y-70078628D02*
X104385714Y-69983390D01*
X58238095Y-19754819D02*
X58238095Y-18754819D01*
X58238095Y-19231009D02*
X58809523Y-19231009D01*
X58809523Y-19754819D02*
X58809523Y-18754819D01*
X59714285Y-19088152D02*
X59714285Y-19754819D01*
X59476190Y-18707200D02*
X59238095Y-19421485D01*
X59238095Y-19421485D02*
X59857142Y-19421485D01*
X58459580Y-47754166D02*
X58507200Y-47801785D01*
X58507200Y-47801785D02*
X58554819Y-47944642D01*
X58554819Y-47944642D02*
X58554819Y-48039880D01*
X58554819Y-48039880D02*
X58507200Y-48182737D01*
X58507200Y-48182737D02*
X58411961Y-48277975D01*
X58411961Y-48277975D02*
X58316723Y-48325594D01*
X58316723Y-48325594D02*
X58126247Y-48373213D01*
X58126247Y-48373213D02*
X57983390Y-48373213D01*
X57983390Y-48373213D02*
X57792914Y-48325594D01*
X57792914Y-48325594D02*
X57697676Y-48277975D01*
X57697676Y-48277975D02*
X57602438Y-48182737D01*
X57602438Y-48182737D02*
X57554819Y-48039880D01*
X57554819Y-48039880D02*
X57554819Y-47944642D01*
X57554819Y-47944642D02*
X57602438Y-47801785D01*
X57602438Y-47801785D02*
X57650057Y-47754166D01*
X57554819Y-47420832D02*
X57554819Y-46801785D01*
X57554819Y-46801785D02*
X57935771Y-47135118D01*
X57935771Y-47135118D02*
X57935771Y-46992261D01*
X57935771Y-46992261D02*
X57983390Y-46897023D01*
X57983390Y-46897023D02*
X58031009Y-46849404D01*
X58031009Y-46849404D02*
X58126247Y-46801785D01*
X58126247Y-46801785D02*
X58364342Y-46801785D01*
X58364342Y-46801785D02*
X58459580Y-46849404D01*
X58459580Y-46849404D02*
X58507200Y-46897023D01*
X58507200Y-46897023D02*
X58554819Y-46992261D01*
X58554819Y-46992261D02*
X58554819Y-47277975D01*
X58554819Y-47277975D02*
X58507200Y-47373213D01*
X58507200Y-47373213D02*
X58459580Y-47420832D01*
X96357142Y-72559580D02*
X96309523Y-72607200D01*
X96309523Y-72607200D02*
X96166666Y-72654819D01*
X96166666Y-72654819D02*
X96071428Y-72654819D01*
X96071428Y-72654819D02*
X95928571Y-72607200D01*
X95928571Y-72607200D02*
X95833333Y-72511961D01*
X95833333Y-72511961D02*
X95785714Y-72416723D01*
X95785714Y-72416723D02*
X95738095Y-72226247D01*
X95738095Y-72226247D02*
X95738095Y-72083390D01*
X95738095Y-72083390D02*
X95785714Y-71892914D01*
X95785714Y-71892914D02*
X95833333Y-71797676D01*
X95833333Y-71797676D02*
X95928571Y-71702438D01*
X95928571Y-71702438D02*
X96071428Y-71654819D01*
X96071428Y-71654819D02*
X96166666Y-71654819D01*
X96166666Y-71654819D02*
X96309523Y-71702438D01*
X96309523Y-71702438D02*
X96357142Y-71750057D01*
X97309523Y-72654819D02*
X96738095Y-72654819D01*
X97023809Y-72654819D02*
X97023809Y-71654819D01*
X97023809Y-71654819D02*
X96928571Y-71797676D01*
X96928571Y-71797676D02*
X96833333Y-71892914D01*
X96833333Y-71892914D02*
X96738095Y-71940533D01*
X98261904Y-72654819D02*
X97690476Y-72654819D01*
X97976190Y-72654819D02*
X97976190Y-71654819D01*
X97976190Y-71654819D02*
X97880952Y-71797676D01*
X97880952Y-71797676D02*
X97785714Y-71892914D01*
X97785714Y-71892914D02*
X97690476Y-71940533D01*
D13*
X103160237Y-73874318D02*
X103160237Y-72604318D01*
X104490714Y-73753365D02*
X104430238Y-73813842D01*
X104430238Y-73813842D02*
X104248809Y-73874318D01*
X104248809Y-73874318D02*
X104127857Y-73874318D01*
X104127857Y-73874318D02*
X103946428Y-73813842D01*
X103946428Y-73813842D02*
X103825476Y-73692889D01*
X103825476Y-73692889D02*
X103764999Y-73571937D01*
X103764999Y-73571937D02*
X103704523Y-73330032D01*
X103704523Y-73330032D02*
X103704523Y-73148603D01*
X103704523Y-73148603D02*
X103764999Y-72906699D01*
X103764999Y-72906699D02*
X103825476Y-72785746D01*
X103825476Y-72785746D02*
X103946428Y-72664794D01*
X103946428Y-72664794D02*
X104127857Y-72604318D01*
X104127857Y-72604318D02*
X104248809Y-72604318D01*
X104248809Y-72604318D02*
X104430238Y-72664794D01*
X104430238Y-72664794D02*
X104490714Y-72725270D01*
X104974523Y-72725270D02*
X105034999Y-72664794D01*
X105034999Y-72664794D02*
X105155952Y-72604318D01*
X105155952Y-72604318D02*
X105458333Y-72604318D01*
X105458333Y-72604318D02*
X105579285Y-72664794D01*
X105579285Y-72664794D02*
X105639761Y-72725270D01*
X105639761Y-72725270D02*
X105700238Y-72846222D01*
X105700238Y-72846222D02*
X105700238Y-72967175D01*
X105700238Y-72967175D02*
X105639761Y-73148603D01*
X105639761Y-73148603D02*
X104914047Y-73874318D01*
X104914047Y-73874318D02*
X105700238Y-73874318D01*
D12*
X118138095Y-50054819D02*
X118138095Y-49054819D01*
X118138095Y-49531009D02*
X118709523Y-49531009D01*
X118709523Y-50054819D02*
X118709523Y-49054819D01*
X119709523Y-50054819D02*
X119138095Y-50054819D01*
X119423809Y-50054819D02*
X119423809Y-49054819D01*
X119423809Y-49054819D02*
X119328571Y-49197676D01*
X119328571Y-49197676D02*
X119233333Y-49292914D01*
X119233333Y-49292914D02*
X119138095Y-49340533D01*
X41159580Y-72466666D02*
X41207200Y-72514285D01*
X41207200Y-72514285D02*
X41254819Y-72657142D01*
X41254819Y-72657142D02*
X41254819Y-72752380D01*
X41254819Y-72752380D02*
X41207200Y-72895237D01*
X41207200Y-72895237D02*
X41111961Y-72990475D01*
X41111961Y-72990475D02*
X41016723Y-73038094D01*
X41016723Y-73038094D02*
X40826247Y-73085713D01*
X40826247Y-73085713D02*
X40683390Y-73085713D01*
X40683390Y-73085713D02*
X40492914Y-73038094D01*
X40492914Y-73038094D02*
X40397676Y-72990475D01*
X40397676Y-72990475D02*
X40302438Y-72895237D01*
X40302438Y-72895237D02*
X40254819Y-72752380D01*
X40254819Y-72752380D02*
X40254819Y-72657142D01*
X40254819Y-72657142D02*
X40302438Y-72514285D01*
X40302438Y-72514285D02*
X40350057Y-72466666D01*
X40254819Y-71561904D02*
X40254819Y-72038094D01*
X40254819Y-72038094D02*
X40731009Y-72085713D01*
X40731009Y-72085713D02*
X40683390Y-72038094D01*
X40683390Y-72038094D02*
X40635771Y-71942856D01*
X40635771Y-71942856D02*
X40635771Y-71704761D01*
X40635771Y-71704761D02*
X40683390Y-71609523D01*
X40683390Y-71609523D02*
X40731009Y-71561904D01*
X40731009Y-71561904D02*
X40826247Y-71514285D01*
X40826247Y-71514285D02*
X41064342Y-71514285D01*
X41064342Y-71514285D02*
X41159580Y-71561904D01*
X41159580Y-71561904D02*
X41207200Y-71609523D01*
X41207200Y-71609523D02*
X41254819Y-71704761D01*
X41254819Y-71704761D02*
X41254819Y-71942856D01*
X41254819Y-71942856D02*
X41207200Y-72038094D01*
X41207200Y-72038094D02*
X41159580Y-72085713D01*
X37357142Y-47247080D02*
X37309523Y-47294700D01*
X37309523Y-47294700D02*
X37166666Y-47342319D01*
X37166666Y-47342319D02*
X37071428Y-47342319D01*
X37071428Y-47342319D02*
X36928571Y-47294700D01*
X36928571Y-47294700D02*
X36833333Y-47199461D01*
X36833333Y-47199461D02*
X36785714Y-47104223D01*
X36785714Y-47104223D02*
X36738095Y-46913747D01*
X36738095Y-46913747D02*
X36738095Y-46770890D01*
X36738095Y-46770890D02*
X36785714Y-46580414D01*
X36785714Y-46580414D02*
X36833333Y-46485176D01*
X36833333Y-46485176D02*
X36928571Y-46389938D01*
X36928571Y-46389938D02*
X37071428Y-46342319D01*
X37071428Y-46342319D02*
X37166666Y-46342319D01*
X37166666Y-46342319D02*
X37309523Y-46389938D01*
X37309523Y-46389938D02*
X37357142Y-46437557D01*
X38309523Y-47342319D02*
X37738095Y-47342319D01*
X38023809Y-47342319D02*
X38023809Y-46342319D01*
X38023809Y-46342319D02*
X37928571Y-46485176D01*
X37928571Y-46485176D02*
X37833333Y-46580414D01*
X37833333Y-46580414D02*
X37738095Y-46628033D01*
X38642857Y-46342319D02*
X39261904Y-46342319D01*
X39261904Y-46342319D02*
X38928571Y-46723271D01*
X38928571Y-46723271D02*
X39071428Y-46723271D01*
X39071428Y-46723271D02*
X39166666Y-46770890D01*
X39166666Y-46770890D02*
X39214285Y-46818509D01*
X39214285Y-46818509D02*
X39261904Y-46913747D01*
X39261904Y-46913747D02*
X39261904Y-47151842D01*
X39261904Y-47151842D02*
X39214285Y-47247080D01*
X39214285Y-47247080D02*
X39166666Y-47294700D01*
X39166666Y-47294700D02*
X39071428Y-47342319D01*
X39071428Y-47342319D02*
X38785714Y-47342319D01*
X38785714Y-47342319D02*
X38690476Y-47294700D01*
X38690476Y-47294700D02*
X38642857Y-47247080D01*
X68659580Y-67166666D02*
X68707200Y-67214285D01*
X68707200Y-67214285D02*
X68754819Y-67357142D01*
X68754819Y-67357142D02*
X68754819Y-67452380D01*
X68754819Y-67452380D02*
X68707200Y-67595237D01*
X68707200Y-67595237D02*
X68611961Y-67690475D01*
X68611961Y-67690475D02*
X68516723Y-67738094D01*
X68516723Y-67738094D02*
X68326247Y-67785713D01*
X68326247Y-67785713D02*
X68183390Y-67785713D01*
X68183390Y-67785713D02*
X67992914Y-67738094D01*
X67992914Y-67738094D02*
X67897676Y-67690475D01*
X67897676Y-67690475D02*
X67802438Y-67595237D01*
X67802438Y-67595237D02*
X67754819Y-67452380D01*
X67754819Y-67452380D02*
X67754819Y-67357142D01*
X67754819Y-67357142D02*
X67802438Y-67214285D01*
X67802438Y-67214285D02*
X67850057Y-67166666D01*
X67754819Y-66833332D02*
X67754819Y-66166666D01*
X67754819Y-66166666D02*
X68754819Y-66595237D01*
X63559580Y-70566666D02*
X63607200Y-70614285D01*
X63607200Y-70614285D02*
X63654819Y-70757142D01*
X63654819Y-70757142D02*
X63654819Y-70852380D01*
X63654819Y-70852380D02*
X63607200Y-70995237D01*
X63607200Y-70995237D02*
X63511961Y-71090475D01*
X63511961Y-71090475D02*
X63416723Y-71138094D01*
X63416723Y-71138094D02*
X63226247Y-71185713D01*
X63226247Y-71185713D02*
X63083390Y-71185713D01*
X63083390Y-71185713D02*
X62892914Y-71138094D01*
X62892914Y-71138094D02*
X62797676Y-71090475D01*
X62797676Y-71090475D02*
X62702438Y-70995237D01*
X62702438Y-70995237D02*
X62654819Y-70852380D01*
X62654819Y-70852380D02*
X62654819Y-70757142D01*
X62654819Y-70757142D02*
X62702438Y-70614285D01*
X62702438Y-70614285D02*
X62750057Y-70566666D01*
X63083390Y-69995237D02*
X63035771Y-70090475D01*
X63035771Y-70090475D02*
X62988152Y-70138094D01*
X62988152Y-70138094D02*
X62892914Y-70185713D01*
X62892914Y-70185713D02*
X62845295Y-70185713D01*
X62845295Y-70185713D02*
X62750057Y-70138094D01*
X62750057Y-70138094D02*
X62702438Y-70090475D01*
X62702438Y-70090475D02*
X62654819Y-69995237D01*
X62654819Y-69995237D02*
X62654819Y-69804761D01*
X62654819Y-69804761D02*
X62702438Y-69709523D01*
X62702438Y-69709523D02*
X62750057Y-69661904D01*
X62750057Y-69661904D02*
X62845295Y-69614285D01*
X62845295Y-69614285D02*
X62892914Y-69614285D01*
X62892914Y-69614285D02*
X62988152Y-69661904D01*
X62988152Y-69661904D02*
X63035771Y-69709523D01*
X63035771Y-69709523D02*
X63083390Y-69804761D01*
X63083390Y-69804761D02*
X63083390Y-69995237D01*
X63083390Y-69995237D02*
X63131009Y-70090475D01*
X63131009Y-70090475D02*
X63178628Y-70138094D01*
X63178628Y-70138094D02*
X63273866Y-70185713D01*
X63273866Y-70185713D02*
X63464342Y-70185713D01*
X63464342Y-70185713D02*
X63559580Y-70138094D01*
X63559580Y-70138094D02*
X63607200Y-70090475D01*
X63607200Y-70090475D02*
X63654819Y-69995237D01*
X63654819Y-69995237D02*
X63654819Y-69804761D01*
X63654819Y-69804761D02*
X63607200Y-69709523D01*
X63607200Y-69709523D02*
X63559580Y-69661904D01*
X63559580Y-69661904D02*
X63464342Y-69614285D01*
X63464342Y-69614285D02*
X63273866Y-69614285D01*
X63273866Y-69614285D02*
X63178628Y-69661904D01*
X63178628Y-69661904D02*
X63131009Y-69709523D01*
X63131009Y-69709523D02*
X63083390Y-69804761D01*
X96457142Y-78459580D02*
X96409523Y-78507200D01*
X96409523Y-78507200D02*
X96266666Y-78554819D01*
X96266666Y-78554819D02*
X96171428Y-78554819D01*
X96171428Y-78554819D02*
X96028571Y-78507200D01*
X96028571Y-78507200D02*
X95933333Y-78411961D01*
X95933333Y-78411961D02*
X95885714Y-78316723D01*
X95885714Y-78316723D02*
X95838095Y-78126247D01*
X95838095Y-78126247D02*
X95838095Y-77983390D01*
X95838095Y-77983390D02*
X95885714Y-77792914D01*
X95885714Y-77792914D02*
X95933333Y-77697676D01*
X95933333Y-77697676D02*
X96028571Y-77602438D01*
X96028571Y-77602438D02*
X96171428Y-77554819D01*
X96171428Y-77554819D02*
X96266666Y-77554819D01*
X96266666Y-77554819D02*
X96409523Y-77602438D01*
X96409523Y-77602438D02*
X96457142Y-77650057D01*
X97409523Y-78554819D02*
X96838095Y-78554819D01*
X97123809Y-78554819D02*
X97123809Y-77554819D01*
X97123809Y-77554819D02*
X97028571Y-77697676D01*
X97028571Y-77697676D02*
X96933333Y-77792914D01*
X96933333Y-77792914D02*
X96838095Y-77840533D01*
X98028571Y-77554819D02*
X98123809Y-77554819D01*
X98123809Y-77554819D02*
X98219047Y-77602438D01*
X98219047Y-77602438D02*
X98266666Y-77650057D01*
X98266666Y-77650057D02*
X98314285Y-77745295D01*
X98314285Y-77745295D02*
X98361904Y-77935771D01*
X98361904Y-77935771D02*
X98361904Y-78173866D01*
X98361904Y-78173866D02*
X98314285Y-78364342D01*
X98314285Y-78364342D02*
X98266666Y-78459580D01*
X98266666Y-78459580D02*
X98219047Y-78507200D01*
X98219047Y-78507200D02*
X98123809Y-78554819D01*
X98123809Y-78554819D02*
X98028571Y-78554819D01*
X98028571Y-78554819D02*
X97933333Y-78507200D01*
X97933333Y-78507200D02*
X97885714Y-78459580D01*
X97885714Y-78459580D02*
X97838095Y-78364342D01*
X97838095Y-78364342D02*
X97790476Y-78173866D01*
X97790476Y-78173866D02*
X97790476Y-77935771D01*
X97790476Y-77935771D02*
X97838095Y-77745295D01*
X97838095Y-77745295D02*
X97885714Y-77650057D01*
X97885714Y-77650057D02*
X97933333Y-77602438D01*
X97933333Y-77602438D02*
X98028571Y-77554819D01*
X41759580Y-57442857D02*
X41807200Y-57490476D01*
X41807200Y-57490476D02*
X41854819Y-57633333D01*
X41854819Y-57633333D02*
X41854819Y-57728571D01*
X41854819Y-57728571D02*
X41807200Y-57871428D01*
X41807200Y-57871428D02*
X41711961Y-57966666D01*
X41711961Y-57966666D02*
X41616723Y-58014285D01*
X41616723Y-58014285D02*
X41426247Y-58061904D01*
X41426247Y-58061904D02*
X41283390Y-58061904D01*
X41283390Y-58061904D02*
X41092914Y-58014285D01*
X41092914Y-58014285D02*
X40997676Y-57966666D01*
X40997676Y-57966666D02*
X40902438Y-57871428D01*
X40902438Y-57871428D02*
X40854819Y-57728571D01*
X40854819Y-57728571D02*
X40854819Y-57633333D01*
X40854819Y-57633333D02*
X40902438Y-57490476D01*
X40902438Y-57490476D02*
X40950057Y-57442857D01*
X41854819Y-56490476D02*
X41854819Y-57061904D01*
X41854819Y-56776190D02*
X40854819Y-56776190D01*
X40854819Y-56776190D02*
X40997676Y-56871428D01*
X40997676Y-56871428D02*
X41092914Y-56966666D01*
X41092914Y-56966666D02*
X41140533Y-57061904D01*
X40854819Y-55633333D02*
X40854819Y-55823809D01*
X40854819Y-55823809D02*
X40902438Y-55919047D01*
X40902438Y-55919047D02*
X40950057Y-55966666D01*
X40950057Y-55966666D02*
X41092914Y-56061904D01*
X41092914Y-56061904D02*
X41283390Y-56109523D01*
X41283390Y-56109523D02*
X41664342Y-56109523D01*
X41664342Y-56109523D02*
X41759580Y-56061904D01*
X41759580Y-56061904D02*
X41807200Y-56014285D01*
X41807200Y-56014285D02*
X41854819Y-55919047D01*
X41854819Y-55919047D02*
X41854819Y-55728571D01*
X41854819Y-55728571D02*
X41807200Y-55633333D01*
X41807200Y-55633333D02*
X41759580Y-55585714D01*
X41759580Y-55585714D02*
X41664342Y-55538095D01*
X41664342Y-55538095D02*
X41426247Y-55538095D01*
X41426247Y-55538095D02*
X41331009Y-55585714D01*
X41331009Y-55585714D02*
X41283390Y-55633333D01*
X41283390Y-55633333D02*
X41235771Y-55728571D01*
X41235771Y-55728571D02*
X41235771Y-55919047D01*
X41235771Y-55919047D02*
X41283390Y-56014285D01*
X41283390Y-56014285D02*
X41331009Y-56061904D01*
X41331009Y-56061904D02*
X41426247Y-56109523D01*
X63078628Y-51726190D02*
X63554819Y-51726190D01*
X62554819Y-52059523D02*
X63078628Y-51726190D01*
X63078628Y-51726190D02*
X62554819Y-51392857D01*
X63554819Y-50535714D02*
X63554819Y-51107142D01*
X63554819Y-50821428D02*
X62554819Y-50821428D01*
X62554819Y-50821428D02*
X62697676Y-50916666D01*
X62697676Y-50916666D02*
X62792914Y-51011904D01*
X62792914Y-51011904D02*
X62840533Y-51107142D01*
X73388095Y-86204819D02*
X73388095Y-85204819D01*
X73388095Y-85681009D02*
X73959523Y-85681009D01*
X73959523Y-86204819D02*
X73959523Y-85204819D01*
X74388095Y-85300057D02*
X74435714Y-85252438D01*
X74435714Y-85252438D02*
X74530952Y-85204819D01*
X74530952Y-85204819D02*
X74769047Y-85204819D01*
X74769047Y-85204819D02*
X74864285Y-85252438D01*
X74864285Y-85252438D02*
X74911904Y-85300057D01*
X74911904Y-85300057D02*
X74959523Y-85395295D01*
X74959523Y-85395295D02*
X74959523Y-85490533D01*
X74959523Y-85490533D02*
X74911904Y-85633390D01*
X74911904Y-85633390D02*
X74340476Y-86204819D01*
X74340476Y-86204819D02*
X74959523Y-86204819D01*
X55859580Y-48630357D02*
X55907200Y-48677976D01*
X55907200Y-48677976D02*
X55954819Y-48820833D01*
X55954819Y-48820833D02*
X55954819Y-48916071D01*
X55954819Y-48916071D02*
X55907200Y-49058928D01*
X55907200Y-49058928D02*
X55811961Y-49154166D01*
X55811961Y-49154166D02*
X55716723Y-49201785D01*
X55716723Y-49201785D02*
X55526247Y-49249404D01*
X55526247Y-49249404D02*
X55383390Y-49249404D01*
X55383390Y-49249404D02*
X55192914Y-49201785D01*
X55192914Y-49201785D02*
X55097676Y-49154166D01*
X55097676Y-49154166D02*
X55002438Y-49058928D01*
X55002438Y-49058928D02*
X54954819Y-48916071D01*
X54954819Y-48916071D02*
X54954819Y-48820833D01*
X54954819Y-48820833D02*
X55002438Y-48677976D01*
X55002438Y-48677976D02*
X55050057Y-48630357D01*
X55954819Y-47677976D02*
X55954819Y-48249404D01*
X55954819Y-47963690D02*
X54954819Y-47963690D01*
X54954819Y-47963690D02*
X55097676Y-48058928D01*
X55097676Y-48058928D02*
X55192914Y-48154166D01*
X55192914Y-48154166D02*
X55240533Y-48249404D01*
X55383390Y-47106547D02*
X55335771Y-47201785D01*
X55335771Y-47201785D02*
X55288152Y-47249404D01*
X55288152Y-47249404D02*
X55192914Y-47297023D01*
X55192914Y-47297023D02*
X55145295Y-47297023D01*
X55145295Y-47297023D02*
X55050057Y-47249404D01*
X55050057Y-47249404D02*
X55002438Y-47201785D01*
X55002438Y-47201785D02*
X54954819Y-47106547D01*
X54954819Y-47106547D02*
X54954819Y-46916071D01*
X54954819Y-46916071D02*
X55002438Y-46820833D01*
X55002438Y-46820833D02*
X55050057Y-46773214D01*
X55050057Y-46773214D02*
X55145295Y-46725595D01*
X55145295Y-46725595D02*
X55192914Y-46725595D01*
X55192914Y-46725595D02*
X55288152Y-46773214D01*
X55288152Y-46773214D02*
X55335771Y-46820833D01*
X55335771Y-46820833D02*
X55383390Y-46916071D01*
X55383390Y-46916071D02*
X55383390Y-47106547D01*
X55383390Y-47106547D02*
X55431009Y-47201785D01*
X55431009Y-47201785D02*
X55478628Y-47249404D01*
X55478628Y-47249404D02*
X55573866Y-47297023D01*
X55573866Y-47297023D02*
X55764342Y-47297023D01*
X55764342Y-47297023D02*
X55859580Y-47249404D01*
X55859580Y-47249404D02*
X55907200Y-47201785D01*
X55907200Y-47201785D02*
X55954819Y-47106547D01*
X55954819Y-47106547D02*
X55954819Y-46916071D01*
X55954819Y-46916071D02*
X55907200Y-46820833D01*
X55907200Y-46820833D02*
X55859580Y-46773214D01*
X55859580Y-46773214D02*
X55764342Y-46725595D01*
X55764342Y-46725595D02*
X55573866Y-46725595D01*
X55573866Y-46725595D02*
X55478628Y-46773214D01*
X55478628Y-46773214D02*
X55431009Y-46820833D01*
X55431009Y-46820833D02*
X55383390Y-46916071D01*
X63066666Y-39454819D02*
X63066666Y-40169104D01*
X63066666Y-40169104D02*
X63019047Y-40311961D01*
X63019047Y-40311961D02*
X62923809Y-40407200D01*
X62923809Y-40407200D02*
X62780952Y-40454819D01*
X62780952Y-40454819D02*
X62685714Y-40454819D01*
X64066666Y-40454819D02*
X63495238Y-40454819D01*
X63780952Y-40454819D02*
X63780952Y-39454819D01*
X63780952Y-39454819D02*
X63685714Y-39597676D01*
X63685714Y-39597676D02*
X63590476Y-39692914D01*
X63590476Y-39692914D02*
X63495238Y-39740533D01*
X105257142Y-79354819D02*
X104923809Y-78878628D01*
X104685714Y-79354819D02*
X104685714Y-78354819D01*
X104685714Y-78354819D02*
X105066666Y-78354819D01*
X105066666Y-78354819D02*
X105161904Y-78402438D01*
X105161904Y-78402438D02*
X105209523Y-78450057D01*
X105209523Y-78450057D02*
X105257142Y-78545295D01*
X105257142Y-78545295D02*
X105257142Y-78688152D01*
X105257142Y-78688152D02*
X105209523Y-78783390D01*
X105209523Y-78783390D02*
X105161904Y-78831009D01*
X105161904Y-78831009D02*
X105066666Y-78878628D01*
X105066666Y-78878628D02*
X104685714Y-78878628D01*
X106209523Y-79354819D02*
X105638095Y-79354819D01*
X105923809Y-79354819D02*
X105923809Y-78354819D01*
X105923809Y-78354819D02*
X105828571Y-78497676D01*
X105828571Y-78497676D02*
X105733333Y-78592914D01*
X105733333Y-78592914D02*
X105638095Y-78640533D01*
X106828571Y-78354819D02*
X106923809Y-78354819D01*
X106923809Y-78354819D02*
X107019047Y-78402438D01*
X107019047Y-78402438D02*
X107066666Y-78450057D01*
X107066666Y-78450057D02*
X107114285Y-78545295D01*
X107114285Y-78545295D02*
X107161904Y-78735771D01*
X107161904Y-78735771D02*
X107161904Y-78973866D01*
X107161904Y-78973866D02*
X107114285Y-79164342D01*
X107114285Y-79164342D02*
X107066666Y-79259580D01*
X107066666Y-79259580D02*
X107019047Y-79307200D01*
X107019047Y-79307200D02*
X106923809Y-79354819D01*
X106923809Y-79354819D02*
X106828571Y-79354819D01*
X106828571Y-79354819D02*
X106733333Y-79307200D01*
X106733333Y-79307200D02*
X106685714Y-79259580D01*
X106685714Y-79259580D02*
X106638095Y-79164342D01*
X106638095Y-79164342D02*
X106590476Y-78973866D01*
X106590476Y-78973866D02*
X106590476Y-78735771D01*
X106590476Y-78735771D02*
X106638095Y-78545295D01*
X106638095Y-78545295D02*
X106685714Y-78450057D01*
X106685714Y-78450057D02*
X106733333Y-78402438D01*
X106733333Y-78402438D02*
X106828571Y-78354819D01*
X40838095Y-47854819D02*
X40838095Y-48664342D01*
X40838095Y-48664342D02*
X40885714Y-48759580D01*
X40885714Y-48759580D02*
X40933333Y-48807200D01*
X40933333Y-48807200D02*
X41028571Y-48854819D01*
X41028571Y-48854819D02*
X41219047Y-48854819D01*
X41219047Y-48854819D02*
X41314285Y-48807200D01*
X41314285Y-48807200D02*
X41361904Y-48759580D01*
X41361904Y-48759580D02*
X41409523Y-48664342D01*
X41409523Y-48664342D02*
X41409523Y-47854819D01*
X42409523Y-48854819D02*
X41838095Y-48854819D01*
X42123809Y-48854819D02*
X42123809Y-47854819D01*
X42123809Y-47854819D02*
X42028571Y-47997676D01*
X42028571Y-47997676D02*
X41933333Y-48092914D01*
X41933333Y-48092914D02*
X41838095Y-48140533D01*
X49459580Y-44230357D02*
X49507200Y-44277976D01*
X49507200Y-44277976D02*
X49554819Y-44420833D01*
X49554819Y-44420833D02*
X49554819Y-44516071D01*
X49554819Y-44516071D02*
X49507200Y-44658928D01*
X49507200Y-44658928D02*
X49411961Y-44754166D01*
X49411961Y-44754166D02*
X49316723Y-44801785D01*
X49316723Y-44801785D02*
X49126247Y-44849404D01*
X49126247Y-44849404D02*
X48983390Y-44849404D01*
X48983390Y-44849404D02*
X48792914Y-44801785D01*
X48792914Y-44801785D02*
X48697676Y-44754166D01*
X48697676Y-44754166D02*
X48602438Y-44658928D01*
X48602438Y-44658928D02*
X48554819Y-44516071D01*
X48554819Y-44516071D02*
X48554819Y-44420833D01*
X48554819Y-44420833D02*
X48602438Y-44277976D01*
X48602438Y-44277976D02*
X48650057Y-44230357D01*
X49554819Y-43277976D02*
X49554819Y-43849404D01*
X49554819Y-43563690D02*
X48554819Y-43563690D01*
X48554819Y-43563690D02*
X48697676Y-43658928D01*
X48697676Y-43658928D02*
X48792914Y-43754166D01*
X48792914Y-43754166D02*
X48840533Y-43849404D01*
X49554819Y-42801785D02*
X49554819Y-42611309D01*
X49554819Y-42611309D02*
X49507200Y-42516071D01*
X49507200Y-42516071D02*
X49459580Y-42468452D01*
X49459580Y-42468452D02*
X49316723Y-42373214D01*
X49316723Y-42373214D02*
X49126247Y-42325595D01*
X49126247Y-42325595D02*
X48745295Y-42325595D01*
X48745295Y-42325595D02*
X48650057Y-42373214D01*
X48650057Y-42373214D02*
X48602438Y-42420833D01*
X48602438Y-42420833D02*
X48554819Y-42516071D01*
X48554819Y-42516071D02*
X48554819Y-42706547D01*
X48554819Y-42706547D02*
X48602438Y-42801785D01*
X48602438Y-42801785D02*
X48650057Y-42849404D01*
X48650057Y-42849404D02*
X48745295Y-42897023D01*
X48745295Y-42897023D02*
X48983390Y-42897023D01*
X48983390Y-42897023D02*
X49078628Y-42849404D01*
X49078628Y-42849404D02*
X49126247Y-42801785D01*
X49126247Y-42801785D02*
X49173866Y-42706547D01*
X49173866Y-42706547D02*
X49173866Y-42516071D01*
X49173866Y-42516071D02*
X49126247Y-42420833D01*
X49126247Y-42420833D02*
X49078628Y-42373214D01*
X49078628Y-42373214D02*
X48983390Y-42325595D01*
X105507142Y-77104819D02*
X105173809Y-76628628D01*
X104935714Y-77104819D02*
X104935714Y-76104819D01*
X104935714Y-76104819D02*
X105316666Y-76104819D01*
X105316666Y-76104819D02*
X105411904Y-76152438D01*
X105411904Y-76152438D02*
X105459523Y-76200057D01*
X105459523Y-76200057D02*
X105507142Y-76295295D01*
X105507142Y-76295295D02*
X105507142Y-76438152D01*
X105507142Y-76438152D02*
X105459523Y-76533390D01*
X105459523Y-76533390D02*
X105411904Y-76581009D01*
X105411904Y-76581009D02*
X105316666Y-76628628D01*
X105316666Y-76628628D02*
X104935714Y-76628628D01*
X106459523Y-77104819D02*
X105888095Y-77104819D01*
X106173809Y-77104819D02*
X106173809Y-76104819D01*
X106173809Y-76104819D02*
X106078571Y-76247676D01*
X106078571Y-76247676D02*
X105983333Y-76342914D01*
X105983333Y-76342914D02*
X105888095Y-76390533D01*
X107411904Y-77104819D02*
X106840476Y-77104819D01*
X107126190Y-77104819D02*
X107126190Y-76104819D01*
X107126190Y-76104819D02*
X107030952Y-76247676D01*
X107030952Y-76247676D02*
X106935714Y-76342914D01*
X106935714Y-76342914D02*
X106840476Y-76390533D01*
X37357142Y-44767080D02*
X37309523Y-44814700D01*
X37309523Y-44814700D02*
X37166666Y-44862319D01*
X37166666Y-44862319D02*
X37071428Y-44862319D01*
X37071428Y-44862319D02*
X36928571Y-44814700D01*
X36928571Y-44814700D02*
X36833333Y-44719461D01*
X36833333Y-44719461D02*
X36785714Y-44624223D01*
X36785714Y-44624223D02*
X36738095Y-44433747D01*
X36738095Y-44433747D02*
X36738095Y-44290890D01*
X36738095Y-44290890D02*
X36785714Y-44100414D01*
X36785714Y-44100414D02*
X36833333Y-44005176D01*
X36833333Y-44005176D02*
X36928571Y-43909938D01*
X36928571Y-43909938D02*
X37071428Y-43862319D01*
X37071428Y-43862319D02*
X37166666Y-43862319D01*
X37166666Y-43862319D02*
X37309523Y-43909938D01*
X37309523Y-43909938D02*
X37357142Y-43957557D01*
X37738095Y-43957557D02*
X37785714Y-43909938D01*
X37785714Y-43909938D02*
X37880952Y-43862319D01*
X37880952Y-43862319D02*
X38119047Y-43862319D01*
X38119047Y-43862319D02*
X38214285Y-43909938D01*
X38214285Y-43909938D02*
X38261904Y-43957557D01*
X38261904Y-43957557D02*
X38309523Y-44052795D01*
X38309523Y-44052795D02*
X38309523Y-44148033D01*
X38309523Y-44148033D02*
X38261904Y-44290890D01*
X38261904Y-44290890D02*
X37690476Y-44862319D01*
X37690476Y-44862319D02*
X38309523Y-44862319D01*
X38690476Y-43957557D02*
X38738095Y-43909938D01*
X38738095Y-43909938D02*
X38833333Y-43862319D01*
X38833333Y-43862319D02*
X39071428Y-43862319D01*
X39071428Y-43862319D02*
X39166666Y-43909938D01*
X39166666Y-43909938D02*
X39214285Y-43957557D01*
X39214285Y-43957557D02*
X39261904Y-44052795D01*
X39261904Y-44052795D02*
X39261904Y-44148033D01*
X39261904Y-44148033D02*
X39214285Y-44290890D01*
X39214285Y-44290890D02*
X38642857Y-44862319D01*
X38642857Y-44862319D02*
X39261904Y-44862319D01*
X42454819Y-37816666D02*
X41978628Y-38149999D01*
X42454819Y-38388094D02*
X41454819Y-38388094D01*
X41454819Y-38388094D02*
X41454819Y-38007142D01*
X41454819Y-38007142D02*
X41502438Y-37911904D01*
X41502438Y-37911904D02*
X41550057Y-37864285D01*
X41550057Y-37864285D02*
X41645295Y-37816666D01*
X41645295Y-37816666D02*
X41788152Y-37816666D01*
X41788152Y-37816666D02*
X41883390Y-37864285D01*
X41883390Y-37864285D02*
X41931009Y-37911904D01*
X41931009Y-37911904D02*
X41978628Y-38007142D01*
X41978628Y-38007142D02*
X41978628Y-38388094D01*
X41454819Y-37483332D02*
X41454819Y-36816666D01*
X41454819Y-36816666D02*
X42454819Y-37245237D01*
X102357142Y-82454819D02*
X102023809Y-81978628D01*
X101785714Y-82454819D02*
X101785714Y-81454819D01*
X101785714Y-81454819D02*
X102166666Y-81454819D01*
X102166666Y-81454819D02*
X102261904Y-81502438D01*
X102261904Y-81502438D02*
X102309523Y-81550057D01*
X102309523Y-81550057D02*
X102357142Y-81645295D01*
X102357142Y-81645295D02*
X102357142Y-81788152D01*
X102357142Y-81788152D02*
X102309523Y-81883390D01*
X102309523Y-81883390D02*
X102261904Y-81931009D01*
X102261904Y-81931009D02*
X102166666Y-81978628D01*
X102166666Y-81978628D02*
X101785714Y-81978628D01*
X103309523Y-82454819D02*
X102738095Y-82454819D01*
X103023809Y-82454819D02*
X103023809Y-81454819D01*
X103023809Y-81454819D02*
X102928571Y-81597676D01*
X102928571Y-81597676D02*
X102833333Y-81692914D01*
X102833333Y-81692914D02*
X102738095Y-81740533D01*
X103785714Y-82454819D02*
X103976190Y-82454819D01*
X103976190Y-82454819D02*
X104071428Y-82407200D01*
X104071428Y-82407200D02*
X104119047Y-82359580D01*
X104119047Y-82359580D02*
X104214285Y-82216723D01*
X104214285Y-82216723D02*
X104261904Y-82026247D01*
X104261904Y-82026247D02*
X104261904Y-81645295D01*
X104261904Y-81645295D02*
X104214285Y-81550057D01*
X104214285Y-81550057D02*
X104166666Y-81502438D01*
X104166666Y-81502438D02*
X104071428Y-81454819D01*
X104071428Y-81454819D02*
X103880952Y-81454819D01*
X103880952Y-81454819D02*
X103785714Y-81502438D01*
X103785714Y-81502438D02*
X103738095Y-81550057D01*
X103738095Y-81550057D02*
X103690476Y-81645295D01*
X103690476Y-81645295D02*
X103690476Y-81883390D01*
X103690476Y-81883390D02*
X103738095Y-81978628D01*
X103738095Y-81978628D02*
X103785714Y-82026247D01*
X103785714Y-82026247D02*
X103880952Y-82073866D01*
X103880952Y-82073866D02*
X104071428Y-82073866D01*
X104071428Y-82073866D02*
X104166666Y-82026247D01*
X104166666Y-82026247D02*
X104214285Y-81978628D01*
X104214285Y-81978628D02*
X104261904Y-81883390D01*
X47954819Y-38392857D02*
X47478628Y-38726190D01*
X47954819Y-38964285D02*
X46954819Y-38964285D01*
X46954819Y-38964285D02*
X46954819Y-38583333D01*
X46954819Y-38583333D02*
X47002438Y-38488095D01*
X47002438Y-38488095D02*
X47050057Y-38440476D01*
X47050057Y-38440476D02*
X47145295Y-38392857D01*
X47145295Y-38392857D02*
X47288152Y-38392857D01*
X47288152Y-38392857D02*
X47383390Y-38440476D01*
X47383390Y-38440476D02*
X47431009Y-38488095D01*
X47431009Y-38488095D02*
X47478628Y-38583333D01*
X47478628Y-38583333D02*
X47478628Y-38964285D01*
X47050057Y-38011904D02*
X47002438Y-37964285D01*
X47002438Y-37964285D02*
X46954819Y-37869047D01*
X46954819Y-37869047D02*
X46954819Y-37630952D01*
X46954819Y-37630952D02*
X47002438Y-37535714D01*
X47002438Y-37535714D02*
X47050057Y-37488095D01*
X47050057Y-37488095D02*
X47145295Y-37440476D01*
X47145295Y-37440476D02*
X47240533Y-37440476D01*
X47240533Y-37440476D02*
X47383390Y-37488095D01*
X47383390Y-37488095D02*
X47954819Y-38059523D01*
X47954819Y-38059523D02*
X47954819Y-37440476D01*
X46954819Y-37107142D02*
X46954819Y-36488095D01*
X46954819Y-36488095D02*
X47335771Y-36821428D01*
X47335771Y-36821428D02*
X47335771Y-36678571D01*
X47335771Y-36678571D02*
X47383390Y-36583333D01*
X47383390Y-36583333D02*
X47431009Y-36535714D01*
X47431009Y-36535714D02*
X47526247Y-36488095D01*
X47526247Y-36488095D02*
X47764342Y-36488095D01*
X47764342Y-36488095D02*
X47859580Y-36535714D01*
X47859580Y-36535714D02*
X47907200Y-36583333D01*
X47907200Y-36583333D02*
X47954819Y-36678571D01*
X47954819Y-36678571D02*
X47954819Y-36964285D01*
X47954819Y-36964285D02*
X47907200Y-37059523D01*
X47907200Y-37059523D02*
X47859580Y-37107142D01*
X95954819Y-82542857D02*
X95478628Y-82876190D01*
X95954819Y-83114285D02*
X94954819Y-83114285D01*
X94954819Y-83114285D02*
X94954819Y-82733333D01*
X94954819Y-82733333D02*
X95002438Y-82638095D01*
X95002438Y-82638095D02*
X95050057Y-82590476D01*
X95050057Y-82590476D02*
X95145295Y-82542857D01*
X95145295Y-82542857D02*
X95288152Y-82542857D01*
X95288152Y-82542857D02*
X95383390Y-82590476D01*
X95383390Y-82590476D02*
X95431009Y-82638095D01*
X95431009Y-82638095D02*
X95478628Y-82733333D01*
X95478628Y-82733333D02*
X95478628Y-83114285D01*
X95050057Y-82161904D02*
X95002438Y-82114285D01*
X95002438Y-82114285D02*
X94954819Y-82019047D01*
X94954819Y-82019047D02*
X94954819Y-81780952D01*
X94954819Y-81780952D02*
X95002438Y-81685714D01*
X95002438Y-81685714D02*
X95050057Y-81638095D01*
X95050057Y-81638095D02*
X95145295Y-81590476D01*
X95145295Y-81590476D02*
X95240533Y-81590476D01*
X95240533Y-81590476D02*
X95383390Y-81638095D01*
X95383390Y-81638095D02*
X95954819Y-82209523D01*
X95954819Y-82209523D02*
X95954819Y-81590476D01*
X94954819Y-80971428D02*
X94954819Y-80876190D01*
X94954819Y-80876190D02*
X95002438Y-80780952D01*
X95002438Y-80780952D02*
X95050057Y-80733333D01*
X95050057Y-80733333D02*
X95145295Y-80685714D01*
X95145295Y-80685714D02*
X95335771Y-80638095D01*
X95335771Y-80638095D02*
X95573866Y-80638095D01*
X95573866Y-80638095D02*
X95764342Y-80685714D01*
X95764342Y-80685714D02*
X95859580Y-80733333D01*
X95859580Y-80733333D02*
X95907200Y-80780952D01*
X95907200Y-80780952D02*
X95954819Y-80876190D01*
X95954819Y-80876190D02*
X95954819Y-80971428D01*
X95954819Y-80971428D02*
X95907200Y-81066666D01*
X95907200Y-81066666D02*
X95859580Y-81114285D01*
X95859580Y-81114285D02*
X95764342Y-81161904D01*
X95764342Y-81161904D02*
X95573866Y-81209523D01*
X95573866Y-81209523D02*
X95335771Y-81209523D01*
X95335771Y-81209523D02*
X95145295Y-81161904D01*
X95145295Y-81161904D02*
X95050057Y-81114285D01*
X95050057Y-81114285D02*
X95002438Y-81066666D01*
X95002438Y-81066666D02*
X94954819Y-80971428D01*
X43159580Y-43942857D02*
X43207200Y-43990476D01*
X43207200Y-43990476D02*
X43254819Y-44133333D01*
X43254819Y-44133333D02*
X43254819Y-44228571D01*
X43254819Y-44228571D02*
X43207200Y-44371428D01*
X43207200Y-44371428D02*
X43111961Y-44466666D01*
X43111961Y-44466666D02*
X43016723Y-44514285D01*
X43016723Y-44514285D02*
X42826247Y-44561904D01*
X42826247Y-44561904D02*
X42683390Y-44561904D01*
X42683390Y-44561904D02*
X42492914Y-44514285D01*
X42492914Y-44514285D02*
X42397676Y-44466666D01*
X42397676Y-44466666D02*
X42302438Y-44371428D01*
X42302438Y-44371428D02*
X42254819Y-44228571D01*
X42254819Y-44228571D02*
X42254819Y-44133333D01*
X42254819Y-44133333D02*
X42302438Y-43990476D01*
X42302438Y-43990476D02*
X42350057Y-43942857D01*
X42350057Y-43561904D02*
X42302438Y-43514285D01*
X42302438Y-43514285D02*
X42254819Y-43419047D01*
X42254819Y-43419047D02*
X42254819Y-43180952D01*
X42254819Y-43180952D02*
X42302438Y-43085714D01*
X42302438Y-43085714D02*
X42350057Y-43038095D01*
X42350057Y-43038095D02*
X42445295Y-42990476D01*
X42445295Y-42990476D02*
X42540533Y-42990476D01*
X42540533Y-42990476D02*
X42683390Y-43038095D01*
X42683390Y-43038095D02*
X43254819Y-43609523D01*
X43254819Y-43609523D02*
X43254819Y-42990476D01*
X42254819Y-42371428D02*
X42254819Y-42276190D01*
X42254819Y-42276190D02*
X42302438Y-42180952D01*
X42302438Y-42180952D02*
X42350057Y-42133333D01*
X42350057Y-42133333D02*
X42445295Y-42085714D01*
X42445295Y-42085714D02*
X42635771Y-42038095D01*
X42635771Y-42038095D02*
X42873866Y-42038095D01*
X42873866Y-42038095D02*
X43064342Y-42085714D01*
X43064342Y-42085714D02*
X43159580Y-42133333D01*
X43159580Y-42133333D02*
X43207200Y-42180952D01*
X43207200Y-42180952D02*
X43254819Y-42276190D01*
X43254819Y-42276190D02*
X43254819Y-42371428D01*
X43254819Y-42371428D02*
X43207200Y-42466666D01*
X43207200Y-42466666D02*
X43159580Y-42514285D01*
X43159580Y-42514285D02*
X43064342Y-42561904D01*
X43064342Y-42561904D02*
X42873866Y-42609523D01*
X42873866Y-42609523D02*
X42635771Y-42609523D01*
X42635771Y-42609523D02*
X42445295Y-42561904D01*
X42445295Y-42561904D02*
X42350057Y-42514285D01*
X42350057Y-42514285D02*
X42302438Y-42466666D01*
X42302438Y-42466666D02*
X42254819Y-42371428D01*
D14*
%TO.C,D8*%
X109227500Y-70915000D02*
X109227500Y-72385000D01*
X109227500Y-72385000D02*
X111512500Y-72385000D01*
X111512500Y-70915000D02*
X109227500Y-70915000D01*
%TO.C,R6*%
X39477500Y-34512742D02*
X39477500Y-34987258D01*
X40522500Y-34512742D02*
X40522500Y-34987258D01*
%TO.C,R31*%
X70220000Y-73346359D02*
X70220000Y-73653641D01*
X70980000Y-73346359D02*
X70980000Y-73653641D01*
%TO.C,C2*%
X56690000Y-51842164D02*
X56690000Y-52057836D01*
X57410000Y-51842164D02*
X57410000Y-52057836D01*
%TO.C,C1*%
X32940000Y-50307836D02*
X32940000Y-50092164D01*
X33660000Y-50307836D02*
X33660000Y-50092164D01*
D12*
%TO.C,Q1*%
X99170000Y-79170000D02*
X100630000Y-79170000D01*
X99170000Y-81160000D02*
X99170000Y-80240000D01*
X99170000Y-82230000D02*
X100630000Y-82230000D01*
X100630000Y-79170000D02*
X100630000Y-80210000D01*
X100630000Y-82230000D02*
X100630000Y-81190000D01*
D14*
%TO.C,R12*%
X21637258Y-57677500D02*
X21162742Y-57677500D01*
X21637258Y-58722500D02*
X21162742Y-58722500D01*
D13*
%TO.C,IC1*%
X44300000Y-69871000D02*
X44300000Y-68336000D01*
X54500000Y-69871000D02*
X44300000Y-69871000D01*
X54500000Y-69871000D02*
X54500000Y-68227000D01*
D15*
X45270000Y-74474000D02*
G75*
G02*
X44832000Y-74474000I-219000J0D01*
G01*
X44832000Y-74474000D02*
G75*
G02*
X45270000Y-74474000I219000J0D01*
G01*
D14*
%TO.C,R2*%
X26577500Y-67937258D02*
X26577500Y-67462742D01*
X27622500Y-67937258D02*
X27622500Y-67462742D01*
%TO.C,R14*%
X21637258Y-55777500D02*
X21162742Y-55777500D01*
X21637258Y-56822500D02*
X21162742Y-56822500D01*
%TO.C,R22*%
X51477500Y-32762742D02*
X51477500Y-33237258D01*
X52522500Y-32762742D02*
X52522500Y-33237258D01*
D12*
%TO.C,CR1*%
X60070000Y-61730000D02*
X66730000Y-61730000D01*
X60070000Y-64470000D02*
X60070000Y-61730000D01*
X66730000Y-61730000D02*
X66730000Y-64470000D01*
X66730000Y-64470000D02*
X60070000Y-64470000D01*
D14*
%TO.C,R5*%
X59477500Y-36562742D02*
X59477500Y-37037258D01*
X60522500Y-36562742D02*
X60522500Y-37037258D01*
%TO.C,C21*%
X39607836Y-48402500D02*
X39392164Y-48402500D01*
X39607836Y-49122500D02*
X39392164Y-49122500D01*
%TO.C,R21*%
X57477500Y-33237258D02*
X57477500Y-32762742D01*
X58522500Y-33237258D02*
X58522500Y-32762742D01*
%TO.C,R29*%
X24677500Y-67937258D02*
X24677500Y-67462742D01*
X25722500Y-67937258D02*
X25722500Y-67462742D01*
%TO.C,R8*%
X43477500Y-34512742D02*
X43477500Y-34987258D01*
X44522500Y-34512742D02*
X44522500Y-34987258D01*
%TO.C,C23*%
X55490000Y-33140580D02*
X55490000Y-32859420D01*
X56510000Y-33140580D02*
X56510000Y-32859420D01*
%TO.C,D1*%
X28265000Y-66215000D02*
X28265000Y-68500000D01*
X29735000Y-66215000D02*
X28265000Y-66215000D01*
X29735000Y-68500000D02*
X29735000Y-66215000D01*
%TO.C,C12*%
X53392164Y-47227500D02*
X53607836Y-47227500D01*
X53392164Y-47947500D02*
X53607836Y-47947500D01*
%TO.C,D4*%
X57365000Y-35315000D02*
X57365000Y-37600000D01*
X58835000Y-35315000D02*
X57365000Y-35315000D01*
X58835000Y-37600000D02*
X58835000Y-35315000D01*
%TO.C,C9*%
X48890000Y-34107836D02*
X48890000Y-33892164D01*
X49610000Y-34107836D02*
X49610000Y-33892164D01*
D16*
%TO.C,Q2*%
X105340000Y-83370000D02*
X105340000Y-84580000D01*
X105340000Y-85610000D02*
X105340000Y-86600000D01*
X105410000Y-83300000D02*
X105620000Y-83300000D01*
X105640000Y-86600000D02*
X105410000Y-86600000D01*
X108480000Y-83300000D02*
X108700000Y-83300000D01*
X108700000Y-83300000D02*
X108700000Y-84580000D01*
X108700000Y-85610000D02*
X108700000Y-86600000D01*
X108700000Y-86600000D02*
X108470000Y-86600000D01*
X105650000Y-87000000D02*
G75*
G02*
X105350000Y-87000000I-150000J0D01*
G01*
X105350000Y-87000000D02*
G75*
G02*
X105650000Y-87000000I150000J0D01*
G01*
D14*
%TO.C,C15*%
X40607836Y-45277500D02*
X40392164Y-45277500D01*
X40607836Y-45997500D02*
X40392164Y-45997500D01*
%TO.C,C14*%
X39627836Y-49652500D02*
X39412164Y-49652500D01*
X39627836Y-50372500D02*
X39412164Y-50372500D01*
%TO.C,D11*%
X36300000Y-71490000D02*
X36300000Y-77000000D01*
X39600000Y-71490000D02*
X36300000Y-71490000D01*
X39600000Y-71490000D02*
X39600000Y-77000000D01*
%TO.C,R17*%
X105237258Y-87977500D02*
X104762742Y-87977500D01*
X105237258Y-89022500D02*
X104762742Y-89022500D01*
%TO.C,U2*%
X32475000Y-53412500D02*
X32735000Y-53412500D01*
X32475000Y-56137500D02*
X32475000Y-53412500D01*
X32475000Y-56137500D02*
X32475000Y-58862500D01*
X32475000Y-58862500D02*
X32735000Y-58862500D01*
X37925000Y-53412500D02*
X37665000Y-53412500D01*
X37925000Y-56137500D02*
X37925000Y-53412500D01*
X37925000Y-56137500D02*
X37925000Y-58862500D01*
X37925000Y-58862500D02*
X37665000Y-58862500D01*
X32735000Y-59645000D02*
X32405000Y-59885000D01*
X32405000Y-59405000D01*
X32735000Y-59645000D01*
G36*
X32735000Y-59645000D02*
G01*
X32405000Y-59885000D01*
X32405000Y-59405000D01*
X32735000Y-59645000D01*
G37*
%TO.C,D6*%
X42315000Y-39265000D02*
X42315000Y-40735000D01*
X42315000Y-40735000D02*
X44600000Y-40735000D01*
X44600000Y-39265000D02*
X42315000Y-39265000D01*
%TO.C,C24*%
X53490000Y-33165580D02*
X53490000Y-32884420D01*
X54510000Y-33165580D02*
X54510000Y-32884420D01*
%TO.C,D5*%
X23415000Y-57465000D02*
X23415000Y-58935000D01*
X23415000Y-58935000D02*
X25700000Y-58935000D01*
X25700000Y-57465000D02*
X23415000Y-57465000D01*
%TO.C,C17*%
X47440000Y-54492164D02*
X47440000Y-54707836D01*
X48160000Y-54492164D02*
X48160000Y-54707836D01*
%TO.C,C6*%
X54440000Y-73292164D02*
X54440000Y-73507836D01*
X55160000Y-73292164D02*
X55160000Y-73507836D01*
%TO.C,R9*%
X101362742Y-71077500D02*
X101837258Y-71077500D01*
X101362742Y-72122500D02*
X101837258Y-72122500D01*
%TO.C,C3*%
X56640000Y-49654664D02*
X56640000Y-49870336D01*
X57360000Y-49654664D02*
X57360000Y-49870336D01*
%TO.C,C11*%
X98740000Y-73007836D02*
X98740000Y-72792164D01*
X99460000Y-73007836D02*
X99460000Y-72792164D01*
D11*
%TO.C,IC2*%
X99850000Y-77100000D02*
X99850000Y-76250000D01*
X100100000Y-74300000D02*
X102100000Y-74300000D01*
X100100000Y-75900000D02*
X100100000Y-74300000D01*
X102100000Y-74300000D02*
X102100000Y-75900000D01*
X102100000Y-75900000D02*
X100100000Y-75900000D01*
D14*
%TO.C,R13*%
X40677500Y-40562742D02*
X40677500Y-41037258D01*
X41722500Y-40562742D02*
X41722500Y-41037258D01*
%TO.C,C5*%
X42165000Y-73338748D02*
X42165000Y-73861252D01*
X43635000Y-73338748D02*
X43635000Y-73861252D01*
%TO.C,C13*%
X40607836Y-46527500D02*
X40392164Y-46527500D01*
X40607836Y-47247500D02*
X40392164Y-47247500D01*
%TO.C,D10*%
X23427500Y-53665000D02*
X23427500Y-55135000D01*
X23427500Y-55135000D02*
X25712500Y-55135000D01*
X25712500Y-53665000D02*
X23427500Y-53665000D01*
D17*
%TO.C,G\u002A\u002A\u002A*%
G36*
X83994484Y-75054663D02*
G01*
X84087435Y-75085291D01*
X84183314Y-75141024D01*
X84241760Y-75187940D01*
X84294656Y-75230739D01*
X84341272Y-75251415D01*
X84400726Y-75257544D01*
X84417845Y-75257692D01*
X84480157Y-75260606D01*
X84518619Y-75273473D01*
X84548280Y-75302480D01*
X84557654Y-75315174D01*
X84602264Y-75388577D01*
X84638178Y-75474367D01*
X84668527Y-75581581D01*
X84695137Y-75711961D01*
X84729402Y-75902461D01*
X84599970Y-75905396D01*
X84533149Y-75907179D01*
X84502716Y-75909350D01*
X84505988Y-75912982D01*
X84540282Y-75919147D01*
X84558461Y-75922000D01*
X84605378Y-75930487D01*
X84626542Y-75936817D01*
X84624240Y-75938604D01*
X84601496Y-75957551D01*
X84592444Y-75978447D01*
X84593293Y-75998993D01*
X84610807Y-76014487D01*
X84649168Y-76025574D01*
X84712557Y-76032903D01*
X84805156Y-76037118D01*
X84931147Y-76038866D01*
X84984201Y-76039015D01*
X85094795Y-76038328D01*
X85174718Y-76035392D01*
X85232358Y-76029216D01*
X85276101Y-76018809D01*
X85314332Y-76003180D01*
X85322724Y-75998999D01*
X85383383Y-75975237D01*
X85439639Y-75964501D01*
X85453830Y-75964807D01*
X85489357Y-75974261D01*
X85503762Y-75999757D01*
X85506077Y-76039230D01*
X85506077Y-76107615D01*
X85154384Y-76119025D01*
X85038171Y-76123545D01*
X84933098Y-76129035D01*
X84846396Y-76135006D01*
X84785299Y-76140969D01*
X84758730Y-76145727D01*
X84740140Y-76154092D01*
X84727696Y-76168475D01*
X84720169Y-76195840D01*
X84716327Y-76243151D01*
X84714939Y-76317374D01*
X84714769Y-76394486D01*
X84713129Y-76489391D01*
X84708670Y-76572565D01*
X84702085Y-76634720D01*
X84694543Y-76665746D01*
X84681422Y-76682884D01*
X84659024Y-76693936D01*
X84619704Y-76700199D01*
X84555817Y-76702966D01*
X84471449Y-76703538D01*
X84383536Y-76704640D01*
X84308288Y-76707612D01*
X84255558Y-76711952D01*
X84237592Y-76715429D01*
X84216421Y-76739596D01*
X84190904Y-76792389D01*
X84165572Y-76864378D01*
X84164827Y-76866852D01*
X84111133Y-77014956D01*
X84044453Y-77134112D01*
X83957897Y-77232549D01*
X83844575Y-77318494D01*
X83733448Y-77382009D01*
X83591307Y-77455769D01*
X82809146Y-77461659D01*
X82638107Y-77462680D01*
X82479441Y-77463115D01*
X82337361Y-77462990D01*
X82216077Y-77462332D01*
X82119802Y-77461167D01*
X82052745Y-77459523D01*
X82019119Y-77457426D01*
X82016050Y-77456614D01*
X81992869Y-77449439D01*
X81940588Y-77439812D01*
X81868962Y-77429442D01*
X81840827Y-77425917D01*
X81757751Y-77415412D01*
X81683746Y-77405152D01*
X81631993Y-77396988D01*
X81623876Y-77395451D01*
X81571213Y-77384749D01*
X81565260Y-77134702D01*
X81559307Y-76884655D01*
X81762616Y-76872251D01*
X81862974Y-76866826D01*
X81962855Y-76862605D01*
X82046937Y-76860189D01*
X82078963Y-76859846D01*
X82141329Y-76857512D01*
X82185865Y-76851473D01*
X82200479Y-76845192D01*
X82202471Y-76808223D01*
X82177524Y-76770569D01*
X82135304Y-76745216D01*
X82123981Y-76742457D01*
X82067307Y-76732529D01*
X82061783Y-76512880D01*
X82056258Y-76293230D01*
X82474533Y-76293230D01*
X82602265Y-76292682D01*
X82720013Y-76291151D01*
X82820994Y-76288805D01*
X82898428Y-76285815D01*
X82945534Y-76282351D01*
X82952553Y-76281281D01*
X82992819Y-76269360D01*
X83002479Y-76249578D01*
X82995319Y-76224675D01*
X82986538Y-76186177D01*
X82990119Y-76168239D01*
X82981090Y-76160628D01*
X82943885Y-76156636D01*
X82932085Y-76156461D01*
X82886263Y-76153489D01*
X82870057Y-76140441D01*
X82872660Y-76116742D01*
X82869073Y-76070762D01*
X82854048Y-76043473D01*
X82827214Y-76001335D01*
X82813352Y-75958381D01*
X82815369Y-75927508D01*
X82826252Y-75920052D01*
X82845090Y-75915519D01*
X82831988Y-75909014D01*
X82793965Y-75901568D01*
X82738041Y-75894214D01*
X82671238Y-75887983D01*
X82600575Y-75883907D01*
X82575307Y-75883162D01*
X82467830Y-75878409D01*
X82348775Y-75869298D01*
X82242279Y-75857711D01*
X82233384Y-75856507D01*
X82067307Y-75833509D01*
X82055579Y-75550485D01*
X82048351Y-75411897D01*
X82038627Y-75307734D01*
X82024785Y-75233357D01*
X82005207Y-75184123D01*
X81978269Y-75155391D01*
X81942353Y-75142521D01*
X81912395Y-75140461D01*
X81873710Y-75132130D01*
X81862184Y-75102099D01*
X81862154Y-75099497D01*
X81862154Y-75058534D01*
X82853730Y-75062413D01*
X83049213Y-75062914D01*
X83234596Y-75062882D01*
X83405864Y-75062352D01*
X83558999Y-75061361D01*
X83689984Y-75059945D01*
X83794803Y-75058140D01*
X83869438Y-75055980D01*
X83909871Y-75053503D01*
X83913692Y-75052936D01*
X83994484Y-75054663D01*
G37*
G36*
X87801846Y-77700000D02*
G01*
X87801846Y-82701846D01*
X82800000Y-82701846D01*
X77798154Y-82701846D01*
X77798154Y-79740692D01*
X79882368Y-79740692D01*
X79902070Y-79749502D01*
X79908307Y-79751538D01*
X79935432Y-79763265D01*
X79931577Y-79769129D01*
X79914915Y-79781158D01*
X79917242Y-79789265D01*
X79913893Y-79813992D01*
X79903741Y-79823457D01*
X79904405Y-79834356D01*
X79942388Y-79842985D01*
X80015993Y-79849264D01*
X80123523Y-79853111D01*
X80263281Y-79854447D01*
X80433571Y-79853190D01*
X80503809Y-79852055D01*
X80655269Y-79848244D01*
X80767794Y-79843054D01*
X80841502Y-79836475D01*
X80876510Y-79828499D01*
X80879659Y-79824395D01*
X80893443Y-79807258D01*
X80932334Y-79791844D01*
X80982401Y-79781609D01*
X81029714Y-79780006D01*
X81046423Y-79783031D01*
X81063594Y-79793763D01*
X81073953Y-79818660D01*
X81079091Y-79865701D01*
X81080602Y-79942861D01*
X81080615Y-79954274D01*
X81083170Y-80051128D01*
X81093693Y-80115838D01*
X81116467Y-80155163D01*
X81155778Y-80175861D01*
X81215911Y-80184692D01*
X81227154Y-80185420D01*
X81284934Y-80190008D01*
X81313768Y-80199988D01*
X81323718Y-80222995D01*
X81324846Y-80259538D01*
X81322623Y-80300246D01*
X81309393Y-80323116D01*
X81275316Y-80337007D01*
X81227154Y-80347461D01*
X81165815Y-80361775D01*
X81118925Y-80376364D01*
X81105038Y-80382807D01*
X81097659Y-80397002D01*
X81091798Y-80431179D01*
X81087324Y-80488607D01*
X81084103Y-80572560D01*
X81082001Y-80686309D01*
X81080886Y-80833127D01*
X81080615Y-80983242D01*
X81080615Y-81567871D01*
X81036654Y-81577251D01*
X80982222Y-81588832D01*
X80953615Y-81594896D01*
X80930536Y-81601215D01*
X80944228Y-81604444D01*
X80960892Y-81605425D01*
X80992358Y-81610827D01*
X80990263Y-81627449D01*
X80982531Y-81637472D01*
X80968324Y-81667881D01*
X80971905Y-81681433D01*
X81001487Y-81691210D01*
X81067581Y-81699388D01*
X81167652Y-81705887D01*
X81299166Y-81710624D01*
X81459588Y-81713518D01*
X81646382Y-81714488D01*
X81857013Y-81713453D01*
X81940307Y-81712547D01*
X82087535Y-81710215D01*
X82225029Y-81707077D01*
X82347054Y-81703338D01*
X82447879Y-81699205D01*
X82521769Y-81694884D01*
X82562992Y-81690580D01*
X82565431Y-81690084D01*
X82607536Y-81676043D01*
X82612812Y-81662090D01*
X82609392Y-81659491D01*
X82586761Y-81633622D01*
X82594537Y-81612453D01*
X82614384Y-81607692D01*
X82640403Y-81598353D01*
X82643692Y-81590432D01*
X82626259Y-81572292D01*
X82582374Y-81557399D01*
X82524653Y-81549684D01*
X82511807Y-81549343D01*
X82477244Y-81539926D01*
X82467217Y-81524654D01*
X82466702Y-81481722D01*
X82466506Y-81410423D01*
X82466591Y-81317055D01*
X82466917Y-81207914D01*
X82467446Y-81089299D01*
X82468139Y-80967507D01*
X82468959Y-80848835D01*
X82469866Y-80739581D01*
X82470822Y-80646042D01*
X82471789Y-80574516D01*
X82472727Y-80531299D01*
X82473355Y-80521254D01*
X82493431Y-80518653D01*
X82542982Y-80515342D01*
X82612429Y-80511932D01*
X82633923Y-80511050D01*
X82735760Y-80502972D01*
X82800916Y-80488320D01*
X82828666Y-80467325D01*
X82825907Y-80449719D01*
X82804339Y-80443647D01*
X82797343Y-80446796D01*
X82784076Y-80441860D01*
X82784039Y-80422691D01*
X82775270Y-80390690D01*
X82749166Y-80380674D01*
X82718945Y-80366742D01*
X82716498Y-80330925D01*
X82716813Y-80329234D01*
X82715621Y-80288891D01*
X82704147Y-80270444D01*
X82688071Y-80242839D01*
X82682470Y-80204654D01*
X82674996Y-80148884D01*
X82647907Y-80111883D01*
X82593036Y-80084762D01*
X82563660Y-80075334D01*
X82511311Y-80057948D01*
X82486167Y-80037957D01*
X82478251Y-80001896D01*
X82477615Y-79959245D01*
X82472567Y-79896404D01*
X82457702Y-79869633D01*
X82453192Y-79868737D01*
X82434848Y-79852076D01*
X82428769Y-79819923D01*
X82415146Y-79768391D01*
X82392067Y-79734374D01*
X82377048Y-79722387D01*
X82355592Y-79713117D01*
X82322585Y-79706089D01*
X82272914Y-79700824D01*
X82201464Y-79696847D01*
X82103121Y-79693682D01*
X81972771Y-79690850D01*
X81913415Y-79689756D01*
X81760900Y-79686846D01*
X81642923Y-79683258D01*
X81554956Y-79677502D01*
X81492469Y-79668085D01*
X81450931Y-79653516D01*
X81425814Y-79632304D01*
X81412588Y-79602957D01*
X81406724Y-79563984D01*
X81404138Y-79522067D01*
X81398874Y-79424358D01*
X81659197Y-79410563D01*
X81757021Y-79406328D01*
X81841161Y-79404468D01*
X81903728Y-79405026D01*
X81936838Y-79408047D01*
X81939306Y-79408996D01*
X81965146Y-79412860D01*
X82020625Y-79414246D01*
X82098018Y-79413505D01*
X82189598Y-79410987D01*
X82287641Y-79407043D01*
X82384420Y-79402024D01*
X82472210Y-79396280D01*
X82543287Y-79390163D01*
X82589923Y-79384022D01*
X82604615Y-79378799D01*
X82588481Y-79362368D01*
X82570423Y-79356071D01*
X82573591Y-79351522D01*
X82609282Y-79345251D01*
X82671034Y-79338201D01*
X82726306Y-79333308D01*
X82916381Y-79318109D01*
X82886996Y-79261285D01*
X82848843Y-79215237D01*
X82811192Y-79204461D01*
X82789991Y-79202941D01*
X82776451Y-79193589D01*
X82768812Y-79169222D01*
X82765315Y-79122653D01*
X82764201Y-79046699D01*
X82764048Y-79011972D01*
X82763323Y-78819483D01*
X82970316Y-78806818D01*
X83076326Y-78801237D01*
X83186616Y-78796911D01*
X83283765Y-78794470D01*
X83320808Y-78794154D01*
X83399820Y-78792075D01*
X83444547Y-78785297D01*
X83459590Y-78773012D01*
X83459423Y-78769730D01*
X83466143Y-78763833D01*
X83490567Y-78758634D01*
X83535321Y-78754034D01*
X83603030Y-78749930D01*
X83696319Y-78746220D01*
X83817814Y-78742803D01*
X83970142Y-78739577D01*
X84155927Y-78736441D01*
X84377795Y-78733293D01*
X84411923Y-78732845D01*
X84664917Y-78729225D01*
X84882930Y-78725287D01*
X85070058Y-78720800D01*
X85230395Y-78715531D01*
X85368039Y-78709248D01*
X85487084Y-78701718D01*
X85591626Y-78692709D01*
X85685761Y-78681990D01*
X85773584Y-78669327D01*
X85859192Y-78654488D01*
X85887077Y-78649186D01*
X86047377Y-78612567D01*
X86206739Y-78566000D01*
X86357169Y-78512529D01*
X86490675Y-78455197D01*
X86599265Y-78397048D01*
X86658846Y-78355310D01*
X86717461Y-78307097D01*
X86585577Y-78306395D01*
X86519515Y-78303985D01*
X86472201Y-78298334D01*
X86453699Y-78290653D01*
X86453692Y-78290496D01*
X86467000Y-78267701D01*
X86492769Y-78241841D01*
X86523485Y-78209846D01*
X86527115Y-78181166D01*
X86502688Y-78143897D01*
X86483000Y-78121923D01*
X86446513Y-78072654D01*
X86435356Y-78034513D01*
X86450775Y-78014241D01*
X86462774Y-78012615D01*
X86493425Y-77996835D01*
X86517890Y-77961497D01*
X86525330Y-77924600D01*
X86521827Y-77914519D01*
X86517965Y-77888554D01*
X86528921Y-77867315D01*
X86545403Y-77866032D01*
X86548942Y-77870079D01*
X86573694Y-77875513D01*
X86610000Y-77862683D01*
X86636464Y-77847546D01*
X86636199Y-77840027D01*
X86604525Y-77837411D01*
X86565807Y-77837057D01*
X86472769Y-77836769D01*
X86485266Y-77758615D01*
X86491439Y-77709462D01*
X86491745Y-77681157D01*
X86490381Y-77678626D01*
X86468940Y-77676204D01*
X86417730Y-77671261D01*
X86345916Y-77664669D01*
X86307154Y-77661204D01*
X86205425Y-77650648D01*
X86097429Y-77637006D01*
X86004055Y-77622954D01*
X85991401Y-77620763D01*
X85851495Y-77595908D01*
X85861998Y-77531183D01*
X85865022Y-77484874D01*
X85848456Y-77460004D01*
X85818559Y-77445949D01*
X85771416Y-77432060D01*
X85701471Y-77416001D01*
X85630462Y-77402435D01*
X85554674Y-77387427D01*
X85512691Y-77369944D01*
X85499531Y-77342759D01*
X85510210Y-77298644D01*
X85528733Y-77254872D01*
X85546006Y-77213641D01*
X85557919Y-77175267D01*
X85566880Y-77128246D01*
X85575295Y-77061068D01*
X85581417Y-77003053D01*
X85589310Y-76947540D01*
X85598792Y-76908601D01*
X85601550Y-76902513D01*
X85624256Y-76894984D01*
X85678841Y-76887057D01*
X85758123Y-76879491D01*
X85854923Y-76873046D01*
X85901625Y-76870743D01*
X86039966Y-76864024D01*
X86142575Y-76857442D01*
X86212793Y-76850543D01*
X86253961Y-76842876D01*
X86269420Y-76833987D01*
X86262509Y-76823424D01*
X86260504Y-76822127D01*
X86238942Y-76801242D01*
X86237100Y-76794161D01*
X86234996Y-76759268D01*
X86209420Y-76740603D01*
X86182299Y-76733317D01*
X86125829Y-76720914D01*
X86122905Y-76507072D01*
X86119981Y-76293230D01*
X86538394Y-76293230D01*
X86666147Y-76292682D01*
X86783914Y-76291151D01*
X86884917Y-76288807D01*
X86962375Y-76285818D01*
X87009508Y-76282354D01*
X87016553Y-76281281D01*
X87056819Y-76269360D01*
X87066479Y-76249578D01*
X87059319Y-76224675D01*
X87050538Y-76186177D01*
X87054119Y-76168239D01*
X87044428Y-76161057D01*
X87006146Y-76156886D01*
X86985100Y-76156461D01*
X86933266Y-76153165D01*
X86913624Y-76141595D01*
X86914828Y-76129033D01*
X86915291Y-76094926D01*
X86904123Y-76041123D01*
X86896624Y-76016687D01*
X86881155Y-75956331D01*
X86883831Y-75923071D01*
X86887061Y-75919873D01*
X86887296Y-75908438D01*
X86853931Y-75898074D01*
X86792445Y-75889575D01*
X86708313Y-75883736D01*
X86622211Y-75881450D01*
X86520560Y-75877625D01*
X86404962Y-75868987D01*
X86299976Y-75857383D01*
X86297384Y-75857027D01*
X86131307Y-75834077D01*
X86118332Y-75707077D01*
X86105203Y-75598098D01*
X86089664Y-75499859D01*
X86073153Y-75419333D01*
X86057110Y-75363495D01*
X86042971Y-75339320D01*
X86042444Y-75339102D01*
X86025849Y-75316675D01*
X86023153Y-75300025D01*
X86003224Y-75231712D01*
X85948033Y-75176960D01*
X85875308Y-75142895D01*
X85816681Y-75120130D01*
X85786362Y-75096739D01*
X85774360Y-75064339D01*
X85773433Y-75057423D01*
X85772005Y-75025648D01*
X85783557Y-75009779D01*
X85817497Y-75004300D01*
X85865087Y-75003692D01*
X85930322Y-74999547D01*
X85967344Y-74988801D01*
X85972807Y-74973990D01*
X85943364Y-74957649D01*
X85930903Y-74953828D01*
X85899290Y-74943920D01*
X85897913Y-74936891D01*
X85930130Y-74928604D01*
X85955461Y-74923563D01*
X86013857Y-74915884D01*
X86094775Y-74909943D01*
X86181664Y-74906922D01*
X86189923Y-74906826D01*
X86267424Y-74903881D01*
X86331807Y-74897362D01*
X86371367Y-74888554D01*
X86375538Y-74886461D01*
X86390129Y-74872466D01*
X86370391Y-74867507D01*
X86357628Y-74867222D01*
X86326814Y-74862620D01*
X86323478Y-74853854D01*
X86322321Y-74832097D01*
X86300732Y-74801869D01*
X86270586Y-74776683D01*
X86249129Y-74769230D01*
X86226238Y-74753366D01*
X86199177Y-74714327D01*
X86194663Y-74705730D01*
X86161008Y-74648217D01*
X86117953Y-74586200D01*
X86108375Y-74573846D01*
X86059023Y-74516433D01*
X85995486Y-74448835D01*
X85925372Y-74378439D01*
X85856287Y-74312626D01*
X85795841Y-74258782D01*
X85751639Y-74224290D01*
X85742502Y-74218723D01*
X85698106Y-74193573D01*
X85637552Y-74157523D01*
X85600039Y-74134535D01*
X85555673Y-74108832D01*
X85514395Y-74091383D01*
X85466295Y-74080050D01*
X85401462Y-74072697D01*
X85309984Y-74067186D01*
X85281384Y-74065826D01*
X85176580Y-74059788D01*
X85098760Y-74051399D01*
X85035835Y-74038269D01*
X84975711Y-74018006D01*
X84919923Y-73994348D01*
X84733990Y-73921289D01*
X84538478Y-73862137D01*
X84350026Y-73821662D01*
X84285435Y-73812378D01*
X84235048Y-73808746D01*
X84147484Y-73805422D01*
X84024645Y-73802425D01*
X83868430Y-73799776D01*
X83680740Y-73797495D01*
X83463474Y-73795602D01*
X83218533Y-73794117D01*
X82947816Y-73793062D01*
X82653224Y-73792456D01*
X82406264Y-73792307D01*
X80692658Y-73792307D01*
X80681614Y-73894884D01*
X80675493Y-74000132D01*
X80681020Y-74084833D01*
X80697617Y-74140675D01*
X80698903Y-74142848D01*
X80720169Y-74155321D01*
X80767895Y-74161597D01*
X80847130Y-74162142D01*
X80892543Y-74160716D01*
X81070846Y-74153769D01*
X81070846Y-74437077D01*
X81070846Y-74720384D01*
X80908544Y-74732446D01*
X80824102Y-74740301D01*
X80767808Y-74750823D01*
X80728737Y-74767223D01*
X80695963Y-74792715D01*
X80692552Y-74795946D01*
X80624971Y-74838911D01*
X80577118Y-74847384D01*
X80528769Y-74855793D01*
X80497348Y-74884421D01*
X80480645Y-74938368D01*
X80476448Y-75022736D01*
X80478226Y-75075527D01*
X80485462Y-75161480D01*
X80499740Y-75215509D01*
X80525710Y-75244697D01*
X80568020Y-75256122D01*
X80597651Y-75257393D01*
X80640042Y-75265427D01*
X80660223Y-75282115D01*
X80663455Y-75309373D01*
X80666894Y-75368255D01*
X80670217Y-75451313D01*
X80673098Y-75551098D01*
X80674264Y-75604512D01*
X80680077Y-75902487D01*
X80562846Y-75905409D01*
X80445615Y-75908330D01*
X80533538Y-75922000D01*
X80577899Y-75930385D01*
X80594046Y-75936696D01*
X80587882Y-75938604D01*
X80563879Y-75952911D01*
X80565549Y-75970846D01*
X80562650Y-75997057D01*
X80550282Y-76002101D01*
X80546022Y-76008163D01*
X80572615Y-76019692D01*
X80612015Y-76025933D01*
X80680703Y-76030617D01*
X80770159Y-76033745D01*
X80871863Y-76035317D01*
X80977294Y-76035333D01*
X81077933Y-76033793D01*
X81165258Y-76030696D01*
X81230751Y-76026043D01*
X81265891Y-76019834D01*
X81266230Y-76019692D01*
X81289171Y-76005816D01*
X81285769Y-76000153D01*
X81278199Y-75993618D01*
X81298416Y-75983268D01*
X81335790Y-75972444D01*
X81379691Y-75964486D01*
X81405766Y-75962450D01*
X81451552Y-75967762D01*
X81473945Y-75992841D01*
X81479877Y-76011792D01*
X81486273Y-76048950D01*
X81480939Y-76076262D01*
X81459149Y-76095219D01*
X81416176Y-76107316D01*
X81347294Y-76114043D01*
X81247779Y-76116893D01*
X81145490Y-76117384D01*
X81033564Y-76118723D01*
X80928877Y-76122406D01*
X80840722Y-76127934D01*
X80778395Y-76134807D01*
X80761998Y-76138013D01*
X80680077Y-76158642D01*
X80673493Y-76416166D01*
X80670380Y-76513000D01*
X80666525Y-76595561D01*
X80662379Y-76656080D01*
X80658393Y-76686784D01*
X80657686Y-76688614D01*
X80635454Y-76694907D01*
X80582946Y-76699889D01*
X80508958Y-76702919D01*
X80452947Y-76703538D01*
X80365586Y-76705497D01*
X80289941Y-76710766D01*
X80236547Y-76718430D01*
X80219638Y-76723764D01*
X80206278Y-76733305D01*
X80196491Y-76749215D01*
X80189726Y-76777036D01*
X80185430Y-76822312D01*
X80183053Y-76890585D01*
X80182042Y-76987398D01*
X80181846Y-77103611D01*
X80180800Y-77234946D01*
X80177802Y-77341671D01*
X80173063Y-77419783D01*
X80166793Y-77465280D01*
X80162307Y-77475307D01*
X80147183Y-77502240D01*
X80142769Y-77535076D01*
X80144899Y-77559918D01*
X80156938Y-77574179D01*
X80187360Y-77580789D01*
X80244639Y-77582678D01*
X80280691Y-77582769D01*
X80346567Y-77580593D01*
X80392112Y-77574856D01*
X80408464Y-77566744D01*
X80408079Y-77565724D01*
X80418014Y-77552463D01*
X80457414Y-77539880D01*
X80516690Y-77529970D01*
X80586251Y-77524729D01*
X80606807Y-77524369D01*
X80654058Y-77530686D01*
X80671946Y-77552803D01*
X80672631Y-77558346D01*
X80676719Y-77628141D01*
X80674801Y-77668268D01*
X80663499Y-77688046D01*
X80639431Y-77696797D01*
X80621253Y-77700000D01*
X80578447Y-77713927D01*
X80563401Y-77743051D01*
X80562637Y-77758615D01*
X80562846Y-77807461D01*
X80892492Y-77812829D01*
X81016747Y-77814336D01*
X81107489Y-77813953D01*
X81170254Y-77811298D01*
X81210578Y-77805991D01*
X81233996Y-77797652D01*
X81244185Y-77788669D01*
X81281011Y-77762989D01*
X81334729Y-77747448D01*
X81385945Y-77746229D01*
X81406686Y-77753613D01*
X81418199Y-77780074D01*
X81426788Y-77835302D01*
X81432278Y-77909083D01*
X81434492Y-77991204D01*
X81433254Y-78071452D01*
X81428387Y-78139612D01*
X81419714Y-78185471D01*
X81414332Y-78196347D01*
X81401437Y-78223610D01*
X81413906Y-78238010D01*
X81424606Y-78255266D01*
X81409970Y-78268758D01*
X81413929Y-78277094D01*
X81452649Y-78282924D01*
X81521862Y-78285702D01*
X81543025Y-78285854D01*
X81628746Y-78283432D01*
X81686022Y-78276236D01*
X81709659Y-78264925D01*
X81709743Y-78264693D01*
X81733447Y-78246996D01*
X81781163Y-78235309D01*
X81838136Y-78230706D01*
X81889615Y-78234263D01*
X81920846Y-78247054D01*
X81922490Y-78249192D01*
X81930734Y-78281569D01*
X81936454Y-78340766D01*
X81939447Y-78414596D01*
X81939511Y-78490870D01*
X81936443Y-78557402D01*
X81930039Y-78602002D01*
X81928448Y-78606940D01*
X81917560Y-78620194D01*
X81892692Y-78629131D01*
X81847495Y-78634532D01*
X81775621Y-78637177D01*
X81676840Y-78637846D01*
X81561089Y-78639444D01*
X81481120Y-78644438D01*
X81433762Y-78653127D01*
X81417719Y-78662269D01*
X81408856Y-78690679D01*
X81399507Y-78749249D01*
X81390854Y-78829095D01*
X81384718Y-78910470D01*
X81378511Y-79000609D01*
X81371958Y-79076251D01*
X81365877Y-79128952D01*
X81361469Y-79149816D01*
X81337949Y-79158848D01*
X81288789Y-79164465D01*
X81255780Y-79165384D01*
X81156061Y-79178675D01*
X81095741Y-79204388D01*
X81071949Y-79217230D01*
X81044635Y-79226920D01*
X81008227Y-79233901D01*
X80957153Y-79238618D01*
X80885840Y-79241513D01*
X80788717Y-79243030D01*
X80660210Y-79243612D01*
X80601923Y-79243680D01*
X80429173Y-79244446D01*
X80292171Y-79246665D01*
X80187606Y-79250604D01*
X80112168Y-79256532D01*
X80062545Y-79264716D01*
X80035426Y-79275423D01*
X80027501Y-79288921D01*
X80027593Y-79290098D01*
X80028445Y-79317678D01*
X80028737Y-79375211D01*
X80028458Y-79453577D01*
X80027853Y-79521961D01*
X80025538Y-79732000D01*
X79942500Y-79733947D01*
X79894666Y-79736113D01*
X79882368Y-79740692D01*
X77798154Y-79740692D01*
X77798154Y-77700000D01*
X77798154Y-72698154D01*
X82800000Y-72698154D01*
X87801846Y-72698154D01*
X87801846Y-77700000D01*
G37*
D14*
%TO.C,C7*%
X66507836Y-68040000D02*
X66292164Y-68040000D01*
X66507836Y-68760000D02*
X66292164Y-68760000D01*
%TO.C,D9*%
X50065000Y-39915000D02*
X50065000Y-42200000D01*
X51535000Y-39915000D02*
X50065000Y-39915000D01*
X51535000Y-42200000D02*
X51535000Y-39915000D01*
%TO.C,R18*%
X21637258Y-53877500D02*
X21162742Y-53877500D01*
X21637258Y-54922500D02*
X21162742Y-54922500D01*
%TO.C,C8*%
X61959420Y-67990000D02*
X62240580Y-67990000D01*
X61959420Y-69010000D02*
X62240580Y-69010000D01*
%TO.C,R4*%
X20720000Y-66046359D02*
X20720000Y-66353641D01*
X21480000Y-66046359D02*
X21480000Y-66353641D01*
%TO.C,C10*%
X98740000Y-77192164D02*
X98740000Y-77407836D01*
X99460000Y-77192164D02*
X99460000Y-77407836D01*
%TO.C,C16*%
X43107836Y-53827500D02*
X42892164Y-53827500D01*
X43107836Y-54547500D02*
X42892164Y-54547500D01*
D12*
%TO.C,Y1*%
X58740000Y-49477500D02*
X58740000Y-51137500D01*
X58970000Y-49707500D02*
X62030000Y-49707500D01*
X58970000Y-53267500D02*
X58970000Y-49707500D01*
X60300000Y-49477500D02*
X58740000Y-49477500D01*
X62030000Y-49707500D02*
X62030000Y-53267500D01*
X62030000Y-53267500D02*
X58970000Y-53267500D01*
D14*
%TO.C,C18*%
X53392164Y-48652500D02*
X53607836Y-48652500D01*
X53392164Y-49372500D02*
X53607836Y-49372500D01*
%TO.C,R16*%
X51977500Y-39837258D02*
X51977500Y-39362742D01*
X53022500Y-39837258D02*
X53022500Y-39362742D01*
%TO.C,R3*%
X67720000Y-73326359D02*
X67720000Y-73633641D01*
X68480000Y-73326359D02*
X68480000Y-73633641D01*
D16*
%TO.C,J1*%
X56800002Y-39100000D02*
X56800002Y-41160000D01*
X56800002Y-43400000D02*
X62400002Y-43400000D01*
X58100002Y-39100000D02*
X56800002Y-39100000D01*
X61100002Y-39060000D02*
X62400002Y-39060000D01*
X62400002Y-39060000D02*
X62400002Y-41160000D01*
X57440002Y-39540000D02*
G75*
G02*
X57180002Y-39540000I-130000J0D01*
G01*
X57180002Y-39540000D02*
G75*
G02*
X57440002Y-39540000I130000J0D01*
G01*
D14*
%TO.C,R10*%
X102262742Y-78077500D02*
X102737258Y-78077500D01*
X102262742Y-79122500D02*
X102737258Y-79122500D01*
%TO.C,U1*%
X43090000Y-52810000D02*
X42760000Y-53050000D01*
X42760000Y-52570000D01*
X43090000Y-52810000D01*
G36*
X43090000Y-52810000D02*
G01*
X42760000Y-53050000D01*
X42760000Y-52570000D01*
X43090000Y-52810000D01*
G37*
X50310000Y-52810000D02*
X49660000Y-52810000D01*
X50310000Y-52160000D02*
X50310000Y-52810000D01*
X50310000Y-46240000D02*
X50310000Y-45590000D01*
X50310000Y-45590000D02*
X49660000Y-45590000D01*
X43740000Y-52810000D02*
X43330000Y-52810000D01*
X43090000Y-52160000D02*
X43090000Y-52510000D01*
X43090000Y-46240000D02*
X43090000Y-45590000D01*
X43090000Y-45590000D02*
X43740000Y-45590000D01*
%TO.C,C19*%
X47390000Y-43870336D02*
X47390000Y-43654664D01*
X48110000Y-43870336D02*
X48110000Y-43654664D01*
%TO.C,R11*%
X106137258Y-74377500D02*
X105662742Y-74377500D01*
X106137258Y-75422500D02*
X105662742Y-75422500D01*
%TO.C,C22*%
X40607836Y-44027500D02*
X40392164Y-44027500D01*
X40607836Y-44747500D02*
X40392164Y-44747500D01*
%TO.C,D2*%
X66500000Y-72135000D02*
X68785000Y-72135000D01*
X68785000Y-70665000D02*
X66500000Y-70665000D01*
X68785000Y-72135000D02*
X68785000Y-70665000D01*
%TO.C,R7*%
X41477500Y-34512742D02*
X41477500Y-34987258D01*
X42522500Y-34512742D02*
X42522500Y-34987258D01*
%TO.C,D3*%
X22165000Y-64100000D02*
X22165000Y-66385000D01*
X22165000Y-66385000D02*
X23635000Y-66385000D01*
X23635000Y-66385000D02*
X23635000Y-64100000D01*
%TO.C,R15*%
X109127064Y-68815000D02*
X108672936Y-68815000D01*
X109127064Y-70285000D02*
X108672936Y-70285000D01*
%TO.C,R19*%
X101762742Y-83177500D02*
X102237258Y-83177500D01*
X101762742Y-84222500D02*
X102237258Y-84222500D01*
%TO.C,R23*%
X46977500Y-34737258D02*
X46977500Y-34262742D01*
X48022500Y-34737258D02*
X48022500Y-34262742D01*
%TO.C,R30*%
X68920000Y-73326359D02*
X68920000Y-73633641D01*
X69680000Y-73326359D02*
X69680000Y-73633641D01*
%TO.C,R20*%
X96577500Y-82037258D02*
X96577500Y-81562742D01*
X97622500Y-82037258D02*
X97622500Y-81562742D01*
%TO.C,C20*%
X43640000Y-43620336D02*
X43640000Y-43404664D01*
X44360000Y-43620336D02*
X44360000Y-43404664D01*
%TO.C,R28*%
X61377500Y-36562742D02*
X61377500Y-37037258D01*
X62422500Y-36562742D02*
X62422500Y-37037258D01*
%TO.C,D7*%
X23415000Y-55565000D02*
X23415000Y-57035000D01*
X23415000Y-57035000D02*
X25700000Y-57035000D01*
X25700000Y-55565000D02*
X23415000Y-55565000D01*
%TD*%
M02*
