M48
; DRILL file {KiCad 8.0.2} date 2024-11-25T20:00:44-0600
; FORMAT={-:-/ absolute / metric / decimal}
; #@! TF.CreationDate,2024-11-25T20:00:44-06:00
; #@! TF.GenerationSoftware,Kicad,Pcbnew,8.0.2
; #@! TF.FileFunction,MixedPlating,1,2
FMAT,2
METRIC
; #@! TA.AperFunction,Plated,PTH,ViaDrill
T1C0.300
; #@! TA.AperFunction,Plated,PTH,ComponentDrill
T2C0.800
; #@! TA.AperFunction,Plated,PTH,ComponentDrill
T3C1.000
; #@! TA.AperFunction,Plated,PTH,ComponentDrill
T4C1.100
; #@! TA.AperFunction,Plated,PTH,ComponentDrill
T5C1.400
; #@! TA.AperFunction,Plated,PTH,ComponentDrill
T6C1.900
; #@! TA.AperFunction,Plated,PTH,ComponentDrill
T7C2.700
; #@! TA.AperFunction,Plated,PTH,ComponentDrill
T8C3.441
%
G90
G05
T1
X18.5Y-52.1
X20.1Y-50.1
X21.1Y-48.6
X22.0Y-55.7
X23.8Y-62.8
X24.7Y-58.1
X25.8Y-58.1
X26.556Y-57.654
X27.447Y-57.326
X28.8Y-56.7
X34.5Y-49.2
X38.0Y-48.787
X38.0Y-49.987
X38.2Y-59.137
X38.2Y-60.137
X38.8Y-44.387
X38.8Y-45.587
X38.8Y-46.788
X39.7Y-41.8
X40.3Y-62.5
X40.3Y-63.5
X40.3Y-64.6
X40.3Y-65.5
X41.5Y-62.5
X41.5Y-65.5
X41.6Y-54.787
X43.3Y-56.0
X44.0Y-41.788
X44.3Y-68.5
X44.3Y-69.9
X45.2Y-55.2
X45.6Y-47.9
X45.6Y-49.1
X45.6Y-50.3
X46.1Y-54.2
X46.3Y-68.5
X46.3Y-69.9
X46.537Y-55.782
X46.8Y-47.9
X46.8Y-49.1
X46.8Y-50.3
X47.7Y-42.087
X47.8Y-47.9
X47.8Y-49.1
X47.8Y-50.3
X48.3Y-68.5
X48.3Y-69.9
X48.6Y-56.1
X49.25Y-32.0
X50.1Y-54.1
X50.3Y-68.5
X50.3Y-69.9
X50.9Y-55.0
X52.0Y-51.387
X52.3Y-68.5
X52.3Y-69.9
X53.8Y-31.0
X54.0Y-38.8
X54.3Y-68.5
X54.3Y-69.9
X54.45Y-46.462
X54.95Y-49.637
X55.0Y-31.0
X56.25Y-31.0
X56.3Y-74.3
X57.0Y-48.262
X57.0Y-54.762
X58.0Y-60.4
X58.0Y-58.4
X58.8Y-43.5
X58.8Y-44.7
X59.8Y-43.5
X59.8Y-44.7
X60.3Y-71.2
X60.5Y-48.262
X60.5Y-54.762
X60.8Y-43.5
X60.8Y-44.7
X61.7Y-58.4
X61.7Y-59.4
X61.7Y-60.4
X62.9Y-58.4
X62.9Y-59.4
X62.9Y-60.4
X63.4Y-48.3
X63.4Y-54.8
X64.1Y-64.1
X64.1Y-67.1
X65.3Y-64.1
X65.3Y-65.0
X65.3Y-66.1
X65.3Y-67.1
X67.8Y-71.2
X69.0Y-65.1
X69.0Y-66.15
X69.0Y-67.15
X69.025Y-68.15
X74.5Y-71.3
X76.1Y-71.9
X97.8Y-77.7
X99.0Y-77.7
X99.0Y-78.7
X99.0Y-79.8
X99.0Y-85.9
X102.0Y-79.5
X102.3Y-86.0
X102.7Y-80.0
X109.1Y-75.8
X110.5Y-73.1
X111.4Y-73.1
X112.3Y-71.0
X112.3Y-72.0
X112.3Y-73.1
X112.7Y-80.6
T3
X114.638Y-74.427
X119.242Y-76.573
T4
X39.852Y-26.319
X43.682Y-29.533
X49.172Y-15.212
X51.087Y-16.819
X53.002Y-18.426
T5
X119.994Y-67.131
X121.744Y-64.1
X123.494Y-61.069
T6
X20.001Y-79.865
X23.598Y-83.338
X30.621Y-72.466
X33.261Y-69.732
X35.901Y-66.999
T7
X31.25Y-86.95
X83.65Y-88.4
X126.65Y-54.8
T8
X41.9Y-18.9
X50.633Y-26.228
T2
G00X42.598Y-82.476
M15
G01X41.748Y-81.004
M16
G05
G00X43.997Y-77.8
M15
G01X45.903Y-76.7
M16
G05
G00X46.997Y-82.996
M15
G01X48.903Y-81.896
M16
G05
M30
