M48
; DRILL file {KiCad 8.0.2} date 2024-12-31T23:32:27-0600
; FORMAT={-:-/ absolute / metric / decimal}
; #@! TF.CreationDate,2024-12-31T23:32:27-06:00
; #@! TF.GenerationSoftware,Kicad,Pcbnew,8.0.2
; #@! TF.FileFunction,MixedPlating,1,2
FMAT,2
METRIC
; #@! TA.AperFunction,Plated,PTH,ViaDrill
T1C0.300
; #@! TA.AperFunction,Plated,PTH,ComponentDrill
T2C0.800
; #@! TA.AperFunction,Plated,PTH,ComponentDrill
T3C1.000
; #@! TA.AperFunction,Plated,PTH,ComponentDrill
T4C1.100
; #@! TA.AperFunction,Plated,PTH,ComponentDrill
T5C1.400
; #@! TA.AperFunction,Plated,PTH,ComponentDrill
T6C2.000
; #@! TA.AperFunction,Plated,PTH,ComponentDrill
T7C2.700
; #@! TA.AperFunction,Plated,PTH,ComponentDrill
T8C3.441
%
G90
G05
T1
X19.1Y-54.4
X19.1Y-56.3
X19.2Y-58.2
X21.5Y-68.1
X23.5Y-68.3
X27.9Y-57.0
X27.9Y-57.8
X28.6Y-56.2
X34.5Y-49.2
X38.0Y-48.787
X38.0Y-49.987
X38.2Y-59.137
X38.2Y-60.137
X38.8Y-44.387
X38.8Y-45.587
X38.8Y-46.788
X39.7Y-41.8
X40.6Y-62.0
X40.6Y-63.2
X40.6Y-64.5
X40.6Y-65.8
X41.6Y-54.787
X41.8Y-62.0
X41.8Y-63.2
X41.8Y-64.5
X41.8Y-65.8
X44.0Y-41.788
X44.2Y-55.4
X44.3Y-68.5
X44.9Y-75.1
X45.28Y-55.31
X45.6Y-47.9
X45.6Y-49.1
X45.6Y-50.3
X46.1Y-54.2
X46.3Y-68.5
X46.3Y-69.9
X46.8Y-47.9
X46.8Y-49.1
X46.8Y-50.3
X47.7Y-42.087
X47.8Y-47.9
X47.8Y-49.1
X47.8Y-50.3
X48.3Y-68.5
X48.3Y-69.9
X48.6Y-56.1
X49.25Y-32.0
X50.3Y-68.5
X50.3Y-69.9
X52.0Y-51.387
X52.3Y-68.5
X52.3Y-69.9
X53.8Y-31.0
X54.0Y-38.8
X54.3Y-68.5
X54.3Y-69.9
X54.45Y-46.462
X54.95Y-49.637
X55.0Y-31.0
X56.2Y-74.4
X56.25Y-31.0
X57.0Y-48.262
X57.0Y-54.762
X57.3Y-59.5
X57.3Y-60.7
X57.3Y-62.0
X57.3Y-63.3
X58.5Y-59.5
X58.5Y-60.7
X58.5Y-62.0
X58.5Y-63.3
X58.6Y-41.6
X58.6Y-42.8
X59.6Y-41.6
X59.6Y-42.8
X59.8Y-64.9
X59.8Y-66.1
X59.8Y-67.4
X59.8Y-68.7
X60.5Y-48.262
X60.5Y-54.762
X60.6Y-41.6
X60.6Y-42.8
X60.8Y-34.7
X63.4Y-48.3
X63.4Y-54.8
X68.1Y-68.9
X70.4Y-75.2
X70.9Y-65.5
X70.9Y-66.7
X71.9Y-65.5
X71.9Y-66.7
X75.5Y-65.5
X76.3Y-66.7
X76.7Y-65.5
X77.2Y-66.7
X93.4Y-76.5
X96.6Y-79.6
X98.4Y-83.0
X99.4Y-71.4
X99.5Y-83.0
X99.9Y-78.5
X102.9Y-72.8
X102.9Y-73.8
X102.9Y-77.3
X103.6Y-76.6
X106.2Y-70.05
T3
X113.798Y-73.737
X118.402Y-75.884
T4
X39.597Y-26.396
X43.428Y-29.61
X48.918Y-15.288
X50.833Y-16.895
X52.748Y-18.502
T5
X124.1Y-55.75
X124.1Y-59.25
X124.1Y-62.75
T6
X19.965Y-79.844
X23.619Y-83.373
X30.614Y-72.473
X33.261Y-69.732
X35.908Y-66.992
T7
X16.086Y-73.119
X59.0Y-22.65
X78.4Y-86.0
X122.9Y-49.6
T8
X41.645Y-18.976
X50.378Y-26.304
T2
G00X42.452Y-82.628
M15
G01X41.602Y-81.156
M16
G05
G00X43.851Y-77.952
M15
G01X45.757Y-76.852
M16
G05
G00X46.851Y-83.148
M15
G01X48.757Y-82.048
M16
G05
M30
