%TF.GenerationSoftware,KiCad,Pcbnew,8.0.2*%
%TF.CreationDate,2024-12-31T23:32:28-06:00*%
%TF.ProjectId,LampBoardDesk,4c616d70-426f-4617-9264-4465736b2e6b,rev?*%
%TF.SameCoordinates,Original*%
%TF.FileFunction,Paste,Top*%
%TF.FilePolarity,Positive*%
%FSLAX46Y46*%
G04 Gerber Fmt 4.6, Leading zero omitted, Abs format (unit mm)*
G04 Created by KiCad (PCBNEW 8.0.2) date 2024-12-31 23:32:28*
%MOMM*%
%LPD*%
G01*
G04 APERTURE LIST*
G04 Aperture macros list*
%AMRoundRect*
0 Rectangle with rounded corners*
0 $1 Rounding radius*
0 $2 $3 $4 $5 $6 $7 $8 $9 X,Y pos of 4 corners*
0 Add a 4 corners polygon primitive as box body*
4,1,4,$2,$3,$4,$5,$6,$7,$8,$9,$2,$3,0*
0 Add four circle primitives for the rounded corners*
1,1,$1+$1,$2,$3*
1,1,$1+$1,$4,$5*
1,1,$1+$1,$6,$7*
1,1,$1+$1,$8,$9*
0 Add four rect primitives between the rounded corners*
20,1,$1+$1,$2,$3,$4,$5,0*
20,1,$1+$1,$4,$5,$6,$7,0*
20,1,$1+$1,$6,$7,$8,$9,0*
20,1,$1+$1,$8,$9,$2,$3,0*%
G04 Aperture macros list end*
%ADD10RoundRect,0.218750X-0.218750X-0.256250X0.218750X-0.256250X0.218750X0.256250X-0.218750X0.256250X0*%
%ADD11RoundRect,0.200000X-0.275000X0.200000X-0.275000X-0.200000X0.275000X-0.200000X0.275000X0.200000X0*%
%ADD12RoundRect,0.135000X-0.185000X0.135000X-0.185000X-0.135000X0.185000X-0.135000X0.185000X0.135000X0*%
%ADD13RoundRect,0.140000X-0.170000X0.140000X-0.170000X-0.140000X0.170000X-0.140000X0.170000X0.140000X0*%
%ADD14RoundRect,0.140000X0.170000X-0.140000X0.170000X0.140000X-0.170000X0.140000X-0.170000X-0.140000X0*%
%ADD15R,1.250000X0.700000*%
%ADD16RoundRect,0.200000X0.200000X0.275000X-0.200000X0.275000X-0.200000X-0.275000X0.200000X-0.275000X0*%
%ADD17R,1.600000X3.500000*%
%ADD18R,12.200000X9.750000*%
%ADD19RoundRect,0.200000X0.275000X-0.200000X0.275000X0.200000X-0.275000X0.200000X-0.275000X-0.200000X0*%
%ADD20R,0.980000X2.470000*%
%ADD21R,3.600000X2.470000*%
%ADD22RoundRect,0.140000X0.140000X0.170000X-0.140000X0.170000X-0.140000X-0.170000X0.140000X-0.170000X0*%
%ADD23RoundRect,0.225000X0.250000X-0.225000X0.250000X0.225000X-0.250000X0.225000X-0.250000X-0.225000X0*%
%ADD24RoundRect,0.218750X-0.256250X0.218750X-0.256250X-0.218750X0.256250X-0.218750X0.256250X0.218750X0*%
%ADD25RoundRect,0.140000X-0.140000X-0.170000X0.140000X-0.170000X0.140000X0.170000X-0.140000X0.170000X0*%
%ADD26R,0.420000X0.660000*%
%ADD27R,0.600000X0.570000*%
%ADD28R,2.400000X2.100000*%
%ADD29RoundRect,0.250000X-0.650000X1.000000X-0.650000X-1.000000X0.650000X-1.000000X0.650000X1.000000X0*%
%ADD30RoundRect,0.150000X0.150000X-0.650000X0.150000X0.650000X-0.150000X0.650000X-0.150000X-0.650000X0*%
%ADD31RoundRect,0.200000X-0.200000X-0.275000X0.200000X-0.275000X0.200000X0.275000X-0.200000X0.275000X0*%
%ADD32R,0.300000X0.850000*%
%ADD33RoundRect,0.250000X-0.475000X0.250000X-0.475000X-0.250000X0.475000X-0.250000X0.475000X0.250000X0*%
%ADD34RoundRect,0.225000X-0.225000X-0.250000X0.225000X-0.250000X0.225000X0.250000X-0.225000X0.250000X0*%
%ADD35R,1.100000X1.200000*%
%ADD36R,0.600000X1.550000*%
%ADD37R,1.200000X1.800000*%
%ADD38RoundRect,0.050000X0.387500X-0.050000X0.387500X0.050000X-0.387500X0.050000X-0.387500X-0.050000X0*%
%ADD39RoundRect,0.050000X0.050000X-0.387500X0.050000X0.387500X-0.050000X0.387500X-0.050000X-0.387500X0*%
%ADD40RoundRect,0.249999X0.395001X-0.395001X0.395001X0.395001X-0.395001X0.395001X-0.395001X-0.395001X0*%
%ADD41RoundRect,0.218750X0.218750X0.256250X-0.218750X0.256250X-0.218750X-0.256250X0.218750X-0.256250X0*%
%ADD42RoundRect,0.218750X0.256250X-0.218750X0.256250X0.218750X-0.256250X0.218750X-0.256250X-0.218750X0*%
%ADD43RoundRect,0.250000X0.262500X0.450000X-0.262500X0.450000X-0.262500X-0.450000X0.262500X-0.450000X0*%
G04 APERTURE END LIST*
D10*
%TO.C,D8*%
X109925000Y-71650000D03*
X111500000Y-71650000D03*
%TD*%
D11*
%TO.C,R6*%
X40000000Y-33925000D03*
X40000000Y-35575000D03*
%TD*%
D12*
%TO.C,R31*%
X70600000Y-72990000D03*
X70600000Y-74010000D03*
%TD*%
D13*
%TO.C,C2*%
X57050000Y-51470000D03*
X57050000Y-52430000D03*
%TD*%
D14*
%TO.C,C1*%
X33300000Y-50680000D03*
X33300000Y-49720000D03*
%TD*%
D15*
%TO.C,Q1*%
X98900000Y-79750000D03*
X98900000Y-81650000D03*
X100900000Y-80700000D03*
%TD*%
D16*
%TO.C,R12*%
X22225000Y-58200000D03*
X20575000Y-58200000D03*
%TD*%
D17*
%TO.C,IC1*%
X46860000Y-72775000D03*
X51940000Y-72775000D03*
D18*
X49400000Y-62500000D03*
%TD*%
D19*
%TO.C,R2*%
X27100000Y-68525000D03*
X27100000Y-66875000D03*
%TD*%
D16*
%TO.C,R14*%
X22225000Y-56300000D03*
X20575000Y-56300000D03*
%TD*%
D11*
%TO.C,R22*%
X52000000Y-32175000D03*
X52000000Y-33825000D03*
%TD*%
D20*
%TO.C,CR1*%
X61100000Y-65930000D03*
X63400000Y-65930000D03*
X65700000Y-65930000D03*
D21*
X63400000Y-60270000D03*
%TD*%
D11*
%TO.C,R5*%
X60000000Y-35975000D03*
X60000000Y-37625000D03*
%TD*%
D22*
%TO.C,C21*%
X39980000Y-48762500D03*
X39020000Y-48762500D03*
%TD*%
D19*
%TO.C,R21*%
X58000000Y-33825000D03*
X58000000Y-32175000D03*
%TD*%
%TO.C,R29*%
X25200000Y-68525000D03*
X25200000Y-66875000D03*
%TD*%
D11*
%TO.C,R8*%
X44000000Y-33925000D03*
X44000000Y-35575000D03*
%TD*%
D23*
%TO.C,C23*%
X56000000Y-33775000D03*
X56000000Y-32225000D03*
%TD*%
D24*
%TO.C,D1*%
X29000000Y-66912500D03*
X29000000Y-68487500D03*
%TD*%
D25*
%TO.C,C12*%
X53020000Y-47587500D03*
X53980000Y-47587500D03*
%TD*%
D24*
%TO.C,D4*%
X58100000Y-36012500D03*
X58100000Y-37587500D03*
%TD*%
D14*
%TO.C,C9*%
X49250000Y-34480000D03*
X49250000Y-33520000D03*
%TD*%
D26*
%TO.C,Q2*%
X106070000Y-86650000D03*
X106720000Y-86650000D03*
X107370000Y-86650000D03*
X108020000Y-86650000D03*
X108020000Y-83250000D03*
X107370000Y-83250000D03*
X106720000Y-83250000D03*
D27*
X105600000Y-85100000D03*
D26*
X106070000Y-83250000D03*
D28*
X107050000Y-84450000D03*
D27*
X108500000Y-85100000D03*
%TD*%
D22*
%TO.C,C15*%
X40980000Y-45637500D03*
X40020000Y-45637500D03*
%TD*%
%TO.C,C14*%
X40000000Y-50012500D03*
X39040000Y-50012500D03*
%TD*%
D29*
%TO.C,D11*%
X37950000Y-73000000D03*
X37950000Y-77000000D03*
%TD*%
D16*
%TO.C,R17*%
X105825000Y-88500000D03*
X104175000Y-88500000D03*
%TD*%
D30*
%TO.C,U2*%
X33295000Y-59737500D03*
X34565000Y-59737500D03*
X35835000Y-59737500D03*
X37105000Y-59737500D03*
X37105000Y-52537500D03*
X35835000Y-52537500D03*
X34565000Y-52537500D03*
X33295000Y-52537500D03*
%TD*%
D10*
%TO.C,D6*%
X43012500Y-40000000D03*
X44587500Y-40000000D03*
%TD*%
D23*
%TO.C,C24*%
X54000000Y-33800000D03*
X54000000Y-32250000D03*
%TD*%
D10*
%TO.C,D5*%
X24112500Y-58200000D03*
X25687500Y-58200000D03*
%TD*%
D13*
%TO.C,C17*%
X47800000Y-54120000D03*
X47800000Y-55080000D03*
%TD*%
%TO.C,C6*%
X54800000Y-72920000D03*
X54800000Y-73880000D03*
%TD*%
D31*
%TO.C,R9*%
X100775000Y-71600000D03*
X102425000Y-71600000D03*
%TD*%
D13*
%TO.C,C3*%
X57000000Y-49282500D03*
X57000000Y-50242500D03*
%TD*%
D14*
%TO.C,C11*%
X99100000Y-73380000D03*
X99100000Y-72420000D03*
%TD*%
D32*
%TO.C,IC2*%
X100350000Y-76675000D03*
X100850000Y-76675000D03*
X101350000Y-76675000D03*
X101850000Y-76675000D03*
X101850000Y-73525000D03*
X101350000Y-73525000D03*
X100850000Y-73525000D03*
X100350000Y-73525000D03*
%TD*%
D11*
%TO.C,R13*%
X41200000Y-39975000D03*
X41200000Y-41625000D03*
%TD*%
D33*
%TO.C,C5*%
X42900000Y-72650000D03*
X42900000Y-74550000D03*
%TD*%
D22*
%TO.C,C13*%
X40980000Y-46887500D03*
X40020000Y-46887500D03*
%TD*%
D10*
%TO.C,D10*%
X24125000Y-54400000D03*
X25700000Y-54400000D03*
%TD*%
D22*
%TO.C,C7*%
X66880000Y-68400000D03*
X65920000Y-68400000D03*
%TD*%
D24*
%TO.C,D9*%
X50800000Y-40612500D03*
X50800000Y-42187500D03*
%TD*%
D16*
%TO.C,R18*%
X22225000Y-54400000D03*
X20575000Y-54400000D03*
%TD*%
D34*
%TO.C,C8*%
X61325000Y-68500000D03*
X62875000Y-68500000D03*
%TD*%
D12*
%TO.C,R4*%
X21100000Y-65690000D03*
X21100000Y-66710000D03*
%TD*%
D13*
%TO.C,C10*%
X99100000Y-76820000D03*
X99100000Y-77780000D03*
%TD*%
D22*
%TO.C,C16*%
X43480000Y-54187500D03*
X42520000Y-54187500D03*
%TD*%
D35*
%TO.C,Y1*%
X59750000Y-50537500D03*
X59750000Y-52437500D03*
X61250000Y-52437500D03*
X61250000Y-50537500D03*
%TD*%
D25*
%TO.C,C18*%
X53020000Y-49012500D03*
X53980000Y-49012500D03*
%TD*%
D19*
%TO.C,R16*%
X52500000Y-40425000D03*
X52500000Y-38775000D03*
%TD*%
D12*
%TO.C,R3*%
X68100000Y-72970000D03*
X68100000Y-73990000D03*
%TD*%
D36*
%TO.C,J1*%
X58600002Y-39800000D03*
X59600002Y-39800000D03*
X60600002Y-39800000D03*
D37*
X61900002Y-42320000D03*
X57300002Y-42320000D03*
%TD*%
D31*
%TO.C,R10*%
X101675000Y-78600000D03*
X103325000Y-78600000D03*
%TD*%
D38*
%TO.C,U1*%
X43262500Y-51800000D03*
X43262500Y-51400000D03*
X43262500Y-51000000D03*
X43262500Y-50600000D03*
X43262500Y-50200000D03*
X43262500Y-49800000D03*
X43262500Y-49400000D03*
X43262500Y-49000000D03*
X43262500Y-48600000D03*
X43262500Y-48200000D03*
X43262500Y-47800000D03*
X43262500Y-47400000D03*
X43262500Y-47000000D03*
X43262500Y-46600000D03*
D39*
X44100000Y-45762500D03*
X44500000Y-45762500D03*
X44900000Y-45762500D03*
X45300000Y-45762500D03*
X45700000Y-45762500D03*
X46100000Y-45762500D03*
X46500000Y-45762500D03*
X46900000Y-45762500D03*
X47300000Y-45762500D03*
X47700000Y-45762500D03*
X48100000Y-45762500D03*
X48500000Y-45762500D03*
X48900000Y-45762500D03*
X49300000Y-45762500D03*
D38*
X50137500Y-46600000D03*
X50137500Y-47000000D03*
X50137500Y-47400000D03*
X50137500Y-47800000D03*
X50137500Y-48200000D03*
X50137500Y-48600000D03*
X50137500Y-49000000D03*
X50137500Y-49400000D03*
X50137500Y-49800000D03*
X50137500Y-50200000D03*
X50137500Y-50600000D03*
X50137500Y-51000000D03*
X50137500Y-51400000D03*
X50137500Y-51800000D03*
D39*
X49300000Y-52637500D03*
X48900000Y-52637500D03*
X48500000Y-52637500D03*
X48100000Y-52637500D03*
X47700000Y-52637500D03*
X47300000Y-52637500D03*
X46900000Y-52637500D03*
X46500000Y-52637500D03*
X46100000Y-52637500D03*
X45700000Y-52637500D03*
X45300000Y-52637500D03*
X44900000Y-52637500D03*
X44500000Y-52637500D03*
X44100000Y-52637500D03*
D40*
X47500000Y-48400000D03*
X45900000Y-48400000D03*
X47500000Y-50000000D03*
X45900000Y-50000000D03*
%TD*%
D14*
%TO.C,C19*%
X47750000Y-44242500D03*
X47750000Y-43282500D03*
%TD*%
D16*
%TO.C,R11*%
X106725000Y-74900000D03*
X105075000Y-74900000D03*
%TD*%
D22*
%TO.C,C22*%
X40980000Y-44387500D03*
X40020000Y-44387500D03*
%TD*%
D41*
%TO.C,D2*%
X68087500Y-71400000D03*
X66512500Y-71400000D03*
%TD*%
D11*
%TO.C,R7*%
X42000000Y-33925000D03*
X42000000Y-35575000D03*
%TD*%
D42*
%TO.C,D3*%
X22900000Y-65687500D03*
X22900000Y-64112500D03*
%TD*%
D43*
%TO.C,R15*%
X109812500Y-69550000D03*
X107987500Y-69550000D03*
%TD*%
D31*
%TO.C,R19*%
X101175000Y-83700000D03*
X102825000Y-83700000D03*
%TD*%
D19*
%TO.C,R23*%
X47500000Y-35325000D03*
X47500000Y-33675000D03*
%TD*%
D12*
%TO.C,R30*%
X69300000Y-72970000D03*
X69300000Y-73990000D03*
%TD*%
D19*
%TO.C,R20*%
X97100000Y-82625000D03*
X97100000Y-80975000D03*
%TD*%
D14*
%TO.C,C20*%
X44000000Y-43992500D03*
X44000000Y-43032500D03*
%TD*%
D11*
%TO.C,R28*%
X61900000Y-35975000D03*
X61900000Y-37625000D03*
%TD*%
D10*
%TO.C,D7*%
X24112500Y-56300000D03*
X25687500Y-56300000D03*
%TD*%
M02*
