%TF.GenerationSoftware,KiCad,Pcbnew,8.0.2*%
%TF.CreationDate,2024-12-22T17:19:01-06:00*%
%TF.ProjectId,LampBoardDesk,4c616d70-426f-4617-9264-4465736b2e6b,rev?*%
%TF.SameCoordinates,Original*%
%TF.FileFunction,Profile,NP*%
%FSLAX46Y46*%
G04 Gerber Fmt 4.6, Leading zero omitted, Abs format (unit mm)*
G04 Created by KiCad (PCBNEW 8.0.2) date 2024-12-22 17:19:01*
%MOMM*%
%LPD*%
G01*
G04 APERTURE LIST*
%TA.AperFunction,Profile*%
%ADD10C,0.200000*%
%TD*%
G04 APERTURE END LIST*
D10*
X29114787Y-83390300D02*
X29114786Y-83390300D01*
X94693919Y-85077376D02*
X97340239Y-91311715D01*
X87817358Y-84233039D02*
G75*
G02*
X94693918Y-85077376I3194541J-2407260D01*
G01*
X83290639Y-90240200D02*
X87817358Y-84233039D01*
X83290639Y-90240200D02*
G75*
G02*
X80974729Y-90903002I-1597274J1203632D01*
G01*
X80974729Y-90903002D02*
G75*
G02*
X63228859Y-74977198I12037169J31262698D01*
G01*
X59647777Y-75027255D02*
G75*
G02*
X63228859Y-74977198I1802990J-865580D01*
G01*
X59647777Y-75027255D02*
G75*
G02*
X39571556Y-88589569I-21635879J10386957D01*
G01*
X39571556Y-88589569D02*
G75*
G02*
X37463219Y-86300413I-129976J1995769D01*
G01*
X29114787Y-83390300D02*
G75*
G02*
X37463219Y-86300413I3897113J-2250000D01*
G01*
X26959137Y-87123992D02*
X29114786Y-83390300D01*
X26959137Y-87123992D02*
G75*
G02*
X24204310Y-87842673I-1732037J999992D01*
G01*
X24204307Y-87842679D02*
G75*
G02*
X12226277Y-72646650I13807593J23202379D01*
G01*
X12226277Y-72646650D02*
G75*
G02*
X13218166Y-70276826I1910023J593050D01*
G01*
X14277824Y-68203115D02*
G75*
G02*
X13218142Y-70276779I-1977824J-296885D01*
G01*
X14277824Y-68203115D02*
G75*
G02*
X33009142Y-41167498I23734076J3562815D01*
G01*
X34592245Y-39211430D02*
G75*
G02*
X33009143Y-41167501I-2000005J0D01*
G01*
X34592245Y-27456991D02*
X34592245Y-39211430D01*
X34592245Y-27456991D02*
G75*
G02*
X62745672Y-32338992I14500000J0D01*
G01*
X63498131Y-34662023D02*
G75*
G02*
X62745672Y-32338992I1130770J1649652D01*
G01*
X69653714Y-38881431D02*
X63498131Y-34662023D01*
X69653714Y-38881431D02*
G75*
G02*
X70443645Y-41088670I-1130771J-1649653D01*
G01*
X106340206Y-66995048D02*
G75*
G02*
X70443645Y-41088670I-13328306J19354748D01*
G01*
X106340206Y-66995048D02*
G75*
G02*
X107474527Y-66642261I1134321J-1647205D01*
G01*
X114490699Y-66642261D02*
X107474527Y-66642261D01*
X116490697Y-64642262D02*
G75*
G02*
X114490699Y-66642261I-1999999J0D01*
G01*
X116490697Y-48555297D02*
X116490697Y-64642262D01*
X116490697Y-48555297D02*
G75*
G02*
X118401845Y-46557271I2000001J0D01*
G01*
X123955168Y-46310312D02*
X118401845Y-46557271D01*
X123955168Y-46310312D02*
G75*
G02*
X125951894Y-47708316I88853J-1998027D01*
G01*
X125951894Y-47708316D02*
G75*
G02*
X103011900Y-91612944I-33387756J-10500372D01*
G01*
X103011900Y-91612945D02*
G75*
G02*
X99572954Y-92491519I-10000087J31972990D01*
G01*
X99572954Y-92491519D02*
G75*
G02*
X97340239Y-91311715I-391706J1961266D01*
G01*
M02*
