%TF.GenerationSoftware,KiCad,Pcbnew,8.0.2*%
%TF.CreationDate,2024-11-25T20:00:46-06:00*%
%TF.ProjectId,LampBoardDesk,4c616d70-426f-4617-9264-4465736b2e6b,rev?*%
%TF.SameCoordinates,Original*%
%TF.FileFunction,Copper,L2,Bot*%
%TF.FilePolarity,Positive*%
%FSLAX46Y46*%
G04 Gerber Fmt 4.6, Leading zero omitted, Abs format (unit mm)*
G04 Created by KiCad (PCBNEW 8.0.2) date 2024-11-25 20:00:46*
%MOMM*%
%LPD*%
G01*
G04 APERTURE LIST*
G04 Aperture macros list*
%AMHorizOval*
0 Thick line with rounded ends*
0 $1 width*
0 $2 $3 position (X,Y) of the first rounded end (center of the circle)*
0 $4 $5 position (X,Y) of the second rounded end (center of the circle)*
0 Add line between two ends*
20,1,$1,$2,$3,$4,$5,0*
0 Add two circle primitives to create the rounded ends*
1,1,$1,$2,$3*
1,1,$1,$4,$5*%
G04 Aperture macros list end*
%TA.AperFunction,ComponentPad*%
%ADD10C,4.700000*%
%TD*%
%TA.AperFunction,ComponentPad*%
%ADD11C,1.650000*%
%TD*%
%TA.AperFunction,ComponentPad*%
%ADD12C,5.161000*%
%TD*%
%TA.AperFunction,ComponentPad*%
%ADD13HorizOval,1.500000X0.952628X0.550000X-0.952628X-0.550000X0*%
%TD*%
%TA.AperFunction,ComponentPad*%
%ADD14HorizOval,1.500000X-0.425000X0.736122X0.425000X-0.736122X0*%
%TD*%
%TA.AperFunction,ComponentPad*%
%ADD15C,2.700000*%
%TD*%
%TA.AperFunction,ComponentPad*%
%ADD16C,2.000000*%
%TD*%
%TA.AperFunction,ComponentPad*%
%ADD17C,1.600000*%
%TD*%
%TA.AperFunction,ViaPad*%
%ADD18C,0.600000*%
%TD*%
%TA.AperFunction,ViaPad*%
%ADD19C,0.700000*%
%TD*%
%TA.AperFunction,Conductor*%
%ADD20C,1.000000*%
%TD*%
%TA.AperFunction,Conductor*%
%ADD21C,0.300000*%
%TD*%
%TA.AperFunction,Conductor*%
%ADD22C,0.200000*%
%TD*%
G04 APERTURE END LIST*
D10*
%TO.P,H3,1,1*%
%TO.N,GND*%
X31250000Y-86950000D03*
%TD*%
%TO.P,H1,1,1*%
%TO.N,GND*%
X126650000Y-54800000D03*
%TD*%
%TO.P,H2,1,1*%
%TO.N,GND*%
X83650000Y-88400000D03*
%TD*%
D11*
%TO.P,SW1,1,1*%
%TO.N,Net-(R23-Pad2)*%
X39851829Y-26319231D03*
%TO.P,SW1,2,2*%
%TO.N,GND*%
X43682051Y-29533169D03*
%TO.P,SW1,A1,A*%
%TO.N,Net-(SW1-A)*%
X49172249Y-15211587D03*
%TO.P,SW1,B1,B*%
%TO.N,Net-(SW1-B)*%
X53002471Y-18425525D03*
%TO.P,SW1,C1,C*%
%TO.N,GND*%
X51087360Y-16818556D03*
D12*
%TO.P,SW1,MH1,MH1*%
X41900000Y-18900000D03*
%TO.P,SW1,MH2,MH2*%
X50632907Y-26227778D03*
%TD*%
D13*
%TO.P,J4,1,1*%
%TO.N,Net-(D11-A)*%
X44950000Y-77250000D03*
%TO.P,J4,2,2*%
%TO.N,GND*%
X47950000Y-82446152D03*
D14*
%TO.P,J4,3,3*%
X42172982Y-81740063D03*
%TD*%
D15*
%TO.P,SW2,1,1*%
%TO.N,+24V*%
X35900782Y-66998701D03*
%TO.P,SW2,2,2*%
%TO.N,Net-(D11-K)*%
X33261080Y-69732193D03*
%TO.P,SW2,3,3*%
%TO.N,/P_SEN*%
X30621381Y-72465683D03*
%TO.P,SW2,4,4*%
%TO.N,GND*%
X20000868Y-79864652D03*
%TO.P,SW2,5,5*%
X23597568Y-83337946D03*
%TD*%
D16*
%TO.P,J3,1,1*%
%TO.N,Net-(Q1-D)*%
X119994487Y-67131090D03*
%TO.P,J3,2,2*%
%TO.N,/LED_D_O*%
X121744487Y-64100001D03*
%TO.P,J3,3,3*%
%TO.N,+24V*%
X123494487Y-61068912D03*
%TD*%
D17*
%TO.P,C4,1,1*%
%TO.N,+24V*%
X119242022Y-76573450D03*
%TO.P,C4,2,2*%
%TO.N,GND*%
X114637978Y-74426550D03*
%TD*%
D18*
%TO.N,GND*%
X34500000Y-49200000D03*
D19*
X60800000Y-43500000D03*
D18*
X60500000Y-54762500D03*
X25800000Y-58100000D03*
X53800000Y-31000000D03*
D19*
X59800002Y-43500000D03*
X54000000Y-38800000D03*
D18*
X112700000Y-80600000D03*
D19*
X61700000Y-58400000D03*
X61700000Y-59399998D03*
D18*
X112300000Y-71000000D03*
X54950000Y-49637500D03*
D19*
X39700000Y-41800000D03*
D18*
X102000000Y-79500000D03*
X99000000Y-85900000D03*
X46800000Y-50300000D03*
D19*
X58800002Y-44700000D03*
D18*
X69000000Y-67150000D03*
X63400000Y-54800000D03*
X47700000Y-42087500D03*
D19*
X44300000Y-69900000D03*
X61700000Y-60399998D03*
D18*
X112300000Y-72000000D03*
X38200000Y-59137500D03*
X111400000Y-73100000D03*
D19*
X48300000Y-69900000D03*
D18*
X52000000Y-51387500D03*
X24700000Y-58100000D03*
D19*
X46300000Y-68500000D03*
X50300000Y-68500000D03*
X54300000Y-68500000D03*
D18*
X102300000Y-86000000D03*
D19*
X23800000Y-62800000D03*
D18*
X109100000Y-75800000D03*
X38800000Y-46787500D03*
X112300000Y-73100000D03*
X38000000Y-49987500D03*
X60500000Y-48262500D03*
D19*
X20100000Y-50100000D03*
X46300000Y-69900000D03*
D18*
X69000000Y-66150000D03*
X47800000Y-47900000D03*
D19*
X48600000Y-56100000D03*
X54300000Y-69900000D03*
D18*
X44000000Y-41787500D03*
X97800000Y-77700000D03*
D19*
X74500000Y-71300000D03*
X48300000Y-68500000D03*
D18*
X38000000Y-48787500D03*
X47800000Y-50300000D03*
X45600000Y-47900000D03*
X57000000Y-48262500D03*
D19*
X21100000Y-48600000D03*
X50300000Y-69900000D03*
X52300000Y-69900000D03*
D18*
X45600000Y-49100000D03*
X38800000Y-44387500D03*
D19*
X56300000Y-74300000D03*
X44300000Y-68500000D03*
D18*
X99000000Y-79800000D03*
X38200000Y-60137500D03*
X45600000Y-50300000D03*
X99000000Y-77700000D03*
X54450000Y-46462500D03*
D19*
X60800000Y-44700000D03*
D18*
X55000000Y-31000000D03*
D19*
X76100000Y-71900000D03*
D18*
X47800000Y-49100000D03*
D19*
X18500000Y-52100000D03*
D18*
X57000000Y-54762500D03*
X102700000Y-80000000D03*
D19*
X52300000Y-68500000D03*
D18*
X56250000Y-31000000D03*
X38800000Y-45587500D03*
D19*
X62900000Y-58400000D03*
D18*
X63400000Y-48300000D03*
D19*
X58800002Y-43500000D03*
D18*
X46800000Y-49100000D03*
X99000000Y-78700000D03*
X110500000Y-73100000D03*
D19*
X62900000Y-60399998D03*
D18*
X69025000Y-68150000D03*
X49250000Y-32000000D03*
D19*
X62900000Y-59399998D03*
X59800002Y-44700000D03*
D18*
X69000000Y-65100000D03*
X41600000Y-54787500D03*
X46800000Y-47900000D03*
D19*
%TO.N,+3.3V*%
X41500000Y-62500000D03*
X41500000Y-65500000D03*
X40300000Y-62500000D03*
X40300000Y-64600000D03*
X65300000Y-64100000D03*
X40300000Y-65500000D03*
X40300000Y-63500000D03*
X65300000Y-66100000D03*
X64100000Y-64100000D03*
X65300000Y-67100000D03*
X65300000Y-65000000D03*
X64100000Y-67100000D03*
%TO.N,+5V*%
X67800000Y-71200000D03*
X60300000Y-71200000D03*
%TO.N,/ENC_LED*%
X46100000Y-54200000D03*
X27447212Y-57325915D03*
%TO.N,/MGR_LED*%
X28800001Y-56699999D03*
X45200000Y-55200000D03*
%TO.N,/UART_TX*%
X57999998Y-60400000D03*
X50900000Y-55000000D03*
%TO.N,/UART_RX*%
X58000000Y-58400000D03*
X50100000Y-54100000D03*
%TO.N,/P_SEN_O*%
X43300000Y-56000000D03*
D18*
X22000000Y-55700000D03*
D19*
%TO.N,/P_SEN_LED*%
X46536955Y-55782284D03*
X26555571Y-57653759D03*
%TD*%
D20*
%TO.N,+3.3V*%
X50600000Y-63900000D02*
X52200000Y-65500000D01*
X41300000Y-63900000D02*
X50600000Y-63900000D01*
X52200000Y-65500000D02*
X64100000Y-65500000D01*
D21*
%TO.N,+5V*%
X67800000Y-71200000D02*
X60300000Y-71200000D01*
D22*
%TO.N,/ENC_LED*%
X43600000Y-57800000D02*
X27921297Y-57800000D01*
X46100000Y-55300000D02*
X43600000Y-57800000D01*
X27921297Y-57800000D02*
X27447212Y-57325915D01*
X46100000Y-54200000D02*
X46100000Y-55300000D01*
%TO.N,/MGR_LED*%
X45200000Y-55200000D02*
X43400000Y-57000000D01*
X43400000Y-57000000D02*
X29100002Y-57000000D01*
X29100002Y-57000000D02*
X28800001Y-56699999D01*
%TO.N,/UART_TX*%
X50900000Y-55000000D02*
X56300000Y-60400000D01*
X56300000Y-60400000D02*
X57999998Y-60400000D01*
%TO.N,/UART_RX*%
X50100000Y-54100000D02*
X51000000Y-54100000D01*
X55300000Y-58400000D02*
X58000000Y-58400000D01*
X51000000Y-54100000D02*
X53700000Y-56800000D01*
X53700000Y-56800000D02*
X55300000Y-58400000D01*
%TO.N,/P_SEN_O*%
X22300000Y-56000000D02*
X43300000Y-56000000D01*
X22000000Y-55700000D02*
X22300000Y-56000000D01*
%TO.N,/P_SEN_LED*%
X27201812Y-58300000D02*
X26555571Y-57653759D01*
X46536955Y-55782284D02*
X44019239Y-58300000D01*
X44019239Y-58300000D02*
X27201812Y-58300000D01*
%TD*%
%TA.AperFunction,Conductor*%
%TO.N,+3.3V*%
G36*
X42059191Y-62018907D02*
G01*
X42095155Y-62068407D01*
X42100000Y-62099000D01*
X42100000Y-65901000D01*
X42081093Y-65959191D01*
X42031593Y-65995155D01*
X42001000Y-66000000D01*
X39699000Y-66000000D01*
X39640809Y-65981093D01*
X39604845Y-65931593D01*
X39600000Y-65901000D01*
X39600000Y-62099000D01*
X39618907Y-62040809D01*
X39668407Y-62004845D01*
X39699000Y-62000000D01*
X42001000Y-62000000D01*
X42059191Y-62018907D01*
G37*
%TD.AperFunction*%
%TD*%
%TA.AperFunction,Conductor*%
%TO.N,+3.3V*%
G36*
X65959191Y-63618907D02*
G01*
X65995155Y-63668407D01*
X66000000Y-63699000D01*
X66000000Y-67501000D01*
X65981093Y-67559191D01*
X65931593Y-67595155D01*
X65901000Y-67600000D01*
X63599000Y-67600000D01*
X63540809Y-67581093D01*
X63504845Y-67531593D01*
X63500000Y-67501000D01*
X63500000Y-63699000D01*
X63518907Y-63640809D01*
X63568407Y-63604845D01*
X63599000Y-63600000D01*
X65901000Y-63600000D01*
X65959191Y-63618907D01*
G37*
%TD.AperFunction*%
%TD*%
%TA.AperFunction,Conductor*%
%TO.N,GND*%
G36*
X49351336Y-12723932D02*
G01*
X50104136Y-12751310D01*
X50109280Y-12751633D01*
X50859581Y-12818325D01*
X50864681Y-12818913D01*
X51610478Y-12924739D01*
X51615561Y-12925596D01*
X52354808Y-13070266D01*
X52359838Y-13071388D01*
X53090506Y-13254506D01*
X53095445Y-13255882D01*
X53815567Y-13476955D01*
X53820458Y-13478598D01*
X54528001Y-13737001D01*
X54532765Y-13738883D01*
X55225866Y-14033936D01*
X55230559Y-14036081D01*
X55907267Y-14366956D01*
X55911815Y-14369329D01*
X56397430Y-14639095D01*
X56570297Y-14735125D01*
X56574756Y-14737757D01*
X57213212Y-15137476D01*
X57217499Y-15140319D01*
X57834172Y-15572858D01*
X57838332Y-15575941D01*
X58431553Y-16040131D01*
X58435532Y-16043415D01*
X59003705Y-16538008D01*
X59007475Y-16541468D01*
X59363950Y-16886147D01*
X59548993Y-17065067D01*
X59552620Y-17068762D01*
X60066016Y-17619943D01*
X60069441Y-17623819D01*
X60410903Y-18031183D01*
X60553316Y-18201081D01*
X60556534Y-18205130D01*
X60829523Y-18567743D01*
X61009571Y-18806902D01*
X61012576Y-18811119D01*
X61433541Y-19435761D01*
X61436321Y-19440128D01*
X61824045Y-20085907D01*
X61826593Y-20090414D01*
X62180029Y-20755581D01*
X62182338Y-20760215D01*
X62500522Y-21442960D01*
X62502585Y-21447708D01*
X62784632Y-22146131D01*
X62786445Y-22150981D01*
X63031605Y-22863225D01*
X63033161Y-22868163D01*
X63240744Y-23592225D01*
X63242040Y-23597237D01*
X63411485Y-24331154D01*
X63412518Y-24336227D01*
X63543369Y-25078023D01*
X63544135Y-25083143D01*
X63636027Y-25830758D01*
X63636524Y-25835912D01*
X63689204Y-26587306D01*
X63689430Y-26592478D01*
X63702759Y-27345604D01*
X63702716Y-27350781D01*
X63676655Y-28103576D01*
X63676340Y-28108744D01*
X63610961Y-28859127D01*
X63610377Y-28864271D01*
X63505858Y-29610219D01*
X63505006Y-29615326D01*
X63361631Y-30354799D01*
X63360513Y-30359854D01*
X63178678Y-31090818D01*
X63177297Y-31095808D01*
X62957502Y-31816247D01*
X62955863Y-31821158D01*
X62698690Y-32529167D01*
X62696795Y-32533985D01*
X62402983Y-33227528D01*
X62400840Y-33232241D01*
X62071155Y-33909512D01*
X62068768Y-33914106D01*
X61703978Y-34573486D01*
X61701694Y-34577400D01*
X61504298Y-34898568D01*
X61433543Y-35016348D01*
X61321398Y-35267283D01*
X61321396Y-35267290D01*
X61244678Y-35531187D01*
X61244675Y-35531200D01*
X61204815Y-35803129D01*
X61202564Y-36077959D01*
X61237967Y-36350504D01*
X61237970Y-36350519D01*
X61310360Y-36615645D01*
X61310360Y-36615646D01*
X61418377Y-36868373D01*
X61418380Y-36868379D01*
X61559981Y-37103927D01*
X61732499Y-37317863D01*
X61732502Y-37317866D01*
X61732507Y-37317872D01*
X61831044Y-37413685D01*
X67663263Y-42899609D01*
X67664448Y-42900743D01*
X67754930Y-42988723D01*
X67762690Y-42997198D01*
X67772964Y-43009819D01*
X67922591Y-43193628D01*
X67930182Y-43204333D01*
X68062237Y-43419484D01*
X68068343Y-43431094D01*
X68086139Y-43471187D01*
X68170763Y-43661836D01*
X68175283Y-43674166D01*
X68246258Y-43916427D01*
X68249106Y-43929247D01*
X68287391Y-44178768D01*
X68288517Y-44191852D01*
X68293455Y-44445049D01*
X68293010Y-44456558D01*
X68280769Y-44582478D01*
X68280653Y-44583602D01*
X68226803Y-45078790D01*
X68226803Y-45078795D01*
X68153678Y-46073495D01*
X68153677Y-46073510D01*
X68153677Y-46073517D01*
X68120282Y-47070307D01*
X68123977Y-47647037D01*
X68126672Y-48067685D01*
X68140511Y-48366381D01*
X68172835Y-49064014D01*
X68242270Y-49867580D01*
X68258696Y-50057683D01*
X68259512Y-50064119D01*
X68384121Y-51047158D01*
X68548909Y-52030827D01*
X68752797Y-53007143D01*
X68995464Y-53974560D01*
X69203829Y-54684011D01*
X69276524Y-54931529D01*
X69515201Y-55638575D01*
X69595528Y-55876533D01*
X69937659Y-56770665D01*
X69951962Y-56808044D01*
X70345267Y-57724606D01*
X70411628Y-57863669D01*
X70774812Y-58624747D01*
X71239918Y-59507044D01*
X71739858Y-60370114D01*
X72235334Y-61151833D01*
X72273800Y-61212521D01*
X72540679Y-61598613D01*
X72840926Y-62032979D01*
X72866398Y-62066856D01*
X73440319Y-62830160D01*
X74071032Y-63602803D01*
X74732058Y-64349677D01*
X75422347Y-65069592D01*
X76140799Y-65761404D01*
X76886271Y-66424010D01*
X77657578Y-67056358D01*
X77657585Y-67056363D01*
X77657592Y-67056369D01*
X77756533Y-67131090D01*
X78453490Y-67657439D01*
X79272743Y-68226299D01*
X79521144Y-68384481D01*
X80114041Y-68762038D01*
X80567687Y-69026100D01*
X80976018Y-69263785D01*
X81857330Y-69730760D01*
X82756566Y-70162213D01*
X83672294Y-70557458D01*
X84603057Y-70915867D01*
X85547374Y-71236868D01*
X86503742Y-71519951D01*
X87470640Y-71764666D01*
X88446528Y-71970623D01*
X89429855Y-72137494D01*
X90419054Y-72265014D01*
X91412552Y-72352979D01*
X92408768Y-72401251D01*
X93175958Y-72407790D01*
X93406113Y-72409752D01*
X93406113Y-72409751D01*
X93406116Y-72409752D01*
X94403011Y-72378468D01*
X95397864Y-72307449D01*
X96389093Y-72196809D01*
X97375121Y-72046723D01*
X98354378Y-71857430D01*
X99325306Y-71629232D01*
X100286361Y-71362492D01*
X101236012Y-71057633D01*
X102172749Y-70715142D01*
X103095081Y-70335563D01*
X104001540Y-69919500D01*
X104890684Y-69467615D01*
X105761098Y-68980628D01*
X106611396Y-68459313D01*
X106723194Y-68384476D01*
X107440221Y-67904504D01*
X107786171Y-67652382D01*
X108246269Y-67317072D01*
X108481175Y-67131090D01*
X118788844Y-67131090D01*
X118809372Y-67352626D01*
X118870258Y-67566618D01*
X118969429Y-67765779D01*
X119103506Y-67943326D01*
X119267925Y-68093214D01*
X119457086Y-68210337D01*
X119664547Y-68290708D01*
X119883244Y-68331590D01*
X120105730Y-68331590D01*
X120324427Y-68290708D01*
X120531888Y-68210337D01*
X120721049Y-68093214D01*
X120885468Y-67943326D01*
X121019545Y-67765779D01*
X121118716Y-67566618D01*
X121179602Y-67352626D01*
X121200130Y-67131090D01*
X121179602Y-66909554D01*
X121118716Y-66695562D01*
X121019545Y-66496401D01*
X120885468Y-66318854D01*
X120721049Y-66168966D01*
X120531888Y-66051843D01*
X120324427Y-65971472D01*
X120324426Y-65971471D01*
X120324424Y-65971471D01*
X120105730Y-65930590D01*
X119883244Y-65930590D01*
X119664549Y-65971471D01*
X119588284Y-66001016D01*
X119457086Y-66051843D01*
X119280132Y-66161408D01*
X119267925Y-66168966D01*
X119103507Y-66318853D01*
X118969430Y-66496399D01*
X118969425Y-66496408D01*
X118870259Y-66695559D01*
X118870258Y-66695562D01*
X118809372Y-66909554D01*
X118788844Y-67131090D01*
X108481175Y-67131090D01*
X109028241Y-66697963D01*
X109784899Y-66048160D01*
X109812267Y-66022692D01*
X110093041Y-65761404D01*
X110515039Y-65368695D01*
X111217499Y-64660650D01*
X111731012Y-64100001D01*
X120538844Y-64100001D01*
X120559372Y-64321536D01*
X120620259Y-64535531D01*
X120672930Y-64641309D01*
X120719429Y-64734690D01*
X120853506Y-64912237D01*
X121017925Y-65062125D01*
X121207086Y-65179248D01*
X121414547Y-65259619D01*
X121633244Y-65300501D01*
X121855730Y-65300501D01*
X122074427Y-65259619D01*
X122281888Y-65179248D01*
X122471049Y-65062125D01*
X122635468Y-64912237D01*
X122769545Y-64734690D01*
X122868716Y-64535529D01*
X122929602Y-64321537D01*
X122950130Y-64100001D01*
X122929602Y-63878465D01*
X122868716Y-63664473D01*
X122769545Y-63465312D01*
X122635468Y-63287765D01*
X122471049Y-63137877D01*
X122281888Y-63020754D01*
X122074427Y-62940383D01*
X122074426Y-62940382D01*
X122074424Y-62940382D01*
X121855730Y-62899501D01*
X121633244Y-62899501D01*
X121414549Y-62940382D01*
X121338284Y-62969927D01*
X121207086Y-63020754D01*
X121028882Y-63131093D01*
X121017925Y-63137877D01*
X120853507Y-63287764D01*
X120719430Y-63465310D01*
X120719425Y-63465319D01*
X120620259Y-63664470D01*
X120559372Y-63878465D01*
X120538844Y-64100001D01*
X111731012Y-64100001D01*
X111891160Y-63925153D01*
X112534951Y-63163372D01*
X113147847Y-62376521D01*
X113728874Y-61565852D01*
X114055853Y-61068912D01*
X122288844Y-61068912D01*
X122309372Y-61290448D01*
X122370258Y-61504440D01*
X122469429Y-61703601D01*
X122603506Y-61881148D01*
X122767925Y-62031036D01*
X122957086Y-62148159D01*
X123164547Y-62228530D01*
X123383244Y-62269412D01*
X123605730Y-62269412D01*
X123824427Y-62228530D01*
X124031888Y-62148159D01*
X124221049Y-62031036D01*
X124385468Y-61881148D01*
X124519545Y-61703601D01*
X124618716Y-61504440D01*
X124679602Y-61290448D01*
X124700130Y-61068912D01*
X124679602Y-60847376D01*
X124618716Y-60633384D01*
X124519545Y-60434223D01*
X124385468Y-60256676D01*
X124221049Y-60106788D01*
X124031888Y-59989665D01*
X123824427Y-59909294D01*
X123824426Y-59909293D01*
X123824424Y-59909293D01*
X123605730Y-59868412D01*
X123383244Y-59868412D01*
X123164549Y-59909293D01*
X123139139Y-59919137D01*
X122957086Y-59989665D01*
X122842252Y-60060767D01*
X122767925Y-60106788D01*
X122603507Y-60256675D01*
X122469430Y-60434221D01*
X122469425Y-60434230D01*
X122414911Y-60543709D01*
X122370258Y-60633384D01*
X122309372Y-60847376D01*
X122288844Y-61068912D01*
X114055853Y-61068912D01*
X114277105Y-60732654D01*
X114791670Y-59878254D01*
X115271749Y-59004011D01*
X115716578Y-58111316D01*
X116125449Y-57201591D01*
X116497713Y-56276282D01*
X116813943Y-55389661D01*
X116832768Y-55336882D01*
X116832768Y-55336878D01*
X116832775Y-55336862D01*
X117000441Y-54800000D01*
X123795170Y-54800000D01*
X123814473Y-55131428D01*
X123872121Y-55458366D01*
X123872121Y-55458367D01*
X123967335Y-55776403D01*
X123967337Y-55776410D01*
X124098828Y-56081238D01*
X124098831Y-56081245D01*
X124264823Y-56368753D01*
X124264825Y-56368756D01*
X124462356Y-56634087D01*
X125534727Y-55561715D01*
X125620278Y-55679466D01*
X125770534Y-55829722D01*
X125888282Y-55915270D01*
X124819290Y-56984263D01*
X124945215Y-57089925D01*
X125222583Y-57272354D01*
X125519257Y-57421349D01*
X125519261Y-57421350D01*
X125831230Y-57534898D01*
X126154253Y-57611457D01*
X126484009Y-57650000D01*
X126815991Y-57650000D01*
X127145746Y-57611457D01*
X127468769Y-57534898D01*
X127780738Y-57421350D01*
X127780742Y-57421349D01*
X128077416Y-57272354D01*
X128354784Y-57089925D01*
X128480708Y-56984263D01*
X127411716Y-55915271D01*
X127529466Y-55829722D01*
X127679722Y-55679466D01*
X127765271Y-55561716D01*
X128837642Y-56634087D01*
X129035174Y-56368756D01*
X129035176Y-56368753D01*
X129201168Y-56081245D01*
X129201171Y-56081238D01*
X129332662Y-55776410D01*
X129332664Y-55776403D01*
X129427878Y-55458367D01*
X129427878Y-55458366D01*
X129485526Y-55131428D01*
X129504829Y-54800000D01*
X129485526Y-54468571D01*
X129427878Y-54141633D01*
X129427878Y-54141632D01*
X129332664Y-53823596D01*
X129332662Y-53823589D01*
X129201171Y-53518761D01*
X129201168Y-53518754D01*
X129035176Y-53231246D01*
X129035174Y-53231243D01*
X128837642Y-52965911D01*
X127765270Y-54038282D01*
X127679722Y-53920534D01*
X127529466Y-53770278D01*
X127411715Y-53684727D01*
X128480708Y-52615735D01*
X128354784Y-52510074D01*
X128077416Y-52327645D01*
X127780742Y-52178650D01*
X127780738Y-52178649D01*
X127468769Y-52065101D01*
X127145746Y-51988542D01*
X126815991Y-51950000D01*
X126484009Y-51950000D01*
X126154253Y-51988542D01*
X125831230Y-52065101D01*
X125519261Y-52178649D01*
X125519257Y-52178650D01*
X125222583Y-52327645D01*
X124945211Y-52510077D01*
X124819290Y-52615735D01*
X125888283Y-53684728D01*
X125770534Y-53770278D01*
X125620278Y-53920534D01*
X125534728Y-54038283D01*
X124462356Y-52965911D01*
X124264831Y-53231233D01*
X124264828Y-53231239D01*
X124098831Y-53518754D01*
X124098828Y-53518761D01*
X123967337Y-53823589D01*
X123967335Y-53823596D01*
X123872121Y-54141632D01*
X123872121Y-54141633D01*
X123814473Y-54468571D01*
X123795170Y-54800000D01*
X117000441Y-54800000D01*
X117130103Y-54384826D01*
X117389225Y-53421689D01*
X117432397Y-53231246D01*
X117609725Y-52448994D01*
X117619158Y-52399407D01*
X117702811Y-51959653D01*
X117703058Y-51958403D01*
X117704773Y-51950000D01*
X117731422Y-51819394D01*
X117734823Y-51806944D01*
X117827429Y-51538303D01*
X117833244Y-51524792D01*
X117964266Y-51273666D01*
X117972019Y-51261171D01*
X118138845Y-51032275D01*
X118148382Y-51021051D01*
X118337495Y-50829404D01*
X118347316Y-50819450D01*
X118358406Y-50809771D01*
X118585067Y-50639906D01*
X118597456Y-50631989D01*
X118846816Y-50497633D01*
X118860241Y-50491643D01*
X119126771Y-50395775D01*
X119140943Y-50391841D01*
X119419661Y-50336399D01*
X119432431Y-50334716D01*
X119534038Y-50328016D01*
X119573811Y-50325394D01*
X119575615Y-50325290D01*
X129217014Y-49867620D01*
X129218643Y-49867558D01*
X129354483Y-49863498D01*
X129366856Y-49863903D01*
X129638036Y-49889841D01*
X129651939Y-49892181D01*
X129915819Y-49956235D01*
X129929270Y-49960537D01*
X130181343Y-50061488D01*
X130194046Y-50067661D01*
X130429178Y-50203447D01*
X130440873Y-50211363D01*
X130585848Y-50325394D01*
X130654303Y-50379237D01*
X130664751Y-50388738D01*
X130762851Y-50491637D01*
X130852113Y-50585266D01*
X130861104Y-50596157D01*
X131018592Y-50817344D01*
X131025943Y-50829404D01*
X131150359Y-51070763D01*
X131155918Y-51083747D01*
X131244719Y-51340344D01*
X131248374Y-51353986D01*
X131299927Y-51621480D01*
X131301504Y-51633742D01*
X131310371Y-51769062D01*
X131310488Y-51771208D01*
X131337853Y-52396683D01*
X131337935Y-52399407D01*
X131358247Y-53653382D01*
X131358249Y-53656493D01*
X131339151Y-54910338D01*
X131339054Y-54913447D01*
X131280572Y-56166009D01*
X131280378Y-56169114D01*
X131182568Y-57419227D01*
X131182277Y-57422325D01*
X131045232Y-58668793D01*
X131044843Y-58671879D01*
X130868708Y-59913368D01*
X130868223Y-59916441D01*
X130653157Y-61151833D01*
X130652575Y-61154889D01*
X130398810Y-62382863D01*
X130398133Y-62385900D01*
X130105900Y-63605329D01*
X130105128Y-63608342D01*
X129774723Y-64817994D01*
X129773856Y-64820982D01*
X129405613Y-66019630D01*
X129404653Y-66022589D01*
X128998924Y-67209094D01*
X128997871Y-67212022D01*
X128555067Y-68385175D01*
X128553923Y-68388068D01*
X128074463Y-69546764D01*
X128073228Y-69549619D01*
X127557616Y-70692635D01*
X127556292Y-70695451D01*
X127005017Y-71821710D01*
X127003606Y-71824482D01*
X126417207Y-72932877D01*
X126415709Y-72935604D01*
X125794772Y-74025032D01*
X125793189Y-74027710D01*
X125138338Y-75097071D01*
X125136672Y-75099698D01*
X124448542Y-76147961D01*
X124446794Y-76150535D01*
X123726055Y-77176673D01*
X123724233Y-77179181D01*
X123086690Y-78028804D01*
X122971621Y-78182151D01*
X122969715Y-78184609D01*
X122185963Y-79163432D01*
X122183981Y-79165830D01*
X121369836Y-80119572D01*
X121367779Y-80121906D01*
X120524089Y-81049575D01*
X120521960Y-81051843D01*
X119649556Y-81952525D01*
X119647357Y-81954726D01*
X118747036Y-82827600D01*
X118744768Y-82829730D01*
X117817512Y-83673841D01*
X117815179Y-83675899D01*
X116861819Y-84490491D01*
X116859422Y-84492474D01*
X115880982Y-85276674D01*
X115878525Y-85278581D01*
X114875908Y-86031665D01*
X114873391Y-86033495D01*
X113847585Y-86754720D01*
X113845012Y-86756469D01*
X112797073Y-87445091D01*
X112794447Y-87446758D01*
X111725379Y-88102120D01*
X111722701Y-88103704D01*
X110633579Y-88725145D01*
X110630853Y-88726644D01*
X109522758Y-89313549D01*
X109519987Y-89314962D01*
X108393960Y-89866780D01*
X108391145Y-89868105D01*
X107248359Y-90384257D01*
X107245504Y-90385493D01*
X106087035Y-90865498D01*
X106084142Y-90866643D01*
X104911234Y-91309983D01*
X104908307Y-91311038D01*
X103721782Y-91717397D01*
X103719191Y-91718244D01*
X103120877Y-91904913D01*
X103120104Y-91905151D01*
X102559178Y-92075140D01*
X102556294Y-92075967D01*
X101424034Y-92381957D01*
X101420713Y-92382793D01*
X100278760Y-92649394D01*
X100275413Y-92650114D01*
X99124970Y-92877056D01*
X99121600Y-92877661D01*
X97963929Y-93064692D01*
X97960539Y-93065179D01*
X96797144Y-93212056D01*
X96793740Y-93212426D01*
X95625972Y-93318983D01*
X95622557Y-93319236D01*
X94451726Y-93385347D01*
X94448305Y-93385480D01*
X93275978Y-93411061D01*
X93272553Y-93411077D01*
X92099984Y-93396098D01*
X92096562Y-93395995D01*
X90925240Y-93340477D01*
X90921823Y-93340256D01*
X89753087Y-93244261D01*
X89749679Y-93243921D01*
X88585029Y-93107573D01*
X88581636Y-93107117D01*
X87422333Y-92930566D01*
X87418957Y-92929992D01*
X86266458Y-92713454D01*
X86263104Y-92712763D01*
X85981860Y-92649780D01*
X85118816Y-92456505D01*
X85115489Y-92455700D01*
X83980747Y-92160023D01*
X83977449Y-92159103D01*
X82853581Y-91824352D01*
X82850317Y-91823318D01*
X81738701Y-91449902D01*
X81735474Y-91448755D01*
X80637467Y-91037133D01*
X80634282Y-91035876D01*
X79551126Y-90586510D01*
X79547987Y-90585143D01*
X78481072Y-90098612D01*
X78477981Y-90097138D01*
X77519842Y-89619519D01*
X77428450Y-89573961D01*
X77425440Y-89572394D01*
X76394695Y-89013271D01*
X76391724Y-89011593D01*
X75380884Y-88417129D01*
X75377963Y-88415342D01*
X75353826Y-88400000D01*
X80795170Y-88400000D01*
X80814473Y-88731428D01*
X80872121Y-89058366D01*
X80872121Y-89058367D01*
X80967335Y-89376403D01*
X80967337Y-89376410D01*
X81098828Y-89681238D01*
X81098831Y-89681245D01*
X81264823Y-89968753D01*
X81264825Y-89968756D01*
X81462356Y-90234087D01*
X82534727Y-89161715D01*
X82620278Y-89279466D01*
X82770534Y-89429722D01*
X82888282Y-89515270D01*
X81819290Y-90584263D01*
X81945215Y-90689925D01*
X82222583Y-90872354D01*
X82519257Y-91021349D01*
X82519261Y-91021350D01*
X82831230Y-91134898D01*
X83154253Y-91211457D01*
X83484009Y-91250000D01*
X83815991Y-91250000D01*
X84145746Y-91211457D01*
X84468769Y-91134898D01*
X84780738Y-91021350D01*
X84780742Y-91021349D01*
X85077416Y-90872354D01*
X85354784Y-90689925D01*
X85480708Y-90584263D01*
X84411716Y-89515271D01*
X84529466Y-89429722D01*
X84679722Y-89279466D01*
X84765271Y-89161716D01*
X85837642Y-90234087D01*
X86035174Y-89968756D01*
X86035176Y-89968753D01*
X86201168Y-89681245D01*
X86201171Y-89681238D01*
X86332662Y-89376410D01*
X86332664Y-89376403D01*
X86427878Y-89058367D01*
X86427878Y-89058366D01*
X86485526Y-88731428D01*
X86504829Y-88400000D01*
X86485526Y-88068571D01*
X86427878Y-87741633D01*
X86427878Y-87741632D01*
X86332664Y-87423596D01*
X86332662Y-87423589D01*
X86201171Y-87118761D01*
X86201168Y-87118754D01*
X86035176Y-86831246D01*
X86035174Y-86831243D01*
X85837642Y-86565911D01*
X84765270Y-87638282D01*
X84679722Y-87520534D01*
X84529466Y-87370278D01*
X84411715Y-87284727D01*
X85480708Y-86215735D01*
X85354784Y-86110074D01*
X85077416Y-85927645D01*
X84780742Y-85778650D01*
X84780738Y-85778649D01*
X84468769Y-85665101D01*
X84145746Y-85588542D01*
X83815991Y-85550000D01*
X83484009Y-85550000D01*
X83154253Y-85588542D01*
X82831230Y-85665101D01*
X82519261Y-85778649D01*
X82519257Y-85778650D01*
X82222583Y-85927645D01*
X81945211Y-86110077D01*
X81819290Y-86215735D01*
X82888283Y-87284728D01*
X82770534Y-87370278D01*
X82620278Y-87520534D01*
X82534728Y-87638283D01*
X81462356Y-86565911D01*
X81264831Y-86831233D01*
X81264828Y-86831239D01*
X81098831Y-87118754D01*
X81098828Y-87118761D01*
X80967337Y-87423589D01*
X80967335Y-87423596D01*
X80872121Y-87741632D01*
X80872121Y-87741633D01*
X80814473Y-88068571D01*
X80795170Y-88400000D01*
X75353826Y-88400000D01*
X74479654Y-87844354D01*
X74388317Y-87786298D01*
X74385471Y-87784419D01*
X74323037Y-87741633D01*
X73418168Y-87121524D01*
X73415385Y-87119546D01*
X73414320Y-87118761D01*
X72471557Y-86423574D01*
X72468845Y-86421500D01*
X72311361Y-86296740D01*
X71903459Y-85973596D01*
X71549702Y-85693346D01*
X71547055Y-85691174D01*
X70872285Y-85117541D01*
X70653594Y-84931628D01*
X70651033Y-84929373D01*
X70616886Y-84898247D01*
X69784420Y-84139425D01*
X69781929Y-84137075D01*
X68943111Y-83317590D01*
X68940704Y-83315155D01*
X68130756Y-82467180D01*
X68128434Y-82464663D01*
X67403228Y-81650832D01*
X67348299Y-81589190D01*
X67346071Y-81586602D01*
X66596652Y-80684641D01*
X66594510Y-80681970D01*
X65990818Y-79902027D01*
X65876744Y-79754647D01*
X65874702Y-79751913D01*
X65873687Y-79750504D01*
X65189442Y-78800335D01*
X65187489Y-78797522D01*
X64986544Y-78497093D01*
X64535522Y-77822778D01*
X64533680Y-77819917D01*
X64424891Y-77644424D01*
X63915811Y-76823205D01*
X63914097Y-76820330D01*
X63772629Y-76573446D01*
X118236681Y-76573446D01*
X118236681Y-76573453D01*
X118255996Y-76769576D01*
X118255997Y-76769579D01*
X118313209Y-76958180D01*
X118313210Y-76958182D01*
X118355037Y-77036434D01*
X118406112Y-77131988D01*
X118406114Y-77131990D01*
X118406115Y-77131992D01*
X118531134Y-77284328D01*
X118531143Y-77284337D01*
X118544921Y-77295644D01*
X118683484Y-77409360D01*
X118857295Y-77502264D01*
X119045890Y-77559474D01*
X119045892Y-77559474D01*
X119045895Y-77559475D01*
X119242019Y-77578791D01*
X119242022Y-77578791D01*
X119242025Y-77578791D01*
X119438148Y-77559475D01*
X119438149Y-77559474D01*
X119438154Y-77559474D01*
X119626749Y-77502264D01*
X119800560Y-77409360D01*
X119952905Y-77284333D01*
X120077932Y-77131988D01*
X120170836Y-76958177D01*
X120228046Y-76769582D01*
X120235204Y-76696912D01*
X120247363Y-76573453D01*
X120247363Y-76573446D01*
X120228047Y-76377323D01*
X120228046Y-76377320D01*
X120228046Y-76377318D01*
X120170836Y-76188723D01*
X120077932Y-76014912D01*
X120068079Y-76002906D01*
X119952909Y-75862571D01*
X119952900Y-75862562D01*
X119800564Y-75737543D01*
X119800562Y-75737542D01*
X119800560Y-75737540D01*
X119759640Y-75715668D01*
X119626754Y-75644638D01*
X119626752Y-75644637D01*
X119438151Y-75587425D01*
X119438148Y-75587424D01*
X119242025Y-75568109D01*
X119242019Y-75568109D01*
X119045895Y-75587424D01*
X119045892Y-75587425D01*
X118857291Y-75644637D01*
X118857289Y-75644638D01*
X118683489Y-75737537D01*
X118683479Y-75737543D01*
X118531143Y-75862562D01*
X118531134Y-75862571D01*
X118406115Y-76014907D01*
X118406109Y-76014917D01*
X118313210Y-76188717D01*
X118313209Y-76188719D01*
X118255997Y-76377320D01*
X118255996Y-76377323D01*
X118236681Y-76573446D01*
X63772629Y-76573446D01*
X63330968Y-75802675D01*
X63329527Y-75800071D01*
X63314081Y-75771116D01*
X63053453Y-75282539D01*
X63053433Y-75282502D01*
X62983106Y-75154940D01*
X62983098Y-75154927D01*
X62811101Y-74919715D01*
X62606795Y-74711954D01*
X62606794Y-74711953D01*
X62606793Y-74711952D01*
X62374496Y-74536035D01*
X62175275Y-74426546D01*
X113333012Y-74426546D01*
X113333012Y-74426553D01*
X113350725Y-74629026D01*
X114143393Y-74340517D01*
X114137979Y-74360724D01*
X114137979Y-74492376D01*
X114172054Y-74619542D01*
X114237880Y-74733556D01*
X114314613Y-74810289D01*
X113521735Y-75098873D01*
X113638312Y-75265361D01*
X113799166Y-75426215D01*
X113985496Y-75556684D01*
X114191654Y-75652816D01*
X114411380Y-75711692D01*
X114637975Y-75731516D01*
X114637981Y-75731516D01*
X114840454Y-75713801D01*
X114551946Y-74921134D01*
X114572152Y-74926549D01*
X114703804Y-74926549D01*
X114830970Y-74892474D01*
X114944984Y-74826648D01*
X115021716Y-74749915D01*
X115310301Y-75542791D01*
X115476789Y-75426215D01*
X115637643Y-75265361D01*
X115768112Y-75079031D01*
X115864244Y-74872873D01*
X115923120Y-74653147D01*
X115942944Y-74426553D01*
X115942944Y-74426547D01*
X115925229Y-74224072D01*
X115132563Y-74512579D01*
X115137977Y-74492376D01*
X115137977Y-74360724D01*
X115103902Y-74233558D01*
X115038076Y-74119544D01*
X114961341Y-74042809D01*
X115754219Y-73754225D01*
X115637643Y-73587738D01*
X115476789Y-73426884D01*
X115290459Y-73296415D01*
X115084301Y-73200283D01*
X114864575Y-73141407D01*
X114637981Y-73121584D01*
X114637975Y-73121584D01*
X114435499Y-73139297D01*
X114724007Y-73931964D01*
X114703804Y-73926551D01*
X114572152Y-73926551D01*
X114444986Y-73960626D01*
X114330972Y-74026452D01*
X114254238Y-74103185D01*
X113965653Y-73310307D01*
X113799166Y-73426884D01*
X113638312Y-73587738D01*
X113507843Y-73774068D01*
X113411711Y-73980226D01*
X113352835Y-74199952D01*
X113333012Y-74426546D01*
X62175275Y-74426546D01*
X62119131Y-74395690D01*
X61846103Y-74293888D01*
X61846098Y-74293886D01*
X61561192Y-74232784D01*
X61488500Y-74228005D01*
X61270429Y-74213671D01*
X61270427Y-74213671D01*
X61270426Y-74213671D01*
X61270412Y-74213671D01*
X60979971Y-74236954D01*
X60979967Y-74236955D01*
X60695963Y-74302142D01*
X60695961Y-74302143D01*
X60424426Y-74407851D01*
X60171097Y-74551849D01*
X59941358Y-74731076D01*
X59941347Y-74731085D01*
X59740044Y-74941757D01*
X59571447Y-75179405D01*
X59571441Y-75179415D01*
X59502926Y-75308034D01*
X59278037Y-75743707D01*
X59276351Y-75746834D01*
X58795721Y-76601265D01*
X58793659Y-76604761D01*
X58278536Y-77438561D01*
X58276332Y-77441970D01*
X57727476Y-78253933D01*
X57725135Y-78257249D01*
X57143429Y-79046066D01*
X57140953Y-79049282D01*
X56527415Y-79813571D01*
X56524810Y-79816684D01*
X55880453Y-80555184D01*
X55877722Y-80558187D01*
X55203640Y-81269644D01*
X55200788Y-81272533D01*
X54498109Y-81955760D01*
X54495142Y-81958530D01*
X53765040Y-82612382D01*
X53761961Y-82615027D01*
X53005662Y-83238406D01*
X53002477Y-83240923D01*
X52221269Y-83832769D01*
X52217993Y-83835146D01*
X51724521Y-84178097D01*
X51413181Y-84394470D01*
X51409801Y-84396717D01*
X50582729Y-84922583D01*
X50579260Y-84924690D01*
X49731345Y-85416199D01*
X49727792Y-85418163D01*
X48860420Y-85874511D01*
X48856790Y-85876327D01*
X47971430Y-86296740D01*
X47967728Y-86298405D01*
X47065923Y-86682151D01*
X47062156Y-86683664D01*
X46145344Y-87030134D01*
X46141518Y-87031491D01*
X45211262Y-87340089D01*
X45207384Y-87341287D01*
X44265301Y-87611481D01*
X44261377Y-87612520D01*
X43308983Y-87843875D01*
X43305020Y-87844752D01*
X42343951Y-88036867D01*
X42339955Y-88037581D01*
X41371824Y-88190138D01*
X41367802Y-88190688D01*
X40394207Y-88303432D01*
X40390166Y-88303816D01*
X39412782Y-88376554D01*
X39408729Y-88376772D01*
X38429194Y-88409383D01*
X38425135Y-88409435D01*
X37445063Y-88401863D01*
X37441006Y-88401748D01*
X36461864Y-88353996D01*
X36458318Y-88353760D01*
X36008994Y-88315646D01*
X35969749Y-88312317D01*
X35969744Y-88312316D01*
X35969713Y-88312314D01*
X35831948Y-88302293D01*
X35831928Y-88302293D01*
X35555964Y-88315646D01*
X35284465Y-88366858D01*
X35284455Y-88366861D01*
X35022577Y-88454963D01*
X35022569Y-88454966D01*
X34775325Y-88578272D01*
X34775321Y-88578275D01*
X34547391Y-88734448D01*
X34343132Y-88920508D01*
X34343126Y-88920515D01*
X34166433Y-89132909D01*
X34166427Y-89132919D01*
X34020645Y-89367623D01*
X33962491Y-89492910D01*
X33962469Y-89492956D01*
X33906192Y-89614035D01*
X33900441Y-89624660D01*
X33759713Y-89850526D01*
X33751619Y-89861699D01*
X33581411Y-90065143D01*
X33571841Y-90075083D01*
X33374994Y-90252892D01*
X33364135Y-90261405D01*
X33144483Y-90410114D01*
X33132546Y-90417034D01*
X32894344Y-90533764D01*
X32881561Y-90538958D01*
X32629453Y-90621433D01*
X32616072Y-90624799D01*
X32354943Y-90671422D01*
X32341223Y-90672895D01*
X32076144Y-90682759D01*
X32062354Y-90682310D01*
X31797618Y-90655135D01*
X31785698Y-90653170D01*
X31656581Y-90623701D01*
X31654449Y-90623189D01*
X31158682Y-90498423D01*
X31155502Y-90497567D01*
X30170909Y-90214587D01*
X30167307Y-90213477D01*
X29194437Y-89893305D01*
X29190880Y-89892059D01*
X28471779Y-89624660D01*
X28230901Y-89535089D01*
X28227399Y-89533711D01*
X28129389Y-89492955D01*
X27281676Y-89140448D01*
X27278244Y-89138943D01*
X26401251Y-88734449D01*
X26348173Y-88709968D01*
X26344781Y-88708324D01*
X25431743Y-88244273D01*
X25428417Y-88242502D01*
X24533691Y-87744028D01*
X24530434Y-87742131D01*
X23655353Y-87209977D01*
X23652170Y-87207958D01*
X23262231Y-86950000D01*
X28395170Y-86950000D01*
X28414473Y-87281428D01*
X28472121Y-87608366D01*
X28472121Y-87608367D01*
X28567335Y-87926403D01*
X28567337Y-87926410D01*
X28698828Y-88231238D01*
X28698831Y-88231245D01*
X28864823Y-88518753D01*
X28864825Y-88518756D01*
X29062356Y-88784087D01*
X30134727Y-87711715D01*
X30220278Y-87829466D01*
X30370534Y-87979722D01*
X30488282Y-88065270D01*
X29419290Y-89134263D01*
X29545215Y-89239925D01*
X29822583Y-89422354D01*
X30119257Y-89571349D01*
X30119261Y-89571350D01*
X30431230Y-89684898D01*
X30754253Y-89761457D01*
X31084009Y-89800000D01*
X31415991Y-89800000D01*
X31745746Y-89761457D01*
X32068769Y-89684898D01*
X32380738Y-89571350D01*
X32380742Y-89571349D01*
X32677416Y-89422354D01*
X32954784Y-89239925D01*
X33080708Y-89134263D01*
X32011716Y-88065271D01*
X32129466Y-87979722D01*
X32279722Y-87829466D01*
X32365271Y-87711716D01*
X33437642Y-88784087D01*
X33635174Y-88518756D01*
X33635176Y-88518753D01*
X33801168Y-88231245D01*
X33801171Y-88231238D01*
X33932662Y-87926410D01*
X33932664Y-87926403D01*
X34027878Y-87608367D01*
X34027878Y-87608366D01*
X34085526Y-87281428D01*
X34104829Y-86950000D01*
X34085526Y-86618571D01*
X34027878Y-86291633D01*
X34027878Y-86291632D01*
X33932664Y-85973596D01*
X33932662Y-85973589D01*
X33801171Y-85668761D01*
X33801168Y-85668754D01*
X33635176Y-85381246D01*
X33635174Y-85381243D01*
X33437642Y-85115911D01*
X32365270Y-86188282D01*
X32279722Y-86070534D01*
X32129466Y-85920278D01*
X32011715Y-85834727D01*
X33080708Y-84765735D01*
X32954784Y-84660074D01*
X32677416Y-84477645D01*
X32380742Y-84328650D01*
X32380738Y-84328649D01*
X32068769Y-84215101D01*
X31745746Y-84138542D01*
X31415991Y-84100000D01*
X31084009Y-84100000D01*
X30754253Y-84138542D01*
X30431230Y-84215101D01*
X30119261Y-84328649D01*
X30119257Y-84328650D01*
X29822583Y-84477645D01*
X29545211Y-84660077D01*
X29419290Y-84765735D01*
X30488283Y-85834728D01*
X30370534Y-85920278D01*
X30220278Y-86070534D01*
X30134728Y-86188283D01*
X29062356Y-85115911D01*
X28864831Y-85381233D01*
X28864828Y-85381239D01*
X28698831Y-85668754D01*
X28698828Y-85668761D01*
X28567337Y-85973589D01*
X28567335Y-85973596D01*
X28472121Y-86291632D01*
X28472121Y-86291633D01*
X28414473Y-86618571D01*
X28395170Y-86950000D01*
X23262231Y-86950000D01*
X22797944Y-86642858D01*
X22794841Y-86640719D01*
X22055485Y-86110077D01*
X21962756Y-86043525D01*
X21959744Y-86041275D01*
X21948591Y-86032609D01*
X21475635Y-85665101D01*
X21150998Y-85412844D01*
X21148066Y-85410475D01*
X20538267Y-84898247D01*
X20363799Y-84751695D01*
X20360988Y-84749240D01*
X19687442Y-84138261D01*
X19602384Y-84061104D01*
X19599641Y-84058519D01*
X18867782Y-83342008D01*
X18865140Y-83339321D01*
X18657558Y-83120008D01*
X21758428Y-83120008D01*
X22675479Y-83104001D01*
X22647557Y-83244378D01*
X22647557Y-83431514D01*
X22681859Y-83603966D01*
X21765648Y-83619959D01*
X21817972Y-83860487D01*
X21910450Y-84108427D01*
X21910454Y-84108436D01*
X22037266Y-84340676D01*
X22195858Y-84552530D01*
X22382983Y-84739655D01*
X22594837Y-84898247D01*
X22827077Y-85025059D01*
X22827086Y-85025063D01*
X23075026Y-85117541D01*
X23333618Y-85173794D01*
X23379630Y-85177084D01*
X23363623Y-84260034D01*
X23504000Y-84287957D01*
X23691136Y-84287957D01*
X23863588Y-84253654D01*
X23879581Y-85169864D01*
X24120109Y-85117541D01*
X24368049Y-85025063D01*
X24368058Y-85025059D01*
X24600298Y-84898247D01*
X24812152Y-84739655D01*
X24999277Y-84552530D01*
X25157869Y-84340676D01*
X25284681Y-84108436D01*
X25284685Y-84108427D01*
X25377163Y-83860487D01*
X25433416Y-83601895D01*
X25436706Y-83555882D01*
X24519657Y-83571888D01*
X24547579Y-83431514D01*
X24547579Y-83244378D01*
X24513275Y-83071923D01*
X25429486Y-83055931D01*
X25377163Y-82815404D01*
X25284685Y-82567464D01*
X25284681Y-82567455D01*
X25157869Y-82335215D01*
X24999277Y-82123361D01*
X24812152Y-81936236D01*
X24600298Y-81777644D01*
X24368058Y-81650832D01*
X24368049Y-81650828D01*
X24120109Y-81558350D01*
X23861524Y-81502098D01*
X23815504Y-81498806D01*
X23831510Y-82415856D01*
X23691136Y-82387935D01*
X23504000Y-82387935D01*
X23331545Y-82422238D01*
X23315553Y-81506026D01*
X23075026Y-81558350D01*
X22827086Y-81650828D01*
X22827077Y-81650832D01*
X22594837Y-81777644D01*
X22382983Y-81936236D01*
X22195858Y-82123361D01*
X22037266Y-82335215D01*
X21910454Y-82567455D01*
X21910450Y-82567464D01*
X21817972Y-82815404D01*
X21761720Y-83073990D01*
X21758428Y-83120008D01*
X18657558Y-83120008D01*
X18161082Y-82595474D01*
X18158567Y-82592715D01*
X17483297Y-81822565D01*
X17480888Y-81819709D01*
X16835456Y-81024458D01*
X16833137Y-81021487D01*
X16218441Y-80202244D01*
X16216237Y-80199187D01*
X16010471Y-79902027D01*
X15833681Y-79646714D01*
X18161728Y-79646714D01*
X19078779Y-79630707D01*
X19050857Y-79771084D01*
X19050857Y-79958220D01*
X19085159Y-80130672D01*
X18168948Y-80146665D01*
X18221272Y-80387193D01*
X18313750Y-80635133D01*
X18313754Y-80635142D01*
X18440566Y-80867382D01*
X18599158Y-81079236D01*
X18786283Y-81266361D01*
X18998137Y-81424953D01*
X19230377Y-81551765D01*
X19230386Y-81551769D01*
X19478326Y-81644247D01*
X19736918Y-81700500D01*
X19782930Y-81703790D01*
X19766923Y-80786740D01*
X19907300Y-80814663D01*
X20094436Y-80814663D01*
X20266888Y-80780360D01*
X20282881Y-81696570D01*
X20523409Y-81644247D01*
X20771349Y-81551769D01*
X20771358Y-81551765D01*
X21003598Y-81424953D01*
X21215452Y-81266361D01*
X21402577Y-81079236D01*
X21483509Y-80971124D01*
X40494545Y-80971124D01*
X40504842Y-81167593D01*
X40504843Y-81167595D01*
X40545751Y-81360058D01*
X40616260Y-81543739D01*
X40965450Y-82148555D01*
X41701571Y-81723554D01*
X41951571Y-82156567D01*
X41215450Y-82581568D01*
X41564638Y-83186380D01*
X41688460Y-83339289D01*
X41834685Y-83470949D01*
X41999681Y-83578099D01*
X41999694Y-83578106D01*
X42179423Y-83658125D01*
X42179437Y-83658130D01*
X42369484Y-83709053D01*
X42565165Y-83729621D01*
X42761634Y-83719324D01*
X42761636Y-83719323D01*
X42954101Y-83678415D01*
X42994467Y-83662919D01*
X42539321Y-82874584D01*
X42545326Y-82876193D01*
X42650648Y-82876193D01*
X42752380Y-82848934D01*
X42843592Y-82796273D01*
X42918066Y-82721799D01*
X42970726Y-82630588D01*
X42972334Y-82624584D01*
X43427480Y-83412919D01*
X43461086Y-83385706D01*
X43592740Y-83239487D01*
X43592746Y-83239480D01*
X43699895Y-83074485D01*
X43699900Y-83074477D01*
X43749383Y-82963335D01*
X45743935Y-82963335D01*
X45754232Y-83159804D01*
X45754233Y-83159806D01*
X45795142Y-83352273D01*
X45795143Y-83352276D01*
X45810636Y-83392637D01*
X46598984Y-82937484D01*
X46597375Y-82943490D01*
X46597375Y-83048812D01*
X46624634Y-83150545D01*
X46677295Y-83241756D01*
X46751769Y-83316230D01*
X46842980Y-83368891D01*
X46848980Y-83370498D01*
X46060635Y-83825650D01*
X46087849Y-83859255D01*
X46087851Y-83859257D01*
X46234061Y-83990905D01*
X46234076Y-83990916D01*
X46399071Y-84098065D01*
X46399079Y-84098070D01*
X46578819Y-84178094D01*
X46578828Y-84178097D01*
X46768874Y-84229019D01*
X46964555Y-84249587D01*
X47161024Y-84239291D01*
X47161026Y-84239290D01*
X47353489Y-84198382D01*
X47537170Y-84127873D01*
X47537185Y-84127866D01*
X48358492Y-83653683D01*
X48358492Y-83653682D01*
X47933492Y-82917562D01*
X48366505Y-82667562D01*
X48791505Y-83403682D01*
X49612821Y-82929496D01*
X49612831Y-82929489D01*
X49765725Y-82805680D01*
X49765733Y-82805672D01*
X49897385Y-82659455D01*
X49897391Y-82659448D01*
X50004541Y-82494452D01*
X50004546Y-82494444D01*
X50084570Y-82314705D01*
X50084573Y-82314696D01*
X50135495Y-82124649D01*
X50156064Y-81928968D01*
X50145767Y-81732499D01*
X50145766Y-81732497D01*
X50104858Y-81540032D01*
X50089362Y-81499665D01*
X49301016Y-81954816D01*
X49302625Y-81948813D01*
X49302626Y-81843492D01*
X49275366Y-81741759D01*
X49222705Y-81650548D01*
X49148232Y-81576074D01*
X49057020Y-81523413D01*
X49051015Y-81521804D01*
X49839362Y-81066652D01*
X49812149Y-81033048D01*
X49812149Y-81033047D01*
X49665931Y-80901394D01*
X49665924Y-80901388D01*
X49500928Y-80794238D01*
X49500920Y-80794233D01*
X49321180Y-80714209D01*
X49321171Y-80714206D01*
X49131125Y-80663284D01*
X48935442Y-80642715D01*
X48738975Y-80653012D01*
X48738973Y-80653013D01*
X48546510Y-80693921D01*
X48362829Y-80764430D01*
X47541506Y-81238620D01*
X47966506Y-81974742D01*
X47533494Y-82224742D01*
X47108493Y-81488620D01*
X46287176Y-81962808D01*
X46134267Y-82086630D01*
X46002613Y-82232849D01*
X46002607Y-82232856D01*
X45895458Y-82397851D01*
X45895453Y-82397859D01*
X45815429Y-82577599D01*
X45815426Y-82577608D01*
X45764504Y-82767654D01*
X45743935Y-82963335D01*
X43749383Y-82963335D01*
X43779924Y-82894738D01*
X43779927Y-82894729D01*
X43830850Y-82704682D01*
X43851418Y-82509001D01*
X43841121Y-82312532D01*
X43841120Y-82312530D01*
X43800213Y-82120071D01*
X43729705Y-81936389D01*
X43380512Y-81331569D01*
X42644390Y-81756568D01*
X42394391Y-81323556D01*
X43130513Y-80898556D01*
X42781325Y-80293744D01*
X42657510Y-80140843D01*
X42657502Y-80140835D01*
X42511285Y-80009183D01*
X42511278Y-80009177D01*
X42346282Y-79902027D01*
X42346274Y-79902022D01*
X42166535Y-79821998D01*
X42166526Y-79821995D01*
X41976479Y-79771073D01*
X41780797Y-79750504D01*
X41584329Y-79760801D01*
X41584327Y-79760802D01*
X41391861Y-79801711D01*
X41391860Y-79801711D01*
X41351494Y-79817205D01*
X41806640Y-80605541D01*
X41800638Y-80603933D01*
X41695316Y-80603933D01*
X41593583Y-80631192D01*
X41502372Y-80683853D01*
X41427898Y-80758327D01*
X41375237Y-80849538D01*
X41373628Y-80855541D01*
X40918482Y-80067205D01*
X40884875Y-80094421D01*
X40753224Y-80240637D01*
X40753218Y-80240644D01*
X40646068Y-80405640D01*
X40646063Y-80405648D01*
X40566039Y-80585387D01*
X40566036Y-80585396D01*
X40515114Y-80775443D01*
X40494545Y-80971124D01*
X21483509Y-80971124D01*
X21561169Y-80867382D01*
X21687981Y-80635142D01*
X21687985Y-80635133D01*
X21780463Y-80387193D01*
X21836716Y-80128601D01*
X21840006Y-80082588D01*
X20922957Y-80098594D01*
X20950879Y-79958220D01*
X20950879Y-79771084D01*
X20916575Y-79598629D01*
X21832786Y-79582637D01*
X21780463Y-79342110D01*
X21687985Y-79094170D01*
X21687981Y-79094161D01*
X21561169Y-78861921D01*
X21402577Y-78650067D01*
X21215452Y-78462942D01*
X21003598Y-78304350D01*
X20771358Y-78177538D01*
X20771349Y-78177534D01*
X20523409Y-78085056D01*
X20264824Y-78028804D01*
X20218804Y-78025512D01*
X20234810Y-78942562D01*
X20094436Y-78914641D01*
X19907300Y-78914641D01*
X19734845Y-78948944D01*
X19718853Y-78032732D01*
X19478326Y-78085056D01*
X19230386Y-78177534D01*
X19230377Y-78177538D01*
X18998137Y-78304350D01*
X18786283Y-78462942D01*
X18599158Y-78650067D01*
X18440566Y-78861921D01*
X18313754Y-79094161D01*
X18313750Y-79094170D01*
X18221272Y-79342110D01*
X18165020Y-79600696D01*
X18161728Y-79646714D01*
X15833681Y-79646714D01*
X15633165Y-79357136D01*
X15631083Y-79354002D01*
X15623501Y-79342110D01*
X15233354Y-78730148D01*
X15080492Y-78490377D01*
X15078527Y-78487161D01*
X14897323Y-78177534D01*
X14694665Y-77831250D01*
X43042784Y-77831250D01*
X43067223Y-78016879D01*
X43127404Y-78194170D01*
X43127406Y-78194174D01*
X43127407Y-78194176D01*
X43191016Y-78304350D01*
X43221025Y-78356327D01*
X43344473Y-78497092D01*
X43344474Y-78497093D01*
X43493009Y-78611068D01*
X43493016Y-78611073D01*
X43576976Y-78652477D01*
X43660938Y-78693883D01*
X43841791Y-78742342D01*
X44028621Y-78754588D01*
X44214252Y-78730149D01*
X44391548Y-78669965D01*
X46458952Y-77476349D01*
X46599721Y-77352898D01*
X46713700Y-77204357D01*
X46796511Y-77036434D01*
X46844970Y-76855581D01*
X46857216Y-76668751D01*
X46832777Y-76483120D01*
X46772593Y-76305824D01*
X46678977Y-76143676D01*
X46678974Y-76143673D01*
X46678974Y-76143672D01*
X46555526Y-76002907D01*
X46555525Y-76002906D01*
X46406990Y-75888931D01*
X46406983Y-75888926D01*
X46239062Y-75806117D01*
X46216498Y-75800071D01*
X46058209Y-75757658D01*
X46058207Y-75757657D01*
X46058204Y-75757657D01*
X45901862Y-75747410D01*
X45871378Y-75745412D01*
X45871377Y-75745412D01*
X45871376Y-75745412D01*
X45685748Y-75769851D01*
X45508457Y-75830032D01*
X43441044Y-77023653D01*
X43300279Y-77147101D01*
X43300278Y-77147102D01*
X43186303Y-77295637D01*
X43186298Y-77295644D01*
X43103489Y-77463565D01*
X43055029Y-77644422D01*
X43055029Y-77644424D01*
X43042784Y-77831250D01*
X14694665Y-77831250D01*
X14561205Y-77603204D01*
X14559388Y-77599961D01*
X14076066Y-76696912D01*
X14074354Y-76693562D01*
X13625768Y-75772800D01*
X13624188Y-75769393D01*
X13210963Y-74832197D01*
X13209529Y-74828769D01*
X12832279Y-73876533D01*
X12830964Y-73873018D01*
X12823360Y-73851463D01*
X12490170Y-72906936D01*
X12489130Y-72903825D01*
X12350800Y-72465683D01*
X29066087Y-72465683D01*
X29085234Y-72708983D01*
X29142209Y-72946296D01*
X29142210Y-72946299D01*
X29235600Y-73171764D01*
X29235605Y-73171775D01*
X29363120Y-73379859D01*
X29363126Y-73379867D01*
X29403282Y-73426884D01*
X29521622Y-73565442D01*
X29707202Y-73723942D01*
X29707204Y-73723943D01*
X29915288Y-73851458D01*
X29915290Y-73851459D01*
X29915292Y-73851460D01*
X30140769Y-73944855D01*
X30378079Y-74001829D01*
X30621381Y-74020977D01*
X30864683Y-74001829D01*
X31101993Y-73944855D01*
X31327470Y-73851460D01*
X31535560Y-73723942D01*
X31721140Y-73565442D01*
X31879640Y-73379862D01*
X32007158Y-73171772D01*
X32100553Y-72946295D01*
X32157527Y-72708985D01*
X32176675Y-72465683D01*
X32157527Y-72222381D01*
X32100553Y-71985071D01*
X32100551Y-71985066D01*
X32007161Y-71759601D01*
X32007156Y-71759590D01*
X31904837Y-71592622D01*
X31879640Y-71551504D01*
X31852691Y-71519951D01*
X31721148Y-71365933D01*
X31721145Y-71365930D01*
X31721140Y-71365924D01*
X31721133Y-71365918D01*
X31721130Y-71365915D01*
X31535565Y-71207428D01*
X31535557Y-71207422D01*
X31327473Y-71079907D01*
X31327462Y-71079902D01*
X31101997Y-70986512D01*
X31101994Y-70986511D01*
X30864681Y-70929536D01*
X30621381Y-70910389D01*
X30378080Y-70929536D01*
X30140767Y-70986511D01*
X30140764Y-70986512D01*
X29915299Y-71079902D01*
X29915288Y-71079907D01*
X29707204Y-71207422D01*
X29707196Y-71207428D01*
X29521631Y-71365915D01*
X29521613Y-71365933D01*
X29363126Y-71551498D01*
X29363120Y-71551506D01*
X29235605Y-71759590D01*
X29235600Y-71759601D01*
X29142210Y-71985066D01*
X29142209Y-71985069D01*
X29085234Y-72222382D01*
X29066087Y-72465683D01*
X12350800Y-72465683D01*
X12335191Y-72416244D01*
X12334554Y-72414143D01*
X12297508Y-72287052D01*
X12294841Y-72275271D01*
X12293170Y-72265015D01*
X12252035Y-72012604D01*
X12250771Y-71998870D01*
X12244918Y-71733664D01*
X12245575Y-71719897D01*
X12276652Y-71456454D01*
X12279216Y-71442915D01*
X12346620Y-71186340D01*
X12351040Y-71173293D01*
X12453461Y-70928582D01*
X12459658Y-70916266D01*
X12463148Y-70910389D01*
X12595105Y-70688174D01*
X12602942Y-70676856D01*
X12768786Y-70469811D01*
X12778132Y-70459679D01*
X12971150Y-70277702D01*
X12981823Y-70268963D01*
X13198962Y-70115097D01*
X13209209Y-70108738D01*
X13326748Y-70045382D01*
X13326755Y-70045395D01*
X13326791Y-70045358D01*
X13448411Y-69979890D01*
X13674075Y-69820459D01*
X13674079Y-69820454D01*
X13674083Y-69820452D01*
X13768224Y-69732193D01*
X31705786Y-69732193D01*
X31724933Y-69975493D01*
X31781908Y-70212806D01*
X31781909Y-70212809D01*
X31875299Y-70438274D01*
X31875304Y-70438285D01*
X32002819Y-70646369D01*
X32002825Y-70646377D01*
X32140333Y-70807379D01*
X32161321Y-70831952D01*
X32161327Y-70831957D01*
X32161330Y-70831960D01*
X32342287Y-70986511D01*
X32346901Y-70990452D01*
X32346903Y-70990453D01*
X32554987Y-71117968D01*
X32554998Y-71117973D01*
X32770963Y-71207428D01*
X32780468Y-71211365D01*
X33017778Y-71268339D01*
X33261080Y-71287487D01*
X33504382Y-71268339D01*
X33741692Y-71211365D01*
X33769132Y-71199999D01*
X59744750Y-71199999D01*
X59744750Y-71200000D01*
X59763669Y-71343708D01*
X59763670Y-71343709D01*
X59819139Y-71477625D01*
X59907379Y-71592621D01*
X60022375Y-71680861D01*
X60156291Y-71736330D01*
X60300000Y-71755250D01*
X60443709Y-71736330D01*
X60577625Y-71680861D01*
X60692621Y-71592621D01*
X60693385Y-71591624D01*
X60695223Y-71589231D01*
X60745649Y-71554576D01*
X60773764Y-71550500D01*
X67326236Y-71550500D01*
X67384427Y-71569407D01*
X67404777Y-71589231D01*
X67407376Y-71592618D01*
X67407377Y-71592619D01*
X67407379Y-71592621D01*
X67522375Y-71680861D01*
X67656291Y-71736330D01*
X67800000Y-71755250D01*
X67943709Y-71736330D01*
X68077625Y-71680861D01*
X68192621Y-71592621D01*
X68280861Y-71477625D01*
X68336330Y-71343709D01*
X68355250Y-71200000D01*
X68336330Y-71056291D01*
X68280861Y-70922375D01*
X68192621Y-70807379D01*
X68077625Y-70719139D01*
X68077621Y-70719137D01*
X67943709Y-70663670D01*
X67943708Y-70663669D01*
X67800000Y-70644750D01*
X67656291Y-70663669D01*
X67656290Y-70663670D01*
X67522378Y-70719137D01*
X67522374Y-70719139D01*
X67407376Y-70807381D01*
X67404777Y-70810769D01*
X67354351Y-70845424D01*
X67326236Y-70849500D01*
X60773764Y-70849500D01*
X60715573Y-70830593D01*
X60695223Y-70810769D01*
X60692623Y-70807381D01*
X60692621Y-70807380D01*
X60692621Y-70807379D01*
X60577625Y-70719139D01*
X60577621Y-70719137D01*
X60443709Y-70663670D01*
X60443708Y-70663669D01*
X60300000Y-70644750D01*
X60156291Y-70663669D01*
X60156290Y-70663670D01*
X60022378Y-70719137D01*
X60022374Y-70719139D01*
X59907381Y-70807377D01*
X59907377Y-70807381D01*
X59819139Y-70922374D01*
X59819137Y-70922378D01*
X59763670Y-71056290D01*
X59763669Y-71056291D01*
X59744750Y-71199999D01*
X33769132Y-71199999D01*
X33967169Y-71117970D01*
X34175259Y-70990452D01*
X34360839Y-70831952D01*
X34519339Y-70646372D01*
X34646857Y-70438282D01*
X34740252Y-70212805D01*
X34797226Y-69975495D01*
X34816374Y-69732193D01*
X34797226Y-69488891D01*
X34740252Y-69251581D01*
X34646857Y-69026104D01*
X34618989Y-68980628D01*
X34519340Y-68818016D01*
X34519339Y-68818014D01*
X34360839Y-68632434D01*
X34360832Y-68632428D01*
X34360829Y-68632425D01*
X34175264Y-68473938D01*
X34175256Y-68473932D01*
X33967172Y-68346417D01*
X33967161Y-68346412D01*
X33741696Y-68253022D01*
X33741693Y-68253021D01*
X33504380Y-68196046D01*
X33261080Y-68176899D01*
X33017779Y-68196046D01*
X32780466Y-68253021D01*
X32780463Y-68253022D01*
X32554998Y-68346412D01*
X32554987Y-68346417D01*
X32346903Y-68473932D01*
X32346895Y-68473938D01*
X32161330Y-68632425D01*
X32161312Y-68632443D01*
X32002825Y-68818008D01*
X32002819Y-68818016D01*
X31875304Y-69026100D01*
X31875299Y-69026111D01*
X31781909Y-69251576D01*
X31781908Y-69251579D01*
X31724933Y-69488892D01*
X31705786Y-69732193D01*
X13768224Y-69732193D01*
X13769752Y-69730760D01*
X13875646Y-69631483D01*
X14049285Y-69416559D01*
X14191687Y-69179780D01*
X14300141Y-68925653D01*
X14372582Y-68659017D01*
X14407631Y-68384947D01*
X14404621Y-68108661D01*
X14386418Y-67971695D01*
X14316143Y-67486743D01*
X14315706Y-67483286D01*
X14263155Y-66998701D01*
X34345488Y-66998701D01*
X34364635Y-67242001D01*
X34421610Y-67479314D01*
X34421611Y-67479317D01*
X34515001Y-67704782D01*
X34515006Y-67704793D01*
X34642521Y-67912877D01*
X34642527Y-67912885D01*
X34796542Y-68093214D01*
X34801023Y-68098460D01*
X34801029Y-68098465D01*
X34801032Y-68098468D01*
X34981991Y-68253021D01*
X34986603Y-68256960D01*
X34986605Y-68256961D01*
X35194689Y-68384476D01*
X35194700Y-68384481D01*
X35410660Y-68473934D01*
X35420170Y-68477873D01*
X35657480Y-68534847D01*
X35900782Y-68553995D01*
X36144084Y-68534847D01*
X36381394Y-68477873D01*
X36606871Y-68384478D01*
X36814961Y-68256960D01*
X37000541Y-68098460D01*
X37159041Y-67912880D01*
X37286559Y-67704790D01*
X37379954Y-67479313D01*
X37436928Y-67242003D01*
X37456076Y-66998701D01*
X37436928Y-66755399D01*
X37379954Y-66518089D01*
X37374649Y-66505282D01*
X37286561Y-66292616D01*
X37286557Y-66292608D01*
X37184118Y-66125444D01*
X37159041Y-66084522D01*
X37124531Y-66044116D01*
X37000549Y-65898951D01*
X37000546Y-65898948D01*
X37000541Y-65898942D01*
X37000534Y-65898936D01*
X37000531Y-65898933D01*
X36814966Y-65740446D01*
X36814958Y-65740440D01*
X36606874Y-65612925D01*
X36606863Y-65612920D01*
X36381398Y-65519530D01*
X36381395Y-65519529D01*
X36144082Y-65462554D01*
X35900782Y-65443407D01*
X35657481Y-65462554D01*
X35420168Y-65519529D01*
X35420165Y-65519530D01*
X35194700Y-65612920D01*
X35194689Y-65612925D01*
X34986605Y-65740440D01*
X34986597Y-65740446D01*
X34801032Y-65898933D01*
X34801014Y-65898951D01*
X34642527Y-66084516D01*
X34642521Y-66084524D01*
X34515006Y-66292608D01*
X34515003Y-66292616D01*
X34421611Y-66518084D01*
X34421610Y-66518087D01*
X34364635Y-66755400D01*
X34345488Y-66998701D01*
X14263155Y-66998701D01*
X14210077Y-66509263D01*
X14209727Y-66505282D01*
X14144102Y-65527963D01*
X14143917Y-65523968D01*
X14118386Y-64544862D01*
X14118364Y-64540811D01*
X14127543Y-63925153D01*
X14132966Y-63561421D01*
X14133107Y-63557458D01*
X14187816Y-62579525D01*
X14188125Y-62575486D01*
X14206692Y-62384403D01*
X14234424Y-62098996D01*
X39394500Y-62098996D01*
X39394500Y-62099000D01*
X39394500Y-65901000D01*
X39396829Y-65930590D01*
X39397030Y-65933143D01*
X39401883Y-65963793D01*
X39402646Y-65968281D01*
X39402647Y-65968286D01*
X39438591Y-66052382D01*
X39438592Y-66052383D01*
X39474556Y-66101883D01*
X39498797Y-66129628D01*
X39577307Y-66176536D01*
X39635498Y-66195443D01*
X39647552Y-66197352D01*
X39698996Y-66205500D01*
X39699000Y-66205500D01*
X42000993Y-66205500D01*
X42001000Y-66205500D01*
X42033144Y-66202970D01*
X42063737Y-66198125D01*
X42063748Y-66198123D01*
X42063793Y-66198116D01*
X42068281Y-66197353D01*
X42068280Y-66197353D01*
X42068287Y-66197352D01*
X42152383Y-66161408D01*
X42201883Y-66125444D01*
X42229628Y-66101203D01*
X42276536Y-66022693D01*
X42295443Y-65964502D01*
X42305500Y-65901000D01*
X42305500Y-64699500D01*
X42324407Y-64641309D01*
X42373907Y-64605345D01*
X42404500Y-64600500D01*
X50268835Y-64600500D01*
X50327026Y-64619407D01*
X50338839Y-64629496D01*
X51753457Y-66044114D01*
X51868189Y-66120775D01*
X51995672Y-66173580D01*
X52131006Y-66200500D01*
X52131007Y-66200500D01*
X63195500Y-66200500D01*
X63253691Y-66219407D01*
X63289655Y-66268907D01*
X63294500Y-66299500D01*
X63294500Y-67501000D01*
X63297030Y-67533143D01*
X63301883Y-67563793D01*
X63302646Y-67568281D01*
X63302647Y-67568286D01*
X63338591Y-67652382D01*
X63338592Y-67652383D01*
X63374556Y-67701883D01*
X63398797Y-67729628D01*
X63477307Y-67776536D01*
X63535498Y-67795443D01*
X63547552Y-67797352D01*
X63598996Y-67805500D01*
X63599000Y-67805500D01*
X65900993Y-67805500D01*
X65901000Y-67805500D01*
X65933144Y-67802970D01*
X65963737Y-67798125D01*
X65963748Y-67798123D01*
X65963793Y-67798116D01*
X65968281Y-67797353D01*
X65968280Y-67797353D01*
X65968287Y-67797352D01*
X66052383Y-67761408D01*
X66101883Y-67725444D01*
X66129628Y-67701203D01*
X66176536Y-67622693D01*
X66195443Y-67564502D01*
X66205500Y-67501000D01*
X66205500Y-63699000D01*
X66202970Y-63666856D01*
X66198125Y-63636263D01*
X66198116Y-63636206D01*
X66197353Y-63631714D01*
X66197352Y-63631713D01*
X66161408Y-63547617D01*
X66125444Y-63498117D01*
X66101203Y-63470372D01*
X66022693Y-63423464D01*
X66022691Y-63423463D01*
X66022689Y-63423462D01*
X65964499Y-63404556D01*
X65964500Y-63404556D01*
X65901003Y-63394500D01*
X65901000Y-63394500D01*
X63599000Y-63394500D01*
X63566856Y-63397030D01*
X63536206Y-63401883D01*
X63531718Y-63402646D01*
X63531713Y-63402647D01*
X63447617Y-63438591D01*
X63398118Y-63474555D01*
X63370372Y-63498797D01*
X63323464Y-63577307D01*
X63323462Y-63577310D01*
X63304556Y-63635499D01*
X63294500Y-63698996D01*
X63294500Y-64700500D01*
X63275593Y-64758691D01*
X63226093Y-64794655D01*
X63195500Y-64799500D01*
X52531165Y-64799500D01*
X52472974Y-64780593D01*
X52461161Y-64770504D01*
X51790658Y-64100001D01*
X51046543Y-63355886D01*
X50931811Y-63279225D01*
X50931810Y-63279224D01*
X50931808Y-63279223D01*
X50804328Y-63226420D01*
X50668996Y-63199500D01*
X50668994Y-63199500D01*
X50668993Y-63199500D01*
X42404500Y-63199500D01*
X42346309Y-63180593D01*
X42310345Y-63131093D01*
X42305500Y-63100500D01*
X42305500Y-62099006D01*
X42305500Y-62099000D01*
X42302970Y-62066856D01*
X42298125Y-62036263D01*
X42298116Y-62036206D01*
X42297353Y-62031714D01*
X42297352Y-62031713D01*
X42261408Y-61947617D01*
X42225444Y-61898117D01*
X42201203Y-61870372D01*
X42122693Y-61823464D01*
X42122691Y-61823463D01*
X42122689Y-61823462D01*
X42064499Y-61804556D01*
X42064500Y-61804556D01*
X42001003Y-61794500D01*
X42001000Y-61794500D01*
X39699000Y-61794500D01*
X39666856Y-61797030D01*
X39636206Y-61801883D01*
X39631718Y-61802646D01*
X39631713Y-61802647D01*
X39547617Y-61838591D01*
X39498118Y-61874555D01*
X39470372Y-61898797D01*
X39423464Y-61977307D01*
X39423462Y-61977310D01*
X39404556Y-62035499D01*
X39394500Y-62098996D01*
X14234424Y-62098996D01*
X14282851Y-61600592D01*
X14283317Y-61596642D01*
X14417906Y-60626423D01*
X14418537Y-60622471D01*
X14592755Y-59658599D01*
X14593541Y-59654705D01*
X14807103Y-58698758D01*
X14808049Y-58694899D01*
X15060592Y-57748505D01*
X15061705Y-57744655D01*
X15352805Y-56809404D01*
X15354061Y-56805642D01*
X15683230Y-55883106D01*
X15684652Y-55879365D01*
X15757065Y-55699997D01*
X21494353Y-55699997D01*
X21494353Y-55700002D01*
X21514834Y-55842456D01*
X21552985Y-55925993D01*
X21574623Y-55973373D01*
X21668088Y-56081238D01*
X21668873Y-56082144D01*
X21789942Y-56159950D01*
X21789947Y-56159953D01*
X21896403Y-56191211D01*
X21928035Y-56200499D01*
X21928036Y-56200499D01*
X21928039Y-56200500D01*
X21928041Y-56200500D01*
X22034522Y-56200500D01*
X22092713Y-56219407D01*
X22104519Y-56229490D01*
X22115489Y-56240460D01*
X22115491Y-56240461D01*
X22184007Y-56280019D01*
X22184011Y-56280021D01*
X22260435Y-56300499D01*
X22260437Y-56300500D01*
X22260438Y-56300500D01*
X22339562Y-56300500D01*
X28221458Y-56300500D01*
X28279649Y-56319407D01*
X28315613Y-56368907D01*
X28315613Y-56430093D01*
X28312922Y-56437385D01*
X28263671Y-56556289D01*
X28263670Y-56556290D01*
X28244751Y-56699998D01*
X28244751Y-56699999D01*
X28263670Y-56843707D01*
X28263671Y-56843708D01*
X28319140Y-56977624D01*
X28407380Y-57092620D01*
X28522376Y-57180860D01*
X28656292Y-57236329D01*
X28800001Y-57255249D01*
X28881585Y-57244507D01*
X28941744Y-57255656D01*
X28943995Y-57256916D01*
X28984013Y-57280021D01*
X29060437Y-57300499D01*
X29060439Y-57300500D01*
X43435521Y-57300500D01*
X43493712Y-57319407D01*
X43529676Y-57368907D01*
X43529676Y-57430093D01*
X43505525Y-57469504D01*
X43504525Y-57470504D01*
X43450008Y-57498281D01*
X43434521Y-57499500D01*
X28092497Y-57499500D01*
X28034306Y-57480593D01*
X27998342Y-57431093D01*
X27994344Y-57387578D01*
X28002462Y-57325915D01*
X28002462Y-57325914D01*
X27983542Y-57182206D01*
X27928073Y-57048290D01*
X27839833Y-56933294D01*
X27724837Y-56845054D01*
X27724833Y-56845052D01*
X27590921Y-56789585D01*
X27590920Y-56789584D01*
X27447212Y-56770665D01*
X27303503Y-56789584D01*
X27303502Y-56789585D01*
X27169590Y-56845052D01*
X27169586Y-56845054D01*
X27054593Y-56933292D01*
X27054589Y-56933296D01*
X26966351Y-57048289D01*
X26966350Y-57048290D01*
X26940681Y-57110263D01*
X26900944Y-57156788D01*
X26841449Y-57171072D01*
X26811333Y-57163842D01*
X26699280Y-57117429D01*
X26699277Y-57117428D01*
X26699276Y-57117428D01*
X26555571Y-57098509D01*
X26411862Y-57117428D01*
X26411861Y-57117429D01*
X26277949Y-57172896D01*
X26277945Y-57172898D01*
X26162952Y-57261136D01*
X26162948Y-57261140D01*
X26074710Y-57376133D01*
X26074708Y-57376137D01*
X26019241Y-57510049D01*
X26019240Y-57510050D01*
X26000321Y-57653758D01*
X26000321Y-57653759D01*
X26019240Y-57797467D01*
X26019241Y-57797468D01*
X26038825Y-57844750D01*
X26074710Y-57931384D01*
X26162950Y-58046380D01*
X26277946Y-58134620D01*
X26411862Y-58190089D01*
X26555571Y-58209009D01*
X26622290Y-58200224D01*
X26682448Y-58211373D01*
X26705211Y-58228370D01*
X27017301Y-58540460D01*
X27017303Y-58540461D01*
X27017305Y-58540463D01*
X27085820Y-58580020D01*
X27085818Y-58580020D01*
X27085822Y-58580021D01*
X27085824Y-58580022D01*
X27162250Y-58600500D01*
X27162252Y-58600500D01*
X44058802Y-58600500D01*
X44058802Y-58600499D01*
X44135228Y-58580021D01*
X44203750Y-58540460D01*
X44259699Y-58484511D01*
X46387312Y-56356896D01*
X46441827Y-56329121D01*
X46470230Y-56328749D01*
X46536955Y-56337534D01*
X46680664Y-56318614D01*
X46814580Y-56263145D01*
X46929576Y-56174905D01*
X47017816Y-56059909D01*
X47073285Y-55925993D01*
X47092205Y-55782284D01*
X47073285Y-55638575D01*
X47017816Y-55504659D01*
X46929576Y-55389663D01*
X46814580Y-55301423D01*
X46814576Y-55301421D01*
X46680664Y-55245954D01*
X46680663Y-55245953D01*
X46536955Y-55227034D01*
X46536951Y-55227034D01*
X46512419Y-55230263D01*
X46452259Y-55219112D01*
X46410143Y-55174728D01*
X46400500Y-55132110D01*
X46400500Y-54712129D01*
X46419407Y-54653938D01*
X46439233Y-54633587D01*
X46460254Y-54617457D01*
X46492621Y-54592621D01*
X46580861Y-54477625D01*
X46636330Y-54343709D01*
X46655250Y-54200000D01*
X46642084Y-54099999D01*
X49544750Y-54099999D01*
X49544750Y-54100000D01*
X49563669Y-54243708D01*
X49563670Y-54243709D01*
X49605090Y-54343709D01*
X49619139Y-54377625D01*
X49707379Y-54492621D01*
X49822375Y-54580861D01*
X49956291Y-54636330D01*
X50100000Y-54655250D01*
X50243709Y-54636330D01*
X50277682Y-54622257D01*
X50338677Y-54617457D01*
X50390846Y-54649426D01*
X50414261Y-54705954D01*
X50407031Y-54751606D01*
X50363669Y-54856293D01*
X50344750Y-54999999D01*
X50344750Y-55000000D01*
X50363669Y-55143708D01*
X50363670Y-55143709D01*
X50406020Y-55245954D01*
X50419139Y-55277625D01*
X50507379Y-55392621D01*
X50622375Y-55480861D01*
X50756291Y-55536330D01*
X50900000Y-55555250D01*
X50966719Y-55546465D01*
X51026876Y-55557614D01*
X51049643Y-55574614D01*
X56059540Y-60584511D01*
X56059539Y-60584511D01*
X56115489Y-60640460D01*
X56184007Y-60680019D01*
X56184011Y-60680021D01*
X56260435Y-60700499D01*
X56260437Y-60700500D01*
X56260438Y-60700500D01*
X57487869Y-60700500D01*
X57546060Y-60719407D01*
X57566410Y-60739232D01*
X57607377Y-60792621D01*
X57722373Y-60880861D01*
X57856289Y-60936330D01*
X57999998Y-60955250D01*
X58143707Y-60936330D01*
X58277623Y-60880861D01*
X58392619Y-60792621D01*
X58480859Y-60677625D01*
X58536328Y-60543709D01*
X58555248Y-60400000D01*
X58536328Y-60256291D01*
X58480859Y-60122375D01*
X58392619Y-60007379D01*
X58277623Y-59919139D01*
X58277619Y-59919137D01*
X58143707Y-59863670D01*
X58143706Y-59863669D01*
X57999998Y-59844750D01*
X57856289Y-59863669D01*
X57856288Y-59863670D01*
X57722376Y-59919137D01*
X57722372Y-59919139D01*
X57607379Y-60007377D01*
X57607372Y-60007384D01*
X57566411Y-60060767D01*
X57515987Y-60095423D01*
X57487869Y-60099500D01*
X56465479Y-60099500D01*
X56407288Y-60080593D01*
X56395475Y-60070504D01*
X55194475Y-58869504D01*
X55166698Y-58814987D01*
X55176269Y-58754555D01*
X55219534Y-58711290D01*
X55264479Y-58700500D01*
X55339562Y-58700500D01*
X57487871Y-58700500D01*
X57546062Y-58719407D01*
X57566412Y-58739232D01*
X57607379Y-58792621D01*
X57722375Y-58880861D01*
X57856291Y-58936330D01*
X58000000Y-58955250D01*
X58143709Y-58936330D01*
X58277625Y-58880861D01*
X58392621Y-58792621D01*
X58480861Y-58677625D01*
X58536330Y-58543709D01*
X58555250Y-58400000D01*
X58536330Y-58256291D01*
X58480861Y-58122375D01*
X58392621Y-58007379D01*
X58277625Y-57919139D01*
X58277621Y-57919137D01*
X58143709Y-57863670D01*
X58143708Y-57863669D01*
X58000000Y-57844750D01*
X57856291Y-57863669D01*
X57856290Y-57863670D01*
X57722378Y-57919137D01*
X57722374Y-57919139D01*
X57607381Y-58007377D01*
X57607374Y-58007384D01*
X57566413Y-58060767D01*
X57515989Y-58095423D01*
X57487871Y-58099500D01*
X55465479Y-58099500D01*
X55407288Y-58080593D01*
X55395475Y-58070504D01*
X53884511Y-56559540D01*
X52544083Y-55219112D01*
X51184511Y-53859540D01*
X51184508Y-53859538D01*
X51115992Y-53819980D01*
X51115988Y-53819978D01*
X51039564Y-53799500D01*
X51039562Y-53799500D01*
X50612129Y-53799500D01*
X50553938Y-53780593D01*
X50533587Y-53760767D01*
X50492625Y-53707384D01*
X50492624Y-53707383D01*
X50492621Y-53707379D01*
X50377625Y-53619139D01*
X50377621Y-53619137D01*
X50243709Y-53563670D01*
X50243708Y-53563669D01*
X50100000Y-53544750D01*
X49956291Y-53563669D01*
X49956290Y-53563670D01*
X49822378Y-53619137D01*
X49822374Y-53619139D01*
X49707381Y-53707377D01*
X49707377Y-53707381D01*
X49619139Y-53822374D01*
X49619137Y-53822378D01*
X49563670Y-53956290D01*
X49563669Y-53956291D01*
X49544750Y-54099999D01*
X46642084Y-54099999D01*
X46636330Y-54056291D01*
X46580861Y-53922375D01*
X46492621Y-53807379D01*
X46377625Y-53719139D01*
X46377621Y-53719137D01*
X46243709Y-53663670D01*
X46243708Y-53663669D01*
X46100000Y-53644750D01*
X45956291Y-53663669D01*
X45956290Y-53663670D01*
X45822378Y-53719137D01*
X45822374Y-53719139D01*
X45707381Y-53807377D01*
X45707377Y-53807381D01*
X45619139Y-53922374D01*
X45619137Y-53922378D01*
X45563670Y-54056290D01*
X45563669Y-54056291D01*
X45544750Y-54199999D01*
X45544750Y-54200000D01*
X45563669Y-54343708D01*
X45563670Y-54343709D01*
X45615388Y-54468571D01*
X45619139Y-54477625D01*
X45707379Y-54592621D01*
X45707383Y-54592624D01*
X45707384Y-54592625D01*
X45760767Y-54633587D01*
X45795423Y-54684011D01*
X45799500Y-54712129D01*
X45799500Y-54785344D01*
X45780593Y-54843535D01*
X45731093Y-54879499D01*
X45669907Y-54879499D01*
X45621958Y-54845612D01*
X45592621Y-54807379D01*
X45477625Y-54719139D01*
X45477621Y-54719137D01*
X45343709Y-54663670D01*
X45343708Y-54663669D01*
X45200000Y-54644750D01*
X45056291Y-54663669D01*
X45056290Y-54663670D01*
X44922378Y-54719137D01*
X44922374Y-54719139D01*
X44807381Y-54807377D01*
X44807377Y-54807381D01*
X44719139Y-54922374D01*
X44719137Y-54922378D01*
X44663670Y-55056290D01*
X44663669Y-55056291D01*
X44644750Y-55199999D01*
X44644750Y-55200000D01*
X44653533Y-55266717D01*
X44642383Y-55326878D01*
X44625384Y-55349643D01*
X44011137Y-55963890D01*
X43956620Y-55991667D01*
X43896188Y-55982096D01*
X43852923Y-55938831D01*
X43842981Y-55906810D01*
X43836330Y-55856291D01*
X43780861Y-55722375D01*
X43692621Y-55607379D01*
X43577625Y-55519139D01*
X43577621Y-55519137D01*
X43443709Y-55463670D01*
X43443708Y-55463669D01*
X43300000Y-55444750D01*
X43156291Y-55463669D01*
X43156290Y-55463670D01*
X43022378Y-55519137D01*
X43022374Y-55519139D01*
X42907381Y-55607377D01*
X42907374Y-55607384D01*
X42866413Y-55660767D01*
X42815989Y-55695423D01*
X42787871Y-55699500D01*
X22591359Y-55699500D01*
X22533168Y-55680593D01*
X22497204Y-55631093D01*
X22493367Y-55614588D01*
X22485165Y-55557544D01*
X22484118Y-55555250D01*
X22425377Y-55426627D01*
X22331128Y-55317857D01*
X22331127Y-55317856D01*
X22331126Y-55317855D01*
X22210057Y-55240049D01*
X22210054Y-55240047D01*
X22210053Y-55240047D01*
X22210050Y-55240046D01*
X22071964Y-55199500D01*
X22071961Y-55199500D01*
X21928039Y-55199500D01*
X21928035Y-55199500D01*
X21789949Y-55240046D01*
X21789942Y-55240049D01*
X21668873Y-55317855D01*
X21574622Y-55426628D01*
X21514834Y-55557543D01*
X21494353Y-55699997D01*
X15757065Y-55699997D01*
X16051325Y-54971114D01*
X16052899Y-54967433D01*
X16456493Y-54074919D01*
X16458199Y-54071343D01*
X16898007Y-53196133D01*
X16899865Y-53192616D01*
X17375169Y-52336135D01*
X17377173Y-52332692D01*
X17887145Y-51496436D01*
X17889294Y-51493068D01*
X18433101Y-50678396D01*
X18435395Y-50675106D01*
X19012118Y-49883399D01*
X19014522Y-49880237D01*
X19623198Y-49112813D01*
X19625762Y-49109715D01*
X20265338Y-48367902D01*
X20268032Y-48364902D01*
X20937460Y-47649915D01*
X20940242Y-47647061D01*
X21638461Y-46960034D01*
X21641317Y-46957336D01*
X22367078Y-46299504D01*
X22370100Y-46296875D01*
X23122144Y-45669375D01*
X23125302Y-45666848D01*
X23902456Y-45070652D01*
X23905674Y-45068288D01*
X24706589Y-44504439D01*
X24709875Y-44502225D01*
X25533252Y-43971636D01*
X25536635Y-43969552D01*
X26381022Y-43473161D01*
X26384525Y-43471196D01*
X27248568Y-43009795D01*
X27252093Y-43008005D01*
X28134306Y-42582391D01*
X28137951Y-42580724D01*
X29036850Y-42191612D01*
X29040497Y-42190121D01*
X29954610Y-41838149D01*
X29958328Y-41836804D01*
X30886089Y-41522575D01*
X30889905Y-41521370D01*
X31829708Y-41245428D01*
X31833574Y-41244378D01*
X32783901Y-41007164D01*
X32787835Y-41006268D01*
X33747031Y-40808195D01*
X33751008Y-40807458D01*
X34717549Y-40648841D01*
X34721497Y-40648275D01*
X35693767Y-40529380D01*
X35697718Y-40528979D01*
X36674296Y-40449993D01*
X36677762Y-40449775D01*
X37167291Y-40427817D01*
X37309486Y-40419692D01*
X37309491Y-40419691D01*
X37309492Y-40419691D01*
X37309492Y-40419690D01*
X37589587Y-40368115D01*
X37859540Y-40277324D01*
X38113882Y-40149157D01*
X38113887Y-40149153D01*
X38113890Y-40149152D01*
X38347467Y-39986206D01*
X38347466Y-39986206D01*
X38347470Y-39986204D01*
X38555580Y-39791762D01*
X38734001Y-39569764D01*
X38879125Y-39324700D01*
X38988016Y-39061528D01*
X39058473Y-38785569D01*
X39089069Y-38502407D01*
X39079186Y-38217768D01*
X39029024Y-37937409D01*
X38939604Y-37667018D01*
X38939601Y-37667011D01*
X38939598Y-37667002D01*
X38812716Y-37412015D01*
X38650945Y-37177607D01*
X38556097Y-37071355D01*
X38556067Y-37071321D01*
X38301960Y-36792973D01*
X38298982Y-36789558D01*
X38154236Y-36615646D01*
X37816901Y-36210338D01*
X37813702Y-36206283D01*
X37362759Y-35602919D01*
X37359781Y-35598707D01*
X36941003Y-34972602D01*
X36938250Y-34968244D01*
X36552778Y-34321107D01*
X36550247Y-34316594D01*
X36338185Y-33914106D01*
X36199122Y-33650167D01*
X36196837Y-33645540D01*
X35881044Y-32961697D01*
X35878997Y-32956941D01*
X35599390Y-32257534D01*
X35597594Y-32252678D01*
X35449921Y-31818738D01*
X35354924Y-31539585D01*
X35353386Y-31534645D01*
X35148333Y-30809863D01*
X35147054Y-30804846D01*
X35142095Y-30783018D01*
X34980159Y-30070282D01*
X34979156Y-30065260D01*
X34863776Y-29397538D01*
X42363855Y-29397538D01*
X42363857Y-29397540D01*
X43167838Y-29327200D01*
X43132051Y-29460760D01*
X43132051Y-29605578D01*
X43169533Y-29745461D01*
X43215423Y-29824947D01*
X42407433Y-29895637D01*
X42432202Y-29988075D01*
X42530183Y-30198198D01*
X42663161Y-30388111D01*
X42827108Y-30552058D01*
X43017021Y-30685036D01*
X43227143Y-30783017D01*
X43451095Y-30843024D01*
X43546421Y-30851363D01*
X43546422Y-30851362D01*
X43476082Y-30047381D01*
X43609642Y-30083169D01*
X43754460Y-30083169D01*
X43894343Y-30045687D01*
X43973829Y-29999795D01*
X44044519Y-30807785D01*
X44044520Y-30807786D01*
X44136956Y-30783018D01*
X44347080Y-30685036D01*
X44536993Y-30552058D01*
X44700940Y-30388111D01*
X44833918Y-30198198D01*
X44931900Y-29988074D01*
X44991906Y-29764124D01*
X45000245Y-29668798D01*
X45000243Y-29668796D01*
X44196263Y-29739135D01*
X44232051Y-29605578D01*
X44232051Y-29460760D01*
X44194569Y-29320877D01*
X44148676Y-29241388D01*
X44956667Y-29170699D01*
X44956667Y-29170698D01*
X44931898Y-29078256D01*
X44833923Y-28868149D01*
X44833919Y-28868141D01*
X44700940Y-28678226D01*
X44536993Y-28514279D01*
X44347080Y-28381301D01*
X44136958Y-28283320D01*
X43913005Y-28223313D01*
X43817680Y-28214973D01*
X43817678Y-28214975D01*
X43888017Y-29018956D01*
X43754460Y-28983169D01*
X43609642Y-28983169D01*
X43469759Y-29020651D01*
X43390270Y-29066543D01*
X43319581Y-28258551D01*
X43227144Y-28283319D01*
X43227137Y-28283322D01*
X43017031Y-28381296D01*
X43017023Y-28381300D01*
X42827108Y-28514279D01*
X42663161Y-28678226D01*
X42530182Y-28868141D01*
X42530178Y-28868149D01*
X42432203Y-29078256D01*
X42372195Y-29302214D01*
X42363855Y-29397538D01*
X34863776Y-29397538D01*
X34850895Y-29322996D01*
X34850149Y-29317886D01*
X34849455Y-29312070D01*
X34760865Y-28569920D01*
X34760393Y-28564833D01*
X34710333Y-27813219D01*
X34710125Y-27808055D01*
X34699426Y-27054858D01*
X34699487Y-27049739D01*
X34727333Y-26319227D01*
X38821367Y-26319227D01*
X38821367Y-26319234D01*
X38841165Y-26520259D01*
X38841166Y-26520264D01*
X38899806Y-26713572D01*
X38899808Y-26713577D01*
X38995028Y-26891722D01*
X39123177Y-27047872D01*
X39123182Y-27047878D01*
X39123187Y-27047882D01*
X39279337Y-27176031D01*
X39411745Y-27246804D01*
X39457488Y-27271254D01*
X39592156Y-27312104D01*
X39650795Y-27329893D01*
X39650800Y-27329894D01*
X39851826Y-27349693D01*
X39851829Y-27349693D01*
X39851832Y-27349693D01*
X40052857Y-27329894D01*
X40052862Y-27329893D01*
X40246170Y-27271254D01*
X40406305Y-27185660D01*
X40424320Y-27176031D01*
X40424321Y-27176029D01*
X40424323Y-27176029D01*
X40580476Y-27047878D01*
X40708627Y-26891725D01*
X40803852Y-26713572D01*
X40862491Y-26520264D01*
X40862492Y-26520259D01*
X40882291Y-26319234D01*
X40882291Y-26319227D01*
X40873284Y-26227773D01*
X47547553Y-26227773D01*
X47547553Y-26227782D01*
X47548612Y-26246662D01*
X47548613Y-26246662D01*
X48912457Y-26127341D01*
X48912457Y-26340542D01*
X48941894Y-26564141D01*
X48958266Y-26625243D01*
X47596040Y-26744423D01*
X47596039Y-26744424D01*
X47624906Y-26914322D01*
X47624910Y-26914340D01*
X47720692Y-27246804D01*
X47853100Y-27566467D01*
X48020464Y-27869287D01*
X48220678Y-28151461D01*
X48451225Y-28409445D01*
X48451239Y-28409459D01*
X48709223Y-28640006D01*
X48991397Y-28840220D01*
X49294218Y-29007584D01*
X49294217Y-29007584D01*
X49613880Y-29139992D01*
X49946344Y-29235774D01*
X49946362Y-29235778D01*
X50287446Y-29293730D01*
X50287466Y-29293733D01*
X50632903Y-29313132D01*
X50632910Y-29313132D01*
X50651791Y-29312071D01*
X50651792Y-29312070D01*
X50532471Y-27948228D01*
X50745671Y-27948228D01*
X50969270Y-27918791D01*
X51030373Y-27902418D01*
X51149552Y-29264643D01*
X51149553Y-29264644D01*
X51319461Y-29235776D01*
X51651933Y-29139992D01*
X51971596Y-29007584D01*
X52274416Y-28840220D01*
X52556590Y-28640006D01*
X52814574Y-28409459D01*
X52814588Y-28409445D01*
X53045135Y-28151461D01*
X53245349Y-27869287D01*
X53412713Y-27566467D01*
X53545121Y-27246804D01*
X53640903Y-26914340D01*
X53640907Y-26914322D01*
X53698859Y-26573238D01*
X53698862Y-26573218D01*
X53718261Y-26227781D01*
X53718261Y-26227775D01*
X53717200Y-26208892D01*
X53717199Y-26208891D01*
X52353357Y-26328211D01*
X52353357Y-26115014D01*
X52323920Y-25891415D01*
X52307546Y-25830309D01*
X53669772Y-25711131D01*
X53669773Y-25711130D01*
X53640905Y-25541223D01*
X53545121Y-25208751D01*
X53412713Y-24889088D01*
X53245349Y-24586268D01*
X53045135Y-24304094D01*
X52814588Y-24046110D01*
X52814574Y-24046096D01*
X52556590Y-23815549D01*
X52274416Y-23615335D01*
X51971595Y-23447971D01*
X51971596Y-23447971D01*
X51651933Y-23315563D01*
X51319469Y-23219781D01*
X51319451Y-23219777D01*
X50978367Y-23161825D01*
X50978347Y-23161822D01*
X50632912Y-23142424D01*
X50632899Y-23142424D01*
X50614021Y-23143483D01*
X50733342Y-24507328D01*
X50520143Y-24507328D01*
X50296544Y-24536765D01*
X50235439Y-24553137D01*
X50116260Y-23190911D01*
X50116259Y-23190911D01*
X49946362Y-23219777D01*
X49946344Y-23219781D01*
X49613880Y-23315563D01*
X49294217Y-23447971D01*
X48991397Y-23615335D01*
X48709223Y-23815549D01*
X48451239Y-24046096D01*
X48451225Y-24046110D01*
X48220678Y-24304094D01*
X48020464Y-24586268D01*
X47853100Y-24889088D01*
X47720692Y-25208751D01*
X47624910Y-25541215D01*
X47624906Y-25541233D01*
X47566954Y-25882317D01*
X47566951Y-25882337D01*
X47547553Y-26227773D01*
X40873284Y-26227773D01*
X40862492Y-26118202D01*
X40862491Y-26118197D01*
X40826793Y-26000517D01*
X40803852Y-25924890D01*
X40803849Y-25924884D01*
X40708629Y-25746739D01*
X40580480Y-25590589D01*
X40580476Y-25590584D01*
X40520861Y-25541659D01*
X40424320Y-25462430D01*
X40246175Y-25367210D01*
X40246170Y-25367208D01*
X40052862Y-25308568D01*
X40052857Y-25308567D01*
X39851832Y-25288769D01*
X39851826Y-25288769D01*
X39650800Y-25308567D01*
X39650795Y-25308568D01*
X39457487Y-25367208D01*
X39457482Y-25367210D01*
X39279337Y-25462430D01*
X39123187Y-25590579D01*
X39123177Y-25590589D01*
X38995028Y-25746739D01*
X38899808Y-25924884D01*
X38899806Y-25924889D01*
X38841166Y-26118197D01*
X38841165Y-26118202D01*
X38821367Y-26319227D01*
X34727333Y-26319227D01*
X34728179Y-26297023D01*
X34728511Y-26291862D01*
X34734320Y-26227775D01*
X34796515Y-25541659D01*
X34797108Y-25536588D01*
X34904244Y-24790926D01*
X34905101Y-24785901D01*
X35051069Y-24046868D01*
X35052194Y-24041869D01*
X35236587Y-23311520D01*
X35237983Y-23306546D01*
X35460307Y-22586832D01*
X35461947Y-22581976D01*
X35721596Y-21874858D01*
X35723490Y-21870088D01*
X36019755Y-21177500D01*
X36021892Y-21172845D01*
X36353963Y-20496684D01*
X36356329Y-20492169D01*
X36723294Y-19834292D01*
X36725903Y-19829890D01*
X37126749Y-19192110D01*
X37129615Y-19187806D01*
X37332239Y-18899995D01*
X38814646Y-18899995D01*
X38814646Y-18900004D01*
X38815705Y-18918884D01*
X38815706Y-18918884D01*
X40179550Y-18799563D01*
X40179550Y-19012764D01*
X40208987Y-19236363D01*
X40225359Y-19297465D01*
X38863133Y-19416645D01*
X38863132Y-19416646D01*
X38891999Y-19586544D01*
X38892003Y-19586562D01*
X38987785Y-19919026D01*
X39120193Y-20238689D01*
X39287557Y-20541509D01*
X39487771Y-20823683D01*
X39718318Y-21081667D01*
X39718332Y-21081681D01*
X39976316Y-21312228D01*
X40258490Y-21512442D01*
X40561311Y-21679806D01*
X40561310Y-21679806D01*
X40880973Y-21812214D01*
X41213437Y-21907996D01*
X41213455Y-21908000D01*
X41554539Y-21965952D01*
X41554559Y-21965955D01*
X41899996Y-21985354D01*
X41900003Y-21985354D01*
X41918884Y-21984293D01*
X41918885Y-21984292D01*
X41799564Y-20620450D01*
X42012764Y-20620450D01*
X42236363Y-20591013D01*
X42297466Y-20574640D01*
X42416645Y-21936865D01*
X42416646Y-21936866D01*
X42586554Y-21907998D01*
X42919026Y-21812214D01*
X43238689Y-21679806D01*
X43541509Y-21512442D01*
X43823683Y-21312228D01*
X44081667Y-21081681D01*
X44081681Y-21081667D01*
X44312228Y-20823683D01*
X44512442Y-20541509D01*
X44679806Y-20238689D01*
X44812214Y-19919026D01*
X44907996Y-19586562D01*
X44908000Y-19586544D01*
X44965952Y-19245460D01*
X44965955Y-19245440D01*
X44985354Y-18900003D01*
X44985354Y-18899997D01*
X44984293Y-18881114D01*
X44984292Y-18881113D01*
X43620450Y-19000433D01*
X43620450Y-18787236D01*
X43591013Y-18563637D01*
X43574639Y-18502531D01*
X44936865Y-18383353D01*
X44936866Y-18383352D01*
X44907998Y-18213445D01*
X44812214Y-17880973D01*
X44679806Y-17561310D01*
X44512442Y-17258490D01*
X44312228Y-16976316D01*
X44081681Y-16718332D01*
X44081667Y-16718318D01*
X43823683Y-16487771D01*
X43541509Y-16287557D01*
X43238688Y-16120193D01*
X43238689Y-16120193D01*
X42919026Y-15987785D01*
X42586562Y-15892003D01*
X42586544Y-15891999D01*
X42245460Y-15834047D01*
X42245440Y-15834044D01*
X41900005Y-15814646D01*
X41899992Y-15814646D01*
X41881114Y-15815705D01*
X42000435Y-17179550D01*
X41787236Y-17179550D01*
X41563637Y-17208987D01*
X41502532Y-17225359D01*
X41383353Y-15863133D01*
X41383352Y-15863133D01*
X41213455Y-15891999D01*
X41213437Y-15892003D01*
X40880973Y-15987785D01*
X40561310Y-16120193D01*
X40258490Y-16287557D01*
X39976316Y-16487771D01*
X39718332Y-16718318D01*
X39718318Y-16718332D01*
X39487771Y-16976316D01*
X39287557Y-17258490D01*
X39120193Y-17561310D01*
X38987785Y-17880973D01*
X38892003Y-18213437D01*
X38891999Y-18213455D01*
X38834047Y-18554539D01*
X38834044Y-18554559D01*
X38814646Y-18899995D01*
X37332239Y-18899995D01*
X37563254Y-18571857D01*
X37566284Y-18567783D01*
X38031543Y-17975330D01*
X38034825Y-17971369D01*
X38530406Y-17404063D01*
X38533892Y-17400278D01*
X39058430Y-16859681D01*
X39062127Y-16856066D01*
X39347382Y-16591295D01*
X39614220Y-16343618D01*
X39618070Y-16340228D01*
X40196222Y-15857323D01*
X40200220Y-15854158D01*
X40802843Y-15402127D01*
X40807003Y-15399173D01*
X41086407Y-15211583D01*
X48141787Y-15211583D01*
X48141787Y-15211590D01*
X48161585Y-15412615D01*
X48161586Y-15412620D01*
X48220226Y-15605928D01*
X48220228Y-15605933D01*
X48315448Y-15784078D01*
X48404020Y-15892003D01*
X48443602Y-15940234D01*
X48478545Y-15968911D01*
X48599757Y-16068387D01*
X48764677Y-16156538D01*
X48777908Y-16163610D01*
X48912576Y-16204460D01*
X48971215Y-16222249D01*
X48971220Y-16222250D01*
X49172246Y-16242049D01*
X49172249Y-16242049D01*
X49172252Y-16242049D01*
X49373277Y-16222250D01*
X49373282Y-16222249D01*
X49566590Y-16163610D01*
X49647817Y-16120193D01*
X49744740Y-16068387D01*
X49744741Y-16068385D01*
X49744743Y-16068385D01*
X49781558Y-16038171D01*
X49838533Y-16015871D01*
X49897737Y-16031319D01*
X49936553Y-16078615D01*
X49940156Y-16139694D01*
X49934088Y-16156538D01*
X49837511Y-16363648D01*
X49777504Y-16587601D01*
X49769164Y-16682925D01*
X49769166Y-16682927D01*
X50573147Y-16612587D01*
X50537360Y-16746147D01*
X50537360Y-16890965D01*
X50574842Y-17030848D01*
X50620732Y-17110334D01*
X49812742Y-17181024D01*
X49837511Y-17273462D01*
X49935492Y-17483585D01*
X50068470Y-17673498D01*
X50232417Y-17837445D01*
X50422330Y-17970423D01*
X50632452Y-18068404D01*
X50856404Y-18128411D01*
X50951730Y-18136750D01*
X50951731Y-18136749D01*
X50881391Y-17332768D01*
X51014951Y-17368556D01*
X51159769Y-17368556D01*
X51299652Y-17331074D01*
X51379138Y-17285182D01*
X51449828Y-18093172D01*
X51449829Y-18093173D01*
X51542265Y-18068405D01*
X51752389Y-17970423D01*
X51941207Y-17838212D01*
X51999719Y-17820323D01*
X52057571Y-17840243D01*
X52092665Y-17890363D01*
X52091597Y-17951539D01*
X52085302Y-17965975D01*
X52050448Y-18031182D01*
X52050448Y-18031183D01*
X51991808Y-18224491D01*
X51991807Y-18224496D01*
X51972009Y-18425521D01*
X51972009Y-18425528D01*
X51991807Y-18626553D01*
X51991808Y-18626558D01*
X52050448Y-18819866D01*
X52050450Y-18819871D01*
X52145670Y-18998016D01*
X52251737Y-19127259D01*
X52273824Y-19154172D01*
X52273829Y-19154176D01*
X52429979Y-19282325D01*
X52608124Y-19377545D01*
X52608130Y-19377548D01*
X52737016Y-19416645D01*
X52801437Y-19436187D01*
X52801442Y-19436188D01*
X53002468Y-19455987D01*
X53002471Y-19455987D01*
X53002474Y-19455987D01*
X53203499Y-19436188D01*
X53203504Y-19436187D01*
X53204908Y-19435761D01*
X53396812Y-19377548D01*
X53477396Y-19334474D01*
X53574962Y-19282325D01*
X53574963Y-19282323D01*
X53574965Y-19282323D01*
X53731118Y-19154172D01*
X53859269Y-18998019D01*
X53954494Y-18819866D01*
X54013133Y-18626558D01*
X54013134Y-18626553D01*
X54032933Y-18425528D01*
X54032933Y-18425521D01*
X54013134Y-18224496D01*
X54013133Y-18224491D01*
X53986517Y-18136750D01*
X53954494Y-18031184D01*
X53954491Y-18031178D01*
X53859271Y-17853033D01*
X53731122Y-17696883D01*
X53731118Y-17696878D01*
X53642095Y-17623819D01*
X53574962Y-17568724D01*
X53396817Y-17473504D01*
X53396812Y-17473502D01*
X53203504Y-17414862D01*
X53203499Y-17414861D01*
X53002474Y-17395063D01*
X53002468Y-17395063D01*
X52801442Y-17414861D01*
X52801437Y-17414862D01*
X52608129Y-17473502D01*
X52608124Y-17473504D01*
X52429980Y-17568724D01*
X52393161Y-17598940D01*
X52336184Y-17621239D01*
X52276981Y-17605790D01*
X52238166Y-17558492D01*
X52234565Y-17497413D01*
X52240633Y-17480572D01*
X52337207Y-17273467D01*
X52337208Y-17273466D01*
X52397215Y-17049511D01*
X52405554Y-16954185D01*
X52405552Y-16954183D01*
X51601572Y-17024522D01*
X51637360Y-16890965D01*
X51637360Y-16746147D01*
X51599878Y-16606264D01*
X51553985Y-16526775D01*
X52361976Y-16456086D01*
X52361976Y-16456085D01*
X52337207Y-16363643D01*
X52239232Y-16153536D01*
X52239228Y-16153528D01*
X52106249Y-15963613D01*
X51942302Y-15799666D01*
X51752389Y-15666688D01*
X51542267Y-15568707D01*
X51318314Y-15508700D01*
X51222989Y-15500360D01*
X51222987Y-15500362D01*
X51293326Y-16304343D01*
X51159769Y-16268556D01*
X51014951Y-16268556D01*
X50875068Y-16306038D01*
X50795579Y-16351930D01*
X50724890Y-15543938D01*
X50632453Y-15568706D01*
X50632446Y-15568709D01*
X50422340Y-15666683D01*
X50422326Y-15666691D01*
X50233511Y-15798899D01*
X50174999Y-15816788D01*
X50117148Y-15796867D01*
X50082054Y-15746747D01*
X50083122Y-15685571D01*
X50089415Y-15671139D01*
X50124272Y-15605928D01*
X50182911Y-15412620D01*
X50182912Y-15412615D01*
X50202711Y-15211590D01*
X50202711Y-15211583D01*
X50182912Y-15010558D01*
X50182911Y-15010553D01*
X50165122Y-14951914D01*
X50124272Y-14817246D01*
X50124269Y-14817240D01*
X50029049Y-14639095D01*
X49900900Y-14482945D01*
X49900896Y-14482940D01*
X49900890Y-14482935D01*
X49744740Y-14354786D01*
X49566595Y-14259566D01*
X49566590Y-14259564D01*
X49373282Y-14200924D01*
X49373277Y-14200923D01*
X49172252Y-14181125D01*
X49172246Y-14181125D01*
X48971220Y-14200923D01*
X48971215Y-14200924D01*
X48777907Y-14259564D01*
X48777902Y-14259566D01*
X48599757Y-14354786D01*
X48443607Y-14482935D01*
X48443597Y-14482945D01*
X48315448Y-14639095D01*
X48220228Y-14817240D01*
X48220226Y-14817245D01*
X48161586Y-15010553D01*
X48161585Y-15010558D01*
X48141787Y-15211583D01*
X41086407Y-15211583D01*
X41432421Y-14979272D01*
X41436728Y-14976540D01*
X42083272Y-14589891D01*
X42087715Y-14587390D01*
X42753546Y-14235091D01*
X42758142Y-14232811D01*
X43441489Y-13915797D01*
X43446185Y-13913767D01*
X44145151Y-13632920D01*
X44149967Y-13631129D01*
X44862675Y-13387200D01*
X44867556Y-13385671D01*
X45592058Y-13179330D01*
X45597000Y-13178062D01*
X46331276Y-13009883D01*
X46336302Y-13008869D01*
X47078364Y-12879308D01*
X47083477Y-12878553D01*
X47831249Y-12787968D01*
X47836350Y-12787484D01*
X48587912Y-12736110D01*
X48593052Y-12735894D01*
X49346201Y-12723881D01*
X49351336Y-12723932D01*
G37*
%TD.AperFunction*%
%TD*%
M02*
