%TF.GenerationSoftware,KiCad,Pcbnew,8.0.2*%
%TF.CreationDate,2024-12-31T23:32:28-06:00*%
%TF.ProjectId,LampBoardDesk,4c616d70-426f-4617-9264-4465736b2e6b,rev?*%
%TF.SameCoordinates,Original*%
%TF.FileFunction,Legend,Bot*%
%TF.FilePolarity,Positive*%
%FSLAX46Y46*%
G04 Gerber Fmt 4.6, Leading zero omitted, Abs format (unit mm)*
G04 Created by KiCad (PCBNEW 8.0.2) date 2024-12-31 23:32:28*
%MOMM*%
%LPD*%
G01*
G04 APERTURE LIST*
%ADD10C,0.254000*%
%ADD11C,0.150000*%
%ADD12C,0.100000*%
%ADD13C,0.250000*%
G04 APERTURE END LIST*
D10*
X39720133Y-33239616D02*
X39542277Y-33169323D01*
X39542277Y-33169323D02*
X39310640Y-32974957D01*
X39310640Y-32974957D02*
X39256858Y-32850882D01*
X39256858Y-32850882D02*
X39249404Y-32765682D01*
X39249404Y-32765682D02*
X39280823Y-32634153D01*
X39280823Y-32634153D02*
X39358570Y-32541499D01*
X39358570Y-32541499D02*
X39482644Y-32487717D01*
X39482644Y-32487717D02*
X39567845Y-32480263D01*
X39567845Y-32480263D02*
X39699373Y-32511682D01*
X39699373Y-32511682D02*
X39923556Y-32620848D01*
X39923556Y-32620848D02*
X40055085Y-32652267D01*
X40055085Y-32652267D02*
X40140285Y-32644813D01*
X40140285Y-32644813D02*
X40264360Y-32591032D01*
X40264360Y-32591032D02*
X40342106Y-32498377D01*
X40342106Y-32498377D02*
X40373526Y-32366848D01*
X40373526Y-32366848D02*
X40366071Y-32281648D01*
X40366071Y-32281648D02*
X40312290Y-32157574D01*
X40312290Y-32157574D02*
X40080653Y-31963207D01*
X40080653Y-31963207D02*
X39902797Y-31892914D01*
X39617378Y-31574473D02*
X38569400Y-32352983D01*
X38569400Y-32352983D02*
X38967191Y-31502578D01*
X38967191Y-31502578D02*
X38198781Y-32041996D01*
X38198781Y-32041996D02*
X38783484Y-30874753D01*
X37086922Y-31109036D02*
X37642851Y-31575516D01*
X37364886Y-31342276D02*
X38181227Y-30369399D01*
X38181227Y-30369399D02*
X38157262Y-30586128D01*
X38157262Y-30586128D02*
X38172170Y-30756530D01*
X38172170Y-30756530D02*
X38225951Y-30880604D01*
D11*
X41438393Y-77882064D02*
X40819803Y-78239207D01*
X40819803Y-78239207D02*
X40719895Y-78351875D01*
X40719895Y-78351875D02*
X40685035Y-78481973D01*
X40685035Y-78481973D02*
X40715225Y-78629500D01*
X40715225Y-78629500D02*
X40762844Y-78711979D01*
X40697337Y-77265184D02*
X40119986Y-77598517D01*
X41146299Y-77280904D02*
X40646757Y-77844244D01*
X40646757Y-77844244D02*
X40337233Y-77308133D01*
X116456038Y-66710190D02*
X117170323Y-66710190D01*
X117170323Y-66710190D02*
X117313180Y-66662571D01*
X117313180Y-66662571D02*
X117408419Y-66567333D01*
X117408419Y-66567333D02*
X117456038Y-66424476D01*
X117456038Y-66424476D02*
X117456038Y-66329238D01*
X116456038Y-67091143D02*
X116456038Y-67710190D01*
X116456038Y-67710190D02*
X116836990Y-67376857D01*
X116836990Y-67376857D02*
X116836990Y-67519714D01*
X116836990Y-67519714D02*
X116884609Y-67614952D01*
X116884609Y-67614952D02*
X116932228Y-67662571D01*
X116932228Y-67662571D02*
X117027466Y-67710190D01*
X117027466Y-67710190D02*
X117265561Y-67710190D01*
X117265561Y-67710190D02*
X117360799Y-67662571D01*
X117360799Y-67662571D02*
X117408419Y-67614952D01*
X117408419Y-67614952D02*
X117456038Y-67519714D01*
X117456038Y-67519714D02*
X117456038Y-67234000D01*
X117456038Y-67234000D02*
X117408419Y-67138762D01*
X117408419Y-67138762D02*
X117360799Y-67091143D01*
X114408612Y-78831742D02*
X114431645Y-78895024D01*
X114431645Y-78895024D02*
X114540993Y-78998555D01*
X114540993Y-78998555D02*
X114627308Y-79038805D01*
X114627308Y-79038805D02*
X114776905Y-79056021D01*
X114776905Y-79056021D02*
X114903469Y-79009956D01*
X114903469Y-79009956D02*
X114986876Y-78943765D01*
X114986876Y-78943765D02*
X115110532Y-78791260D01*
X115110532Y-78791260D02*
X115170906Y-78661787D01*
X115170906Y-78661787D02*
X115208248Y-78469033D01*
X115208248Y-78469033D02*
X115205339Y-78362593D01*
X115205339Y-78362593D02*
X115159274Y-78236029D01*
X115159274Y-78236029D02*
X115049926Y-78132497D01*
X115049926Y-78132497D02*
X114963611Y-78092248D01*
X114963611Y-78092248D02*
X114814014Y-78075031D01*
X114814014Y-78075031D02*
X114750731Y-78098064D01*
X113873273Y-77951607D02*
X113591527Y-78555812D01*
X114250058Y-77706971D02*
X114163975Y-78454957D01*
X114163975Y-78454957D02*
X113602927Y-78193336D01*
X39362617Y-65333273D02*
X39226775Y-65268291D01*
X39226775Y-65268291D02*
X39055504Y-65102896D01*
X39055504Y-65102896D02*
X39020074Y-65002484D01*
X39020074Y-65002484D02*
X39018899Y-64935151D01*
X39018899Y-64935151D02*
X39050803Y-64833563D01*
X39050803Y-64833563D02*
X39116961Y-64765054D01*
X39116961Y-64765054D02*
X39217373Y-64729625D01*
X39217373Y-64729625D02*
X39284706Y-64728450D01*
X39284706Y-64728450D02*
X39386293Y-64760353D01*
X39386293Y-64760353D02*
X39556390Y-64858415D01*
X39556390Y-64858415D02*
X39657977Y-64890318D01*
X39657977Y-64890318D02*
X39725310Y-64889143D01*
X39725310Y-64889143D02*
X39825723Y-64853714D01*
X39825723Y-64853714D02*
X39891880Y-64785205D01*
X39891880Y-64785205D02*
X39923784Y-64683618D01*
X39923784Y-64683618D02*
X39922609Y-64616284D01*
X39922609Y-64616284D02*
X39887179Y-64515872D01*
X39887179Y-64515872D02*
X39715908Y-64350477D01*
X39715908Y-64350477D02*
X39580066Y-64285495D01*
X39373365Y-64019687D02*
X38507435Y-64573632D01*
X38507435Y-64573632D02*
X38866603Y-63927502D01*
X38866603Y-63927502D02*
X38233401Y-64309001D01*
X38233401Y-64309001D02*
X38756788Y-63424266D01*
X38450850Y-63261222D02*
X38449675Y-63193889D01*
X38449675Y-63193889D02*
X38414245Y-63093476D01*
X38414245Y-63093476D02*
X38242974Y-62928082D01*
X38242974Y-62928082D02*
X38141387Y-62896178D01*
X38141387Y-62896178D02*
X38074053Y-62897353D01*
X38074053Y-62897353D02*
X37973641Y-62932783D01*
X37973641Y-62932783D02*
X37907483Y-63001291D01*
X37907483Y-63001291D02*
X37842501Y-63137133D01*
X37842501Y-63137133D02*
X37856604Y-63945132D01*
X37856604Y-63945132D02*
X37411299Y-63515105D01*
D12*
%TO.C,SW1*%
X36917464Y-23755358D02*
X39295778Y-20920994D01*
X38641065Y-25201630D02*
X36917464Y-23755358D01*
X45530818Y-13490364D02*
X43152503Y-16324728D01*
X46493019Y-31790204D02*
X44769419Y-30343932D01*
X47254417Y-14936635D02*
X45530818Y-13490364D01*
X48871333Y-28955840D02*
X46493019Y-31790204D01*
X52728058Y-24359573D02*
X55106372Y-21525208D01*
X55106372Y-21525208D02*
X53382773Y-20078937D01*
D13*
%TO.C,J4*%
X40611143Y-79279589D02*
X41186143Y-80275517D01*
X42871469Y-77974589D02*
X40611143Y-79279589D01*
X43011143Y-83436511D02*
X47601144Y-91386623D01*
X47601144Y-91386623D02*
X55412693Y-86876623D01*
X48422692Y-74769589D02*
X46266290Y-76014588D01*
X55412693Y-86876623D02*
X48422692Y-74769589D01*
%TO.C,J3*%
X116100000Y-53599999D02*
X116100000Y-64900001D01*
X116100000Y-64900001D02*
X125299999Y-64900000D01*
X125299999Y-55480000D02*
X125300000Y-53599999D01*
X125299999Y-64900000D02*
X125299999Y-63020000D01*
X125300000Y-53599999D02*
X116100000Y-53599999D01*
X125300000Y-58980000D02*
X125300000Y-56020000D01*
X125300000Y-62480000D02*
X125300000Y-59520000D01*
%TO.C,C4*%
X112741580Y-72405561D02*
X112099201Y-73783148D01*
X112873544Y-73305663D02*
X111958173Y-72878819D01*
X121100000Y-74810184D02*
G75*
G02*
X111100000Y-74810184I-5000000J0D01*
G01*
X111100000Y-74810184D02*
G75*
G02*
X121100000Y-74810184I5000000J0D01*
G01*
%TO.C,SW2*%
X11762041Y-90411588D02*
G75*
G02*
X11748826Y-90425514I791274J-764124D01*
G01*
X19310549Y-79211921D02*
X24273993Y-84005064D01*
X33096155Y-74869448D02*
X25211782Y-83033955D01*
X28132710Y-70076306D02*
X20248337Y-78240812D01*
X15635309Y-85824879D02*
X17793328Y-87908854D01*
X19837992Y-81472873D02*
X15635309Y-85824879D01*
X21996011Y-83556848D02*
X17793328Y-87908854D01*
X31786956Y-73605170D02*
X33096155Y-74869448D01*
X28132710Y-70076306D02*
X29441908Y-71340584D01*
X13344588Y-91939836D02*
X17059601Y-87200302D01*
X11762041Y-90411588D02*
X16361595Y-86512344D01*
%TD*%
M02*
