%TF.GenerationSoftware,KiCad,Pcbnew,8.0.2*%
%TF.CreationDate,2024-11-25T20:00:46-06:00*%
%TF.ProjectId,LampBoardDesk,4c616d70-426f-4617-9264-4465736b2e6b,rev?*%
%TF.SameCoordinates,Original*%
%TF.FileFunction,Paste,Top*%
%TF.FilePolarity,Positive*%
%FSLAX46Y46*%
G04 Gerber Fmt 4.6, Leading zero omitted, Abs format (unit mm)*
G04 Created by KiCad (PCBNEW 8.0.2) date 2024-11-25 20:00:46*
%MOMM*%
%LPD*%
G01*
G04 APERTURE LIST*
G04 Aperture macros list*
%AMRoundRect*
0 Rectangle with rounded corners*
0 $1 Rounding radius*
0 $2 $3 $4 $5 $6 $7 $8 $9 X,Y pos of 4 corners*
0 Add a 4 corners polygon primitive as box body*
4,1,4,$2,$3,$4,$5,$6,$7,$8,$9,$2,$3,0*
0 Add four circle primitives for the rounded corners*
1,1,$1+$1,$2,$3*
1,1,$1+$1,$4,$5*
1,1,$1+$1,$6,$7*
1,1,$1+$1,$8,$9*
0 Add four rect primitives between the rounded corners*
20,1,$1+$1,$2,$3,$4,$5,0*
20,1,$1+$1,$4,$5,$6,$7,0*
20,1,$1+$1,$6,$7,$8,$9,0*
20,1,$1+$1,$8,$9,$2,$3,0*%
G04 Aperture macros list end*
%ADD10C,0.000000*%
%ADD11RoundRect,0.218750X0.256250X-0.218750X0.256250X0.218750X-0.256250X0.218750X-0.256250X-0.218750X0*%
%ADD12RoundRect,0.200000X-0.275000X0.200000X-0.275000X-0.200000X0.275000X-0.200000X0.275000X0.200000X0*%
%ADD13RoundRect,0.135000X0.185000X-0.135000X0.185000X0.135000X-0.185000X0.135000X-0.185000X-0.135000X0*%
%ADD14RoundRect,0.140000X-0.170000X0.140000X-0.170000X-0.140000X0.170000X-0.140000X0.170000X0.140000X0*%
%ADD15RoundRect,0.140000X0.170000X-0.140000X0.170000X0.140000X-0.170000X0.140000X-0.170000X-0.140000X0*%
%ADD16R,0.700000X1.250000*%
%ADD17RoundRect,0.200000X0.200000X0.275000X-0.200000X0.275000X-0.200000X-0.275000X0.200000X-0.275000X0*%
%ADD18R,1.600000X3.500000*%
%ADD19R,12.200000X9.750000*%
%ADD20RoundRect,0.200000X0.275000X-0.200000X0.275000X0.200000X-0.275000X0.200000X-0.275000X-0.200000X0*%
%ADD21RoundRect,0.218750X-0.218750X-0.256250X0.218750X-0.256250X0.218750X0.256250X-0.218750X0.256250X0*%
%ADD22RoundRect,0.250000X1.000000X0.650000X-1.000000X0.650000X-1.000000X-0.650000X1.000000X-0.650000X0*%
%ADD23R,0.590000X1.300000*%
%ADD24R,1.600200X0.914400*%
%ADD25R,1.700000X3.250000*%
%ADD26RoundRect,0.140000X0.140000X0.170000X-0.140000X0.170000X-0.140000X-0.170000X0.140000X-0.170000X0*%
%ADD27RoundRect,0.250000X0.262500X0.450000X-0.262500X0.450000X-0.262500X-0.450000X0.262500X-0.450000X0*%
%ADD28R,1.300000X0.590000*%
%ADD29RoundRect,0.225000X0.250000X-0.225000X0.250000X0.225000X-0.250000X0.225000X-0.250000X-0.225000X0*%
%ADD30RoundRect,0.218750X-0.256250X0.218750X-0.256250X-0.218750X0.256250X-0.218750X0.256250X0.218750X0*%
%ADD31RoundRect,0.140000X-0.140000X-0.170000X0.140000X-0.170000X0.140000X0.170000X-0.140000X0.170000X0*%
%ADD32R,1.550000X0.600000*%
%ADD33R,1.800000X1.200000*%
%ADD34RoundRect,0.250000X-0.650000X1.000000X-0.650000X-1.000000X0.650000X-1.000000X0.650000X1.000000X0*%
%ADD35RoundRect,0.135000X0.135000X0.185000X-0.135000X0.185000X-0.135000X-0.185000X0.135000X-0.185000X0*%
%ADD36RoundRect,0.200000X-0.200000X-0.275000X0.200000X-0.275000X0.200000X0.275000X-0.200000X0.275000X0*%
%ADD37RoundRect,0.150000X0.150000X-0.650000X0.150000X0.650000X-0.150000X0.650000X-0.150000X-0.650000X0*%
%ADD38R,0.850000X0.300000*%
%ADD39RoundRect,0.250000X-0.475000X0.250000X-0.475000X-0.250000X0.475000X-0.250000X0.475000X0.250000X0*%
%ADD40RoundRect,0.218750X0.218750X0.256250X-0.218750X0.256250X-0.218750X-0.256250X0.218750X-0.256250X0*%
%ADD41RoundRect,0.250000X-0.450000X0.262500X-0.450000X-0.262500X0.450000X-0.262500X0.450000X0.262500X0*%
%ADD42RoundRect,0.135000X-0.185000X0.135000X-0.185000X-0.135000X0.185000X-0.135000X0.185000X0.135000X0*%
%ADD43R,1.050000X1.300000*%
%ADD44R,0.600000X1.550000*%
%ADD45R,1.200000X1.800000*%
%ADD46RoundRect,0.249999X0.395001X-0.395001X0.395001X0.395001X-0.395001X0.395001X-0.395001X-0.395001X0*%
%ADD47RoundRect,0.050000X0.050000X-0.387500X0.050000X0.387500X-0.050000X0.387500X-0.050000X-0.387500X0*%
%ADD48RoundRect,0.050000X0.387500X-0.050000X0.387500X0.050000X-0.387500X0.050000X-0.387500X-0.050000X0*%
%ADD49RoundRect,0.250000X0.450000X-0.262500X0.450000X0.262500X-0.450000X0.262500X-0.450000X-0.262500X0*%
G04 APERTURE END LIST*
D10*
%TO.C,CR1*%
G36*
X68300500Y-68200200D02*
G01*
X66700300Y-68200200D01*
X66700300Y-64999800D01*
X68300500Y-64999800D01*
X68300500Y-68200200D01*
G37*
%TD*%
D11*
%TO.C,D8*%
X108750000Y-82787500D03*
X108750000Y-81212500D03*
%TD*%
D12*
%TO.C,R6*%
X40000000Y-33925000D03*
X40000000Y-35575000D03*
%TD*%
D13*
%TO.C,R31*%
X76800000Y-74160000D03*
X76800000Y-73140000D03*
%TD*%
D14*
%TO.C,C2*%
X57000000Y-52782500D03*
X57000000Y-53742500D03*
%TD*%
D15*
%TO.C,C1*%
X33300000Y-50680000D03*
X33300000Y-49720000D03*
%TD*%
D16*
%TO.C,Q1*%
X109050000Y-71500000D03*
X110950000Y-71500000D03*
X110000000Y-69500000D03*
%TD*%
D17*
%TO.C,R12*%
X23225000Y-50100000D03*
X21575000Y-50100000D03*
%TD*%
D18*
%TO.C,IC1*%
X46860000Y-72775000D03*
X51940000Y-72775000D03*
D19*
X49400000Y-62500000D03*
%TD*%
D20*
%TO.C,R2*%
X27100000Y-65125000D03*
X27100000Y-63475000D03*
%TD*%
D21*
%TO.C,D13*%
X23312500Y-52000000D03*
X24887500Y-52000000D03*
%TD*%
D22*
%TO.C,D12*%
X28350000Y-67750000D03*
X24350000Y-67750000D03*
%TD*%
D17*
%TO.C,R14*%
X24025000Y-48200000D03*
X22375000Y-48200000D03*
%TD*%
D23*
%TO.C,U4*%
X20630000Y-61450000D03*
X23170000Y-61450000D03*
X23170000Y-55150000D03*
X20630000Y-55150000D03*
%TD*%
D12*
%TO.C,R22*%
X52000000Y-32175000D03*
X52000000Y-33825000D03*
%TD*%
D24*
%TO.C,CR1*%
X61099600Y-64300000D03*
D25*
X67550000Y-66600000D03*
D24*
X61099600Y-66600000D03*
X61099600Y-68900000D03*
%TD*%
D12*
%TO.C,R5*%
X65100000Y-46775000D03*
X65100000Y-48425000D03*
%TD*%
D26*
%TO.C,C21*%
X39980000Y-48762500D03*
X39020000Y-48762500D03*
%TD*%
D20*
%TO.C,R21*%
X58000000Y-33825000D03*
X58000000Y-32175000D03*
%TD*%
%TO.C,R29*%
X25200000Y-65125000D03*
X25200000Y-63475000D03*
%TD*%
D27*
%TO.C,R25*%
X22412500Y-64000000D03*
X20587500Y-64000000D03*
%TD*%
D28*
%TO.C,U3*%
X97450000Y-73830000D03*
X97450000Y-76370000D03*
X103750000Y-76370000D03*
X103750000Y-73830000D03*
%TD*%
D12*
%TO.C,R8*%
X44000000Y-33925000D03*
X44000000Y-35575000D03*
%TD*%
D29*
%TO.C,C23*%
X56000000Y-33775000D03*
X56000000Y-32225000D03*
%TD*%
D30*
%TO.C,D1*%
X29100000Y-63512500D03*
X29100000Y-65087500D03*
%TD*%
D31*
%TO.C,C12*%
X53020000Y-47587500D03*
X53980000Y-47587500D03*
%TD*%
D11*
%TO.C,D4*%
X64300000Y-44987500D03*
X64300000Y-43412500D03*
%TD*%
D15*
%TO.C,C9*%
X49250000Y-34480000D03*
X49250000Y-33520000D03*
%TD*%
D32*
%TO.C,J2*%
X59970000Y-60400000D03*
X59970000Y-59400000D03*
X59970000Y-58400000D03*
D33*
X62490000Y-57100000D03*
X62490000Y-61700000D03*
%TD*%
D26*
%TO.C,C15*%
X40980000Y-45637500D03*
X40020000Y-45637500D03*
%TD*%
%TO.C,C14*%
X40000000Y-50012500D03*
X39040000Y-50012500D03*
%TD*%
D34*
%TO.C,D11*%
X37950000Y-73000000D03*
X37950000Y-77000000D03*
%TD*%
D35*
%TO.C,R1*%
X54010000Y-50262500D03*
X52990000Y-50262500D03*
%TD*%
D36*
%TO.C,R17*%
X94925000Y-77900000D03*
X96575000Y-77900000D03*
%TD*%
D37*
%TO.C,U2*%
X33295000Y-59737500D03*
X34565000Y-59737500D03*
X35835000Y-59737500D03*
X37105000Y-59737500D03*
X37105000Y-52537500D03*
X35835000Y-52537500D03*
X34565000Y-52537500D03*
X33295000Y-52537500D03*
%TD*%
D21*
%TO.C,D6*%
X43012500Y-40000000D03*
X44587500Y-40000000D03*
%TD*%
D29*
%TO.C,C24*%
X54000000Y-33800000D03*
X54000000Y-32250000D03*
%TD*%
D21*
%TO.C,D5*%
X24912500Y-50100000D03*
X26487500Y-50100000D03*
%TD*%
D14*
%TO.C,C17*%
X47800000Y-54120000D03*
X47800000Y-55080000D03*
%TD*%
%TO.C,C6*%
X54800000Y-72920000D03*
X54800000Y-73880000D03*
%TD*%
D12*
%TO.C,R9*%
X96500000Y-79575000D03*
X96500000Y-81225000D03*
%TD*%
D14*
%TO.C,C3*%
X57000000Y-49282500D03*
X57000000Y-50242500D03*
%TD*%
%TO.C,C11*%
X99000000Y-83770000D03*
X99000000Y-84730000D03*
%TD*%
D38*
%TO.C,IC2*%
X102075000Y-82500000D03*
X102075000Y-82000000D03*
X102075000Y-81500000D03*
X102075000Y-81000000D03*
X98925000Y-81000000D03*
X98925000Y-81500000D03*
X98925000Y-82000000D03*
X98925000Y-82500000D03*
%TD*%
D17*
%TO.C,R27*%
X21525000Y-52000000D03*
X19875000Y-52000000D03*
%TD*%
D12*
%TO.C,R13*%
X41200000Y-39975000D03*
X41200000Y-41625000D03*
%TD*%
D39*
%TO.C,C5*%
X50100000Y-76550000D03*
X50100000Y-78450000D03*
%TD*%
D26*
%TO.C,C13*%
X40980000Y-46887500D03*
X40020000Y-46887500D03*
%TD*%
D40*
%TO.C,D10*%
X53387500Y-53600000D03*
X51812500Y-53600000D03*
%TD*%
D26*
%TO.C,C7*%
X58780000Y-69100000D03*
X57820000Y-69100000D03*
%TD*%
D30*
%TO.C,D9*%
X50800000Y-40612500D03*
X50800000Y-42187500D03*
%TD*%
D12*
%TO.C,R18*%
X55200000Y-53775000D03*
X55200000Y-55425000D03*
%TD*%
D41*
%TO.C,R24*%
X25200000Y-59387500D03*
X25200000Y-61212500D03*
%TD*%
D29*
%TO.C,C8*%
X58200000Y-65975000D03*
X58200000Y-64425000D03*
%TD*%
D42*
%TO.C,R4*%
X74000000Y-69190000D03*
X74000000Y-70210000D03*
%TD*%
D14*
%TO.C,C10*%
X102250000Y-83770000D03*
X102250000Y-84730000D03*
%TD*%
D26*
%TO.C,C16*%
X43480000Y-54187500D03*
X42520000Y-54187500D03*
%TD*%
D43*
%TO.C,Y1*%
X61375000Y-52637500D03*
X61375000Y-50337500D03*
X59625000Y-50337500D03*
X59625000Y-52637500D03*
%TD*%
D31*
%TO.C,C18*%
X53020000Y-49012500D03*
X53980000Y-49012500D03*
%TD*%
D20*
%TO.C,R16*%
X52500000Y-40425000D03*
X52500000Y-38775000D03*
%TD*%
D13*
%TO.C,R3*%
X74200000Y-74140000D03*
X74200000Y-73120000D03*
%TD*%
D44*
%TO.C,J1*%
X58800002Y-41700000D03*
X59800002Y-41700000D03*
X60800002Y-41700000D03*
D45*
X62100002Y-44220000D03*
X57500002Y-44220000D03*
%TD*%
D12*
%TO.C,R10*%
X104000000Y-79675000D03*
X104000000Y-81325000D03*
%TD*%
D46*
%TO.C,U1*%
X45900000Y-50000000D03*
X47500000Y-50000000D03*
X45900000Y-48400000D03*
X47500000Y-48400000D03*
D47*
X44100000Y-52637500D03*
X44500000Y-52637500D03*
X44900000Y-52637500D03*
X45300000Y-52637500D03*
X45700000Y-52637500D03*
X46100000Y-52637500D03*
X46500000Y-52637500D03*
X46900000Y-52637500D03*
X47300000Y-52637500D03*
X47700000Y-52637500D03*
X48100000Y-52637500D03*
X48500000Y-52637500D03*
X48900000Y-52637500D03*
X49300000Y-52637500D03*
D48*
X50137500Y-51800000D03*
X50137500Y-51400000D03*
X50137500Y-51000000D03*
X50137500Y-50600000D03*
X50137500Y-50200000D03*
X50137500Y-49800000D03*
X50137500Y-49400000D03*
X50137500Y-49000000D03*
X50137500Y-48600000D03*
X50137500Y-48200000D03*
X50137500Y-47800000D03*
X50137500Y-47400000D03*
X50137500Y-47000000D03*
X50137500Y-46600000D03*
D47*
X49300000Y-45762500D03*
X48900000Y-45762500D03*
X48500000Y-45762500D03*
X48100000Y-45762500D03*
X47700000Y-45762500D03*
X47300000Y-45762500D03*
X46900000Y-45762500D03*
X46500000Y-45762500D03*
X46100000Y-45762500D03*
X45700000Y-45762500D03*
X45300000Y-45762500D03*
X44900000Y-45762500D03*
X44500000Y-45762500D03*
X44100000Y-45762500D03*
D48*
X43262500Y-46600000D03*
X43262500Y-47000000D03*
X43262500Y-47400000D03*
X43262500Y-47800000D03*
X43262500Y-48200000D03*
X43262500Y-48600000D03*
X43262500Y-49000000D03*
X43262500Y-49400000D03*
X43262500Y-49800000D03*
X43262500Y-50200000D03*
X43262500Y-50600000D03*
X43262500Y-51000000D03*
X43262500Y-51400000D03*
X43262500Y-51800000D03*
%TD*%
D15*
%TO.C,C19*%
X47750000Y-44242500D03*
X47750000Y-43282500D03*
%TD*%
D17*
%TO.C,R11*%
X105575000Y-83000000D03*
X103925000Y-83000000D03*
%TD*%
D12*
%TO.C,R26*%
X25200000Y-55275000D03*
X25200000Y-56925000D03*
%TD*%
D26*
%TO.C,C22*%
X40980000Y-44387500D03*
X40020000Y-44387500D03*
%TD*%
D11*
%TO.C,D2*%
X72400000Y-74237500D03*
X72400000Y-72662500D03*
%TD*%
D12*
%TO.C,R7*%
X42000000Y-33925000D03*
X42000000Y-35575000D03*
%TD*%
D30*
%TO.C,D3*%
X72400000Y-69212500D03*
X72400000Y-70787500D03*
%TD*%
D49*
%TO.C,R15*%
X111000000Y-82912500D03*
X111000000Y-81087500D03*
%TD*%
D12*
%TO.C,R19*%
X107250000Y-73500000D03*
X107250000Y-75150000D03*
%TD*%
D20*
%TO.C,R23*%
X47500000Y-35325000D03*
X47500000Y-33675000D03*
%TD*%
D13*
%TO.C,R30*%
X75500000Y-74140000D03*
X75500000Y-73120000D03*
%TD*%
D42*
%TO.C,R20*%
X109100000Y-73490000D03*
X109100000Y-74510000D03*
%TD*%
D15*
%TO.C,C20*%
X44000000Y-43992500D03*
X44000000Y-43032500D03*
%TD*%
D36*
%TO.C,R28*%
X63875000Y-50200000D03*
X65525000Y-50200000D03*
%TD*%
D21*
%TO.C,D7*%
X25912500Y-48200000D03*
X27487500Y-48200000D03*
%TD*%
M02*
