%TF.GenerationSoftware,KiCad,Pcbnew,8.0.2*%
%TF.CreationDate,2024-11-25T11:24:25-06:00*%
%TF.ProjectId,LampBoardModule,4c616d70-426f-4617-9264-4d6f64756c65,rev?*%
%TF.SameCoordinates,Original*%
%TF.FileFunction,Paste,Top*%
%TF.FilePolarity,Positive*%
%FSLAX46Y46*%
G04 Gerber Fmt 4.6, Leading zero omitted, Abs format (unit mm)*
G04 Created by KiCad (PCBNEW 8.0.2) date 2024-11-25 11:24:25*
%MOMM*%
%LPD*%
G01*
G04 APERTURE LIST*
G04 Aperture macros list*
%AMRoundRect*
0 Rectangle with rounded corners*
0 $1 Rounding radius*
0 $2 $3 $4 $5 $6 $7 $8 $9 X,Y pos of 4 corners*
0 Add a 4 corners polygon primitive as box body*
4,1,4,$2,$3,$4,$5,$6,$7,$8,$9,$2,$3,0*
0 Add four circle primitives for the rounded corners*
1,1,$1+$1,$2,$3*
1,1,$1+$1,$4,$5*
1,1,$1+$1,$6,$7*
1,1,$1+$1,$8,$9*
0 Add four rect primitives between the rounded corners*
20,1,$1+$1,$2,$3,$4,$5,0*
20,1,$1+$1,$4,$5,$6,$7,0*
20,1,$1+$1,$6,$7,$8,$9,0*
20,1,$1+$1,$8,$9,$2,$3,0*%
G04 Aperture macros list end*
%ADD10C,0.000000*%
%ADD11RoundRect,0.250000X-0.262500X-0.450000X0.262500X-0.450000X0.262500X0.450000X-0.262500X0.450000X0*%
%ADD12RoundRect,0.250000X0.262500X0.450000X-0.262500X0.450000X-0.262500X-0.450000X0.262500X-0.450000X0*%
%ADD13RoundRect,0.135000X-0.185000X0.135000X-0.185000X-0.135000X0.185000X-0.135000X0.185000X0.135000X0*%
%ADD14RoundRect,0.200000X-0.275000X0.200000X-0.275000X-0.200000X0.275000X-0.200000X0.275000X0.200000X0*%
%ADD15RoundRect,0.200000X-0.200000X-0.275000X0.200000X-0.275000X0.200000X0.275000X-0.200000X0.275000X0*%
%ADD16RoundRect,0.135000X-0.135000X-0.185000X0.135000X-0.185000X0.135000X0.185000X-0.135000X0.185000X0*%
%ADD17RoundRect,0.140000X-0.140000X-0.170000X0.140000X-0.170000X0.140000X0.170000X-0.140000X0.170000X0*%
%ADD18RoundRect,0.140000X0.170000X-0.140000X0.170000X0.140000X-0.170000X0.140000X-0.170000X-0.140000X0*%
%ADD19RoundRect,0.140000X0.140000X0.170000X-0.140000X0.170000X-0.140000X-0.170000X0.140000X-0.170000X0*%
%ADD20RoundRect,0.250000X0.250000X0.475000X-0.250000X0.475000X-0.250000X-0.475000X0.250000X-0.475000X0*%
%ADD21RoundRect,0.218750X0.218750X0.256250X-0.218750X0.256250X-0.218750X-0.256250X0.218750X-0.256250X0*%
%ADD22RoundRect,0.200000X0.275000X-0.200000X0.275000X0.200000X-0.275000X0.200000X-0.275000X-0.200000X0*%
%ADD23R,0.700000X1.250000*%
%ADD24R,3.500000X1.600000*%
%ADD25R,9.750000X12.200000*%
%ADD26RoundRect,0.218750X-0.218750X-0.256250X0.218750X-0.256250X0.218750X0.256250X-0.218750X0.256250X0*%
%ADD27RoundRect,0.250000X-1.000000X-0.650000X1.000000X-0.650000X1.000000X0.650000X-1.000000X0.650000X0*%
%ADD28R,0.590000X1.300000*%
%ADD29RoundRect,0.200000X0.200000X0.275000X-0.200000X0.275000X-0.200000X-0.275000X0.200000X-0.275000X0*%
%ADD30RoundRect,0.140000X-0.170000X0.140000X-0.170000X-0.140000X0.170000X-0.140000X0.170000X0.140000X0*%
%ADD31RoundRect,0.225000X0.250000X-0.225000X0.250000X0.225000X-0.250000X0.225000X-0.250000X-0.225000X0*%
%ADD32RoundRect,0.218750X0.256250X-0.218750X0.256250X0.218750X-0.256250X0.218750X-0.256250X-0.218750X0*%
%ADD33RoundRect,0.250000X1.000000X0.650000X-1.000000X0.650000X-1.000000X-0.650000X1.000000X-0.650000X0*%
%ADD34RoundRect,0.150000X0.650000X0.150000X-0.650000X0.150000X-0.650000X-0.150000X0.650000X-0.150000X0*%
%ADD35R,1.600200X0.914400*%
%ADD36R,1.700000X3.250000*%
%ADD37R,0.300000X0.850000*%
%ADD38R,1.300000X1.050000*%
%ADD39RoundRect,0.249999X0.395001X0.395001X-0.395001X0.395001X-0.395001X-0.395001X0.395001X-0.395001X0*%
%ADD40RoundRect,0.050000X0.387500X0.050000X-0.387500X0.050000X-0.387500X-0.050000X0.387500X-0.050000X0*%
%ADD41RoundRect,0.050000X0.050000X0.387500X-0.050000X0.387500X-0.050000X-0.387500X0.050000X-0.387500X0*%
%ADD42RoundRect,0.218750X-0.256250X0.218750X-0.256250X-0.218750X0.256250X-0.218750X0.256250X0.218750X0*%
G04 APERTURE END LIST*
D10*
%TO.C,CR1*%
G36*
X93612400Y-86278700D02*
G01*
X92012200Y-86278700D01*
X92012200Y-83078300D01*
X93612400Y-83078300D01*
X93612400Y-86278700D01*
G37*
%TD*%
D11*
%TO.C,R24*%
X48337500Y-118400000D03*
X50162500Y-118400000D03*
%TD*%
D12*
%TO.C,R15*%
X81912500Y-91800000D03*
X80087500Y-91800000D03*
%TD*%
D13*
%TO.C,R30*%
X54700000Y-80110000D03*
X54700000Y-81130000D03*
%TD*%
D14*
%TO.C,R29*%
X71800000Y-92175000D03*
X71800000Y-93825000D03*
%TD*%
D15*
%TO.C,R28*%
X73125000Y-109500000D03*
X71475000Y-109500000D03*
%TD*%
D16*
%TO.C,R20*%
X96215000Y-91000000D03*
X97235000Y-91000000D03*
%TD*%
D13*
%TO.C,R4*%
X114200000Y-80290000D03*
X114200000Y-81310000D03*
%TD*%
%TO.C,R3*%
X56000000Y-80110000D03*
X56000000Y-81130000D03*
%TD*%
D17*
%TO.C,C11*%
X78970000Y-98900000D03*
X79930000Y-98900000D03*
%TD*%
%TO.C,C10*%
X78970000Y-95975000D03*
X79930000Y-95975000D03*
%TD*%
D18*
%TO.C,C9*%
X101400000Y-112280000D03*
X101400000Y-111320000D03*
%TD*%
D17*
%TO.C,C7*%
X99532700Y-80178500D03*
X100492700Y-80178500D03*
%TD*%
D19*
%TO.C,C6*%
X58730000Y-86500000D03*
X57770000Y-86500000D03*
%TD*%
D20*
%TO.C,C5*%
X59550000Y-96900000D03*
X57650000Y-96900000D03*
%TD*%
D17*
%TO.C,C1*%
X88270000Y-128000000D03*
X89230000Y-128000000D03*
%TD*%
D21*
%TO.C,D8*%
X81787500Y-89900000D03*
X80212500Y-89900000D03*
%TD*%
D22*
%TO.C,R6*%
X118600000Y-94625000D03*
X118600000Y-92975000D03*
%TD*%
D17*
%TO.C,C2*%
X88395000Y-102200000D03*
X89355000Y-102200000D03*
%TD*%
D23*
%TO.C,Q1*%
X93850000Y-91000000D03*
X91950000Y-91000000D03*
X92900000Y-93000000D03*
%TD*%
D15*
%TO.C,R12*%
X112462500Y-118140000D03*
X114112500Y-118140000D03*
%TD*%
D24*
%TO.C,IC1*%
X58741000Y-94040000D03*
X58741000Y-88960000D03*
D25*
X48466000Y-91500000D03*
%TD*%
D14*
%TO.C,R2*%
X69900000Y-92175000D03*
X69900000Y-93825000D03*
%TD*%
D26*
%TO.C,D13*%
X73212500Y-114900000D03*
X74787500Y-114900000D03*
%TD*%
D27*
%TO.C,D12*%
X64500000Y-97000000D03*
X68500000Y-97000000D03*
%TD*%
D15*
%TO.C,R14*%
X112462500Y-120140000D03*
X114112500Y-120140000D03*
%TD*%
D28*
%TO.C,U4*%
X55520000Y-116250000D03*
X52980000Y-116250000D03*
X52980000Y-122550000D03*
X55520000Y-122550000D03*
%TD*%
D22*
%TO.C,R22*%
X109000000Y-94325000D03*
X109000000Y-92675000D03*
%TD*%
D29*
%TO.C,R5*%
X76725000Y-109500000D03*
X75075000Y-109500000D03*
%TD*%
D30*
%TO.C,C21*%
X84375000Y-119220000D03*
X84375000Y-120180000D03*
%TD*%
D14*
%TO.C,R21*%
X115000000Y-92675000D03*
X115000000Y-94325000D03*
%TD*%
D28*
%TO.C,U3*%
X95130000Y-102150000D03*
X97670000Y-102150000D03*
X97670000Y-95850000D03*
X95130000Y-95850000D03*
%TD*%
D15*
%TO.C,R8*%
X119575000Y-115200000D03*
X121225000Y-115200000D03*
%TD*%
D31*
%TO.C,C23*%
X113000000Y-92775000D03*
X113000000Y-91225000D03*
%TD*%
D32*
%TO.C,D1*%
X67900000Y-93787500D03*
X67900000Y-92212500D03*
%TD*%
D18*
%TO.C,C12*%
X83200000Y-106180000D03*
X83200000Y-105220000D03*
%TD*%
D21*
%TO.C,D4*%
X76587500Y-107700000D03*
X75012500Y-107700000D03*
%TD*%
D30*
%TO.C,C15*%
X81250000Y-118220000D03*
X81250000Y-119180000D03*
%TD*%
%TO.C,C14*%
X85625000Y-119200000D03*
X85625000Y-120160000D03*
%TD*%
D33*
%TO.C,D11*%
X50000000Y-112750000D03*
X46000000Y-112750000D03*
%TD*%
D13*
%TO.C,R1*%
X85875000Y-105190000D03*
X85875000Y-106210000D03*
%TD*%
D22*
%TO.C,R17*%
X100200000Y-102225000D03*
X100200000Y-100575000D03*
%TD*%
D34*
%TO.C,U2*%
X95350000Y-125905000D03*
X95350000Y-124635000D03*
X95350000Y-123365000D03*
X95350000Y-122095000D03*
X88150000Y-122095000D03*
X88150000Y-123365000D03*
X88150000Y-124635000D03*
X88150000Y-125905000D03*
%TD*%
D21*
%TO.C,D6*%
X110075000Y-116100000D03*
X108500000Y-116100000D03*
%TD*%
D31*
%TO.C,C24*%
X111000000Y-92775000D03*
X111000000Y-91225000D03*
%TD*%
D21*
%TO.C,D5*%
X110075000Y-118100000D03*
X108500000Y-118100000D03*
%TD*%
D17*
%TO.C,C17*%
X89720000Y-111200000D03*
X90680000Y-111200000D03*
%TD*%
D22*
%TO.C,R9*%
X72950000Y-99550000D03*
X72950000Y-97900000D03*
%TD*%
D17*
%TO.C,C3*%
X84895000Y-102200000D03*
X85855000Y-102200000D03*
%TD*%
D35*
%TO.C,CR1*%
X99213100Y-86978500D03*
D36*
X92762700Y-84678500D03*
D35*
X99213100Y-84678500D03*
X99213100Y-82378500D03*
%TD*%
D37*
%TO.C,IC2*%
X76950000Y-95825000D03*
X76450000Y-95825000D03*
X75950000Y-95825000D03*
X75450000Y-95825000D03*
X75450000Y-98975000D03*
X75950000Y-98975000D03*
X76450000Y-98975000D03*
X76950000Y-98975000D03*
%TD*%
D29*
%TO.C,R27*%
X71325000Y-114900000D03*
X69675000Y-114900000D03*
%TD*%
D15*
%TO.C,R13*%
X112462500Y-116140000D03*
X114112500Y-116140000D03*
%TD*%
D30*
%TO.C,C13*%
X82500000Y-118220000D03*
X82500000Y-119180000D03*
%TD*%
D21*
%TO.C,D10*%
X110075000Y-122100000D03*
X108500000Y-122100000D03*
%TD*%
D26*
%TO.C,D9*%
X73112500Y-112800000D03*
X74687500Y-112800000D03*
%TD*%
D15*
%TO.C,R18*%
X112462500Y-122140000D03*
X114112500Y-122140000D03*
%TD*%
D30*
%TO.C,C16*%
X89800000Y-115720000D03*
X89800000Y-116680000D03*
%TD*%
D38*
%TO.C,Y1*%
X88250000Y-97825000D03*
X85950000Y-97825000D03*
X85950000Y-99575000D03*
X88250000Y-99575000D03*
%TD*%
D18*
%TO.C,C18*%
X84625000Y-106180000D03*
X84625000Y-105220000D03*
%TD*%
D29*
%TO.C,R16*%
X71325000Y-112800000D03*
X69675000Y-112800000D03*
%TD*%
D15*
%TO.C,R10*%
X73875000Y-93900000D03*
X75525000Y-93900000D03*
%TD*%
D39*
%TO.C,U1*%
X85612500Y-113300000D03*
X85612500Y-111700000D03*
X84012500Y-113300000D03*
X84012500Y-111700000D03*
D40*
X88250000Y-115100000D03*
X88250000Y-114700000D03*
X88250000Y-114300000D03*
X88250000Y-113900000D03*
X88250000Y-113500000D03*
X88250000Y-113100000D03*
X88250000Y-112700000D03*
X88250000Y-112300000D03*
X88250000Y-111900000D03*
X88250000Y-111500000D03*
X88250000Y-111100000D03*
X88250000Y-110700000D03*
X88250000Y-110300000D03*
X88250000Y-109900000D03*
D41*
X87412500Y-109062500D03*
X87012500Y-109062500D03*
X86612500Y-109062500D03*
X86212500Y-109062500D03*
X85812500Y-109062500D03*
X85412500Y-109062500D03*
X85012500Y-109062500D03*
X84612500Y-109062500D03*
X84212500Y-109062500D03*
X83812500Y-109062500D03*
X83412500Y-109062500D03*
X83012500Y-109062500D03*
X82612500Y-109062500D03*
X82212500Y-109062500D03*
D40*
X81375000Y-109900000D03*
X81375000Y-110300000D03*
X81375000Y-110700000D03*
X81375000Y-111100000D03*
X81375000Y-111500000D03*
X81375000Y-111900000D03*
X81375000Y-112300000D03*
X81375000Y-112700000D03*
X81375000Y-113100000D03*
X81375000Y-113500000D03*
X81375000Y-113900000D03*
X81375000Y-114300000D03*
X81375000Y-114700000D03*
X81375000Y-115100000D03*
D41*
X82212500Y-115937500D03*
X82612500Y-115937500D03*
X83012500Y-115937500D03*
X83412500Y-115937500D03*
X83812500Y-115937500D03*
X84212500Y-115937500D03*
X84612500Y-115937500D03*
X85012500Y-115937500D03*
X85412500Y-115937500D03*
X85812500Y-115937500D03*
X86212500Y-115937500D03*
X86612500Y-115937500D03*
X87012500Y-115937500D03*
X87412500Y-115937500D03*
%TD*%
D19*
%TO.C,C19*%
X79855000Y-111450000D03*
X78895000Y-111450000D03*
%TD*%
D31*
%TO.C,C8*%
X101512700Y-84675000D03*
X101512700Y-83125000D03*
%TD*%
D14*
%TO.C,R11*%
X77700000Y-92575000D03*
X77700000Y-94225000D03*
%TD*%
D29*
%TO.C,R26*%
X50075000Y-120650000D03*
X48425000Y-120650000D03*
%TD*%
D30*
%TO.C,C22*%
X80000000Y-118220000D03*
X80000000Y-119180000D03*
%TD*%
D42*
%TO.C,D2*%
X57800000Y-80012500D03*
X57800000Y-81587500D03*
%TD*%
D22*
%TO.C,R7*%
X120800000Y-94625000D03*
X120800000Y-92975000D03*
%TD*%
D42*
%TO.C,D3*%
X112200000Y-80312500D03*
X112200000Y-81887500D03*
%TD*%
D15*
%TO.C,R19*%
X95900000Y-93000000D03*
X97550000Y-93000000D03*
%TD*%
D22*
%TO.C,R23*%
X103200000Y-112325000D03*
X103200000Y-110675000D03*
%TD*%
D19*
%TO.C,C20*%
X79605000Y-115200000D03*
X78645000Y-115200000D03*
%TD*%
D21*
%TO.C,D7*%
X110075000Y-120100000D03*
X108500000Y-120100000D03*
%TD*%
D12*
%TO.C,R25*%
X57162500Y-114250000D03*
X55337500Y-114250000D03*
%TD*%
D13*
%TO.C,R31*%
X53400000Y-80090000D03*
X53400000Y-81110000D03*
%TD*%
M02*
