%TF.GenerationSoftware,KiCad,Pcbnew,8.0.2*%
%TF.CreationDate,2024-12-31T23:00:35-06:00*%
%TF.ProjectId,LampBoardModule,4c616d70-426f-4617-9264-4d6f64756c65,rev?*%
%TF.SameCoordinates,Original*%
%TF.FileFunction,Legend,Top*%
%TF.FilePolarity,Positive*%
%FSLAX46Y46*%
G04 Gerber Fmt 4.6, Leading zero omitted, Abs format (unit mm)*
G04 Created by KiCad (PCBNEW 8.0.2) date 2024-12-31 23:00:35*
%MOMM*%
%LPD*%
G01*
G04 APERTURE LIST*
%ADD10C,0.200000*%
%ADD11C,0.150000*%
%ADD12C,0.254000*%
%ADD13C,0.120000*%
%ADD14C,0.500000*%
%ADD15C,0.100000*%
%ADD16C,0.250000*%
%ADD17C,0.000000*%
G04 APERTURE END LIST*
D10*
X60345863Y-79867219D02*
X59869673Y-79867219D01*
X59869673Y-79867219D02*
X59822054Y-80343409D01*
X59822054Y-80343409D02*
X59869673Y-80295790D01*
X59869673Y-80295790D02*
X59964911Y-80248171D01*
X59964911Y-80248171D02*
X60203006Y-80248171D01*
X60203006Y-80248171D02*
X60298244Y-80295790D01*
X60298244Y-80295790D02*
X60345863Y-80343409D01*
X60345863Y-80343409D02*
X60393482Y-80438647D01*
X60393482Y-80438647D02*
X60393482Y-80676742D01*
X60393482Y-80676742D02*
X60345863Y-80771980D01*
X60345863Y-80771980D02*
X60298244Y-80819600D01*
X60298244Y-80819600D02*
X60203006Y-80867219D01*
X60203006Y-80867219D02*
X59964911Y-80867219D01*
X59964911Y-80867219D02*
X59869673Y-80819600D01*
X59869673Y-80819600D02*
X59822054Y-80771980D01*
X60679197Y-79867219D02*
X61012530Y-80867219D01*
X61012530Y-80867219D02*
X61345863Y-79867219D01*
X49422054Y-117262457D02*
X49469673Y-117214838D01*
X49469673Y-117214838D02*
X49564911Y-117167219D01*
X49564911Y-117167219D02*
X49803006Y-117167219D01*
X49803006Y-117167219D02*
X49898244Y-117214838D01*
X49898244Y-117214838D02*
X49945863Y-117262457D01*
X49945863Y-117262457D02*
X49993482Y-117357695D01*
X49993482Y-117357695D02*
X49993482Y-117452933D01*
X49993482Y-117452933D02*
X49945863Y-117595790D01*
X49945863Y-117595790D02*
X49374435Y-118167219D01*
X49374435Y-118167219D02*
X49993482Y-118167219D01*
X50850625Y-117500552D02*
X50850625Y-118167219D01*
X50612530Y-117119600D02*
X50374435Y-117833885D01*
X50374435Y-117833885D02*
X50993482Y-117833885D01*
X51231578Y-117167219D02*
X51564911Y-118167219D01*
X51564911Y-118167219D02*
X51898244Y-117167219D01*
X116945863Y-122267219D02*
X116469673Y-122267219D01*
X116469673Y-122267219D02*
X116469673Y-121267219D01*
X117279197Y-121743409D02*
X117612530Y-121743409D01*
X117755387Y-122267219D02*
X117279197Y-122267219D01*
X117279197Y-122267219D02*
X117279197Y-121267219D01*
X117279197Y-121267219D02*
X117755387Y-121267219D01*
X118183959Y-122267219D02*
X118183959Y-121267219D01*
X118183959Y-121267219D02*
X118422054Y-121267219D01*
X118422054Y-121267219D02*
X118564911Y-121314838D01*
X118564911Y-121314838D02*
X118660149Y-121410076D01*
X118660149Y-121410076D02*
X118707768Y-121505314D01*
X118707768Y-121505314D02*
X118755387Y-121695790D01*
X118755387Y-121695790D02*
X118755387Y-121838647D01*
X118755387Y-121838647D02*
X118707768Y-122029123D01*
X118707768Y-122029123D02*
X118660149Y-122124361D01*
X118660149Y-122124361D02*
X118564911Y-122219600D01*
X118564911Y-122219600D02*
X118422054Y-122267219D01*
X118422054Y-122267219D02*
X118183959Y-122267219D01*
X119945864Y-121743409D02*
X120279197Y-121743409D01*
X120422054Y-122267219D02*
X119945864Y-122267219D01*
X119945864Y-122267219D02*
X119945864Y-121267219D01*
X119945864Y-121267219D02*
X120422054Y-121267219D01*
X120850626Y-121600552D02*
X120850626Y-122267219D01*
X120850626Y-121695790D02*
X120898245Y-121648171D01*
X120898245Y-121648171D02*
X120993483Y-121600552D01*
X120993483Y-121600552D02*
X121136340Y-121600552D01*
X121136340Y-121600552D02*
X121231578Y-121648171D01*
X121231578Y-121648171D02*
X121279197Y-121743409D01*
X121279197Y-121743409D02*
X121279197Y-122267219D01*
X70872054Y-108519600D02*
X71014911Y-108567219D01*
X71014911Y-108567219D02*
X71253006Y-108567219D01*
X71253006Y-108567219D02*
X71348244Y-108519600D01*
X71348244Y-108519600D02*
X71395863Y-108471980D01*
X71395863Y-108471980D02*
X71443482Y-108376742D01*
X71443482Y-108376742D02*
X71443482Y-108281504D01*
X71443482Y-108281504D02*
X71395863Y-108186266D01*
X71395863Y-108186266D02*
X71348244Y-108138647D01*
X71348244Y-108138647D02*
X71253006Y-108091028D01*
X71253006Y-108091028D02*
X71062530Y-108043409D01*
X71062530Y-108043409D02*
X70967292Y-107995790D01*
X70967292Y-107995790D02*
X70919673Y-107948171D01*
X70919673Y-107948171D02*
X70872054Y-107852933D01*
X70872054Y-107852933D02*
X70872054Y-107757695D01*
X70872054Y-107757695D02*
X70919673Y-107662457D01*
X70919673Y-107662457D02*
X70967292Y-107614838D01*
X70967292Y-107614838D02*
X71062530Y-107567219D01*
X71062530Y-107567219D02*
X71300625Y-107567219D01*
X71300625Y-107567219D02*
X71443482Y-107614838D01*
X71776816Y-107567219D02*
X72014911Y-108567219D01*
X72014911Y-108567219D02*
X72205387Y-107852933D01*
X72205387Y-107852933D02*
X72395863Y-108567219D01*
X72395863Y-108567219D02*
X72633959Y-107567219D01*
X73014911Y-108567219D02*
X73014911Y-107567219D01*
X73014911Y-107567219D02*
X73253006Y-107567219D01*
X73253006Y-107567219D02*
X73395863Y-107614838D01*
X73395863Y-107614838D02*
X73491101Y-107710076D01*
X73491101Y-107710076D02*
X73538720Y-107805314D01*
X73538720Y-107805314D02*
X73586339Y-107995790D01*
X73586339Y-107995790D02*
X73586339Y-108138647D01*
X73586339Y-108138647D02*
X73538720Y-108329123D01*
X73538720Y-108329123D02*
X73491101Y-108424361D01*
X73491101Y-108424361D02*
X73395863Y-108519600D01*
X73395863Y-108519600D02*
X73253006Y-108567219D01*
X73253006Y-108567219D02*
X73014911Y-108567219D01*
X72303006Y-114443409D02*
X72445863Y-114491028D01*
X72445863Y-114491028D02*
X72493482Y-114538647D01*
X72493482Y-114538647D02*
X72541101Y-114633885D01*
X72541101Y-114633885D02*
X72541101Y-114776742D01*
X72541101Y-114776742D02*
X72493482Y-114871980D01*
X72493482Y-114871980D02*
X72445863Y-114919600D01*
X72445863Y-114919600D02*
X72350625Y-114967219D01*
X72350625Y-114967219D02*
X71969673Y-114967219D01*
X71969673Y-114967219D02*
X71969673Y-113967219D01*
X71969673Y-113967219D02*
X72303006Y-113967219D01*
X72303006Y-113967219D02*
X72398244Y-114014838D01*
X72398244Y-114014838D02*
X72445863Y-114062457D01*
X72445863Y-114062457D02*
X72493482Y-114157695D01*
X72493482Y-114157695D02*
X72493482Y-114252933D01*
X72493482Y-114252933D02*
X72445863Y-114348171D01*
X72445863Y-114348171D02*
X72398244Y-114395790D01*
X72398244Y-114395790D02*
X72303006Y-114443409D01*
X72303006Y-114443409D02*
X71969673Y-114443409D01*
X73112530Y-114967219D02*
X73017292Y-114919600D01*
X73017292Y-114919600D02*
X72969673Y-114871980D01*
X72969673Y-114871980D02*
X72922054Y-114776742D01*
X72922054Y-114776742D02*
X72922054Y-114491028D01*
X72922054Y-114491028D02*
X72969673Y-114395790D01*
X72969673Y-114395790D02*
X73017292Y-114348171D01*
X73017292Y-114348171D02*
X73112530Y-114300552D01*
X73112530Y-114300552D02*
X73255387Y-114300552D01*
X73255387Y-114300552D02*
X73350625Y-114348171D01*
X73350625Y-114348171D02*
X73398244Y-114395790D01*
X73398244Y-114395790D02*
X73445863Y-114491028D01*
X73445863Y-114491028D02*
X73445863Y-114776742D01*
X73445863Y-114776742D02*
X73398244Y-114871980D01*
X73398244Y-114871980D02*
X73350625Y-114919600D01*
X73350625Y-114919600D02*
X73255387Y-114967219D01*
X73255387Y-114967219D02*
X73112530Y-114967219D01*
X74017292Y-114967219D02*
X73922054Y-114919600D01*
X73922054Y-114919600D02*
X73874435Y-114871980D01*
X73874435Y-114871980D02*
X73826816Y-114776742D01*
X73826816Y-114776742D02*
X73826816Y-114491028D01*
X73826816Y-114491028D02*
X73874435Y-114395790D01*
X73874435Y-114395790D02*
X73922054Y-114348171D01*
X73922054Y-114348171D02*
X74017292Y-114300552D01*
X74017292Y-114300552D02*
X74160149Y-114300552D01*
X74160149Y-114300552D02*
X74255387Y-114348171D01*
X74255387Y-114348171D02*
X74303006Y-114395790D01*
X74303006Y-114395790D02*
X74350625Y-114491028D01*
X74350625Y-114491028D02*
X74350625Y-114776742D01*
X74350625Y-114776742D02*
X74303006Y-114871980D01*
X74303006Y-114871980D02*
X74255387Y-114919600D01*
X74255387Y-114919600D02*
X74160149Y-114967219D01*
X74160149Y-114967219D02*
X74017292Y-114967219D01*
X74636340Y-114300552D02*
X75017292Y-114300552D01*
X74779197Y-113967219D02*
X74779197Y-114824361D01*
X74779197Y-114824361D02*
X74826816Y-114919600D01*
X74826816Y-114919600D02*
X74922054Y-114967219D01*
X74922054Y-114967219D02*
X75017292Y-114967219D01*
X71503006Y-124233465D02*
X71169673Y-124233465D01*
X71169673Y-124757275D02*
X71169673Y-123757275D01*
X71169673Y-123757275D02*
X71645863Y-123757275D01*
X72026816Y-124757275D02*
X72026816Y-124090608D01*
X72026816Y-123757275D02*
X71979197Y-123804894D01*
X71979197Y-123804894D02*
X72026816Y-123852513D01*
X72026816Y-123852513D02*
X72074435Y-123804894D01*
X72074435Y-123804894D02*
X72026816Y-123757275D01*
X72026816Y-123757275D02*
X72026816Y-123852513D01*
X72455387Y-124709656D02*
X72550625Y-124757275D01*
X72550625Y-124757275D02*
X72741101Y-124757275D01*
X72741101Y-124757275D02*
X72836339Y-124709656D01*
X72836339Y-124709656D02*
X72883958Y-124614417D01*
X72883958Y-124614417D02*
X72883958Y-124566798D01*
X72883958Y-124566798D02*
X72836339Y-124471560D01*
X72836339Y-124471560D02*
X72741101Y-124423941D01*
X72741101Y-124423941D02*
X72598244Y-124423941D01*
X72598244Y-124423941D02*
X72503006Y-124376322D01*
X72503006Y-124376322D02*
X72455387Y-124281084D01*
X72455387Y-124281084D02*
X72455387Y-124233465D01*
X72455387Y-124233465D02*
X72503006Y-124138227D01*
X72503006Y-124138227D02*
X72598244Y-124090608D01*
X72598244Y-124090608D02*
X72741101Y-124090608D01*
X72741101Y-124090608D02*
X72836339Y-124138227D01*
X73312530Y-124757275D02*
X73312530Y-123757275D01*
X73741101Y-124757275D02*
X73741101Y-124233465D01*
X73741101Y-124233465D02*
X73693482Y-124138227D01*
X73693482Y-124138227D02*
X73598244Y-124090608D01*
X73598244Y-124090608D02*
X73455387Y-124090608D01*
X73455387Y-124090608D02*
X73360149Y-124138227D01*
X73360149Y-124138227D02*
X73312530Y-124185846D01*
X74979197Y-124757275D02*
X74979197Y-123757275D01*
X74979197Y-123757275D02*
X75312530Y-124471560D01*
X75312530Y-124471560D02*
X75645863Y-123757275D01*
X75645863Y-123757275D02*
X75645863Y-124757275D01*
X76264911Y-124757275D02*
X76169673Y-124709656D01*
X76169673Y-124709656D02*
X76122054Y-124662036D01*
X76122054Y-124662036D02*
X76074435Y-124566798D01*
X76074435Y-124566798D02*
X76074435Y-124281084D01*
X76074435Y-124281084D02*
X76122054Y-124185846D01*
X76122054Y-124185846D02*
X76169673Y-124138227D01*
X76169673Y-124138227D02*
X76264911Y-124090608D01*
X76264911Y-124090608D02*
X76407768Y-124090608D01*
X76407768Y-124090608D02*
X76503006Y-124138227D01*
X76503006Y-124138227D02*
X76550625Y-124185846D01*
X76550625Y-124185846D02*
X76598244Y-124281084D01*
X76598244Y-124281084D02*
X76598244Y-124566798D01*
X76598244Y-124566798D02*
X76550625Y-124662036D01*
X76550625Y-124662036D02*
X76503006Y-124709656D01*
X76503006Y-124709656D02*
X76407768Y-124757275D01*
X76407768Y-124757275D02*
X76264911Y-124757275D01*
X77455387Y-124757275D02*
X77455387Y-123757275D01*
X77455387Y-124709656D02*
X77360149Y-124757275D01*
X77360149Y-124757275D02*
X77169673Y-124757275D01*
X77169673Y-124757275D02*
X77074435Y-124709656D01*
X77074435Y-124709656D02*
X77026816Y-124662036D01*
X77026816Y-124662036D02*
X76979197Y-124566798D01*
X76979197Y-124566798D02*
X76979197Y-124281084D01*
X76979197Y-124281084D02*
X77026816Y-124185846D01*
X77026816Y-124185846D02*
X77074435Y-124138227D01*
X77074435Y-124138227D02*
X77169673Y-124090608D01*
X77169673Y-124090608D02*
X77360149Y-124090608D01*
X77360149Y-124090608D02*
X77455387Y-124138227D01*
X78360149Y-124090608D02*
X78360149Y-124757275D01*
X77931578Y-124090608D02*
X77931578Y-124614417D01*
X77931578Y-124614417D02*
X77979197Y-124709656D01*
X77979197Y-124709656D02*
X78074435Y-124757275D01*
X78074435Y-124757275D02*
X78217292Y-124757275D01*
X78217292Y-124757275D02*
X78312530Y-124709656D01*
X78312530Y-124709656D02*
X78360149Y-124662036D01*
X78979197Y-124757275D02*
X78883959Y-124709656D01*
X78883959Y-124709656D02*
X78836340Y-124614417D01*
X78836340Y-124614417D02*
X78836340Y-123757275D01*
X79741102Y-124709656D02*
X79645864Y-124757275D01*
X79645864Y-124757275D02*
X79455388Y-124757275D01*
X79455388Y-124757275D02*
X79360150Y-124709656D01*
X79360150Y-124709656D02*
X79312531Y-124614417D01*
X79312531Y-124614417D02*
X79312531Y-124233465D01*
X79312531Y-124233465D02*
X79360150Y-124138227D01*
X79360150Y-124138227D02*
X79455388Y-124090608D01*
X79455388Y-124090608D02*
X79645864Y-124090608D01*
X79645864Y-124090608D02*
X79741102Y-124138227D01*
X79741102Y-124138227D02*
X79788721Y-124233465D01*
X79788721Y-124233465D02*
X79788721Y-124328703D01*
X79788721Y-124328703D02*
X79312531Y-124423941D01*
X71693482Y-126367219D02*
X71122054Y-126367219D01*
X71407768Y-126367219D02*
X71407768Y-125367219D01*
X71407768Y-125367219D02*
X71312530Y-125510076D01*
X71312530Y-125510076D02*
X71217292Y-125605314D01*
X71217292Y-125605314D02*
X71122054Y-125652933D01*
X72074435Y-125462457D02*
X72122054Y-125414838D01*
X72122054Y-125414838D02*
X72217292Y-125367219D01*
X72217292Y-125367219D02*
X72455387Y-125367219D01*
X72455387Y-125367219D02*
X72550625Y-125414838D01*
X72550625Y-125414838D02*
X72598244Y-125462457D01*
X72598244Y-125462457D02*
X72645863Y-125557695D01*
X72645863Y-125557695D02*
X72645863Y-125652933D01*
X72645863Y-125652933D02*
X72598244Y-125795790D01*
X72598244Y-125795790D02*
X72026816Y-126367219D01*
X72026816Y-126367219D02*
X72645863Y-126367219D01*
X73788720Y-125319600D02*
X72931578Y-126605314D01*
X74026816Y-125367219D02*
X74645863Y-125367219D01*
X74645863Y-125367219D02*
X74312530Y-125748171D01*
X74312530Y-125748171D02*
X74455387Y-125748171D01*
X74455387Y-125748171D02*
X74550625Y-125795790D01*
X74550625Y-125795790D02*
X74598244Y-125843409D01*
X74598244Y-125843409D02*
X74645863Y-125938647D01*
X74645863Y-125938647D02*
X74645863Y-126176742D01*
X74645863Y-126176742D02*
X74598244Y-126271980D01*
X74598244Y-126271980D02*
X74550625Y-126319600D01*
X74550625Y-126319600D02*
X74455387Y-126367219D01*
X74455387Y-126367219D02*
X74169673Y-126367219D01*
X74169673Y-126367219D02*
X74074435Y-126319600D01*
X74074435Y-126319600D02*
X74026816Y-126271980D01*
X75598244Y-126367219D02*
X75026816Y-126367219D01*
X75312530Y-126367219D02*
X75312530Y-125367219D01*
X75312530Y-125367219D02*
X75217292Y-125510076D01*
X75217292Y-125510076D02*
X75122054Y-125605314D01*
X75122054Y-125605314D02*
X75026816Y-125652933D01*
X76645864Y-125367219D02*
X76979197Y-126367219D01*
X76979197Y-126367219D02*
X77312530Y-125367219D01*
X77836340Y-125367219D02*
X77931578Y-125367219D01*
X77931578Y-125367219D02*
X78026816Y-125414838D01*
X78026816Y-125414838D02*
X78074435Y-125462457D01*
X78074435Y-125462457D02*
X78122054Y-125557695D01*
X78122054Y-125557695D02*
X78169673Y-125748171D01*
X78169673Y-125748171D02*
X78169673Y-125986266D01*
X78169673Y-125986266D02*
X78122054Y-126176742D01*
X78122054Y-126176742D02*
X78074435Y-126271980D01*
X78074435Y-126271980D02*
X78026816Y-126319600D01*
X78026816Y-126319600D02*
X77931578Y-126367219D01*
X77931578Y-126367219D02*
X77836340Y-126367219D01*
X77836340Y-126367219D02*
X77741102Y-126319600D01*
X77741102Y-126319600D02*
X77693483Y-126271980D01*
X77693483Y-126271980D02*
X77645864Y-126176742D01*
X77645864Y-126176742D02*
X77598245Y-125986266D01*
X77598245Y-125986266D02*
X77598245Y-125748171D01*
X77598245Y-125748171D02*
X77645864Y-125557695D01*
X77645864Y-125557695D02*
X77693483Y-125462457D01*
X77693483Y-125462457D02*
X77741102Y-125414838D01*
X77741102Y-125414838D02*
X77836340Y-125367219D01*
X78598245Y-126271980D02*
X78645864Y-126319600D01*
X78645864Y-126319600D02*
X78598245Y-126367219D01*
X78598245Y-126367219D02*
X78550626Y-126319600D01*
X78550626Y-126319600D02*
X78598245Y-126271980D01*
X78598245Y-126271980D02*
X78598245Y-126367219D01*
X79503006Y-125700552D02*
X79503006Y-126367219D01*
X79264911Y-125319600D02*
X79026816Y-126033885D01*
X79026816Y-126033885D02*
X79645863Y-126033885D01*
X116469673Y-118343409D02*
X116803006Y-118343409D01*
X116945863Y-118867219D02*
X116469673Y-118867219D01*
X116469673Y-118867219D02*
X116469673Y-117867219D01*
X116469673Y-117867219D02*
X116945863Y-117867219D01*
X117374435Y-118200552D02*
X117374435Y-118867219D01*
X117374435Y-118295790D02*
X117422054Y-118248171D01*
X117422054Y-118248171D02*
X117517292Y-118200552D01*
X117517292Y-118200552D02*
X117660149Y-118200552D01*
X117660149Y-118200552D02*
X117755387Y-118248171D01*
X117755387Y-118248171D02*
X117803006Y-118343409D01*
X117803006Y-118343409D02*
X117803006Y-118867219D01*
X118707768Y-118819600D02*
X118612530Y-118867219D01*
X118612530Y-118867219D02*
X118422054Y-118867219D01*
X118422054Y-118867219D02*
X118326816Y-118819600D01*
X118326816Y-118819600D02*
X118279197Y-118771980D01*
X118279197Y-118771980D02*
X118231578Y-118676742D01*
X118231578Y-118676742D02*
X118231578Y-118391028D01*
X118231578Y-118391028D02*
X118279197Y-118295790D01*
X118279197Y-118295790D02*
X118326816Y-118248171D01*
X118326816Y-118248171D02*
X118422054Y-118200552D01*
X118422054Y-118200552D02*
X118612530Y-118200552D01*
X118612530Y-118200552D02*
X118707768Y-118248171D01*
X107974435Y-80667219D02*
X108593482Y-80667219D01*
X108593482Y-80667219D02*
X108260149Y-81048171D01*
X108260149Y-81048171D02*
X108403006Y-81048171D01*
X108403006Y-81048171D02*
X108498244Y-81095790D01*
X108498244Y-81095790D02*
X108545863Y-81143409D01*
X108545863Y-81143409D02*
X108593482Y-81238647D01*
X108593482Y-81238647D02*
X108593482Y-81476742D01*
X108593482Y-81476742D02*
X108545863Y-81571980D01*
X108545863Y-81571980D02*
X108498244Y-81619600D01*
X108498244Y-81619600D02*
X108403006Y-81667219D01*
X108403006Y-81667219D02*
X108117292Y-81667219D01*
X108117292Y-81667219D02*
X108022054Y-81619600D01*
X108022054Y-81619600D02*
X107974435Y-81571980D01*
X109022054Y-81571980D02*
X109069673Y-81619600D01*
X109069673Y-81619600D02*
X109022054Y-81667219D01*
X109022054Y-81667219D02*
X108974435Y-81619600D01*
X108974435Y-81619600D02*
X109022054Y-81571980D01*
X109022054Y-81571980D02*
X109022054Y-81667219D01*
X109403006Y-80667219D02*
X110022053Y-80667219D01*
X110022053Y-80667219D02*
X109688720Y-81048171D01*
X109688720Y-81048171D02*
X109831577Y-81048171D01*
X109831577Y-81048171D02*
X109926815Y-81095790D01*
X109926815Y-81095790D02*
X109974434Y-81143409D01*
X109974434Y-81143409D02*
X110022053Y-81238647D01*
X110022053Y-81238647D02*
X110022053Y-81476742D01*
X110022053Y-81476742D02*
X109974434Y-81571980D01*
X109974434Y-81571980D02*
X109926815Y-81619600D01*
X109926815Y-81619600D02*
X109831577Y-81667219D01*
X109831577Y-81667219D02*
X109545863Y-81667219D01*
X109545863Y-81667219D02*
X109450625Y-81619600D01*
X109450625Y-81619600D02*
X109403006Y-81571980D01*
X110307768Y-80667219D02*
X110641101Y-81667219D01*
X110641101Y-81667219D02*
X110974434Y-80667219D01*
X116803006Y-116743409D02*
X116945863Y-116791028D01*
X116945863Y-116791028D02*
X116993482Y-116838647D01*
X116993482Y-116838647D02*
X117041101Y-116933885D01*
X117041101Y-116933885D02*
X117041101Y-117076742D01*
X117041101Y-117076742D02*
X116993482Y-117171980D01*
X116993482Y-117171980D02*
X116945863Y-117219600D01*
X116945863Y-117219600D02*
X116850625Y-117267219D01*
X116850625Y-117267219D02*
X116469673Y-117267219D01*
X116469673Y-117267219D02*
X116469673Y-116267219D01*
X116469673Y-116267219D02*
X116803006Y-116267219D01*
X116803006Y-116267219D02*
X116898244Y-116314838D01*
X116898244Y-116314838D02*
X116945863Y-116362457D01*
X116945863Y-116362457D02*
X116993482Y-116457695D01*
X116993482Y-116457695D02*
X116993482Y-116552933D01*
X116993482Y-116552933D02*
X116945863Y-116648171D01*
X116945863Y-116648171D02*
X116898244Y-116695790D01*
X116898244Y-116695790D02*
X116803006Y-116743409D01*
X116803006Y-116743409D02*
X116469673Y-116743409D01*
X117326816Y-116600552D02*
X117707768Y-116600552D01*
X117469673Y-116267219D02*
X117469673Y-117124361D01*
X117469673Y-117124361D02*
X117517292Y-117219600D01*
X117517292Y-117219600D02*
X117612530Y-117267219D01*
X117612530Y-117267219D02*
X117707768Y-117267219D01*
X118041102Y-116600552D02*
X118041102Y-117267219D01*
X118041102Y-116695790D02*
X118088721Y-116648171D01*
X118088721Y-116648171D02*
X118183959Y-116600552D01*
X118183959Y-116600552D02*
X118326816Y-116600552D01*
X118326816Y-116600552D02*
X118422054Y-116648171D01*
X118422054Y-116648171D02*
X118469673Y-116743409D01*
X118469673Y-116743409D02*
X118469673Y-117267219D01*
X82469673Y-89867219D02*
X82469673Y-88867219D01*
X82469673Y-88867219D02*
X82707768Y-88867219D01*
X82707768Y-88867219D02*
X82850625Y-88914838D01*
X82850625Y-88914838D02*
X82945863Y-89010076D01*
X82945863Y-89010076D02*
X82993482Y-89105314D01*
X82993482Y-89105314D02*
X83041101Y-89295790D01*
X83041101Y-89295790D02*
X83041101Y-89438647D01*
X83041101Y-89438647D02*
X82993482Y-89629123D01*
X82993482Y-89629123D02*
X82945863Y-89724361D01*
X82945863Y-89724361D02*
X82850625Y-89819600D01*
X82850625Y-89819600D02*
X82707768Y-89867219D01*
X82707768Y-89867219D02*
X82469673Y-89867219D01*
X83898244Y-89867219D02*
X83898244Y-89343409D01*
X83898244Y-89343409D02*
X83850625Y-89248171D01*
X83850625Y-89248171D02*
X83755387Y-89200552D01*
X83755387Y-89200552D02*
X83564911Y-89200552D01*
X83564911Y-89200552D02*
X83469673Y-89248171D01*
X83898244Y-89819600D02*
X83803006Y-89867219D01*
X83803006Y-89867219D02*
X83564911Y-89867219D01*
X83564911Y-89867219D02*
X83469673Y-89819600D01*
X83469673Y-89819600D02*
X83422054Y-89724361D01*
X83422054Y-89724361D02*
X83422054Y-89629123D01*
X83422054Y-89629123D02*
X83469673Y-89533885D01*
X83469673Y-89533885D02*
X83564911Y-89486266D01*
X83564911Y-89486266D02*
X83803006Y-89486266D01*
X83803006Y-89486266D02*
X83898244Y-89438647D01*
X84231578Y-89200552D02*
X84612530Y-89200552D01*
X84374435Y-88867219D02*
X84374435Y-89724361D01*
X84374435Y-89724361D02*
X84422054Y-89819600D01*
X84422054Y-89819600D02*
X84517292Y-89867219D01*
X84517292Y-89867219D02*
X84612530Y-89867219D01*
X85374435Y-89867219D02*
X85374435Y-89343409D01*
X85374435Y-89343409D02*
X85326816Y-89248171D01*
X85326816Y-89248171D02*
X85231578Y-89200552D01*
X85231578Y-89200552D02*
X85041102Y-89200552D01*
X85041102Y-89200552D02*
X84945864Y-89248171D01*
X85374435Y-89819600D02*
X85279197Y-89867219D01*
X85279197Y-89867219D02*
X85041102Y-89867219D01*
X85041102Y-89867219D02*
X84945864Y-89819600D01*
X84945864Y-89819600D02*
X84898245Y-89724361D01*
X84898245Y-89724361D02*
X84898245Y-89629123D01*
X84898245Y-89629123D02*
X84945864Y-89533885D01*
X84945864Y-89533885D02*
X85041102Y-89486266D01*
X85041102Y-89486266D02*
X85279197Y-89486266D01*
X85279197Y-89486266D02*
X85374435Y-89438647D01*
X116469673Y-120367219D02*
X116469673Y-119367219D01*
X116469673Y-119367219D02*
X116803006Y-120081504D01*
X116803006Y-120081504D02*
X117136339Y-119367219D01*
X117136339Y-119367219D02*
X117136339Y-120367219D01*
X118041101Y-119700552D02*
X118041101Y-120510076D01*
X118041101Y-120510076D02*
X117993482Y-120605314D01*
X117993482Y-120605314D02*
X117945863Y-120652933D01*
X117945863Y-120652933D02*
X117850625Y-120700552D01*
X117850625Y-120700552D02*
X117707768Y-120700552D01*
X117707768Y-120700552D02*
X117612530Y-120652933D01*
X118041101Y-120319600D02*
X117945863Y-120367219D01*
X117945863Y-120367219D02*
X117755387Y-120367219D01*
X117755387Y-120367219D02*
X117660149Y-120319600D01*
X117660149Y-120319600D02*
X117612530Y-120271980D01*
X117612530Y-120271980D02*
X117564911Y-120176742D01*
X117564911Y-120176742D02*
X117564911Y-119891028D01*
X117564911Y-119891028D02*
X117612530Y-119795790D01*
X117612530Y-119795790D02*
X117660149Y-119748171D01*
X117660149Y-119748171D02*
X117755387Y-119700552D01*
X117755387Y-119700552D02*
X117945863Y-119700552D01*
X117945863Y-119700552D02*
X118041101Y-119748171D01*
X118517292Y-120367219D02*
X118517292Y-119700552D01*
X118517292Y-119891028D02*
X118564911Y-119795790D01*
X118564911Y-119795790D02*
X118612530Y-119748171D01*
X118612530Y-119748171D02*
X118707768Y-119700552D01*
X118707768Y-119700552D02*
X118803006Y-119700552D01*
D11*
X119054819Y-90466666D02*
X118578628Y-90799999D01*
X119054819Y-91038094D02*
X118054819Y-91038094D01*
X118054819Y-91038094D02*
X118054819Y-90657142D01*
X118054819Y-90657142D02*
X118102438Y-90561904D01*
X118102438Y-90561904D02*
X118150057Y-90514285D01*
X118150057Y-90514285D02*
X118245295Y-90466666D01*
X118245295Y-90466666D02*
X118388152Y-90466666D01*
X118388152Y-90466666D02*
X118483390Y-90514285D01*
X118483390Y-90514285D02*
X118531009Y-90561904D01*
X118531009Y-90561904D02*
X118578628Y-90657142D01*
X118578628Y-90657142D02*
X118578628Y-91038094D01*
X118054819Y-89609523D02*
X118054819Y-89799999D01*
X118054819Y-89799999D02*
X118102438Y-89895237D01*
X118102438Y-89895237D02*
X118150057Y-89942856D01*
X118150057Y-89942856D02*
X118292914Y-90038094D01*
X118292914Y-90038094D02*
X118483390Y-90085713D01*
X118483390Y-90085713D02*
X118864342Y-90085713D01*
X118864342Y-90085713D02*
X118959580Y-90038094D01*
X118959580Y-90038094D02*
X119007200Y-89990475D01*
X119007200Y-89990475D02*
X119054819Y-89895237D01*
X119054819Y-89895237D02*
X119054819Y-89704761D01*
X119054819Y-89704761D02*
X119007200Y-89609523D01*
X119007200Y-89609523D02*
X118959580Y-89561904D01*
X118959580Y-89561904D02*
X118864342Y-89514285D01*
X118864342Y-89514285D02*
X118626247Y-89514285D01*
X118626247Y-89514285D02*
X118531009Y-89561904D01*
X118531009Y-89561904D02*
X118483390Y-89609523D01*
X118483390Y-89609523D02*
X118435771Y-89704761D01*
X118435771Y-89704761D02*
X118435771Y-89895237D01*
X118435771Y-89895237D02*
X118483390Y-89990475D01*
X118483390Y-89990475D02*
X118531009Y-90038094D01*
X118531009Y-90038094D02*
X118626247Y-90085713D01*
X89908333Y-102259580D02*
X89860714Y-102307200D01*
X89860714Y-102307200D02*
X89717857Y-102354819D01*
X89717857Y-102354819D02*
X89622619Y-102354819D01*
X89622619Y-102354819D02*
X89479762Y-102307200D01*
X89479762Y-102307200D02*
X89384524Y-102211961D01*
X89384524Y-102211961D02*
X89336905Y-102116723D01*
X89336905Y-102116723D02*
X89289286Y-101926247D01*
X89289286Y-101926247D02*
X89289286Y-101783390D01*
X89289286Y-101783390D02*
X89336905Y-101592914D01*
X89336905Y-101592914D02*
X89384524Y-101497676D01*
X89384524Y-101497676D02*
X89479762Y-101402438D01*
X89479762Y-101402438D02*
X89622619Y-101354819D01*
X89622619Y-101354819D02*
X89717857Y-101354819D01*
X89717857Y-101354819D02*
X89860714Y-101402438D01*
X89860714Y-101402438D02*
X89908333Y-101450057D01*
X90289286Y-101450057D02*
X90336905Y-101402438D01*
X90336905Y-101402438D02*
X90432143Y-101354819D01*
X90432143Y-101354819D02*
X90670238Y-101354819D01*
X90670238Y-101354819D02*
X90765476Y-101402438D01*
X90765476Y-101402438D02*
X90813095Y-101450057D01*
X90813095Y-101450057D02*
X90860714Y-101545295D01*
X90860714Y-101545295D02*
X90860714Y-101640533D01*
X90860714Y-101640533D02*
X90813095Y-101783390D01*
X90813095Y-101783390D02*
X90241667Y-102354819D01*
X90241667Y-102354819D02*
X90860714Y-102354819D01*
X86633333Y-128659580D02*
X86585714Y-128707200D01*
X86585714Y-128707200D02*
X86442857Y-128754819D01*
X86442857Y-128754819D02*
X86347619Y-128754819D01*
X86347619Y-128754819D02*
X86204762Y-128707200D01*
X86204762Y-128707200D02*
X86109524Y-128611961D01*
X86109524Y-128611961D02*
X86061905Y-128516723D01*
X86061905Y-128516723D02*
X86014286Y-128326247D01*
X86014286Y-128326247D02*
X86014286Y-128183390D01*
X86014286Y-128183390D02*
X86061905Y-127992914D01*
X86061905Y-127992914D02*
X86109524Y-127897676D01*
X86109524Y-127897676D02*
X86204762Y-127802438D01*
X86204762Y-127802438D02*
X86347619Y-127754819D01*
X86347619Y-127754819D02*
X86442857Y-127754819D01*
X86442857Y-127754819D02*
X86585714Y-127802438D01*
X86585714Y-127802438D02*
X86633333Y-127850057D01*
X87585714Y-128754819D02*
X87014286Y-128754819D01*
X87300000Y-128754819D02*
X87300000Y-127754819D01*
X87300000Y-127754819D02*
X87204762Y-127897676D01*
X87204762Y-127897676D02*
X87109524Y-127992914D01*
X87109524Y-127992914D02*
X87014286Y-128040533D01*
X77850057Y-99195238D02*
X77802438Y-99290476D01*
X77802438Y-99290476D02*
X77707200Y-99385714D01*
X77707200Y-99385714D02*
X77564342Y-99528571D01*
X77564342Y-99528571D02*
X77516723Y-99623809D01*
X77516723Y-99623809D02*
X77516723Y-99719047D01*
X77754819Y-99671428D02*
X77707200Y-99766666D01*
X77707200Y-99766666D02*
X77611961Y-99861904D01*
X77611961Y-99861904D02*
X77421485Y-99909523D01*
X77421485Y-99909523D02*
X77088152Y-99909523D01*
X77088152Y-99909523D02*
X76897676Y-99861904D01*
X76897676Y-99861904D02*
X76802438Y-99766666D01*
X76802438Y-99766666D02*
X76754819Y-99671428D01*
X76754819Y-99671428D02*
X76754819Y-99480952D01*
X76754819Y-99480952D02*
X76802438Y-99385714D01*
X76802438Y-99385714D02*
X76897676Y-99290476D01*
X76897676Y-99290476D02*
X77088152Y-99242857D01*
X77088152Y-99242857D02*
X77421485Y-99242857D01*
X77421485Y-99242857D02*
X77611961Y-99290476D01*
X77611961Y-99290476D02*
X77707200Y-99385714D01*
X77707200Y-99385714D02*
X77754819Y-99480952D01*
X77754819Y-99480952D02*
X77754819Y-99671428D01*
X77754819Y-98290476D02*
X77754819Y-98861904D01*
X77754819Y-98576190D02*
X76754819Y-98576190D01*
X76754819Y-98576190D02*
X76897676Y-98671428D01*
X76897676Y-98671428D02*
X76992914Y-98766666D01*
X76992914Y-98766666D02*
X77040533Y-98861904D01*
D12*
X58860237Y-92174318D02*
X58860237Y-90904318D01*
X60190714Y-92053365D02*
X60130238Y-92113842D01*
X60130238Y-92113842D02*
X59948809Y-92174318D01*
X59948809Y-92174318D02*
X59827857Y-92174318D01*
X59827857Y-92174318D02*
X59646428Y-92113842D01*
X59646428Y-92113842D02*
X59525476Y-91992889D01*
X59525476Y-91992889D02*
X59464999Y-91871937D01*
X59464999Y-91871937D02*
X59404523Y-91630032D01*
X59404523Y-91630032D02*
X59404523Y-91448603D01*
X59404523Y-91448603D02*
X59464999Y-91206699D01*
X59464999Y-91206699D02*
X59525476Y-91085746D01*
X59525476Y-91085746D02*
X59646428Y-90964794D01*
X59646428Y-90964794D02*
X59827857Y-90904318D01*
X59827857Y-90904318D02*
X59948809Y-90904318D01*
X59948809Y-90904318D02*
X60130238Y-90964794D01*
X60130238Y-90964794D02*
X60190714Y-91025270D01*
X61400238Y-92174318D02*
X60674523Y-92174318D01*
X61037380Y-92174318D02*
X61037380Y-90904318D01*
X61037380Y-90904318D02*
X60916428Y-91085746D01*
X60916428Y-91085746D02*
X60795476Y-91206699D01*
X60795476Y-91206699D02*
X60674523Y-91267175D01*
D11*
X107654819Y-93742857D02*
X107178628Y-94076190D01*
X107654819Y-94314285D02*
X106654819Y-94314285D01*
X106654819Y-94314285D02*
X106654819Y-93933333D01*
X106654819Y-93933333D02*
X106702438Y-93838095D01*
X106702438Y-93838095D02*
X106750057Y-93790476D01*
X106750057Y-93790476D02*
X106845295Y-93742857D01*
X106845295Y-93742857D02*
X106988152Y-93742857D01*
X106988152Y-93742857D02*
X107083390Y-93790476D01*
X107083390Y-93790476D02*
X107131009Y-93838095D01*
X107131009Y-93838095D02*
X107178628Y-93933333D01*
X107178628Y-93933333D02*
X107178628Y-94314285D01*
X106750057Y-93361904D02*
X106702438Y-93314285D01*
X106702438Y-93314285D02*
X106654819Y-93219047D01*
X106654819Y-93219047D02*
X106654819Y-92980952D01*
X106654819Y-92980952D02*
X106702438Y-92885714D01*
X106702438Y-92885714D02*
X106750057Y-92838095D01*
X106750057Y-92838095D02*
X106845295Y-92790476D01*
X106845295Y-92790476D02*
X106940533Y-92790476D01*
X106940533Y-92790476D02*
X107083390Y-92838095D01*
X107083390Y-92838095D02*
X107654819Y-93409523D01*
X107654819Y-93409523D02*
X107654819Y-92790476D01*
X106750057Y-92409523D02*
X106702438Y-92361904D01*
X106702438Y-92361904D02*
X106654819Y-92266666D01*
X106654819Y-92266666D02*
X106654819Y-92028571D01*
X106654819Y-92028571D02*
X106702438Y-91933333D01*
X106702438Y-91933333D02*
X106750057Y-91885714D01*
X106750057Y-91885714D02*
X106845295Y-91838095D01*
X106845295Y-91838095D02*
X106940533Y-91838095D01*
X106940533Y-91838095D02*
X107083390Y-91885714D01*
X107083390Y-91885714D02*
X107654819Y-92457142D01*
X107654819Y-92457142D02*
X107654819Y-91838095D01*
X84734580Y-122822857D02*
X84782200Y-122870476D01*
X84782200Y-122870476D02*
X84829819Y-123013333D01*
X84829819Y-123013333D02*
X84829819Y-123108571D01*
X84829819Y-123108571D02*
X84782200Y-123251428D01*
X84782200Y-123251428D02*
X84686961Y-123346666D01*
X84686961Y-123346666D02*
X84591723Y-123394285D01*
X84591723Y-123394285D02*
X84401247Y-123441904D01*
X84401247Y-123441904D02*
X84258390Y-123441904D01*
X84258390Y-123441904D02*
X84067914Y-123394285D01*
X84067914Y-123394285D02*
X83972676Y-123346666D01*
X83972676Y-123346666D02*
X83877438Y-123251428D01*
X83877438Y-123251428D02*
X83829819Y-123108571D01*
X83829819Y-123108571D02*
X83829819Y-123013333D01*
X83829819Y-123013333D02*
X83877438Y-122870476D01*
X83877438Y-122870476D02*
X83925057Y-122822857D01*
X83925057Y-122441904D02*
X83877438Y-122394285D01*
X83877438Y-122394285D02*
X83829819Y-122299047D01*
X83829819Y-122299047D02*
X83829819Y-122060952D01*
X83829819Y-122060952D02*
X83877438Y-121965714D01*
X83877438Y-121965714D02*
X83925057Y-121918095D01*
X83925057Y-121918095D02*
X84020295Y-121870476D01*
X84020295Y-121870476D02*
X84115533Y-121870476D01*
X84115533Y-121870476D02*
X84258390Y-121918095D01*
X84258390Y-121918095D02*
X84829819Y-122489523D01*
X84829819Y-122489523D02*
X84829819Y-121870476D01*
X84829819Y-120918095D02*
X84829819Y-121489523D01*
X84829819Y-121203809D02*
X83829819Y-121203809D01*
X83829819Y-121203809D02*
X83972676Y-121299047D01*
X83972676Y-121299047D02*
X84067914Y-121394285D01*
X84067914Y-121394285D02*
X84115533Y-121489523D01*
X115454819Y-90642857D02*
X114978628Y-90976190D01*
X115454819Y-91214285D02*
X114454819Y-91214285D01*
X114454819Y-91214285D02*
X114454819Y-90833333D01*
X114454819Y-90833333D02*
X114502438Y-90738095D01*
X114502438Y-90738095D02*
X114550057Y-90690476D01*
X114550057Y-90690476D02*
X114645295Y-90642857D01*
X114645295Y-90642857D02*
X114788152Y-90642857D01*
X114788152Y-90642857D02*
X114883390Y-90690476D01*
X114883390Y-90690476D02*
X114931009Y-90738095D01*
X114931009Y-90738095D02*
X114978628Y-90833333D01*
X114978628Y-90833333D02*
X114978628Y-91214285D01*
X114550057Y-90261904D02*
X114502438Y-90214285D01*
X114502438Y-90214285D02*
X114454819Y-90119047D01*
X114454819Y-90119047D02*
X114454819Y-89880952D01*
X114454819Y-89880952D02*
X114502438Y-89785714D01*
X114502438Y-89785714D02*
X114550057Y-89738095D01*
X114550057Y-89738095D02*
X114645295Y-89690476D01*
X114645295Y-89690476D02*
X114740533Y-89690476D01*
X114740533Y-89690476D02*
X114883390Y-89738095D01*
X114883390Y-89738095D02*
X115454819Y-90309523D01*
X115454819Y-90309523D02*
X115454819Y-89690476D01*
X115454819Y-88738095D02*
X115454819Y-89309523D01*
X115454819Y-89023809D02*
X114454819Y-89023809D01*
X114454819Y-89023809D02*
X114597676Y-89119047D01*
X114597676Y-89119047D02*
X114692914Y-89214285D01*
X114692914Y-89214285D02*
X114740533Y-89309523D01*
X123233333Y-115654819D02*
X122900000Y-115178628D01*
X122661905Y-115654819D02*
X122661905Y-114654819D01*
X122661905Y-114654819D02*
X123042857Y-114654819D01*
X123042857Y-114654819D02*
X123138095Y-114702438D01*
X123138095Y-114702438D02*
X123185714Y-114750057D01*
X123185714Y-114750057D02*
X123233333Y-114845295D01*
X123233333Y-114845295D02*
X123233333Y-114988152D01*
X123233333Y-114988152D02*
X123185714Y-115083390D01*
X123185714Y-115083390D02*
X123138095Y-115131009D01*
X123138095Y-115131009D02*
X123042857Y-115178628D01*
X123042857Y-115178628D02*
X122661905Y-115178628D01*
X123804762Y-115083390D02*
X123709524Y-115035771D01*
X123709524Y-115035771D02*
X123661905Y-114988152D01*
X123661905Y-114988152D02*
X123614286Y-114892914D01*
X123614286Y-114892914D02*
X123614286Y-114845295D01*
X123614286Y-114845295D02*
X123661905Y-114750057D01*
X123661905Y-114750057D02*
X123709524Y-114702438D01*
X123709524Y-114702438D02*
X123804762Y-114654819D01*
X123804762Y-114654819D02*
X123995238Y-114654819D01*
X123995238Y-114654819D02*
X124090476Y-114702438D01*
X124090476Y-114702438D02*
X124138095Y-114750057D01*
X124138095Y-114750057D02*
X124185714Y-114845295D01*
X124185714Y-114845295D02*
X124185714Y-114892914D01*
X124185714Y-114892914D02*
X124138095Y-114988152D01*
X124138095Y-114988152D02*
X124090476Y-115035771D01*
X124090476Y-115035771D02*
X123995238Y-115083390D01*
X123995238Y-115083390D02*
X123804762Y-115083390D01*
X123804762Y-115083390D02*
X123709524Y-115131009D01*
X123709524Y-115131009D02*
X123661905Y-115178628D01*
X123661905Y-115178628D02*
X123614286Y-115273866D01*
X123614286Y-115273866D02*
X123614286Y-115464342D01*
X123614286Y-115464342D02*
X123661905Y-115559580D01*
X123661905Y-115559580D02*
X123709524Y-115607200D01*
X123709524Y-115607200D02*
X123804762Y-115654819D01*
X123804762Y-115654819D02*
X123995238Y-115654819D01*
X123995238Y-115654819D02*
X124090476Y-115607200D01*
X124090476Y-115607200D02*
X124138095Y-115559580D01*
X124138095Y-115559580D02*
X124185714Y-115464342D01*
X124185714Y-115464342D02*
X124185714Y-115273866D01*
X124185714Y-115273866D02*
X124138095Y-115178628D01*
X124138095Y-115178628D02*
X124090476Y-115131009D01*
X124090476Y-115131009D02*
X123995238Y-115083390D01*
D12*
X112306666Y-105263842D02*
X112488095Y-105324318D01*
X112488095Y-105324318D02*
X112790476Y-105324318D01*
X112790476Y-105324318D02*
X112911428Y-105263842D01*
X112911428Y-105263842D02*
X112971904Y-105203365D01*
X112971904Y-105203365D02*
X113032381Y-105082413D01*
X113032381Y-105082413D02*
X113032381Y-104961461D01*
X113032381Y-104961461D02*
X112971904Y-104840508D01*
X112971904Y-104840508D02*
X112911428Y-104780032D01*
X112911428Y-104780032D02*
X112790476Y-104719556D01*
X112790476Y-104719556D02*
X112548571Y-104659080D01*
X112548571Y-104659080D02*
X112427619Y-104598603D01*
X112427619Y-104598603D02*
X112367142Y-104538127D01*
X112367142Y-104538127D02*
X112306666Y-104417175D01*
X112306666Y-104417175D02*
X112306666Y-104296222D01*
X112306666Y-104296222D02*
X112367142Y-104175270D01*
X112367142Y-104175270D02*
X112427619Y-104114794D01*
X112427619Y-104114794D02*
X112548571Y-104054318D01*
X112548571Y-104054318D02*
X112850952Y-104054318D01*
X112850952Y-104054318D02*
X113032381Y-104114794D01*
X113455714Y-104054318D02*
X113758095Y-105324318D01*
X113758095Y-105324318D02*
X114000000Y-104417175D01*
X114000000Y-104417175D02*
X114241905Y-105324318D01*
X114241905Y-105324318D02*
X114544286Y-104054318D01*
X115693334Y-105324318D02*
X114967619Y-105324318D01*
X115330476Y-105324318D02*
X115330476Y-104054318D01*
X115330476Y-104054318D02*
X115209524Y-104235746D01*
X115209524Y-104235746D02*
X115088572Y-104356699D01*
X115088572Y-104356699D02*
X114967619Y-104417175D01*
D11*
X113359580Y-89642857D02*
X113407200Y-89690476D01*
X113407200Y-89690476D02*
X113454819Y-89833333D01*
X113454819Y-89833333D02*
X113454819Y-89928571D01*
X113454819Y-89928571D02*
X113407200Y-90071428D01*
X113407200Y-90071428D02*
X113311961Y-90166666D01*
X113311961Y-90166666D02*
X113216723Y-90214285D01*
X113216723Y-90214285D02*
X113026247Y-90261904D01*
X113026247Y-90261904D02*
X112883390Y-90261904D01*
X112883390Y-90261904D02*
X112692914Y-90214285D01*
X112692914Y-90214285D02*
X112597676Y-90166666D01*
X112597676Y-90166666D02*
X112502438Y-90071428D01*
X112502438Y-90071428D02*
X112454819Y-89928571D01*
X112454819Y-89928571D02*
X112454819Y-89833333D01*
X112454819Y-89833333D02*
X112502438Y-89690476D01*
X112502438Y-89690476D02*
X112550057Y-89642857D01*
X112550057Y-89261904D02*
X112502438Y-89214285D01*
X112502438Y-89214285D02*
X112454819Y-89119047D01*
X112454819Y-89119047D02*
X112454819Y-88880952D01*
X112454819Y-88880952D02*
X112502438Y-88785714D01*
X112502438Y-88785714D02*
X112550057Y-88738095D01*
X112550057Y-88738095D02*
X112645295Y-88690476D01*
X112645295Y-88690476D02*
X112740533Y-88690476D01*
X112740533Y-88690476D02*
X112883390Y-88738095D01*
X112883390Y-88738095D02*
X113454819Y-89309523D01*
X113454819Y-89309523D02*
X113454819Y-88690476D01*
X112454819Y-88357142D02*
X112454819Y-87738095D01*
X112454819Y-87738095D02*
X112835771Y-88071428D01*
X112835771Y-88071428D02*
X112835771Y-87928571D01*
X112835771Y-87928571D02*
X112883390Y-87833333D01*
X112883390Y-87833333D02*
X112931009Y-87785714D01*
X112931009Y-87785714D02*
X113026247Y-87738095D01*
X113026247Y-87738095D02*
X113264342Y-87738095D01*
X113264342Y-87738095D02*
X113359580Y-87785714D01*
X113359580Y-87785714D02*
X113407200Y-87833333D01*
X113407200Y-87833333D02*
X113454819Y-87928571D01*
X113454819Y-87928571D02*
X113454819Y-88214285D01*
X113454819Y-88214285D02*
X113407200Y-88309523D01*
X113407200Y-88309523D02*
X113359580Y-88357142D01*
X81359580Y-104142857D02*
X81407200Y-104190476D01*
X81407200Y-104190476D02*
X81454819Y-104333333D01*
X81454819Y-104333333D02*
X81454819Y-104428571D01*
X81454819Y-104428571D02*
X81407200Y-104571428D01*
X81407200Y-104571428D02*
X81311961Y-104666666D01*
X81311961Y-104666666D02*
X81216723Y-104714285D01*
X81216723Y-104714285D02*
X81026247Y-104761904D01*
X81026247Y-104761904D02*
X80883390Y-104761904D01*
X80883390Y-104761904D02*
X80692914Y-104714285D01*
X80692914Y-104714285D02*
X80597676Y-104666666D01*
X80597676Y-104666666D02*
X80502438Y-104571428D01*
X80502438Y-104571428D02*
X80454819Y-104428571D01*
X80454819Y-104428571D02*
X80454819Y-104333333D01*
X80454819Y-104333333D02*
X80502438Y-104190476D01*
X80502438Y-104190476D02*
X80550057Y-104142857D01*
X81454819Y-103190476D02*
X81454819Y-103761904D01*
X81454819Y-103476190D02*
X80454819Y-103476190D01*
X80454819Y-103476190D02*
X80597676Y-103571428D01*
X80597676Y-103571428D02*
X80692914Y-103666666D01*
X80692914Y-103666666D02*
X80740533Y-103761904D01*
X80550057Y-102809523D02*
X80502438Y-102761904D01*
X80502438Y-102761904D02*
X80454819Y-102666666D01*
X80454819Y-102666666D02*
X80454819Y-102428571D01*
X80454819Y-102428571D02*
X80502438Y-102333333D01*
X80502438Y-102333333D02*
X80550057Y-102285714D01*
X80550057Y-102285714D02*
X80645295Y-102238095D01*
X80645295Y-102238095D02*
X80740533Y-102238095D01*
X80740533Y-102238095D02*
X80883390Y-102285714D01*
X80883390Y-102285714D02*
X81454819Y-102857142D01*
X81454819Y-102857142D02*
X81454819Y-102238095D01*
X100359580Y-110966666D02*
X100407200Y-111014285D01*
X100407200Y-111014285D02*
X100454819Y-111157142D01*
X100454819Y-111157142D02*
X100454819Y-111252380D01*
X100454819Y-111252380D02*
X100407200Y-111395237D01*
X100407200Y-111395237D02*
X100311961Y-111490475D01*
X100311961Y-111490475D02*
X100216723Y-111538094D01*
X100216723Y-111538094D02*
X100026247Y-111585713D01*
X100026247Y-111585713D02*
X99883390Y-111585713D01*
X99883390Y-111585713D02*
X99692914Y-111538094D01*
X99692914Y-111538094D02*
X99597676Y-111490475D01*
X99597676Y-111490475D02*
X99502438Y-111395237D01*
X99502438Y-111395237D02*
X99454819Y-111252380D01*
X99454819Y-111252380D02*
X99454819Y-111157142D01*
X99454819Y-111157142D02*
X99502438Y-111014285D01*
X99502438Y-111014285D02*
X99550057Y-110966666D01*
X100454819Y-110490475D02*
X100454819Y-110299999D01*
X100454819Y-110299999D02*
X100407200Y-110204761D01*
X100407200Y-110204761D02*
X100359580Y-110157142D01*
X100359580Y-110157142D02*
X100216723Y-110061904D01*
X100216723Y-110061904D02*
X100026247Y-110014285D01*
X100026247Y-110014285D02*
X99645295Y-110014285D01*
X99645295Y-110014285D02*
X99550057Y-110061904D01*
X99550057Y-110061904D02*
X99502438Y-110109523D01*
X99502438Y-110109523D02*
X99454819Y-110204761D01*
X99454819Y-110204761D02*
X99454819Y-110395237D01*
X99454819Y-110395237D02*
X99502438Y-110490475D01*
X99502438Y-110490475D02*
X99550057Y-110538094D01*
X99550057Y-110538094D02*
X99645295Y-110585713D01*
X99645295Y-110585713D02*
X99883390Y-110585713D01*
X99883390Y-110585713D02*
X99978628Y-110538094D01*
X99978628Y-110538094D02*
X100026247Y-110490475D01*
X100026247Y-110490475D02*
X100073866Y-110395237D01*
X100073866Y-110395237D02*
X100073866Y-110204761D01*
X100073866Y-110204761D02*
X100026247Y-110109523D01*
X100026247Y-110109523D02*
X99978628Y-110061904D01*
X99978628Y-110061904D02*
X99883390Y-110014285D01*
X81609580Y-121842857D02*
X81657200Y-121890476D01*
X81657200Y-121890476D02*
X81704819Y-122033333D01*
X81704819Y-122033333D02*
X81704819Y-122128571D01*
X81704819Y-122128571D02*
X81657200Y-122271428D01*
X81657200Y-122271428D02*
X81561961Y-122366666D01*
X81561961Y-122366666D02*
X81466723Y-122414285D01*
X81466723Y-122414285D02*
X81276247Y-122461904D01*
X81276247Y-122461904D02*
X81133390Y-122461904D01*
X81133390Y-122461904D02*
X80942914Y-122414285D01*
X80942914Y-122414285D02*
X80847676Y-122366666D01*
X80847676Y-122366666D02*
X80752438Y-122271428D01*
X80752438Y-122271428D02*
X80704819Y-122128571D01*
X80704819Y-122128571D02*
X80704819Y-122033333D01*
X80704819Y-122033333D02*
X80752438Y-121890476D01*
X80752438Y-121890476D02*
X80800057Y-121842857D01*
X81704819Y-120890476D02*
X81704819Y-121461904D01*
X81704819Y-121176190D02*
X80704819Y-121176190D01*
X80704819Y-121176190D02*
X80847676Y-121271428D01*
X80847676Y-121271428D02*
X80942914Y-121366666D01*
X80942914Y-121366666D02*
X80990533Y-121461904D01*
X80704819Y-119985714D02*
X80704819Y-120461904D01*
X80704819Y-120461904D02*
X81181009Y-120509523D01*
X81181009Y-120509523D02*
X81133390Y-120461904D01*
X81133390Y-120461904D02*
X81085771Y-120366666D01*
X81085771Y-120366666D02*
X81085771Y-120128571D01*
X81085771Y-120128571D02*
X81133390Y-120033333D01*
X81133390Y-120033333D02*
X81181009Y-119985714D01*
X81181009Y-119985714D02*
X81276247Y-119938095D01*
X81276247Y-119938095D02*
X81514342Y-119938095D01*
X81514342Y-119938095D02*
X81609580Y-119985714D01*
X81609580Y-119985714D02*
X81657200Y-120033333D01*
X81657200Y-120033333D02*
X81704819Y-120128571D01*
X81704819Y-120128571D02*
X81704819Y-120366666D01*
X81704819Y-120366666D02*
X81657200Y-120461904D01*
X81657200Y-120461904D02*
X81609580Y-120509523D01*
X85984580Y-122822857D02*
X86032200Y-122870476D01*
X86032200Y-122870476D02*
X86079819Y-123013333D01*
X86079819Y-123013333D02*
X86079819Y-123108571D01*
X86079819Y-123108571D02*
X86032200Y-123251428D01*
X86032200Y-123251428D02*
X85936961Y-123346666D01*
X85936961Y-123346666D02*
X85841723Y-123394285D01*
X85841723Y-123394285D02*
X85651247Y-123441904D01*
X85651247Y-123441904D02*
X85508390Y-123441904D01*
X85508390Y-123441904D02*
X85317914Y-123394285D01*
X85317914Y-123394285D02*
X85222676Y-123346666D01*
X85222676Y-123346666D02*
X85127438Y-123251428D01*
X85127438Y-123251428D02*
X85079819Y-123108571D01*
X85079819Y-123108571D02*
X85079819Y-123013333D01*
X85079819Y-123013333D02*
X85127438Y-122870476D01*
X85127438Y-122870476D02*
X85175057Y-122822857D01*
X86079819Y-121870476D02*
X86079819Y-122441904D01*
X86079819Y-122156190D02*
X85079819Y-122156190D01*
X85079819Y-122156190D02*
X85222676Y-122251428D01*
X85222676Y-122251428D02*
X85317914Y-122346666D01*
X85317914Y-122346666D02*
X85365533Y-122441904D01*
X85413152Y-121013333D02*
X86079819Y-121013333D01*
X85032200Y-121251428D02*
X85746485Y-121489523D01*
X85746485Y-121489523D02*
X85746485Y-120870476D01*
X55485714Y-111454819D02*
X55485714Y-110454819D01*
X55485714Y-110454819D02*
X55723809Y-110454819D01*
X55723809Y-110454819D02*
X55866666Y-110502438D01*
X55866666Y-110502438D02*
X55961904Y-110597676D01*
X55961904Y-110597676D02*
X56009523Y-110692914D01*
X56009523Y-110692914D02*
X56057142Y-110883390D01*
X56057142Y-110883390D02*
X56057142Y-111026247D01*
X56057142Y-111026247D02*
X56009523Y-111216723D01*
X56009523Y-111216723D02*
X55961904Y-111311961D01*
X55961904Y-111311961D02*
X55866666Y-111407200D01*
X55866666Y-111407200D02*
X55723809Y-111454819D01*
X55723809Y-111454819D02*
X55485714Y-111454819D01*
X57009523Y-111454819D02*
X56438095Y-111454819D01*
X56723809Y-111454819D02*
X56723809Y-110454819D01*
X56723809Y-110454819D02*
X56628571Y-110597676D01*
X56628571Y-110597676D02*
X56533333Y-110692914D01*
X56533333Y-110692914D02*
X56438095Y-110740533D01*
X57961904Y-111454819D02*
X57390476Y-111454819D01*
X57676190Y-111454819D02*
X57676190Y-110454819D01*
X57676190Y-110454819D02*
X57580952Y-110597676D01*
X57580952Y-110597676D02*
X57485714Y-110692914D01*
X57485714Y-110692914D02*
X57390476Y-110740533D01*
X74557142Y-101454819D02*
X74223809Y-100978628D01*
X73985714Y-101454819D02*
X73985714Y-100454819D01*
X73985714Y-100454819D02*
X74366666Y-100454819D01*
X74366666Y-100454819D02*
X74461904Y-100502438D01*
X74461904Y-100502438D02*
X74509523Y-100550057D01*
X74509523Y-100550057D02*
X74557142Y-100645295D01*
X74557142Y-100645295D02*
X74557142Y-100788152D01*
X74557142Y-100788152D02*
X74509523Y-100883390D01*
X74509523Y-100883390D02*
X74461904Y-100931009D01*
X74461904Y-100931009D02*
X74366666Y-100978628D01*
X74366666Y-100978628D02*
X73985714Y-100978628D01*
X75509523Y-101454819D02*
X74938095Y-101454819D01*
X75223809Y-101454819D02*
X75223809Y-100454819D01*
X75223809Y-100454819D02*
X75128571Y-100597676D01*
X75128571Y-100597676D02*
X75033333Y-100692914D01*
X75033333Y-100692914D02*
X74938095Y-100740533D01*
X75842857Y-100454819D02*
X76509523Y-100454819D01*
X76509523Y-100454819D02*
X76080952Y-101454819D01*
X92438095Y-127154819D02*
X92438095Y-127964342D01*
X92438095Y-127964342D02*
X92485714Y-128059580D01*
X92485714Y-128059580D02*
X92533333Y-128107200D01*
X92533333Y-128107200D02*
X92628571Y-128154819D01*
X92628571Y-128154819D02*
X92819047Y-128154819D01*
X92819047Y-128154819D02*
X92914285Y-128107200D01*
X92914285Y-128107200D02*
X92961904Y-128059580D01*
X92961904Y-128059580D02*
X93009523Y-127964342D01*
X93009523Y-127964342D02*
X93009523Y-127154819D01*
X93438095Y-127250057D02*
X93485714Y-127202438D01*
X93485714Y-127202438D02*
X93580952Y-127154819D01*
X93580952Y-127154819D02*
X93819047Y-127154819D01*
X93819047Y-127154819D02*
X93914285Y-127202438D01*
X93914285Y-127202438D02*
X93961904Y-127250057D01*
X93961904Y-127250057D02*
X94009523Y-127345295D01*
X94009523Y-127345295D02*
X94009523Y-127440533D01*
X94009523Y-127440533D02*
X93961904Y-127583390D01*
X93961904Y-127583390D02*
X93390476Y-128154819D01*
X93390476Y-128154819D02*
X94009523Y-128154819D01*
X122738095Y-125704819D02*
X122738095Y-124704819D01*
X122738095Y-125181009D02*
X123309523Y-125181009D01*
X123309523Y-125704819D02*
X123309523Y-124704819D01*
X123690476Y-124704819D02*
X124309523Y-124704819D01*
X124309523Y-124704819D02*
X123976190Y-125085771D01*
X123976190Y-125085771D02*
X124119047Y-125085771D01*
X124119047Y-125085771D02*
X124214285Y-125133390D01*
X124214285Y-125133390D02*
X124261904Y-125181009D01*
X124261904Y-125181009D02*
X124309523Y-125276247D01*
X124309523Y-125276247D02*
X124309523Y-125514342D01*
X124309523Y-125514342D02*
X124261904Y-125609580D01*
X124261904Y-125609580D02*
X124214285Y-125657200D01*
X124214285Y-125657200D02*
X124119047Y-125704819D01*
X124119047Y-125704819D02*
X123833333Y-125704819D01*
X123833333Y-125704819D02*
X123738095Y-125657200D01*
X123738095Y-125657200D02*
X123690476Y-125609580D01*
X111359580Y-89642857D02*
X111407200Y-89690476D01*
X111407200Y-89690476D02*
X111454819Y-89833333D01*
X111454819Y-89833333D02*
X111454819Y-89928571D01*
X111454819Y-89928571D02*
X111407200Y-90071428D01*
X111407200Y-90071428D02*
X111311961Y-90166666D01*
X111311961Y-90166666D02*
X111216723Y-90214285D01*
X111216723Y-90214285D02*
X111026247Y-90261904D01*
X111026247Y-90261904D02*
X110883390Y-90261904D01*
X110883390Y-90261904D02*
X110692914Y-90214285D01*
X110692914Y-90214285D02*
X110597676Y-90166666D01*
X110597676Y-90166666D02*
X110502438Y-90071428D01*
X110502438Y-90071428D02*
X110454819Y-89928571D01*
X110454819Y-89928571D02*
X110454819Y-89833333D01*
X110454819Y-89833333D02*
X110502438Y-89690476D01*
X110502438Y-89690476D02*
X110550057Y-89642857D01*
X110550057Y-89261904D02*
X110502438Y-89214285D01*
X110502438Y-89214285D02*
X110454819Y-89119047D01*
X110454819Y-89119047D02*
X110454819Y-88880952D01*
X110454819Y-88880952D02*
X110502438Y-88785714D01*
X110502438Y-88785714D02*
X110550057Y-88738095D01*
X110550057Y-88738095D02*
X110645295Y-88690476D01*
X110645295Y-88690476D02*
X110740533Y-88690476D01*
X110740533Y-88690476D02*
X110883390Y-88738095D01*
X110883390Y-88738095D02*
X111454819Y-89309523D01*
X111454819Y-89309523D02*
X111454819Y-88690476D01*
X110788152Y-87833333D02*
X111454819Y-87833333D01*
X110407200Y-88071428D02*
X111121485Y-88309523D01*
X111121485Y-88309523D02*
X111121485Y-87690476D01*
X91157142Y-110309580D02*
X91109523Y-110357200D01*
X91109523Y-110357200D02*
X90966666Y-110404819D01*
X90966666Y-110404819D02*
X90871428Y-110404819D01*
X90871428Y-110404819D02*
X90728571Y-110357200D01*
X90728571Y-110357200D02*
X90633333Y-110261961D01*
X90633333Y-110261961D02*
X90585714Y-110166723D01*
X90585714Y-110166723D02*
X90538095Y-109976247D01*
X90538095Y-109976247D02*
X90538095Y-109833390D01*
X90538095Y-109833390D02*
X90585714Y-109642914D01*
X90585714Y-109642914D02*
X90633333Y-109547676D01*
X90633333Y-109547676D02*
X90728571Y-109452438D01*
X90728571Y-109452438D02*
X90871428Y-109404819D01*
X90871428Y-109404819D02*
X90966666Y-109404819D01*
X90966666Y-109404819D02*
X91109523Y-109452438D01*
X91109523Y-109452438D02*
X91157142Y-109500057D01*
X92109523Y-110404819D02*
X91538095Y-110404819D01*
X91823809Y-110404819D02*
X91823809Y-109404819D01*
X91823809Y-109404819D02*
X91728571Y-109547676D01*
X91728571Y-109547676D02*
X91633333Y-109642914D01*
X91633333Y-109642914D02*
X91538095Y-109690533D01*
X92442857Y-109404819D02*
X93109523Y-109404819D01*
X93109523Y-109404819D02*
X92680952Y-110404819D01*
X59533333Y-85659580D02*
X59485714Y-85707200D01*
X59485714Y-85707200D02*
X59342857Y-85754819D01*
X59342857Y-85754819D02*
X59247619Y-85754819D01*
X59247619Y-85754819D02*
X59104762Y-85707200D01*
X59104762Y-85707200D02*
X59009524Y-85611961D01*
X59009524Y-85611961D02*
X58961905Y-85516723D01*
X58961905Y-85516723D02*
X58914286Y-85326247D01*
X58914286Y-85326247D02*
X58914286Y-85183390D01*
X58914286Y-85183390D02*
X58961905Y-84992914D01*
X58961905Y-84992914D02*
X59009524Y-84897676D01*
X59009524Y-84897676D02*
X59104762Y-84802438D01*
X59104762Y-84802438D02*
X59247619Y-84754819D01*
X59247619Y-84754819D02*
X59342857Y-84754819D01*
X59342857Y-84754819D02*
X59485714Y-84802438D01*
X59485714Y-84802438D02*
X59533333Y-84850057D01*
X60390476Y-84754819D02*
X60200000Y-84754819D01*
X60200000Y-84754819D02*
X60104762Y-84802438D01*
X60104762Y-84802438D02*
X60057143Y-84850057D01*
X60057143Y-84850057D02*
X59961905Y-84992914D01*
X59961905Y-84992914D02*
X59914286Y-85183390D01*
X59914286Y-85183390D02*
X59914286Y-85564342D01*
X59914286Y-85564342D02*
X59961905Y-85659580D01*
X59961905Y-85659580D02*
X60009524Y-85707200D01*
X60009524Y-85707200D02*
X60104762Y-85754819D01*
X60104762Y-85754819D02*
X60295238Y-85754819D01*
X60295238Y-85754819D02*
X60390476Y-85707200D01*
X60390476Y-85707200D02*
X60438095Y-85659580D01*
X60438095Y-85659580D02*
X60485714Y-85564342D01*
X60485714Y-85564342D02*
X60485714Y-85326247D01*
X60485714Y-85326247D02*
X60438095Y-85231009D01*
X60438095Y-85231009D02*
X60390476Y-85183390D01*
X60390476Y-85183390D02*
X60295238Y-85135771D01*
X60295238Y-85135771D02*
X60104762Y-85135771D01*
X60104762Y-85135771D02*
X60009524Y-85183390D01*
X60009524Y-85183390D02*
X59961905Y-85231009D01*
X59961905Y-85231009D02*
X59914286Y-85326247D01*
X102254819Y-97466666D02*
X101778628Y-97799999D01*
X102254819Y-98038094D02*
X101254819Y-98038094D01*
X101254819Y-98038094D02*
X101254819Y-97657142D01*
X101254819Y-97657142D02*
X101302438Y-97561904D01*
X101302438Y-97561904D02*
X101350057Y-97514285D01*
X101350057Y-97514285D02*
X101445295Y-97466666D01*
X101445295Y-97466666D02*
X101588152Y-97466666D01*
X101588152Y-97466666D02*
X101683390Y-97514285D01*
X101683390Y-97514285D02*
X101731009Y-97561904D01*
X101731009Y-97561904D02*
X101778628Y-97657142D01*
X101778628Y-97657142D02*
X101778628Y-98038094D01*
X102254819Y-96990475D02*
X102254819Y-96799999D01*
X102254819Y-96799999D02*
X102207200Y-96704761D01*
X102207200Y-96704761D02*
X102159580Y-96657142D01*
X102159580Y-96657142D02*
X102016723Y-96561904D01*
X102016723Y-96561904D02*
X101826247Y-96514285D01*
X101826247Y-96514285D02*
X101445295Y-96514285D01*
X101445295Y-96514285D02*
X101350057Y-96561904D01*
X101350057Y-96561904D02*
X101302438Y-96609523D01*
X101302438Y-96609523D02*
X101254819Y-96704761D01*
X101254819Y-96704761D02*
X101254819Y-96895237D01*
X101254819Y-96895237D02*
X101302438Y-96990475D01*
X101302438Y-96990475D02*
X101350057Y-97038094D01*
X101350057Y-97038094D02*
X101445295Y-97085713D01*
X101445295Y-97085713D02*
X101683390Y-97085713D01*
X101683390Y-97085713D02*
X101778628Y-97038094D01*
X101778628Y-97038094D02*
X101826247Y-96990475D01*
X101826247Y-96990475D02*
X101873866Y-96895237D01*
X101873866Y-96895237D02*
X101873866Y-96704761D01*
X101873866Y-96704761D02*
X101826247Y-96609523D01*
X101826247Y-96609523D02*
X101778628Y-96561904D01*
X101778628Y-96561904D02*
X101683390Y-96514285D01*
X83033333Y-101459580D02*
X82985714Y-101507200D01*
X82985714Y-101507200D02*
X82842857Y-101554819D01*
X82842857Y-101554819D02*
X82747619Y-101554819D01*
X82747619Y-101554819D02*
X82604762Y-101507200D01*
X82604762Y-101507200D02*
X82509524Y-101411961D01*
X82509524Y-101411961D02*
X82461905Y-101316723D01*
X82461905Y-101316723D02*
X82414286Y-101126247D01*
X82414286Y-101126247D02*
X82414286Y-100983390D01*
X82414286Y-100983390D02*
X82461905Y-100792914D01*
X82461905Y-100792914D02*
X82509524Y-100697676D01*
X82509524Y-100697676D02*
X82604762Y-100602438D01*
X82604762Y-100602438D02*
X82747619Y-100554819D01*
X82747619Y-100554819D02*
X82842857Y-100554819D01*
X82842857Y-100554819D02*
X82985714Y-100602438D01*
X82985714Y-100602438D02*
X83033333Y-100650057D01*
X83366667Y-100554819D02*
X83985714Y-100554819D01*
X83985714Y-100554819D02*
X83652381Y-100935771D01*
X83652381Y-100935771D02*
X83795238Y-100935771D01*
X83795238Y-100935771D02*
X83890476Y-100983390D01*
X83890476Y-100983390D02*
X83938095Y-101031009D01*
X83938095Y-101031009D02*
X83985714Y-101126247D01*
X83985714Y-101126247D02*
X83985714Y-101364342D01*
X83985714Y-101364342D02*
X83938095Y-101459580D01*
X83938095Y-101459580D02*
X83890476Y-101507200D01*
X83890476Y-101507200D02*
X83795238Y-101554819D01*
X83795238Y-101554819D02*
X83509524Y-101554819D01*
X83509524Y-101554819D02*
X83414286Y-101507200D01*
X83414286Y-101507200D02*
X83366667Y-101459580D01*
X62616667Y-100207200D02*
X62759524Y-100254819D01*
X62759524Y-100254819D02*
X62997619Y-100254819D01*
X62997619Y-100254819D02*
X63092857Y-100207200D01*
X63092857Y-100207200D02*
X63140476Y-100159580D01*
X63140476Y-100159580D02*
X63188095Y-100064342D01*
X63188095Y-100064342D02*
X63188095Y-99969104D01*
X63188095Y-99969104D02*
X63140476Y-99873866D01*
X63140476Y-99873866D02*
X63092857Y-99826247D01*
X63092857Y-99826247D02*
X62997619Y-99778628D01*
X62997619Y-99778628D02*
X62807143Y-99731009D01*
X62807143Y-99731009D02*
X62711905Y-99683390D01*
X62711905Y-99683390D02*
X62664286Y-99635771D01*
X62664286Y-99635771D02*
X62616667Y-99540533D01*
X62616667Y-99540533D02*
X62616667Y-99445295D01*
X62616667Y-99445295D02*
X62664286Y-99350057D01*
X62664286Y-99350057D02*
X62711905Y-99302438D01*
X62711905Y-99302438D02*
X62807143Y-99254819D01*
X62807143Y-99254819D02*
X63045238Y-99254819D01*
X63045238Y-99254819D02*
X63188095Y-99302438D01*
X63521429Y-99254819D02*
X63759524Y-100254819D01*
X63759524Y-100254819D02*
X63950000Y-99540533D01*
X63950000Y-99540533D02*
X64140476Y-100254819D01*
X64140476Y-100254819D02*
X64378572Y-99254819D01*
X64711905Y-99350057D02*
X64759524Y-99302438D01*
X64759524Y-99302438D02*
X64854762Y-99254819D01*
X64854762Y-99254819D02*
X65092857Y-99254819D01*
X65092857Y-99254819D02*
X65188095Y-99302438D01*
X65188095Y-99302438D02*
X65235714Y-99350057D01*
X65235714Y-99350057D02*
X65283333Y-99445295D01*
X65283333Y-99445295D02*
X65283333Y-99540533D01*
X65283333Y-99540533D02*
X65235714Y-99683390D01*
X65235714Y-99683390D02*
X64664286Y-100254819D01*
X64664286Y-100254819D02*
X65283333Y-100254819D01*
X95433333Y-80559580D02*
X95385714Y-80607200D01*
X95385714Y-80607200D02*
X95242857Y-80654819D01*
X95242857Y-80654819D02*
X95147619Y-80654819D01*
X95147619Y-80654819D02*
X95004762Y-80607200D01*
X95004762Y-80607200D02*
X94909524Y-80511961D01*
X94909524Y-80511961D02*
X94861905Y-80416723D01*
X94861905Y-80416723D02*
X94814286Y-80226247D01*
X94814286Y-80226247D02*
X94814286Y-80083390D01*
X94814286Y-80083390D02*
X94861905Y-79892914D01*
X94861905Y-79892914D02*
X94909524Y-79797676D01*
X94909524Y-79797676D02*
X95004762Y-79702438D01*
X95004762Y-79702438D02*
X95147619Y-79654819D01*
X95147619Y-79654819D02*
X95242857Y-79654819D01*
X95242857Y-79654819D02*
X95385714Y-79702438D01*
X95385714Y-79702438D02*
X95433333Y-79750057D01*
X96433333Y-80654819D02*
X96100000Y-80178628D01*
X95861905Y-80654819D02*
X95861905Y-79654819D01*
X95861905Y-79654819D02*
X96242857Y-79654819D01*
X96242857Y-79654819D02*
X96338095Y-79702438D01*
X96338095Y-79702438D02*
X96385714Y-79750057D01*
X96385714Y-79750057D02*
X96433333Y-79845295D01*
X96433333Y-79845295D02*
X96433333Y-79988152D01*
X96433333Y-79988152D02*
X96385714Y-80083390D01*
X96385714Y-80083390D02*
X96338095Y-80131009D01*
X96338095Y-80131009D02*
X96242857Y-80178628D01*
X96242857Y-80178628D02*
X95861905Y-80178628D01*
X97385714Y-80654819D02*
X96814286Y-80654819D01*
X97100000Y-80654819D02*
X97100000Y-79654819D01*
X97100000Y-79654819D02*
X97004762Y-79797676D01*
X97004762Y-79797676D02*
X96909524Y-79892914D01*
X96909524Y-79892914D02*
X96814286Y-79940533D01*
X98557142Y-92699580D02*
X98509523Y-92747200D01*
X98509523Y-92747200D02*
X98366666Y-92794819D01*
X98366666Y-92794819D02*
X98271428Y-92794819D01*
X98271428Y-92794819D02*
X98128571Y-92747200D01*
X98128571Y-92747200D02*
X98033333Y-92651961D01*
X98033333Y-92651961D02*
X97985714Y-92556723D01*
X97985714Y-92556723D02*
X97938095Y-92366247D01*
X97938095Y-92366247D02*
X97938095Y-92223390D01*
X97938095Y-92223390D02*
X97985714Y-92032914D01*
X97985714Y-92032914D02*
X98033333Y-91937676D01*
X98033333Y-91937676D02*
X98128571Y-91842438D01*
X98128571Y-91842438D02*
X98271428Y-91794819D01*
X98271428Y-91794819D02*
X98366666Y-91794819D01*
X98366666Y-91794819D02*
X98509523Y-91842438D01*
X98509523Y-91842438D02*
X98557142Y-91890057D01*
X99509523Y-92794819D02*
X98938095Y-92794819D01*
X99223809Y-92794819D02*
X99223809Y-91794819D01*
X99223809Y-91794819D02*
X99128571Y-91937676D01*
X99128571Y-91937676D02*
X99033333Y-92032914D01*
X99033333Y-92032914D02*
X98938095Y-92080533D01*
X100461904Y-92794819D02*
X99890476Y-92794819D01*
X100176190Y-92794819D02*
X100176190Y-91794819D01*
X100176190Y-91794819D02*
X100080952Y-91937676D01*
X100080952Y-91937676D02*
X99985714Y-92032914D01*
X99985714Y-92032914D02*
X99890476Y-92080533D01*
D12*
X96160237Y-99774318D02*
X96160237Y-98504318D01*
X97490714Y-99653365D02*
X97430238Y-99713842D01*
X97430238Y-99713842D02*
X97248809Y-99774318D01*
X97248809Y-99774318D02*
X97127857Y-99774318D01*
X97127857Y-99774318D02*
X96946428Y-99713842D01*
X96946428Y-99713842D02*
X96825476Y-99592889D01*
X96825476Y-99592889D02*
X96764999Y-99471937D01*
X96764999Y-99471937D02*
X96704523Y-99230032D01*
X96704523Y-99230032D02*
X96704523Y-99048603D01*
X96704523Y-99048603D02*
X96764999Y-98806699D01*
X96764999Y-98806699D02*
X96825476Y-98685746D01*
X96825476Y-98685746D02*
X96946428Y-98564794D01*
X96946428Y-98564794D02*
X97127857Y-98504318D01*
X97127857Y-98504318D02*
X97248809Y-98504318D01*
X97248809Y-98504318D02*
X97430238Y-98564794D01*
X97430238Y-98564794D02*
X97490714Y-98625270D01*
X97974523Y-98625270D02*
X98034999Y-98564794D01*
X98034999Y-98564794D02*
X98155952Y-98504318D01*
X98155952Y-98504318D02*
X98458333Y-98504318D01*
X98458333Y-98504318D02*
X98579285Y-98564794D01*
X98579285Y-98564794D02*
X98639761Y-98625270D01*
X98639761Y-98625270D02*
X98700238Y-98746222D01*
X98700238Y-98746222D02*
X98700238Y-98867175D01*
X98700238Y-98867175D02*
X98639761Y-99048603D01*
X98639761Y-99048603D02*
X97914047Y-99774318D01*
X97914047Y-99774318D02*
X98700238Y-99774318D01*
D11*
X43238095Y-81204819D02*
X43238095Y-80204819D01*
X43238095Y-80681009D02*
X43809523Y-80681009D01*
X43809523Y-81204819D02*
X43809523Y-80204819D01*
X44809523Y-81204819D02*
X44238095Y-81204819D01*
X44523809Y-81204819D02*
X44523809Y-80204819D01*
X44523809Y-80204819D02*
X44428571Y-80347676D01*
X44428571Y-80347676D02*
X44333333Y-80442914D01*
X44333333Y-80442914D02*
X44238095Y-80490533D01*
X123238095Y-84454819D02*
X123238095Y-83454819D01*
X123238095Y-83931009D02*
X123809523Y-83931009D01*
X123809523Y-84454819D02*
X123809523Y-83454819D01*
X124714285Y-83788152D02*
X124714285Y-84454819D01*
X124476190Y-83407200D02*
X124238095Y-84121485D01*
X124238095Y-84121485D02*
X124857142Y-84121485D01*
X59233333Y-98939580D02*
X59185714Y-98987200D01*
X59185714Y-98987200D02*
X59042857Y-99034819D01*
X59042857Y-99034819D02*
X58947619Y-99034819D01*
X58947619Y-99034819D02*
X58804762Y-98987200D01*
X58804762Y-98987200D02*
X58709524Y-98891961D01*
X58709524Y-98891961D02*
X58661905Y-98796723D01*
X58661905Y-98796723D02*
X58614286Y-98606247D01*
X58614286Y-98606247D02*
X58614286Y-98463390D01*
X58614286Y-98463390D02*
X58661905Y-98272914D01*
X58661905Y-98272914D02*
X58709524Y-98177676D01*
X58709524Y-98177676D02*
X58804762Y-98082438D01*
X58804762Y-98082438D02*
X58947619Y-98034819D01*
X58947619Y-98034819D02*
X59042857Y-98034819D01*
X59042857Y-98034819D02*
X59185714Y-98082438D01*
X59185714Y-98082438D02*
X59233333Y-98130057D01*
X60138095Y-98034819D02*
X59661905Y-98034819D01*
X59661905Y-98034819D02*
X59614286Y-98511009D01*
X59614286Y-98511009D02*
X59661905Y-98463390D01*
X59661905Y-98463390D02*
X59757143Y-98415771D01*
X59757143Y-98415771D02*
X59995238Y-98415771D01*
X59995238Y-98415771D02*
X60090476Y-98463390D01*
X60090476Y-98463390D02*
X60138095Y-98511009D01*
X60138095Y-98511009D02*
X60185714Y-98606247D01*
X60185714Y-98606247D02*
X60185714Y-98844342D01*
X60185714Y-98844342D02*
X60138095Y-98939580D01*
X60138095Y-98939580D02*
X60090476Y-98987200D01*
X60090476Y-98987200D02*
X59995238Y-99034819D01*
X59995238Y-99034819D02*
X59757143Y-99034819D01*
X59757143Y-99034819D02*
X59661905Y-98987200D01*
X59661905Y-98987200D02*
X59614286Y-98939580D01*
X82859580Y-121842857D02*
X82907200Y-121890476D01*
X82907200Y-121890476D02*
X82954819Y-122033333D01*
X82954819Y-122033333D02*
X82954819Y-122128571D01*
X82954819Y-122128571D02*
X82907200Y-122271428D01*
X82907200Y-122271428D02*
X82811961Y-122366666D01*
X82811961Y-122366666D02*
X82716723Y-122414285D01*
X82716723Y-122414285D02*
X82526247Y-122461904D01*
X82526247Y-122461904D02*
X82383390Y-122461904D01*
X82383390Y-122461904D02*
X82192914Y-122414285D01*
X82192914Y-122414285D02*
X82097676Y-122366666D01*
X82097676Y-122366666D02*
X82002438Y-122271428D01*
X82002438Y-122271428D02*
X81954819Y-122128571D01*
X81954819Y-122128571D02*
X81954819Y-122033333D01*
X81954819Y-122033333D02*
X82002438Y-121890476D01*
X82002438Y-121890476D02*
X82050057Y-121842857D01*
X82954819Y-120890476D02*
X82954819Y-121461904D01*
X82954819Y-121176190D02*
X81954819Y-121176190D01*
X81954819Y-121176190D02*
X82097676Y-121271428D01*
X82097676Y-121271428D02*
X82192914Y-121366666D01*
X82192914Y-121366666D02*
X82240533Y-121461904D01*
X81954819Y-120557142D02*
X81954819Y-119938095D01*
X81954819Y-119938095D02*
X82335771Y-120271428D01*
X82335771Y-120271428D02*
X82335771Y-120128571D01*
X82335771Y-120128571D02*
X82383390Y-120033333D01*
X82383390Y-120033333D02*
X82431009Y-119985714D01*
X82431009Y-119985714D02*
X82526247Y-119938095D01*
X82526247Y-119938095D02*
X82764342Y-119938095D01*
X82764342Y-119938095D02*
X82859580Y-119985714D01*
X82859580Y-119985714D02*
X82907200Y-120033333D01*
X82907200Y-120033333D02*
X82954819Y-120128571D01*
X82954819Y-120128571D02*
X82954819Y-120414285D01*
X82954819Y-120414285D02*
X82907200Y-120509523D01*
X82907200Y-120509523D02*
X82859580Y-120557142D01*
X69804761Y-96550057D02*
X69709523Y-96502438D01*
X69709523Y-96502438D02*
X69614285Y-96407200D01*
X69614285Y-96407200D02*
X69471428Y-96264342D01*
X69471428Y-96264342D02*
X69376190Y-96216723D01*
X69376190Y-96216723D02*
X69280952Y-96216723D01*
X69328571Y-96454819D02*
X69233333Y-96407200D01*
X69233333Y-96407200D02*
X69138095Y-96311961D01*
X69138095Y-96311961D02*
X69090476Y-96121485D01*
X69090476Y-96121485D02*
X69090476Y-95788152D01*
X69090476Y-95788152D02*
X69138095Y-95597676D01*
X69138095Y-95597676D02*
X69233333Y-95502438D01*
X69233333Y-95502438D02*
X69328571Y-95454819D01*
X69328571Y-95454819D02*
X69519047Y-95454819D01*
X69519047Y-95454819D02*
X69614285Y-95502438D01*
X69614285Y-95502438D02*
X69709523Y-95597676D01*
X69709523Y-95597676D02*
X69757142Y-95788152D01*
X69757142Y-95788152D02*
X69757142Y-96121485D01*
X69757142Y-96121485D02*
X69709523Y-96311961D01*
X69709523Y-96311961D02*
X69614285Y-96407200D01*
X69614285Y-96407200D02*
X69519047Y-96454819D01*
X69519047Y-96454819D02*
X69328571Y-96454819D01*
X70138095Y-95550057D02*
X70185714Y-95502438D01*
X70185714Y-95502438D02*
X70280952Y-95454819D01*
X70280952Y-95454819D02*
X70519047Y-95454819D01*
X70519047Y-95454819D02*
X70614285Y-95502438D01*
X70614285Y-95502438D02*
X70661904Y-95550057D01*
X70661904Y-95550057D02*
X70709523Y-95645295D01*
X70709523Y-95645295D02*
X70709523Y-95740533D01*
X70709523Y-95740533D02*
X70661904Y-95883390D01*
X70661904Y-95883390D02*
X70090476Y-96454819D01*
X70090476Y-96454819D02*
X70709523Y-96454819D01*
X94559580Y-93842857D02*
X94607200Y-93890476D01*
X94607200Y-93890476D02*
X94654819Y-94033333D01*
X94654819Y-94033333D02*
X94654819Y-94128571D01*
X94654819Y-94128571D02*
X94607200Y-94271428D01*
X94607200Y-94271428D02*
X94511961Y-94366666D01*
X94511961Y-94366666D02*
X94416723Y-94414285D01*
X94416723Y-94414285D02*
X94226247Y-94461904D01*
X94226247Y-94461904D02*
X94083390Y-94461904D01*
X94083390Y-94461904D02*
X93892914Y-94414285D01*
X93892914Y-94414285D02*
X93797676Y-94366666D01*
X93797676Y-94366666D02*
X93702438Y-94271428D01*
X93702438Y-94271428D02*
X93654819Y-94128571D01*
X93654819Y-94128571D02*
X93654819Y-94033333D01*
X93654819Y-94033333D02*
X93702438Y-93890476D01*
X93702438Y-93890476D02*
X93750057Y-93842857D01*
X94654819Y-92890476D02*
X94654819Y-93461904D01*
X94654819Y-93176190D02*
X93654819Y-93176190D01*
X93654819Y-93176190D02*
X93797676Y-93271428D01*
X93797676Y-93271428D02*
X93892914Y-93366666D01*
X93892914Y-93366666D02*
X93940533Y-93461904D01*
X93654819Y-92271428D02*
X93654819Y-92176190D01*
X93654819Y-92176190D02*
X93702438Y-92080952D01*
X93702438Y-92080952D02*
X93750057Y-92033333D01*
X93750057Y-92033333D02*
X93845295Y-91985714D01*
X93845295Y-91985714D02*
X94035771Y-91938095D01*
X94035771Y-91938095D02*
X94273866Y-91938095D01*
X94273866Y-91938095D02*
X94464342Y-91985714D01*
X94464342Y-91985714D02*
X94559580Y-92033333D01*
X94559580Y-92033333D02*
X94607200Y-92080952D01*
X94607200Y-92080952D02*
X94654819Y-92176190D01*
X94654819Y-92176190D02*
X94654819Y-92271428D01*
X94654819Y-92271428D02*
X94607200Y-92366666D01*
X94607200Y-92366666D02*
X94559580Y-92414285D01*
X94559580Y-92414285D02*
X94464342Y-92461904D01*
X94464342Y-92461904D02*
X94273866Y-92509523D01*
X94273866Y-92509523D02*
X94035771Y-92509523D01*
X94035771Y-92509523D02*
X93845295Y-92461904D01*
X93845295Y-92461904D02*
X93750057Y-92414285D01*
X93750057Y-92414285D02*
X93702438Y-92366666D01*
X93702438Y-92366666D02*
X93654819Y-92271428D01*
X91784580Y-116842857D02*
X91832200Y-116890476D01*
X91832200Y-116890476D02*
X91879819Y-117033333D01*
X91879819Y-117033333D02*
X91879819Y-117128571D01*
X91879819Y-117128571D02*
X91832200Y-117271428D01*
X91832200Y-117271428D02*
X91736961Y-117366666D01*
X91736961Y-117366666D02*
X91641723Y-117414285D01*
X91641723Y-117414285D02*
X91451247Y-117461904D01*
X91451247Y-117461904D02*
X91308390Y-117461904D01*
X91308390Y-117461904D02*
X91117914Y-117414285D01*
X91117914Y-117414285D02*
X91022676Y-117366666D01*
X91022676Y-117366666D02*
X90927438Y-117271428D01*
X90927438Y-117271428D02*
X90879819Y-117128571D01*
X90879819Y-117128571D02*
X90879819Y-117033333D01*
X90879819Y-117033333D02*
X90927438Y-116890476D01*
X90927438Y-116890476D02*
X90975057Y-116842857D01*
X91879819Y-115890476D02*
X91879819Y-116461904D01*
X91879819Y-116176190D02*
X90879819Y-116176190D01*
X90879819Y-116176190D02*
X91022676Y-116271428D01*
X91022676Y-116271428D02*
X91117914Y-116366666D01*
X91117914Y-116366666D02*
X91165533Y-116461904D01*
X90879819Y-115033333D02*
X90879819Y-115223809D01*
X90879819Y-115223809D02*
X90927438Y-115319047D01*
X90927438Y-115319047D02*
X90975057Y-115366666D01*
X90975057Y-115366666D02*
X91117914Y-115461904D01*
X91117914Y-115461904D02*
X91308390Y-115509523D01*
X91308390Y-115509523D02*
X91689342Y-115509523D01*
X91689342Y-115509523D02*
X91784580Y-115461904D01*
X91784580Y-115461904D02*
X91832200Y-115414285D01*
X91832200Y-115414285D02*
X91879819Y-115319047D01*
X91879819Y-115319047D02*
X91879819Y-115128571D01*
X91879819Y-115128571D02*
X91832200Y-115033333D01*
X91832200Y-115033333D02*
X91784580Y-114985714D01*
X91784580Y-114985714D02*
X91689342Y-114938095D01*
X91689342Y-114938095D02*
X91451247Y-114938095D01*
X91451247Y-114938095D02*
X91356009Y-114985714D01*
X91356009Y-114985714D02*
X91308390Y-115033333D01*
X91308390Y-115033333D02*
X91260771Y-115128571D01*
X91260771Y-115128571D02*
X91260771Y-115319047D01*
X91260771Y-115319047D02*
X91308390Y-115414285D01*
X91308390Y-115414285D02*
X91356009Y-115461904D01*
X91356009Y-115461904D02*
X91451247Y-115509523D01*
X85573809Y-96128628D02*
X85573809Y-96604819D01*
X85240476Y-95604819D02*
X85573809Y-96128628D01*
X85573809Y-96128628D02*
X85907142Y-95604819D01*
X86764285Y-96604819D02*
X86192857Y-96604819D01*
X86478571Y-96604819D02*
X86478571Y-95604819D01*
X86478571Y-95604819D02*
X86383333Y-95747676D01*
X86383333Y-95747676D02*
X86288095Y-95842914D01*
X86288095Y-95842914D02*
X86192857Y-95890533D01*
X42988095Y-128954819D02*
X42988095Y-127954819D01*
X42988095Y-128431009D02*
X43559523Y-128431009D01*
X43559523Y-128954819D02*
X43559523Y-127954819D01*
X43988095Y-128050057D02*
X44035714Y-128002438D01*
X44035714Y-128002438D02*
X44130952Y-127954819D01*
X44130952Y-127954819D02*
X44369047Y-127954819D01*
X44369047Y-127954819D02*
X44464285Y-128002438D01*
X44464285Y-128002438D02*
X44511904Y-128050057D01*
X44511904Y-128050057D02*
X44559523Y-128145295D01*
X44559523Y-128145295D02*
X44559523Y-128240533D01*
X44559523Y-128240533D02*
X44511904Y-128383390D01*
X44511904Y-128383390D02*
X43940476Y-128954819D01*
X43940476Y-128954819D02*
X44559523Y-128954819D01*
X82957142Y-104059580D02*
X82909523Y-104107200D01*
X82909523Y-104107200D02*
X82766666Y-104154819D01*
X82766666Y-104154819D02*
X82671428Y-104154819D01*
X82671428Y-104154819D02*
X82528571Y-104107200D01*
X82528571Y-104107200D02*
X82433333Y-104011961D01*
X82433333Y-104011961D02*
X82385714Y-103916723D01*
X82385714Y-103916723D02*
X82338095Y-103726247D01*
X82338095Y-103726247D02*
X82338095Y-103583390D01*
X82338095Y-103583390D02*
X82385714Y-103392914D01*
X82385714Y-103392914D02*
X82433333Y-103297676D01*
X82433333Y-103297676D02*
X82528571Y-103202438D01*
X82528571Y-103202438D02*
X82671428Y-103154819D01*
X82671428Y-103154819D02*
X82766666Y-103154819D01*
X82766666Y-103154819D02*
X82909523Y-103202438D01*
X82909523Y-103202438D02*
X82957142Y-103250057D01*
X83909523Y-104154819D02*
X83338095Y-104154819D01*
X83623809Y-104154819D02*
X83623809Y-103154819D01*
X83623809Y-103154819D02*
X83528571Y-103297676D01*
X83528571Y-103297676D02*
X83433333Y-103392914D01*
X83433333Y-103392914D02*
X83338095Y-103440533D01*
X84480952Y-103583390D02*
X84385714Y-103535771D01*
X84385714Y-103535771D02*
X84338095Y-103488152D01*
X84338095Y-103488152D02*
X84290476Y-103392914D01*
X84290476Y-103392914D02*
X84290476Y-103345295D01*
X84290476Y-103345295D02*
X84338095Y-103250057D01*
X84338095Y-103250057D02*
X84385714Y-103202438D01*
X84385714Y-103202438D02*
X84480952Y-103154819D01*
X84480952Y-103154819D02*
X84671428Y-103154819D01*
X84671428Y-103154819D02*
X84766666Y-103202438D01*
X84766666Y-103202438D02*
X84814285Y-103250057D01*
X84814285Y-103250057D02*
X84861904Y-103345295D01*
X84861904Y-103345295D02*
X84861904Y-103392914D01*
X84861904Y-103392914D02*
X84814285Y-103488152D01*
X84814285Y-103488152D02*
X84766666Y-103535771D01*
X84766666Y-103535771D02*
X84671428Y-103583390D01*
X84671428Y-103583390D02*
X84480952Y-103583390D01*
X84480952Y-103583390D02*
X84385714Y-103631009D01*
X84385714Y-103631009D02*
X84338095Y-103678628D01*
X84338095Y-103678628D02*
X84290476Y-103773866D01*
X84290476Y-103773866D02*
X84290476Y-103964342D01*
X84290476Y-103964342D02*
X84338095Y-104059580D01*
X84338095Y-104059580D02*
X84385714Y-104107200D01*
X84385714Y-104107200D02*
X84480952Y-104154819D01*
X84480952Y-104154819D02*
X84671428Y-104154819D01*
X84671428Y-104154819D02*
X84766666Y-104107200D01*
X84766666Y-104107200D02*
X84814285Y-104059580D01*
X84814285Y-104059580D02*
X84861904Y-103964342D01*
X84861904Y-103964342D02*
X84861904Y-103773866D01*
X84861904Y-103773866D02*
X84814285Y-103678628D01*
X84814285Y-103678628D02*
X84766666Y-103631009D01*
X84766666Y-103631009D02*
X84671428Y-103583390D01*
X77157142Y-93354819D02*
X76823809Y-92878628D01*
X76585714Y-93354819D02*
X76585714Y-92354819D01*
X76585714Y-92354819D02*
X76966666Y-92354819D01*
X76966666Y-92354819D02*
X77061904Y-92402438D01*
X77061904Y-92402438D02*
X77109523Y-92450057D01*
X77109523Y-92450057D02*
X77157142Y-92545295D01*
X77157142Y-92545295D02*
X77157142Y-92688152D01*
X77157142Y-92688152D02*
X77109523Y-92783390D01*
X77109523Y-92783390D02*
X77061904Y-92831009D01*
X77061904Y-92831009D02*
X76966666Y-92878628D01*
X76966666Y-92878628D02*
X76585714Y-92878628D01*
X78109523Y-93354819D02*
X77538095Y-93354819D01*
X77823809Y-93354819D02*
X77823809Y-92354819D01*
X77823809Y-92354819D02*
X77728571Y-92497676D01*
X77728571Y-92497676D02*
X77633333Y-92592914D01*
X77633333Y-92592914D02*
X77538095Y-92640533D01*
X78585714Y-93354819D02*
X78776190Y-93354819D01*
X78776190Y-93354819D02*
X78871428Y-93307200D01*
X78871428Y-93307200D02*
X78919047Y-93259580D01*
X78919047Y-93259580D02*
X79014285Y-93116723D01*
X79014285Y-93116723D02*
X79061904Y-92926247D01*
X79061904Y-92926247D02*
X79061904Y-92545295D01*
X79061904Y-92545295D02*
X79014285Y-92450057D01*
X79014285Y-92450057D02*
X78966666Y-92402438D01*
X78966666Y-92402438D02*
X78871428Y-92354819D01*
X78871428Y-92354819D02*
X78680952Y-92354819D01*
X78680952Y-92354819D02*
X78585714Y-92402438D01*
X78585714Y-92402438D02*
X78538095Y-92450057D01*
X78538095Y-92450057D02*
X78490476Y-92545295D01*
X78490476Y-92545295D02*
X78490476Y-92783390D01*
X78490476Y-92783390D02*
X78538095Y-92878628D01*
X78538095Y-92878628D02*
X78585714Y-92926247D01*
X78585714Y-92926247D02*
X78680952Y-92973866D01*
X78680952Y-92973866D02*
X78871428Y-92973866D01*
X78871428Y-92973866D02*
X78966666Y-92926247D01*
X78966666Y-92926247D02*
X79014285Y-92878628D01*
X79014285Y-92878628D02*
X79061904Y-92783390D01*
X94554819Y-100742857D02*
X94078628Y-101076190D01*
X94554819Y-101314285D02*
X93554819Y-101314285D01*
X93554819Y-101314285D02*
X93554819Y-100933333D01*
X93554819Y-100933333D02*
X93602438Y-100838095D01*
X93602438Y-100838095D02*
X93650057Y-100790476D01*
X93650057Y-100790476D02*
X93745295Y-100742857D01*
X93745295Y-100742857D02*
X93888152Y-100742857D01*
X93888152Y-100742857D02*
X93983390Y-100790476D01*
X93983390Y-100790476D02*
X94031009Y-100838095D01*
X94031009Y-100838095D02*
X94078628Y-100933333D01*
X94078628Y-100933333D02*
X94078628Y-101314285D01*
X94554819Y-99790476D02*
X94554819Y-100361904D01*
X94554819Y-100076190D02*
X93554819Y-100076190D01*
X93554819Y-100076190D02*
X93697676Y-100171428D01*
X93697676Y-100171428D02*
X93792914Y-100266666D01*
X93792914Y-100266666D02*
X93840533Y-100361904D01*
X93554819Y-99171428D02*
X93554819Y-99076190D01*
X93554819Y-99076190D02*
X93602438Y-98980952D01*
X93602438Y-98980952D02*
X93650057Y-98933333D01*
X93650057Y-98933333D02*
X93745295Y-98885714D01*
X93745295Y-98885714D02*
X93935771Y-98838095D01*
X93935771Y-98838095D02*
X94173866Y-98838095D01*
X94173866Y-98838095D02*
X94364342Y-98885714D01*
X94364342Y-98885714D02*
X94459580Y-98933333D01*
X94459580Y-98933333D02*
X94507200Y-98980952D01*
X94507200Y-98980952D02*
X94554819Y-99076190D01*
X94554819Y-99076190D02*
X94554819Y-99171428D01*
X94554819Y-99171428D02*
X94507200Y-99266666D01*
X94507200Y-99266666D02*
X94459580Y-99314285D01*
X94459580Y-99314285D02*
X94364342Y-99361904D01*
X94364342Y-99361904D02*
X94173866Y-99409523D01*
X94173866Y-99409523D02*
X93935771Y-99409523D01*
X93935771Y-99409523D02*
X93745295Y-99361904D01*
X93745295Y-99361904D02*
X93650057Y-99314285D01*
X93650057Y-99314285D02*
X93602438Y-99266666D01*
X93602438Y-99266666D02*
X93554819Y-99171428D01*
X78538095Y-116254819D02*
X78538095Y-117064342D01*
X78538095Y-117064342D02*
X78585714Y-117159580D01*
X78585714Y-117159580D02*
X78633333Y-117207200D01*
X78633333Y-117207200D02*
X78728571Y-117254819D01*
X78728571Y-117254819D02*
X78919047Y-117254819D01*
X78919047Y-117254819D02*
X79014285Y-117207200D01*
X79014285Y-117207200D02*
X79061904Y-117159580D01*
X79061904Y-117159580D02*
X79109523Y-117064342D01*
X79109523Y-117064342D02*
X79109523Y-116254819D01*
X80109523Y-117254819D02*
X79538095Y-117254819D01*
X79823809Y-117254819D02*
X79823809Y-116254819D01*
X79823809Y-116254819D02*
X79728571Y-116397676D01*
X79728571Y-116397676D02*
X79633333Y-116492914D01*
X79633333Y-116492914D02*
X79538095Y-116540533D01*
X78557142Y-110459580D02*
X78509523Y-110507200D01*
X78509523Y-110507200D02*
X78366666Y-110554819D01*
X78366666Y-110554819D02*
X78271428Y-110554819D01*
X78271428Y-110554819D02*
X78128571Y-110507200D01*
X78128571Y-110507200D02*
X78033333Y-110411961D01*
X78033333Y-110411961D02*
X77985714Y-110316723D01*
X77985714Y-110316723D02*
X77938095Y-110126247D01*
X77938095Y-110126247D02*
X77938095Y-109983390D01*
X77938095Y-109983390D02*
X77985714Y-109792914D01*
X77985714Y-109792914D02*
X78033333Y-109697676D01*
X78033333Y-109697676D02*
X78128571Y-109602438D01*
X78128571Y-109602438D02*
X78271428Y-109554819D01*
X78271428Y-109554819D02*
X78366666Y-109554819D01*
X78366666Y-109554819D02*
X78509523Y-109602438D01*
X78509523Y-109602438D02*
X78557142Y-109650057D01*
X79509523Y-110554819D02*
X78938095Y-110554819D01*
X79223809Y-110554819D02*
X79223809Y-109554819D01*
X79223809Y-109554819D02*
X79128571Y-109697676D01*
X79128571Y-109697676D02*
X79033333Y-109792914D01*
X79033333Y-109792914D02*
X78938095Y-109840533D01*
X79985714Y-110554819D02*
X80176190Y-110554819D01*
X80176190Y-110554819D02*
X80271428Y-110507200D01*
X80271428Y-110507200D02*
X80319047Y-110459580D01*
X80319047Y-110459580D02*
X80414285Y-110316723D01*
X80414285Y-110316723D02*
X80461904Y-110126247D01*
X80461904Y-110126247D02*
X80461904Y-109745295D01*
X80461904Y-109745295D02*
X80414285Y-109650057D01*
X80414285Y-109650057D02*
X80366666Y-109602438D01*
X80366666Y-109602438D02*
X80271428Y-109554819D01*
X80271428Y-109554819D02*
X80080952Y-109554819D01*
X80080952Y-109554819D02*
X79985714Y-109602438D01*
X79985714Y-109602438D02*
X79938095Y-109650057D01*
X79938095Y-109650057D02*
X79890476Y-109745295D01*
X79890476Y-109745295D02*
X79890476Y-109983390D01*
X79890476Y-109983390D02*
X79938095Y-110078628D01*
X79938095Y-110078628D02*
X79985714Y-110126247D01*
X79985714Y-110126247D02*
X80080952Y-110173866D01*
X80080952Y-110173866D02*
X80271428Y-110173866D01*
X80271428Y-110173866D02*
X80366666Y-110126247D01*
X80366666Y-110126247D02*
X80414285Y-110078628D01*
X80414285Y-110078628D02*
X80461904Y-109983390D01*
X103872280Y-84066666D02*
X103919900Y-84114285D01*
X103919900Y-84114285D02*
X103967519Y-84257142D01*
X103967519Y-84257142D02*
X103967519Y-84352380D01*
X103967519Y-84352380D02*
X103919900Y-84495237D01*
X103919900Y-84495237D02*
X103824661Y-84590475D01*
X103824661Y-84590475D02*
X103729423Y-84638094D01*
X103729423Y-84638094D02*
X103538947Y-84685713D01*
X103538947Y-84685713D02*
X103396090Y-84685713D01*
X103396090Y-84685713D02*
X103205614Y-84638094D01*
X103205614Y-84638094D02*
X103110376Y-84590475D01*
X103110376Y-84590475D02*
X103015138Y-84495237D01*
X103015138Y-84495237D02*
X102967519Y-84352380D01*
X102967519Y-84352380D02*
X102967519Y-84257142D01*
X102967519Y-84257142D02*
X103015138Y-84114285D01*
X103015138Y-84114285D02*
X103062757Y-84066666D01*
X103396090Y-83495237D02*
X103348471Y-83590475D01*
X103348471Y-83590475D02*
X103300852Y-83638094D01*
X103300852Y-83638094D02*
X103205614Y-83685713D01*
X103205614Y-83685713D02*
X103157995Y-83685713D01*
X103157995Y-83685713D02*
X103062757Y-83638094D01*
X103062757Y-83638094D02*
X103015138Y-83590475D01*
X103015138Y-83590475D02*
X102967519Y-83495237D01*
X102967519Y-83495237D02*
X102967519Y-83304761D01*
X102967519Y-83304761D02*
X103015138Y-83209523D01*
X103015138Y-83209523D02*
X103062757Y-83161904D01*
X103062757Y-83161904D02*
X103157995Y-83114285D01*
X103157995Y-83114285D02*
X103205614Y-83114285D01*
X103205614Y-83114285D02*
X103300852Y-83161904D01*
X103300852Y-83161904D02*
X103348471Y-83209523D01*
X103348471Y-83209523D02*
X103396090Y-83304761D01*
X103396090Y-83304761D02*
X103396090Y-83495237D01*
X103396090Y-83495237D02*
X103443709Y-83590475D01*
X103443709Y-83590475D02*
X103491328Y-83638094D01*
X103491328Y-83638094D02*
X103586566Y-83685713D01*
X103586566Y-83685713D02*
X103777042Y-83685713D01*
X103777042Y-83685713D02*
X103872280Y-83638094D01*
X103872280Y-83638094D02*
X103919900Y-83590475D01*
X103919900Y-83590475D02*
X103967519Y-83495237D01*
X103967519Y-83495237D02*
X103967519Y-83304761D01*
X103967519Y-83304761D02*
X103919900Y-83209523D01*
X103919900Y-83209523D02*
X103872280Y-83161904D01*
X103872280Y-83161904D02*
X103777042Y-83114285D01*
X103777042Y-83114285D02*
X103586566Y-83114285D01*
X103586566Y-83114285D02*
X103491328Y-83161904D01*
X103491328Y-83161904D02*
X103443709Y-83209523D01*
X103443709Y-83209523D02*
X103396090Y-83304761D01*
X90757142Y-94154819D02*
X90423809Y-93678628D01*
X90185714Y-94154819D02*
X90185714Y-93154819D01*
X90185714Y-93154819D02*
X90566666Y-93154819D01*
X90566666Y-93154819D02*
X90661904Y-93202438D01*
X90661904Y-93202438D02*
X90709523Y-93250057D01*
X90709523Y-93250057D02*
X90757142Y-93345295D01*
X90757142Y-93345295D02*
X90757142Y-93488152D01*
X90757142Y-93488152D02*
X90709523Y-93583390D01*
X90709523Y-93583390D02*
X90661904Y-93631009D01*
X90661904Y-93631009D02*
X90566666Y-93678628D01*
X90566666Y-93678628D02*
X90185714Y-93678628D01*
X91709523Y-94154819D02*
X91138095Y-94154819D01*
X91423809Y-94154819D02*
X91423809Y-93154819D01*
X91423809Y-93154819D02*
X91328571Y-93297676D01*
X91328571Y-93297676D02*
X91233333Y-93392914D01*
X91233333Y-93392914D02*
X91138095Y-93440533D01*
X92661904Y-94154819D02*
X92090476Y-94154819D01*
X92376190Y-94154819D02*
X92376190Y-93154819D01*
X92376190Y-93154819D02*
X92280952Y-93297676D01*
X92280952Y-93297676D02*
X92185714Y-93392914D01*
X92185714Y-93392914D02*
X92090476Y-93440533D01*
X80379580Y-121842857D02*
X80427200Y-121890476D01*
X80427200Y-121890476D02*
X80474819Y-122033333D01*
X80474819Y-122033333D02*
X80474819Y-122128571D01*
X80474819Y-122128571D02*
X80427200Y-122271428D01*
X80427200Y-122271428D02*
X80331961Y-122366666D01*
X80331961Y-122366666D02*
X80236723Y-122414285D01*
X80236723Y-122414285D02*
X80046247Y-122461904D01*
X80046247Y-122461904D02*
X79903390Y-122461904D01*
X79903390Y-122461904D02*
X79712914Y-122414285D01*
X79712914Y-122414285D02*
X79617676Y-122366666D01*
X79617676Y-122366666D02*
X79522438Y-122271428D01*
X79522438Y-122271428D02*
X79474819Y-122128571D01*
X79474819Y-122128571D02*
X79474819Y-122033333D01*
X79474819Y-122033333D02*
X79522438Y-121890476D01*
X79522438Y-121890476D02*
X79570057Y-121842857D01*
X79570057Y-121461904D02*
X79522438Y-121414285D01*
X79522438Y-121414285D02*
X79474819Y-121319047D01*
X79474819Y-121319047D02*
X79474819Y-121080952D01*
X79474819Y-121080952D02*
X79522438Y-120985714D01*
X79522438Y-120985714D02*
X79570057Y-120938095D01*
X79570057Y-120938095D02*
X79665295Y-120890476D01*
X79665295Y-120890476D02*
X79760533Y-120890476D01*
X79760533Y-120890476D02*
X79903390Y-120938095D01*
X79903390Y-120938095D02*
X80474819Y-121509523D01*
X80474819Y-121509523D02*
X80474819Y-120890476D01*
X79570057Y-120509523D02*
X79522438Y-120461904D01*
X79522438Y-120461904D02*
X79474819Y-120366666D01*
X79474819Y-120366666D02*
X79474819Y-120128571D01*
X79474819Y-120128571D02*
X79522438Y-120033333D01*
X79522438Y-120033333D02*
X79570057Y-119985714D01*
X79570057Y-119985714D02*
X79665295Y-119938095D01*
X79665295Y-119938095D02*
X79760533Y-119938095D01*
X79760533Y-119938095D02*
X79903390Y-119985714D01*
X79903390Y-119985714D02*
X80474819Y-120557142D01*
X80474819Y-120557142D02*
X80474819Y-119938095D01*
X121254819Y-91066666D02*
X120778628Y-91399999D01*
X121254819Y-91638094D02*
X120254819Y-91638094D01*
X120254819Y-91638094D02*
X120254819Y-91257142D01*
X120254819Y-91257142D02*
X120302438Y-91161904D01*
X120302438Y-91161904D02*
X120350057Y-91114285D01*
X120350057Y-91114285D02*
X120445295Y-91066666D01*
X120445295Y-91066666D02*
X120588152Y-91066666D01*
X120588152Y-91066666D02*
X120683390Y-91114285D01*
X120683390Y-91114285D02*
X120731009Y-91161904D01*
X120731009Y-91161904D02*
X120778628Y-91257142D01*
X120778628Y-91257142D02*
X120778628Y-91638094D01*
X120254819Y-90733332D02*
X120254819Y-90066666D01*
X120254819Y-90066666D02*
X121254819Y-90495237D01*
X84057142Y-93854819D02*
X83723809Y-93378628D01*
X83485714Y-93854819D02*
X83485714Y-92854819D01*
X83485714Y-92854819D02*
X83866666Y-92854819D01*
X83866666Y-92854819D02*
X83961904Y-92902438D01*
X83961904Y-92902438D02*
X84009523Y-92950057D01*
X84009523Y-92950057D02*
X84057142Y-93045295D01*
X84057142Y-93045295D02*
X84057142Y-93188152D01*
X84057142Y-93188152D02*
X84009523Y-93283390D01*
X84009523Y-93283390D02*
X83961904Y-93331009D01*
X83961904Y-93331009D02*
X83866666Y-93378628D01*
X83866666Y-93378628D02*
X83485714Y-93378628D01*
X85009523Y-93854819D02*
X84438095Y-93854819D01*
X84723809Y-93854819D02*
X84723809Y-92854819D01*
X84723809Y-92854819D02*
X84628571Y-92997676D01*
X84628571Y-92997676D02*
X84533333Y-93092914D01*
X84533333Y-93092914D02*
X84438095Y-93140533D01*
X85914285Y-92854819D02*
X85438095Y-92854819D01*
X85438095Y-92854819D02*
X85390476Y-93331009D01*
X85390476Y-93331009D02*
X85438095Y-93283390D01*
X85438095Y-93283390D02*
X85533333Y-93235771D01*
X85533333Y-93235771D02*
X85771428Y-93235771D01*
X85771428Y-93235771D02*
X85866666Y-93283390D01*
X85866666Y-93283390D02*
X85914285Y-93331009D01*
X85914285Y-93331009D02*
X85961904Y-93426247D01*
X85961904Y-93426247D02*
X85961904Y-93664342D01*
X85961904Y-93664342D02*
X85914285Y-93759580D01*
X85914285Y-93759580D02*
X85866666Y-93807200D01*
X85866666Y-93807200D02*
X85771428Y-93854819D01*
X85771428Y-93854819D02*
X85533333Y-93854819D01*
X85533333Y-93854819D02*
X85438095Y-93807200D01*
X85438095Y-93807200D02*
X85390476Y-93759580D01*
X103654819Y-108942857D02*
X103178628Y-109276190D01*
X103654819Y-109514285D02*
X102654819Y-109514285D01*
X102654819Y-109514285D02*
X102654819Y-109133333D01*
X102654819Y-109133333D02*
X102702438Y-109038095D01*
X102702438Y-109038095D02*
X102750057Y-108990476D01*
X102750057Y-108990476D02*
X102845295Y-108942857D01*
X102845295Y-108942857D02*
X102988152Y-108942857D01*
X102988152Y-108942857D02*
X103083390Y-108990476D01*
X103083390Y-108990476D02*
X103131009Y-109038095D01*
X103131009Y-109038095D02*
X103178628Y-109133333D01*
X103178628Y-109133333D02*
X103178628Y-109514285D01*
X102750057Y-108561904D02*
X102702438Y-108514285D01*
X102702438Y-108514285D02*
X102654819Y-108419047D01*
X102654819Y-108419047D02*
X102654819Y-108180952D01*
X102654819Y-108180952D02*
X102702438Y-108085714D01*
X102702438Y-108085714D02*
X102750057Y-108038095D01*
X102750057Y-108038095D02*
X102845295Y-107990476D01*
X102845295Y-107990476D02*
X102940533Y-107990476D01*
X102940533Y-107990476D02*
X103083390Y-108038095D01*
X103083390Y-108038095D02*
X103654819Y-108609523D01*
X103654819Y-108609523D02*
X103654819Y-107990476D01*
X102654819Y-107657142D02*
X102654819Y-107038095D01*
X102654819Y-107038095D02*
X103035771Y-107371428D01*
X103035771Y-107371428D02*
X103035771Y-107228571D01*
X103035771Y-107228571D02*
X103083390Y-107133333D01*
X103083390Y-107133333D02*
X103131009Y-107085714D01*
X103131009Y-107085714D02*
X103226247Y-107038095D01*
X103226247Y-107038095D02*
X103464342Y-107038095D01*
X103464342Y-107038095D02*
X103559580Y-107085714D01*
X103559580Y-107085714D02*
X103607200Y-107133333D01*
X103607200Y-107133333D02*
X103654819Y-107228571D01*
X103654819Y-107228571D02*
X103654819Y-107514285D01*
X103654819Y-107514285D02*
X103607200Y-107609523D01*
X103607200Y-107609523D02*
X103559580Y-107657142D01*
X80357142Y-94154819D02*
X80023809Y-93678628D01*
X79785714Y-94154819D02*
X79785714Y-93154819D01*
X79785714Y-93154819D02*
X80166666Y-93154819D01*
X80166666Y-93154819D02*
X80261904Y-93202438D01*
X80261904Y-93202438D02*
X80309523Y-93250057D01*
X80309523Y-93250057D02*
X80357142Y-93345295D01*
X80357142Y-93345295D02*
X80357142Y-93488152D01*
X80357142Y-93488152D02*
X80309523Y-93583390D01*
X80309523Y-93583390D02*
X80261904Y-93631009D01*
X80261904Y-93631009D02*
X80166666Y-93678628D01*
X80166666Y-93678628D02*
X79785714Y-93678628D01*
X80738095Y-93250057D02*
X80785714Y-93202438D01*
X80785714Y-93202438D02*
X80880952Y-93154819D01*
X80880952Y-93154819D02*
X81119047Y-93154819D01*
X81119047Y-93154819D02*
X81214285Y-93202438D01*
X81214285Y-93202438D02*
X81261904Y-93250057D01*
X81261904Y-93250057D02*
X81309523Y-93345295D01*
X81309523Y-93345295D02*
X81309523Y-93440533D01*
X81309523Y-93440533D02*
X81261904Y-93583390D01*
X81261904Y-93583390D02*
X80690476Y-94154819D01*
X80690476Y-94154819D02*
X81309523Y-94154819D01*
X81928571Y-93154819D02*
X82023809Y-93154819D01*
X82023809Y-93154819D02*
X82119047Y-93202438D01*
X82119047Y-93202438D02*
X82166666Y-93250057D01*
X82166666Y-93250057D02*
X82214285Y-93345295D01*
X82214285Y-93345295D02*
X82261904Y-93535771D01*
X82261904Y-93535771D02*
X82261904Y-93773866D01*
X82261904Y-93773866D02*
X82214285Y-93964342D01*
X82214285Y-93964342D02*
X82166666Y-94059580D01*
X82166666Y-94059580D02*
X82119047Y-94107200D01*
X82119047Y-94107200D02*
X82023809Y-94154819D01*
X82023809Y-94154819D02*
X81928571Y-94154819D01*
X81928571Y-94154819D02*
X81833333Y-94107200D01*
X81833333Y-94107200D02*
X81785714Y-94059580D01*
X81785714Y-94059580D02*
X81738095Y-93964342D01*
X81738095Y-93964342D02*
X81690476Y-93773866D01*
X81690476Y-93773866D02*
X81690476Y-93535771D01*
X81690476Y-93535771D02*
X81738095Y-93345295D01*
X81738095Y-93345295D02*
X81785714Y-93250057D01*
X81785714Y-93250057D02*
X81833333Y-93202438D01*
X81833333Y-93202438D02*
X81928571Y-93154819D01*
X78157142Y-114259580D02*
X78109523Y-114307200D01*
X78109523Y-114307200D02*
X77966666Y-114354819D01*
X77966666Y-114354819D02*
X77871428Y-114354819D01*
X77871428Y-114354819D02*
X77728571Y-114307200D01*
X77728571Y-114307200D02*
X77633333Y-114211961D01*
X77633333Y-114211961D02*
X77585714Y-114116723D01*
X77585714Y-114116723D02*
X77538095Y-113926247D01*
X77538095Y-113926247D02*
X77538095Y-113783390D01*
X77538095Y-113783390D02*
X77585714Y-113592914D01*
X77585714Y-113592914D02*
X77633333Y-113497676D01*
X77633333Y-113497676D02*
X77728571Y-113402438D01*
X77728571Y-113402438D02*
X77871428Y-113354819D01*
X77871428Y-113354819D02*
X77966666Y-113354819D01*
X77966666Y-113354819D02*
X78109523Y-113402438D01*
X78109523Y-113402438D02*
X78157142Y-113450057D01*
X78538095Y-113450057D02*
X78585714Y-113402438D01*
X78585714Y-113402438D02*
X78680952Y-113354819D01*
X78680952Y-113354819D02*
X78919047Y-113354819D01*
X78919047Y-113354819D02*
X79014285Y-113402438D01*
X79014285Y-113402438D02*
X79061904Y-113450057D01*
X79061904Y-113450057D02*
X79109523Y-113545295D01*
X79109523Y-113545295D02*
X79109523Y-113640533D01*
X79109523Y-113640533D02*
X79061904Y-113783390D01*
X79061904Y-113783390D02*
X78490476Y-114354819D01*
X78490476Y-114354819D02*
X79109523Y-114354819D01*
X79728571Y-113354819D02*
X79823809Y-113354819D01*
X79823809Y-113354819D02*
X79919047Y-113402438D01*
X79919047Y-113402438D02*
X79966666Y-113450057D01*
X79966666Y-113450057D02*
X80014285Y-113545295D01*
X80014285Y-113545295D02*
X80061904Y-113735771D01*
X80061904Y-113735771D02*
X80061904Y-113973866D01*
X80061904Y-113973866D02*
X80014285Y-114164342D01*
X80014285Y-114164342D02*
X79966666Y-114259580D01*
X79966666Y-114259580D02*
X79919047Y-114307200D01*
X79919047Y-114307200D02*
X79823809Y-114354819D01*
X79823809Y-114354819D02*
X79728571Y-114354819D01*
X79728571Y-114354819D02*
X79633333Y-114307200D01*
X79633333Y-114307200D02*
X79585714Y-114259580D01*
X79585714Y-114259580D02*
X79538095Y-114164342D01*
X79538095Y-114164342D02*
X79490476Y-113973866D01*
X79490476Y-113973866D02*
X79490476Y-113735771D01*
X79490476Y-113735771D02*
X79538095Y-113545295D01*
X79538095Y-113545295D02*
X79585714Y-113450057D01*
X79585714Y-113450057D02*
X79633333Y-113402438D01*
X79633333Y-113402438D02*
X79728571Y-113354819D01*
X99846033Y-79378080D02*
X99798414Y-79425700D01*
X99798414Y-79425700D02*
X99655557Y-79473319D01*
X99655557Y-79473319D02*
X99560319Y-79473319D01*
X99560319Y-79473319D02*
X99417462Y-79425700D01*
X99417462Y-79425700D02*
X99322224Y-79330461D01*
X99322224Y-79330461D02*
X99274605Y-79235223D01*
X99274605Y-79235223D02*
X99226986Y-79044747D01*
X99226986Y-79044747D02*
X99226986Y-78901890D01*
X99226986Y-78901890D02*
X99274605Y-78711414D01*
X99274605Y-78711414D02*
X99322224Y-78616176D01*
X99322224Y-78616176D02*
X99417462Y-78520938D01*
X99417462Y-78520938D02*
X99560319Y-78473319D01*
X99560319Y-78473319D02*
X99655557Y-78473319D01*
X99655557Y-78473319D02*
X99798414Y-78520938D01*
X99798414Y-78520938D02*
X99846033Y-78568557D01*
X100179367Y-78473319D02*
X100846033Y-78473319D01*
X100846033Y-78473319D02*
X100417462Y-79473319D01*
D13*
%TO.C,D8*%
X86565000Y-90100000D02*
X86565000Y-92385000D01*
X86565000Y-92385000D02*
X88035000Y-92385000D01*
X88035000Y-92385000D02*
X88035000Y-90100000D01*
%TO.C,R6*%
X118077500Y-94037258D02*
X118077500Y-93562742D01*
X119122500Y-94037258D02*
X119122500Y-93562742D01*
%TO.C,R31*%
X53020000Y-80446359D02*
X53020000Y-80753641D01*
X53780000Y-80446359D02*
X53780000Y-80753641D01*
%TO.C,C2*%
X87467164Y-101790000D02*
X87682836Y-101790000D01*
X87467164Y-102510000D02*
X87682836Y-102510000D01*
%TO.C,C1*%
X88642164Y-127640000D02*
X88857836Y-127640000D01*
X88642164Y-128360000D02*
X88857836Y-128360000D01*
D11*
%TO.C,Q1*%
X77270000Y-100370000D02*
X78310000Y-100370000D01*
X77270000Y-101830000D02*
X77270000Y-100370000D01*
X79260000Y-101830000D02*
X78340000Y-101830000D01*
X80330000Y-100370000D02*
X79290000Y-100370000D01*
X80330000Y-101830000D02*
X80330000Y-100370000D01*
D13*
%TO.C,R12*%
X113050242Y-117617500D02*
X113524758Y-117617500D01*
X113050242Y-118662500D02*
X113524758Y-118662500D01*
D12*
%TO.C,IC1*%
X55837000Y-86400000D02*
X54193000Y-86400000D01*
X55837000Y-86400000D02*
X55837000Y-96600000D01*
X55837000Y-96600000D02*
X54302000Y-96600000D01*
D14*
X60659000Y-95849000D02*
G75*
G02*
X60221000Y-95849000I-219000J0D01*
G01*
X60221000Y-95849000D02*
G75*
G02*
X60659000Y-95849000I219000J0D01*
G01*
D13*
%TO.C,R2*%
X54277500Y-119662742D02*
X54277500Y-120137258D01*
X55322500Y-119662742D02*
X55322500Y-120137258D01*
%TO.C,R14*%
X113050242Y-119617500D02*
X113524758Y-119617500D01*
X113050242Y-120662500D02*
X113524758Y-120662500D01*
%TO.C,R22*%
X108477500Y-93737258D02*
X108477500Y-93262742D01*
X109522500Y-93737258D02*
X109522500Y-93262742D01*
%TO.C,R5*%
X76137258Y-108977500D02*
X75662742Y-108977500D01*
X76137258Y-110022500D02*
X75662742Y-110022500D01*
%TO.C,C21*%
X84015000Y-119592164D02*
X84015000Y-119807836D01*
X84735000Y-119592164D02*
X84735000Y-119807836D01*
%TO.C,R21*%
X114477500Y-93262742D02*
X114477500Y-93737258D01*
X115522500Y-93262742D02*
X115522500Y-93737258D01*
%TO.C,R29*%
X52577500Y-119662742D02*
X52577500Y-120137258D01*
X53622500Y-119662742D02*
X53622500Y-120137258D01*
%TO.C,R8*%
X120162742Y-114677500D02*
X120637258Y-114677500D01*
X120162742Y-115722500D02*
X120637258Y-115722500D01*
D15*
%TO.C,SW1*%
X107750000Y-98300000D02*
X107750000Y-102000000D01*
X107750000Y-111700000D02*
X107750000Y-108000000D01*
X110000000Y-98300000D02*
X107750000Y-98300000D01*
X110000000Y-111700000D02*
X107750000Y-111700000D01*
X120250000Y-98300000D02*
X118000000Y-98300000D01*
X120250000Y-102000000D02*
X120250000Y-98300000D01*
X120250000Y-108000000D02*
X120250000Y-111700000D01*
X120250000Y-111700000D02*
X118000000Y-111700000D01*
D13*
%TO.C,C23*%
X112490000Y-92140580D02*
X112490000Y-91859420D01*
X113510000Y-92140580D02*
X113510000Y-91859420D01*
%TO.C,D1*%
X56065000Y-119100000D02*
X56065000Y-121385000D01*
X56065000Y-121385000D02*
X57535000Y-121385000D01*
X57535000Y-121385000D02*
X57535000Y-119100000D01*
%TO.C,C12*%
X82840000Y-105807836D02*
X82840000Y-105592164D01*
X83560000Y-105807836D02*
X83560000Y-105592164D01*
%TO.C,D4*%
X75000000Y-108435000D02*
X77285000Y-108435000D01*
X77285000Y-106965000D02*
X75000000Y-106965000D01*
X77285000Y-108435000D02*
X77285000Y-106965000D01*
%TO.C,C9*%
X101040000Y-111907836D02*
X101040000Y-111692164D01*
X101760000Y-111907836D02*
X101760000Y-111692164D01*
%TO.C,C15*%
X80890000Y-118592164D02*
X80890000Y-118807836D01*
X81610000Y-118592164D02*
X81610000Y-118807836D01*
%TO.C,C14*%
X85265000Y-119572164D02*
X85265000Y-119787836D01*
X85985000Y-119572164D02*
X85985000Y-119787836D01*
%TO.C,D11*%
X60110000Y-112050000D02*
X54600000Y-112050000D01*
X60110000Y-115350000D02*
X54600000Y-115350000D01*
X60110000Y-115350000D02*
X60110000Y-112050000D01*
%TO.C,R17*%
X74762742Y-101677500D02*
X75237258Y-101677500D01*
X74762742Y-102722500D02*
X75237258Y-102722500D01*
%TO.C,U2*%
X89025000Y-121275000D02*
X89025000Y-121535000D01*
X89025000Y-126725000D02*
X89025000Y-126465000D01*
X91750000Y-121275000D02*
X89025000Y-121275000D01*
X91750000Y-121275000D02*
X94475000Y-121275000D01*
X91750000Y-126725000D02*
X89025000Y-126725000D01*
X91750000Y-126725000D02*
X94475000Y-126725000D01*
X94475000Y-121275000D02*
X94475000Y-121535000D01*
X94475000Y-126725000D02*
X94475000Y-126465000D01*
X95497500Y-126795000D02*
X95017500Y-126795000D01*
X95257500Y-126465000D01*
X95497500Y-126795000D01*
G36*
X95497500Y-126795000D02*
G01*
X95017500Y-126795000D01*
X95257500Y-126465000D01*
X95497500Y-126795000D01*
G37*
%TO.C,D6*%
X108487500Y-116835000D02*
X110772500Y-116835000D01*
X110772500Y-115365000D02*
X108487500Y-115365000D01*
X110772500Y-116835000D02*
X110772500Y-115365000D01*
%TO.C,C24*%
X110490000Y-92140580D02*
X110490000Y-91859420D01*
X111510000Y-92140580D02*
X111510000Y-91859420D01*
%TO.C,D5*%
X108487500Y-118835000D02*
X110772500Y-118835000D01*
X110772500Y-117365000D02*
X108487500Y-117365000D01*
X110772500Y-118835000D02*
X110772500Y-117365000D01*
%TO.C,C17*%
X90092164Y-110840000D02*
X90307836Y-110840000D01*
X90092164Y-111560000D02*
X90307836Y-111560000D01*
%TO.C,C6*%
X58357836Y-86140000D02*
X58142164Y-86140000D01*
X58357836Y-86860000D02*
X58142164Y-86860000D01*
%TO.C,R9*%
X99777500Y-97437258D02*
X99777500Y-96962742D01*
X100822500Y-97437258D02*
X100822500Y-96962742D01*
%TO.C,C3*%
X85267164Y-101840000D02*
X85482836Y-101840000D01*
X85267164Y-102560000D02*
X85482836Y-102560000D01*
D16*
%TO.C,SW2*%
X57450000Y-100700000D02*
X70550000Y-100700000D01*
X57450000Y-108700000D02*
X57450000Y-100700000D01*
X70550000Y-100700000D02*
X70550000Y-108700000D01*
X70550000Y-108700000D02*
X57450000Y-108700000D01*
X69750000Y-100100000D02*
G75*
G02*
X69150000Y-100100000I-300000J0D01*
G01*
X69150000Y-100100000D02*
G75*
G02*
X69750000Y-100100000I300000J0D01*
G01*
D11*
%TO.C,CR1*%
X94642700Y-81348500D02*
X97382700Y-81348500D01*
X94642700Y-88008500D02*
X94642700Y-81348500D01*
X97382700Y-81348500D02*
X97382700Y-88008500D01*
X97382700Y-88008500D02*
X94642700Y-88008500D01*
D13*
%TO.C,C11*%
X99092164Y-93140000D02*
X99307836Y-93140000D01*
X99092164Y-93860000D02*
X99307836Y-93860000D01*
D10*
%TO.C,IC2*%
X95100000Y-94250000D02*
X95950000Y-94250000D01*
X96300000Y-94500000D02*
X97900000Y-94500000D01*
X96300000Y-96500000D02*
X96300000Y-94500000D01*
X97900000Y-94500000D02*
X97900000Y-96500000D01*
X97900000Y-96500000D02*
X96300000Y-96500000D01*
D13*
%TO.C,R13*%
X113050242Y-115617500D02*
X113524758Y-115617500D01*
X113050242Y-116662500D02*
X113524758Y-116662500D01*
%TO.C,C5*%
X59661252Y-96165000D02*
X59138748Y-96165000D01*
X59661252Y-97635000D02*
X59138748Y-97635000D01*
%TO.C,C13*%
X82140000Y-118592164D02*
X82140000Y-118807836D01*
X82860000Y-118592164D02*
X82860000Y-118807836D01*
%TO.C,D10*%
X108487500Y-122835000D02*
X110772500Y-122835000D01*
X110772500Y-121365000D02*
X108487500Y-121365000D01*
X110772500Y-122835000D02*
X110772500Y-121365000D01*
D17*
%TO.C,G\u002A\u002A\u002A*%
G36*
X66394484Y-118954663D02*
G01*
X66487435Y-118985291D01*
X66583314Y-119041024D01*
X66641760Y-119087940D01*
X66694656Y-119130739D01*
X66741272Y-119151415D01*
X66800726Y-119157544D01*
X66817845Y-119157692D01*
X66880157Y-119160606D01*
X66918619Y-119173473D01*
X66948280Y-119202480D01*
X66957654Y-119215174D01*
X67002264Y-119288577D01*
X67038178Y-119374367D01*
X67068527Y-119481581D01*
X67095137Y-119611961D01*
X67129402Y-119802461D01*
X66999970Y-119805396D01*
X66933149Y-119807179D01*
X66902716Y-119809350D01*
X66905988Y-119812982D01*
X66940282Y-119819147D01*
X66958461Y-119822000D01*
X67005378Y-119830487D01*
X67026542Y-119836817D01*
X67024240Y-119838604D01*
X67001496Y-119857551D01*
X66992444Y-119878447D01*
X66993293Y-119898993D01*
X67010807Y-119914487D01*
X67049168Y-119925574D01*
X67112557Y-119932903D01*
X67205156Y-119937118D01*
X67331147Y-119938866D01*
X67384201Y-119939015D01*
X67494795Y-119938328D01*
X67574718Y-119935392D01*
X67632358Y-119929216D01*
X67676101Y-119918809D01*
X67714332Y-119903180D01*
X67722724Y-119898999D01*
X67783383Y-119875237D01*
X67839639Y-119864501D01*
X67853830Y-119864807D01*
X67889357Y-119874261D01*
X67903762Y-119899757D01*
X67906077Y-119939230D01*
X67906077Y-120007615D01*
X67554384Y-120019025D01*
X67438171Y-120023545D01*
X67333098Y-120029035D01*
X67246396Y-120035006D01*
X67185299Y-120040969D01*
X67158730Y-120045727D01*
X67140140Y-120054092D01*
X67127696Y-120068475D01*
X67120169Y-120095840D01*
X67116327Y-120143151D01*
X67114939Y-120217374D01*
X67114769Y-120294486D01*
X67113129Y-120389391D01*
X67108670Y-120472565D01*
X67102085Y-120534720D01*
X67094543Y-120565746D01*
X67081422Y-120582884D01*
X67059024Y-120593936D01*
X67019704Y-120600199D01*
X66955817Y-120602966D01*
X66871449Y-120603538D01*
X66783536Y-120604640D01*
X66708288Y-120607612D01*
X66655558Y-120611952D01*
X66637592Y-120615429D01*
X66616421Y-120639596D01*
X66590904Y-120692389D01*
X66565572Y-120764378D01*
X66564827Y-120766852D01*
X66511133Y-120914956D01*
X66444453Y-121034112D01*
X66357897Y-121132549D01*
X66244575Y-121218494D01*
X66133448Y-121282009D01*
X65991307Y-121355769D01*
X65209146Y-121361659D01*
X65038107Y-121362680D01*
X64879441Y-121363115D01*
X64737361Y-121362990D01*
X64616077Y-121362332D01*
X64519802Y-121361167D01*
X64452745Y-121359523D01*
X64419119Y-121357426D01*
X64416050Y-121356614D01*
X64392869Y-121349439D01*
X64340588Y-121339812D01*
X64268962Y-121329442D01*
X64240827Y-121325917D01*
X64157751Y-121315412D01*
X64083746Y-121305152D01*
X64031993Y-121296988D01*
X64023876Y-121295451D01*
X63971213Y-121284749D01*
X63965260Y-121034702D01*
X63959307Y-120784655D01*
X64162616Y-120772251D01*
X64262974Y-120766826D01*
X64362855Y-120762605D01*
X64446937Y-120760189D01*
X64478963Y-120759846D01*
X64541329Y-120757512D01*
X64585865Y-120751473D01*
X64600479Y-120745192D01*
X64602471Y-120708223D01*
X64577524Y-120670569D01*
X64535304Y-120645216D01*
X64523981Y-120642457D01*
X64467307Y-120632529D01*
X64461783Y-120412880D01*
X64456258Y-120193230D01*
X64874533Y-120193230D01*
X65002265Y-120192682D01*
X65120013Y-120191151D01*
X65220994Y-120188805D01*
X65298428Y-120185815D01*
X65345534Y-120182351D01*
X65352553Y-120181281D01*
X65392819Y-120169360D01*
X65402479Y-120149578D01*
X65395319Y-120124675D01*
X65386538Y-120086177D01*
X65390119Y-120068239D01*
X65381090Y-120060628D01*
X65343885Y-120056636D01*
X65332085Y-120056461D01*
X65286263Y-120053489D01*
X65270057Y-120040441D01*
X65272660Y-120016742D01*
X65269073Y-119970762D01*
X65254048Y-119943473D01*
X65227214Y-119901335D01*
X65213352Y-119858381D01*
X65215369Y-119827508D01*
X65226252Y-119820052D01*
X65245090Y-119815519D01*
X65231988Y-119809014D01*
X65193965Y-119801568D01*
X65138041Y-119794214D01*
X65071238Y-119787983D01*
X65000575Y-119783907D01*
X64975307Y-119783162D01*
X64867830Y-119778409D01*
X64748775Y-119769298D01*
X64642279Y-119757711D01*
X64633384Y-119756507D01*
X64467307Y-119733509D01*
X64455579Y-119450485D01*
X64448351Y-119311897D01*
X64438627Y-119207734D01*
X64424785Y-119133357D01*
X64405207Y-119084123D01*
X64378269Y-119055391D01*
X64342353Y-119042521D01*
X64312395Y-119040461D01*
X64273710Y-119032130D01*
X64262184Y-119002099D01*
X64262154Y-118999497D01*
X64262154Y-118958534D01*
X65253730Y-118962413D01*
X65449213Y-118962914D01*
X65634596Y-118962882D01*
X65805864Y-118962352D01*
X65958999Y-118961361D01*
X66089984Y-118959945D01*
X66194803Y-118958140D01*
X66269438Y-118955980D01*
X66309871Y-118953503D01*
X66313692Y-118952936D01*
X66394484Y-118954663D01*
G37*
G36*
X70201846Y-121600000D02*
G01*
X70201846Y-126601846D01*
X65200000Y-126601846D01*
X60198154Y-126601846D01*
X60198154Y-123640692D01*
X62282368Y-123640692D01*
X62302070Y-123649502D01*
X62308307Y-123651538D01*
X62335432Y-123663265D01*
X62331577Y-123669129D01*
X62314915Y-123681158D01*
X62317242Y-123689265D01*
X62313893Y-123713992D01*
X62303741Y-123723457D01*
X62304405Y-123734356D01*
X62342388Y-123742985D01*
X62415993Y-123749264D01*
X62523523Y-123753111D01*
X62663281Y-123754447D01*
X62833571Y-123753190D01*
X62903809Y-123752055D01*
X63055269Y-123748244D01*
X63167794Y-123743054D01*
X63241502Y-123736475D01*
X63276510Y-123728499D01*
X63279659Y-123724395D01*
X63293443Y-123707258D01*
X63332334Y-123691844D01*
X63382401Y-123681609D01*
X63429714Y-123680006D01*
X63446423Y-123683031D01*
X63463594Y-123693763D01*
X63473953Y-123718660D01*
X63479091Y-123765701D01*
X63480602Y-123842861D01*
X63480615Y-123854274D01*
X63483170Y-123951128D01*
X63493693Y-124015838D01*
X63516467Y-124055163D01*
X63555778Y-124075861D01*
X63615911Y-124084692D01*
X63627154Y-124085420D01*
X63684934Y-124090008D01*
X63713768Y-124099988D01*
X63723718Y-124122995D01*
X63724846Y-124159538D01*
X63722623Y-124200246D01*
X63709393Y-124223116D01*
X63675316Y-124237007D01*
X63627154Y-124247461D01*
X63565815Y-124261775D01*
X63518925Y-124276364D01*
X63505038Y-124282807D01*
X63497659Y-124297002D01*
X63491798Y-124331179D01*
X63487324Y-124388607D01*
X63484103Y-124472560D01*
X63482001Y-124586309D01*
X63480886Y-124733127D01*
X63480615Y-124883242D01*
X63480615Y-125467871D01*
X63436654Y-125477251D01*
X63382222Y-125488832D01*
X63353615Y-125494896D01*
X63330536Y-125501215D01*
X63344228Y-125504444D01*
X63360892Y-125505425D01*
X63392358Y-125510827D01*
X63390263Y-125527449D01*
X63382531Y-125537472D01*
X63368324Y-125567881D01*
X63371905Y-125581433D01*
X63401487Y-125591210D01*
X63467581Y-125599388D01*
X63567652Y-125605887D01*
X63699166Y-125610624D01*
X63859588Y-125613518D01*
X64046382Y-125614488D01*
X64257013Y-125613453D01*
X64340307Y-125612547D01*
X64487535Y-125610215D01*
X64625029Y-125607077D01*
X64747054Y-125603338D01*
X64847879Y-125599205D01*
X64921769Y-125594884D01*
X64962992Y-125590580D01*
X64965431Y-125590084D01*
X65007536Y-125576043D01*
X65012812Y-125562090D01*
X65009392Y-125559491D01*
X64986761Y-125533622D01*
X64994537Y-125512453D01*
X65014384Y-125507692D01*
X65040403Y-125498353D01*
X65043692Y-125490432D01*
X65026259Y-125472292D01*
X64982374Y-125457399D01*
X64924653Y-125449684D01*
X64911807Y-125449343D01*
X64877244Y-125439926D01*
X64867217Y-125424654D01*
X64866702Y-125381722D01*
X64866506Y-125310423D01*
X64866591Y-125217055D01*
X64866917Y-125107914D01*
X64867446Y-124989299D01*
X64868139Y-124867507D01*
X64868959Y-124748835D01*
X64869866Y-124639581D01*
X64870822Y-124546042D01*
X64871789Y-124474516D01*
X64872727Y-124431299D01*
X64873355Y-124421254D01*
X64893431Y-124418653D01*
X64942982Y-124415342D01*
X65012429Y-124411932D01*
X65033923Y-124411050D01*
X65135760Y-124402972D01*
X65200916Y-124388320D01*
X65228666Y-124367325D01*
X65225907Y-124349719D01*
X65204339Y-124343647D01*
X65197343Y-124346796D01*
X65184076Y-124341860D01*
X65184039Y-124322691D01*
X65175270Y-124290690D01*
X65149166Y-124280674D01*
X65118945Y-124266742D01*
X65116498Y-124230925D01*
X65116813Y-124229234D01*
X65115621Y-124188891D01*
X65104147Y-124170444D01*
X65088071Y-124142839D01*
X65082470Y-124104654D01*
X65074996Y-124048884D01*
X65047907Y-124011883D01*
X64993036Y-123984762D01*
X64963660Y-123975334D01*
X64911311Y-123957948D01*
X64886167Y-123937957D01*
X64878251Y-123901896D01*
X64877615Y-123859245D01*
X64872567Y-123796404D01*
X64857702Y-123769633D01*
X64853192Y-123768737D01*
X64834848Y-123752076D01*
X64828769Y-123719923D01*
X64815146Y-123668391D01*
X64792067Y-123634374D01*
X64777048Y-123622387D01*
X64755592Y-123613117D01*
X64722585Y-123606089D01*
X64672914Y-123600824D01*
X64601464Y-123596847D01*
X64503121Y-123593682D01*
X64372771Y-123590850D01*
X64313415Y-123589756D01*
X64160900Y-123586846D01*
X64042923Y-123583258D01*
X63954956Y-123577502D01*
X63892469Y-123568085D01*
X63850931Y-123553516D01*
X63825814Y-123532304D01*
X63812588Y-123502957D01*
X63806724Y-123463984D01*
X63804138Y-123422067D01*
X63798874Y-123324358D01*
X64059197Y-123310563D01*
X64157021Y-123306328D01*
X64241161Y-123304468D01*
X64303728Y-123305026D01*
X64336838Y-123308047D01*
X64339306Y-123308996D01*
X64365146Y-123312860D01*
X64420625Y-123314246D01*
X64498018Y-123313505D01*
X64589598Y-123310987D01*
X64687641Y-123307043D01*
X64784420Y-123302024D01*
X64872210Y-123296280D01*
X64943287Y-123290163D01*
X64989923Y-123284022D01*
X65004615Y-123278799D01*
X64988481Y-123262368D01*
X64970423Y-123256071D01*
X64973591Y-123251522D01*
X65009282Y-123245251D01*
X65071034Y-123238201D01*
X65126306Y-123233308D01*
X65316381Y-123218109D01*
X65286996Y-123161285D01*
X65248843Y-123115237D01*
X65211192Y-123104461D01*
X65189991Y-123102941D01*
X65176451Y-123093589D01*
X65168812Y-123069222D01*
X65165315Y-123022653D01*
X65164201Y-122946699D01*
X65164048Y-122911972D01*
X65163323Y-122719483D01*
X65370316Y-122706818D01*
X65476326Y-122701237D01*
X65586616Y-122696911D01*
X65683765Y-122694470D01*
X65720808Y-122694154D01*
X65799820Y-122692075D01*
X65844547Y-122685297D01*
X65859590Y-122673012D01*
X65859423Y-122669730D01*
X65866143Y-122663833D01*
X65890567Y-122658634D01*
X65935321Y-122654034D01*
X66003030Y-122649930D01*
X66096319Y-122646220D01*
X66217814Y-122642803D01*
X66370142Y-122639577D01*
X66555927Y-122636441D01*
X66777795Y-122633293D01*
X66811923Y-122632845D01*
X67064917Y-122629225D01*
X67282930Y-122625287D01*
X67470058Y-122620800D01*
X67630395Y-122615531D01*
X67768039Y-122609248D01*
X67887084Y-122601718D01*
X67991626Y-122592709D01*
X68085761Y-122581990D01*
X68173584Y-122569327D01*
X68259192Y-122554488D01*
X68287077Y-122549186D01*
X68447377Y-122512567D01*
X68606739Y-122466000D01*
X68757169Y-122412529D01*
X68890675Y-122355197D01*
X68999265Y-122297048D01*
X69058846Y-122255310D01*
X69117461Y-122207097D01*
X68985577Y-122206395D01*
X68919515Y-122203985D01*
X68872201Y-122198334D01*
X68853699Y-122190653D01*
X68853692Y-122190496D01*
X68867000Y-122167701D01*
X68892769Y-122141841D01*
X68923485Y-122109846D01*
X68927115Y-122081166D01*
X68902688Y-122043897D01*
X68883000Y-122021923D01*
X68846513Y-121972654D01*
X68835356Y-121934513D01*
X68850775Y-121914241D01*
X68862774Y-121912615D01*
X68893425Y-121896835D01*
X68917890Y-121861497D01*
X68925330Y-121824600D01*
X68921827Y-121814519D01*
X68917965Y-121788554D01*
X68928921Y-121767315D01*
X68945403Y-121766032D01*
X68948942Y-121770079D01*
X68973694Y-121775513D01*
X69010000Y-121762683D01*
X69036464Y-121747546D01*
X69036199Y-121740027D01*
X69004525Y-121737411D01*
X68965807Y-121737057D01*
X68872769Y-121736769D01*
X68885266Y-121658615D01*
X68891439Y-121609462D01*
X68891745Y-121581157D01*
X68890381Y-121578626D01*
X68868940Y-121576204D01*
X68817730Y-121571261D01*
X68745916Y-121564669D01*
X68707154Y-121561204D01*
X68605425Y-121550648D01*
X68497429Y-121537006D01*
X68404055Y-121522954D01*
X68391401Y-121520763D01*
X68251495Y-121495908D01*
X68261998Y-121431183D01*
X68265022Y-121384874D01*
X68248456Y-121360004D01*
X68218559Y-121345949D01*
X68171416Y-121332060D01*
X68101471Y-121316001D01*
X68030462Y-121302435D01*
X67954674Y-121287427D01*
X67912691Y-121269944D01*
X67899531Y-121242759D01*
X67910210Y-121198644D01*
X67928733Y-121154872D01*
X67946006Y-121113641D01*
X67957919Y-121075267D01*
X67966880Y-121028246D01*
X67975295Y-120961068D01*
X67981417Y-120903053D01*
X67989310Y-120847540D01*
X67998792Y-120808601D01*
X68001550Y-120802513D01*
X68024256Y-120794984D01*
X68078841Y-120787057D01*
X68158123Y-120779491D01*
X68254923Y-120773046D01*
X68301625Y-120770743D01*
X68439966Y-120764024D01*
X68542575Y-120757442D01*
X68612793Y-120750543D01*
X68653961Y-120742876D01*
X68669420Y-120733987D01*
X68662509Y-120723424D01*
X68660504Y-120722127D01*
X68638942Y-120701242D01*
X68637100Y-120694161D01*
X68634996Y-120659268D01*
X68609420Y-120640603D01*
X68582299Y-120633317D01*
X68525829Y-120620914D01*
X68522905Y-120407072D01*
X68519981Y-120193230D01*
X68938394Y-120193230D01*
X69066147Y-120192682D01*
X69183914Y-120191151D01*
X69284917Y-120188807D01*
X69362375Y-120185818D01*
X69409508Y-120182354D01*
X69416553Y-120181281D01*
X69456819Y-120169360D01*
X69466479Y-120149578D01*
X69459319Y-120124675D01*
X69450538Y-120086177D01*
X69454119Y-120068239D01*
X69444428Y-120061057D01*
X69406146Y-120056886D01*
X69385100Y-120056461D01*
X69333266Y-120053165D01*
X69313624Y-120041595D01*
X69314828Y-120029033D01*
X69315291Y-119994926D01*
X69304123Y-119941123D01*
X69296624Y-119916687D01*
X69281155Y-119856331D01*
X69283831Y-119823071D01*
X69287061Y-119819873D01*
X69287296Y-119808438D01*
X69253931Y-119798074D01*
X69192445Y-119789575D01*
X69108313Y-119783736D01*
X69022211Y-119781450D01*
X68920560Y-119777625D01*
X68804962Y-119768987D01*
X68699976Y-119757383D01*
X68697384Y-119757027D01*
X68531307Y-119734077D01*
X68518332Y-119607077D01*
X68505203Y-119498098D01*
X68489664Y-119399859D01*
X68473153Y-119319333D01*
X68457110Y-119263495D01*
X68442971Y-119239320D01*
X68442444Y-119239102D01*
X68425849Y-119216675D01*
X68423153Y-119200025D01*
X68403224Y-119131712D01*
X68348033Y-119076960D01*
X68275308Y-119042895D01*
X68216681Y-119020130D01*
X68186362Y-118996739D01*
X68174360Y-118964339D01*
X68173433Y-118957423D01*
X68172005Y-118925648D01*
X68183557Y-118909779D01*
X68217497Y-118904300D01*
X68265087Y-118903692D01*
X68330322Y-118899547D01*
X68367344Y-118888801D01*
X68372807Y-118873990D01*
X68343364Y-118857649D01*
X68330903Y-118853828D01*
X68299290Y-118843920D01*
X68297913Y-118836891D01*
X68330130Y-118828604D01*
X68355461Y-118823563D01*
X68413857Y-118815884D01*
X68494775Y-118809943D01*
X68581664Y-118806922D01*
X68589923Y-118806826D01*
X68667424Y-118803881D01*
X68731807Y-118797362D01*
X68771367Y-118788554D01*
X68775538Y-118786461D01*
X68790129Y-118772466D01*
X68770391Y-118767507D01*
X68757628Y-118767222D01*
X68726814Y-118762620D01*
X68723478Y-118753854D01*
X68722321Y-118732097D01*
X68700732Y-118701869D01*
X68670586Y-118676683D01*
X68649129Y-118669230D01*
X68626238Y-118653366D01*
X68599177Y-118614327D01*
X68594663Y-118605730D01*
X68561008Y-118548217D01*
X68517953Y-118486200D01*
X68508375Y-118473846D01*
X68459023Y-118416433D01*
X68395486Y-118348835D01*
X68325372Y-118278439D01*
X68256287Y-118212626D01*
X68195841Y-118158782D01*
X68151639Y-118124290D01*
X68142502Y-118118723D01*
X68098106Y-118093573D01*
X68037552Y-118057523D01*
X68000039Y-118034535D01*
X67955673Y-118008832D01*
X67914395Y-117991383D01*
X67866295Y-117980050D01*
X67801462Y-117972697D01*
X67709984Y-117967186D01*
X67681384Y-117965826D01*
X67576580Y-117959788D01*
X67498760Y-117951399D01*
X67435835Y-117938269D01*
X67375711Y-117918006D01*
X67319923Y-117894348D01*
X67133990Y-117821289D01*
X66938478Y-117762137D01*
X66750026Y-117721662D01*
X66685435Y-117712378D01*
X66635048Y-117708746D01*
X66547484Y-117705422D01*
X66424645Y-117702425D01*
X66268430Y-117699776D01*
X66080740Y-117697495D01*
X65863474Y-117695602D01*
X65618533Y-117694117D01*
X65347816Y-117693062D01*
X65053224Y-117692456D01*
X64806264Y-117692307D01*
X63092658Y-117692307D01*
X63081614Y-117794884D01*
X63075493Y-117900132D01*
X63081020Y-117984833D01*
X63097617Y-118040675D01*
X63098903Y-118042848D01*
X63120169Y-118055321D01*
X63167895Y-118061597D01*
X63247130Y-118062142D01*
X63292543Y-118060716D01*
X63470846Y-118053769D01*
X63470846Y-118337077D01*
X63470846Y-118620384D01*
X63308544Y-118632446D01*
X63224102Y-118640301D01*
X63167808Y-118650823D01*
X63128737Y-118667223D01*
X63095963Y-118692715D01*
X63092552Y-118695946D01*
X63024971Y-118738911D01*
X62977118Y-118747384D01*
X62928769Y-118755793D01*
X62897348Y-118784421D01*
X62880645Y-118838368D01*
X62876448Y-118922736D01*
X62878226Y-118975527D01*
X62885462Y-119061480D01*
X62899740Y-119115509D01*
X62925710Y-119144697D01*
X62968020Y-119156122D01*
X62997651Y-119157393D01*
X63040042Y-119165427D01*
X63060223Y-119182115D01*
X63063455Y-119209373D01*
X63066894Y-119268255D01*
X63070217Y-119351313D01*
X63073098Y-119451098D01*
X63074264Y-119504512D01*
X63080077Y-119802487D01*
X62962846Y-119805409D01*
X62845615Y-119808330D01*
X62933538Y-119822000D01*
X62977899Y-119830385D01*
X62994046Y-119836696D01*
X62987882Y-119838604D01*
X62963879Y-119852911D01*
X62965549Y-119870846D01*
X62962650Y-119897057D01*
X62950282Y-119902101D01*
X62946022Y-119908163D01*
X62972615Y-119919692D01*
X63012015Y-119925933D01*
X63080703Y-119930617D01*
X63170159Y-119933745D01*
X63271863Y-119935317D01*
X63377294Y-119935333D01*
X63477933Y-119933793D01*
X63565258Y-119930696D01*
X63630751Y-119926043D01*
X63665891Y-119919834D01*
X63666230Y-119919692D01*
X63689171Y-119905816D01*
X63685769Y-119900153D01*
X63678199Y-119893618D01*
X63698416Y-119883268D01*
X63735790Y-119872444D01*
X63779691Y-119864486D01*
X63805766Y-119862450D01*
X63851552Y-119867762D01*
X63873945Y-119892841D01*
X63879877Y-119911792D01*
X63886273Y-119948950D01*
X63880939Y-119976262D01*
X63859149Y-119995219D01*
X63816176Y-120007316D01*
X63747294Y-120014043D01*
X63647779Y-120016893D01*
X63545490Y-120017384D01*
X63433564Y-120018723D01*
X63328877Y-120022406D01*
X63240722Y-120027934D01*
X63178395Y-120034807D01*
X63161998Y-120038013D01*
X63080077Y-120058642D01*
X63073493Y-120316166D01*
X63070380Y-120413000D01*
X63066525Y-120495561D01*
X63062379Y-120556080D01*
X63058393Y-120586784D01*
X63057686Y-120588614D01*
X63035454Y-120594907D01*
X62982946Y-120599889D01*
X62908958Y-120602919D01*
X62852947Y-120603538D01*
X62765586Y-120605497D01*
X62689941Y-120610766D01*
X62636547Y-120618430D01*
X62619638Y-120623764D01*
X62606278Y-120633305D01*
X62596491Y-120649215D01*
X62589726Y-120677036D01*
X62585430Y-120722312D01*
X62583053Y-120790585D01*
X62582042Y-120887398D01*
X62581846Y-121003611D01*
X62580800Y-121134946D01*
X62577802Y-121241671D01*
X62573063Y-121319783D01*
X62566793Y-121365280D01*
X62562307Y-121375307D01*
X62547183Y-121402240D01*
X62542769Y-121435076D01*
X62544899Y-121459918D01*
X62556938Y-121474179D01*
X62587360Y-121480789D01*
X62644639Y-121482678D01*
X62680691Y-121482769D01*
X62746567Y-121480593D01*
X62792112Y-121474856D01*
X62808464Y-121466744D01*
X62808079Y-121465724D01*
X62818014Y-121452463D01*
X62857414Y-121439880D01*
X62916690Y-121429970D01*
X62986251Y-121424729D01*
X63006807Y-121424369D01*
X63054058Y-121430686D01*
X63071946Y-121452803D01*
X63072631Y-121458346D01*
X63076719Y-121528141D01*
X63074801Y-121568268D01*
X63063499Y-121588046D01*
X63039431Y-121596797D01*
X63021253Y-121600000D01*
X62978447Y-121613927D01*
X62963401Y-121643051D01*
X62962637Y-121658615D01*
X62962846Y-121707461D01*
X63292492Y-121712829D01*
X63416747Y-121714336D01*
X63507489Y-121713953D01*
X63570254Y-121711298D01*
X63610578Y-121705991D01*
X63633996Y-121697652D01*
X63644185Y-121688669D01*
X63681011Y-121662989D01*
X63734729Y-121647448D01*
X63785945Y-121646229D01*
X63806686Y-121653613D01*
X63818199Y-121680074D01*
X63826788Y-121735302D01*
X63832278Y-121809083D01*
X63834492Y-121891204D01*
X63833254Y-121971452D01*
X63828387Y-122039612D01*
X63819714Y-122085471D01*
X63814332Y-122096347D01*
X63801437Y-122123610D01*
X63813906Y-122138010D01*
X63824606Y-122155266D01*
X63809970Y-122168758D01*
X63813929Y-122177094D01*
X63852649Y-122182924D01*
X63921862Y-122185702D01*
X63943025Y-122185854D01*
X64028746Y-122183432D01*
X64086022Y-122176236D01*
X64109659Y-122164925D01*
X64109743Y-122164693D01*
X64133447Y-122146996D01*
X64181163Y-122135309D01*
X64238136Y-122130706D01*
X64289615Y-122134263D01*
X64320846Y-122147054D01*
X64322490Y-122149192D01*
X64330734Y-122181569D01*
X64336454Y-122240766D01*
X64339447Y-122314596D01*
X64339511Y-122390870D01*
X64336443Y-122457402D01*
X64330039Y-122502002D01*
X64328448Y-122506940D01*
X64317560Y-122520194D01*
X64292692Y-122529131D01*
X64247495Y-122534532D01*
X64175621Y-122537177D01*
X64076840Y-122537846D01*
X63961089Y-122539444D01*
X63881120Y-122544438D01*
X63833762Y-122553127D01*
X63817719Y-122562269D01*
X63808856Y-122590679D01*
X63799507Y-122649249D01*
X63790854Y-122729095D01*
X63784718Y-122810470D01*
X63778511Y-122900609D01*
X63771958Y-122976251D01*
X63765877Y-123028952D01*
X63761469Y-123049816D01*
X63737949Y-123058848D01*
X63688789Y-123064465D01*
X63655780Y-123065384D01*
X63556061Y-123078675D01*
X63495741Y-123104388D01*
X63471949Y-123117230D01*
X63444635Y-123126920D01*
X63408227Y-123133901D01*
X63357153Y-123138618D01*
X63285840Y-123141513D01*
X63188717Y-123143030D01*
X63060210Y-123143612D01*
X63001923Y-123143680D01*
X62829173Y-123144446D01*
X62692171Y-123146665D01*
X62587606Y-123150604D01*
X62512168Y-123156532D01*
X62462545Y-123164716D01*
X62435426Y-123175423D01*
X62427501Y-123188921D01*
X62427593Y-123190098D01*
X62428445Y-123217678D01*
X62428737Y-123275211D01*
X62428458Y-123353577D01*
X62427853Y-123421961D01*
X62425538Y-123632000D01*
X62342500Y-123633947D01*
X62294666Y-123636113D01*
X62282368Y-123640692D01*
X60198154Y-123640692D01*
X60198154Y-121600000D01*
X60198154Y-116598154D01*
X65200000Y-116598154D01*
X70201846Y-116598154D01*
X70201846Y-121600000D01*
G37*
D13*
%TO.C,D9*%
X72415000Y-112065000D02*
X72415000Y-113535000D01*
X72415000Y-113535000D02*
X74700000Y-113535000D01*
X74700000Y-112065000D02*
X72415000Y-112065000D01*
D16*
%TO.C,Q2*%
X72250000Y-93720000D02*
X73530000Y-93720000D01*
X72250000Y-93940000D02*
X72250000Y-93720000D01*
X72250000Y-97010000D02*
X72250000Y-96800000D01*
X72320000Y-97080000D02*
X73530000Y-97080000D01*
X74560000Y-93720000D02*
X75550000Y-93720000D01*
X74560000Y-97080000D02*
X75550000Y-97080000D01*
X75550000Y-93720000D02*
X75550000Y-93950000D01*
X75550000Y-96780000D02*
X75550000Y-97010000D01*
X76100000Y-96920000D02*
G75*
G02*
X75800000Y-96920000I-150000J0D01*
G01*
X75800000Y-96920000D02*
G75*
G02*
X76100000Y-96920000I150000J0D01*
G01*
D13*
%TO.C,R18*%
X113050242Y-121617500D02*
X113524758Y-121617500D01*
X113050242Y-122662500D02*
X113524758Y-122662500D01*
%TO.C,R4*%
X113820000Y-80646359D02*
X113820000Y-80953641D01*
X114580000Y-80646359D02*
X114580000Y-80953641D01*
%TO.C,C10*%
X95040000Y-93007836D02*
X95040000Y-92792164D01*
X95760000Y-93007836D02*
X95760000Y-92792164D01*
%TO.C,C16*%
X89440000Y-116092164D02*
X89440000Y-116307836D01*
X90160000Y-116092164D02*
X90160000Y-116307836D01*
D11*
%TO.C,Y1*%
X85090000Y-98900000D02*
X85090000Y-100460000D01*
X85090000Y-100460000D02*
X86750000Y-100460000D01*
X85320000Y-97170000D02*
X88880000Y-97170000D01*
X85320000Y-100230000D02*
X85320000Y-97170000D01*
X88880000Y-97170000D02*
X88880000Y-100230000D01*
X88880000Y-100230000D02*
X85320000Y-100230000D01*
D13*
%TO.C,C18*%
X84265000Y-105807836D02*
X84265000Y-105592164D01*
X84985000Y-105807836D02*
X84985000Y-105592164D01*
%TO.C,R16*%
X70077500Y-113362742D02*
X70077500Y-113837258D01*
X71122500Y-113362742D02*
X71122500Y-113837258D01*
%TO.C,R3*%
X55620000Y-80466359D02*
X55620000Y-80773641D01*
X56380000Y-80466359D02*
X56380000Y-80773641D01*
%TO.C,R19*%
X77277500Y-95762742D02*
X77277500Y-96237258D01*
X78322500Y-95762742D02*
X78322500Y-96237258D01*
%TO.C,R10*%
X93377500Y-97437258D02*
X93377500Y-96962742D01*
X94422500Y-97437258D02*
X94422500Y-96962742D01*
%TO.C,U1*%
X81202500Y-108890000D02*
X81202500Y-109540000D01*
X81202500Y-116110000D02*
X81202500Y-115460000D01*
X81852500Y-108890000D02*
X81202500Y-108890000D01*
X81852500Y-116110000D02*
X81202500Y-116110000D01*
X87772500Y-108890000D02*
X88422500Y-108890000D01*
X87772500Y-116110000D02*
X88122500Y-116110000D01*
X88422500Y-108890000D02*
X88422500Y-109540000D01*
X88422500Y-115460000D02*
X88422500Y-115870000D01*
X88662500Y-116440000D02*
X88182500Y-116440000D01*
X88422500Y-116110000D01*
X88662500Y-116440000D01*
G36*
X88662500Y-116440000D02*
G01*
X88182500Y-116440000D01*
X88422500Y-116110000D01*
X88662500Y-116440000D01*
G37*
%TO.C,C19*%
X79482836Y-111090000D02*
X79267164Y-111090000D01*
X79482836Y-111810000D02*
X79267164Y-111810000D01*
%TO.C,C8*%
X101002700Y-84040580D02*
X101002700Y-83759420D01*
X102022700Y-84040580D02*
X102022700Y-83759420D01*
%TO.C,R11*%
X90962742Y-91677500D02*
X91437258Y-91677500D01*
X90962742Y-92722500D02*
X91437258Y-92722500D01*
%TO.C,C22*%
X79640000Y-118592164D02*
X79640000Y-118807836D01*
X80360000Y-118592164D02*
X80360000Y-118807836D01*
%TO.C,D2*%
X57065000Y-79315000D02*
X57065000Y-81600000D01*
X58535000Y-79315000D02*
X57065000Y-79315000D01*
X58535000Y-81600000D02*
X58535000Y-79315000D01*
%TO.C,R7*%
X120277500Y-94037258D02*
X120277500Y-93562742D01*
X121322500Y-94037258D02*
X121322500Y-93562742D01*
%TO.C,D3*%
X111465000Y-79615000D02*
X111465000Y-81900000D01*
X112935000Y-79615000D02*
X111465000Y-79615000D01*
X112935000Y-81900000D02*
X112935000Y-79615000D01*
%TO.C,R15*%
X84827064Y-90965000D02*
X84372936Y-90965000D01*
X84827064Y-92435000D02*
X84372936Y-92435000D01*
%TO.C,R23*%
X102677500Y-111737258D02*
X102677500Y-111262742D01*
X103722500Y-111737258D02*
X103722500Y-111262742D01*
%TO.C,R30*%
X54320000Y-80466359D02*
X54320000Y-80773641D01*
X55080000Y-80466359D02*
X55080000Y-80773641D01*
%TO.C,R20*%
X79677500Y-96237258D02*
X79677500Y-95762742D01*
X80722500Y-96237258D02*
X80722500Y-95762742D01*
%TO.C,C20*%
X79232836Y-114840000D02*
X79017164Y-114840000D01*
X79232836Y-115560000D02*
X79017164Y-115560000D01*
%TO.C,R28*%
X72062742Y-108977500D02*
X72537258Y-108977500D01*
X72062742Y-110022500D02*
X72537258Y-110022500D01*
%TO.C,D7*%
X108487500Y-120835000D02*
X110772500Y-120835000D01*
X110772500Y-119365000D02*
X108487500Y-119365000D01*
X110772500Y-120835000D02*
X110772500Y-119365000D01*
%TO.C,C7*%
X99904864Y-79818500D02*
X100120536Y-79818500D01*
X99904864Y-80538500D02*
X100120536Y-80538500D01*
%TD*%
M02*
