M48
; DRILL file {KiCad 8.0.2} date 2024-11-25T11:24:20-0600
; FORMAT={-:-/ absolute / metric / decimal}
; #@! TF.CreationDate,2024-11-25T11:24:20-06:00
; #@! TF.GenerationSoftware,Kicad,Pcbnew,8.0.2
; #@! TF.FileFunction,MixedPlating,1,2
FMAT,2
METRIC
; #@! TA.AperFunction,Plated,PTH,ViaDrill
T1C0.300
; #@! TA.AperFunction,Plated,PTH,ComponentDrill
T2C0.800
; #@! TA.AperFunction,Plated,PTH,ComponentDrill
T3C1.000
; #@! TA.AperFunction,Plated,PTH,ComponentDrill
T4C1.100
; #@! TA.AperFunction,Plated,PTH,ComponentDrill
T5C1.300
; #@! TA.AperFunction,Plated,PTH,ComponentDrill
T6C1.350
; #@! TA.AperFunction,Plated,PTH,ComponentDrill
T7C2.700
; #@! TA.AperFunction,Plated,PTH,ComponentDrill
T8C3.441
%
G90
G05
T1
X46.9Y-118.4
X46.9Y-120.6
X58.6Y-122.5
X68.2Y-112.8
X68.2Y-114.9
X69.9Y-109.6
X73.95Y-95.225
X74.2Y-98.975
X74.2Y-99.725
X74.45Y-95.725
X76.2Y-114.6
X77.4Y-115.2
X77.7Y-111.5
X79.1Y-93.0
X79.95Y-97.475
X80.0Y-120.4
X80.7Y-97.475
X81.2Y-120.4
X81.75Y-107.75
X82.075Y-104.75
X82.4Y-120.4
X83.6Y-111.4
X83.6Y-112.4
X83.6Y-113.6
X83.875Y-98.7
X83.875Y-102.2
X84.4Y-121.2
X84.8Y-111.4
X84.8Y-112.4
X84.8Y-113.6
X85.25Y-104.25
X85.6Y-121.2
X86.0Y-111.4
X86.0Y-112.4
X86.0Y-113.6
X87.0Y-107.2
X90.3Y-89.8
X90.375Y-98.7
X90.375Y-102.2
X90.4Y-117.6
X91.0Y-128.0
X91.2Y-89.8
X91.238Y-83.178
X91.263Y-84.178
X91.263Y-85.178
X91.263Y-86.228
X91.8Y-111.2
X92.1Y-89.8
X93.1Y-89.8
X94.75Y-121.0
X95.75Y-121.0
X98.4Y-91.0
X100.2Y-99.0
X100.8Y-86.6
X100.8Y-87.3
X101.013Y-81.428
X101.4Y-109.7
X102.013Y-81.428
X111.0Y-89.75
X113.0Y-89.75
X114.8Y-82.5
X115.5Y-118.1
X115.5Y-120.1
X115.5Y-122.1
X115.6Y-116.1
T3
X65.42Y-89.25
X70.5Y-89.25
X74.02Y-105.4
X76.56Y-105.4
X79.1Y-105.4
X100.4Y-124.0
X102.94Y-124.0
X105.48Y-124.0
T4
X111.5Y-97.5
X111.5Y-112.0
X114.0Y-97.5
X116.5Y-97.5
X116.5Y-112.0
T6
X78.25Y-84.375
X81.75Y-84.375
X85.25Y-84.375
T7
X48.0Y-80.75
X48.0Y-128.75
X121.0Y-80.75
X121.0Y-128.75
T8
X108.3Y-105.0
X119.7Y-105.0
T2
G00X46.5Y-103.65
M15
G01X46.5Y-105.85
M16
G05
G00X49.15Y-100.1
M15
G01X50.85Y-100.1
M16
G05
G00X52.5Y-103.65
M15
G01X52.5Y-105.85
M16
G05
T5
G00X59.35Y-105.45
M15
G01X59.35Y-103.95
M16
G05
G00X64.05Y-105.45
M15
G01X64.05Y-103.95
M16
G05
G00X68.75Y-105.45
M15
G01X68.75Y-103.95
M16
G05
M30
