%TF.GenerationSoftware,KiCad,Pcbnew,8.0.2*%
%TF.CreationDate,2024-12-31T23:00:35-06:00*%
%TF.ProjectId,LampBoardModule,4c616d70-426f-4617-9264-4d6f64756c65,rev?*%
%TF.SameCoordinates,Original*%
%TF.FileFunction,Legend,Bot*%
%TF.FilePolarity,Positive*%
%FSLAX46Y46*%
G04 Gerber Fmt 4.6, Leading zero omitted, Abs format (unit mm)*
G04 Created by KiCad (PCBNEW 8.0.2) date 2024-12-31 23:00:35*
%MOMM*%
%LPD*%
G01*
G04 APERTURE LIST*
%ADD10C,0.100000*%
%ADD11C,0.150000*%
%ADD12C,0.254000*%
%ADD13C,0.250000*%
%ADD14C,0.200000*%
G04 APERTURE END LIST*
D10*
X80024687Y-103577180D02*
X80072306Y-103624800D01*
X80072306Y-103624800D02*
X80215163Y-103672419D01*
X80215163Y-103672419D02*
X80310401Y-103672419D01*
X80310401Y-103672419D02*
X80453258Y-103624800D01*
X80453258Y-103624800D02*
X80548496Y-103529561D01*
X80548496Y-103529561D02*
X80596115Y-103434323D01*
X80596115Y-103434323D02*
X80643734Y-103243847D01*
X80643734Y-103243847D02*
X80643734Y-103100990D01*
X80643734Y-103100990D02*
X80596115Y-102910514D01*
X80596115Y-102910514D02*
X80548496Y-102815276D01*
X80548496Y-102815276D02*
X80453258Y-102720038D01*
X80453258Y-102720038D02*
X80310401Y-102672419D01*
X80310401Y-102672419D02*
X80215163Y-102672419D01*
X80215163Y-102672419D02*
X80072306Y-102720038D01*
X80072306Y-102720038D02*
X80024687Y-102767657D01*
X79119925Y-103672419D02*
X79596115Y-103672419D01*
X79596115Y-103672419D02*
X79596115Y-102672419D01*
X78786591Y-103672419D02*
X78786591Y-102672419D01*
X78215163Y-103672419D02*
X78643734Y-103100990D01*
X78215163Y-102672419D02*
X78786591Y-103243847D01*
X82096115Y-89072419D02*
X82096115Y-88072419D01*
X82096115Y-88072419D02*
X81858020Y-88072419D01*
X81858020Y-88072419D02*
X81715163Y-88120038D01*
X81715163Y-88120038D02*
X81619925Y-88215276D01*
X81619925Y-88215276D02*
X81572306Y-88310514D01*
X81572306Y-88310514D02*
X81524687Y-88500990D01*
X81524687Y-88500990D02*
X81524687Y-88643847D01*
X81524687Y-88643847D02*
X81572306Y-88834323D01*
X81572306Y-88834323D02*
X81619925Y-88929561D01*
X81619925Y-88929561D02*
X81715163Y-89024800D01*
X81715163Y-89024800D02*
X81858020Y-89072419D01*
X81858020Y-89072419D02*
X82096115Y-89072419D01*
X105924687Y-122172419D02*
X106258020Y-121696228D01*
X106496115Y-122172419D02*
X106496115Y-121172419D01*
X106496115Y-121172419D02*
X106115163Y-121172419D01*
X106115163Y-121172419D02*
X106019925Y-121220038D01*
X106019925Y-121220038D02*
X105972306Y-121267657D01*
X105972306Y-121267657D02*
X105924687Y-121362895D01*
X105924687Y-121362895D02*
X105924687Y-121505752D01*
X105924687Y-121505752D02*
X105972306Y-121600990D01*
X105972306Y-121600990D02*
X106019925Y-121648609D01*
X106019925Y-121648609D02*
X106115163Y-121696228D01*
X106115163Y-121696228D02*
X106496115Y-121696228D01*
X105591353Y-121172419D02*
X104924687Y-122172419D01*
X104924687Y-121172419D02*
X105591353Y-122172419D01*
X74396115Y-103472419D02*
X74396115Y-102472419D01*
X74396115Y-102472419D02*
X74158020Y-102472419D01*
X74158020Y-102472419D02*
X74015163Y-102520038D01*
X74015163Y-102520038D02*
X73919925Y-102615276D01*
X73919925Y-102615276D02*
X73872306Y-102710514D01*
X73872306Y-102710514D02*
X73824687Y-102900990D01*
X73824687Y-102900990D02*
X73824687Y-103043847D01*
X73824687Y-103043847D02*
X73872306Y-103234323D01*
X73872306Y-103234323D02*
X73919925Y-103329561D01*
X73919925Y-103329561D02*
X74015163Y-103424800D01*
X74015163Y-103424800D02*
X74158020Y-103472419D01*
X74158020Y-103472419D02*
X74396115Y-103472419D01*
X86172306Y-88320038D02*
X86267544Y-88272419D01*
X86267544Y-88272419D02*
X86410401Y-88272419D01*
X86410401Y-88272419D02*
X86553258Y-88320038D01*
X86553258Y-88320038D02*
X86648496Y-88415276D01*
X86648496Y-88415276D02*
X86696115Y-88510514D01*
X86696115Y-88510514D02*
X86743734Y-88700990D01*
X86743734Y-88700990D02*
X86743734Y-88843847D01*
X86743734Y-88843847D02*
X86696115Y-89034323D01*
X86696115Y-89034323D02*
X86648496Y-89129561D01*
X86648496Y-89129561D02*
X86553258Y-89224800D01*
X86553258Y-89224800D02*
X86410401Y-89272419D01*
X86410401Y-89272419D02*
X86315163Y-89272419D01*
X86315163Y-89272419D02*
X86172306Y-89224800D01*
X86172306Y-89224800D02*
X86124687Y-89177180D01*
X86124687Y-89177180D02*
X86124687Y-88843847D01*
X86124687Y-88843847D02*
X86315163Y-88843847D01*
X85696115Y-89272419D02*
X85696115Y-88272419D01*
X85696115Y-88272419D02*
X85124687Y-89272419D01*
X85124687Y-89272419D02*
X85124687Y-88272419D01*
X84648496Y-89272419D02*
X84648496Y-88272419D01*
X84648496Y-88272419D02*
X84410401Y-88272419D01*
X84410401Y-88272419D02*
X84267544Y-88320038D01*
X84267544Y-88320038D02*
X84172306Y-88415276D01*
X84172306Y-88415276D02*
X84124687Y-88510514D01*
X84124687Y-88510514D02*
X84077068Y-88700990D01*
X84077068Y-88700990D02*
X84077068Y-88843847D01*
X84077068Y-88843847D02*
X84124687Y-89034323D01*
X84124687Y-89034323D02*
X84172306Y-89129561D01*
X84172306Y-89129561D02*
X84267544Y-89224800D01*
X84267544Y-89224800D02*
X84410401Y-89272419D01*
X84410401Y-89272419D02*
X84648496Y-89272419D01*
X79343734Y-88167657D02*
X79296115Y-88120038D01*
X79296115Y-88120038D02*
X79200877Y-88072419D01*
X79200877Y-88072419D02*
X78962782Y-88072419D01*
X78962782Y-88072419D02*
X78867544Y-88120038D01*
X78867544Y-88120038D02*
X78819925Y-88167657D01*
X78819925Y-88167657D02*
X78772306Y-88262895D01*
X78772306Y-88262895D02*
X78772306Y-88358133D01*
X78772306Y-88358133D02*
X78819925Y-88500990D01*
X78819925Y-88500990D02*
X79391353Y-89072419D01*
X79391353Y-89072419D02*
X78772306Y-89072419D01*
X77915163Y-88405752D02*
X77915163Y-89072419D01*
X78153258Y-88024800D02*
X78391353Y-88739085D01*
X78391353Y-88739085D02*
X77772306Y-88739085D01*
X77534210Y-88072419D02*
X77200877Y-89072419D01*
X77200877Y-89072419D02*
X76867544Y-88072419D01*
X99838972Y-121272419D02*
X99267544Y-121272419D01*
X99553258Y-122272419D02*
X99553258Y-121272419D01*
X99029448Y-121272419D02*
X98362782Y-122272419D01*
X98362782Y-121272419D02*
X99029448Y-122272419D01*
D11*
X54433333Y-100504819D02*
X54433333Y-101219104D01*
X54433333Y-101219104D02*
X54480952Y-101361961D01*
X54480952Y-101361961D02*
X54576190Y-101457200D01*
X54576190Y-101457200D02*
X54719047Y-101504819D01*
X54719047Y-101504819D02*
X54814285Y-101504819D01*
X53528571Y-100838152D02*
X53528571Y-101504819D01*
X53766666Y-100457200D02*
X54004761Y-101171485D01*
X54004761Y-101171485D02*
X53385714Y-101171485D01*
X76893333Y-108854819D02*
X76893333Y-109569104D01*
X76893333Y-109569104D02*
X76940952Y-109711961D01*
X76940952Y-109711961D02*
X77036190Y-109807200D01*
X77036190Y-109807200D02*
X77179047Y-109854819D01*
X77179047Y-109854819D02*
X77274285Y-109854819D01*
X75893333Y-109854819D02*
X76464761Y-109854819D01*
X76179047Y-109854819D02*
X76179047Y-108854819D01*
X76179047Y-108854819D02*
X76274285Y-108997676D01*
X76274285Y-108997676D02*
X76369523Y-109092914D01*
X76369523Y-109092914D02*
X76464761Y-109140533D01*
D12*
X75423332Y-87904318D02*
X75423332Y-88811461D01*
X75423332Y-88811461D02*
X75483809Y-88992889D01*
X75483809Y-88992889D02*
X75604761Y-89113842D01*
X75604761Y-89113842D02*
X75786190Y-89174318D01*
X75786190Y-89174318D02*
X75907142Y-89174318D01*
X74939523Y-87904318D02*
X74153332Y-87904318D01*
X74153332Y-87904318D02*
X74576666Y-88388127D01*
X74576666Y-88388127D02*
X74395237Y-88388127D01*
X74395237Y-88388127D02*
X74274285Y-88448603D01*
X74274285Y-88448603D02*
X74213809Y-88509080D01*
X74213809Y-88509080D02*
X74153332Y-88630032D01*
X74153332Y-88630032D02*
X74153332Y-88932413D01*
X74153332Y-88932413D02*
X74213809Y-89053365D01*
X74213809Y-89053365D02*
X74274285Y-89113842D01*
X74274285Y-89113842D02*
X74395237Y-89174318D01*
X74395237Y-89174318D02*
X74758094Y-89174318D01*
X74758094Y-89174318D02*
X74879047Y-89113842D01*
X74879047Y-89113842D02*
X74939523Y-89053365D01*
D11*
X68126666Y-85609580D02*
X68174285Y-85657200D01*
X68174285Y-85657200D02*
X68317142Y-85704819D01*
X68317142Y-85704819D02*
X68412380Y-85704819D01*
X68412380Y-85704819D02*
X68555237Y-85657200D01*
X68555237Y-85657200D02*
X68650475Y-85561961D01*
X68650475Y-85561961D02*
X68698094Y-85466723D01*
X68698094Y-85466723D02*
X68745713Y-85276247D01*
X68745713Y-85276247D02*
X68745713Y-85133390D01*
X68745713Y-85133390D02*
X68698094Y-84942914D01*
X68698094Y-84942914D02*
X68650475Y-84847676D01*
X68650475Y-84847676D02*
X68555237Y-84752438D01*
X68555237Y-84752438D02*
X68412380Y-84704819D01*
X68412380Y-84704819D02*
X68317142Y-84704819D01*
X68317142Y-84704819D02*
X68174285Y-84752438D01*
X68174285Y-84752438D02*
X68126666Y-84800057D01*
X67269523Y-85038152D02*
X67269523Y-85704819D01*
X67507618Y-84657200D02*
X67745713Y-85371485D01*
X67745713Y-85371485D02*
X67126666Y-85371485D01*
D13*
%TO.C,J4*%
X38990000Y-100180000D02*
X38990000Y-109200000D01*
X38990000Y-109200000D02*
X52970000Y-109200000D01*
X48170000Y-100180000D02*
X38990000Y-100180000D01*
X52970000Y-100180000D02*
X51820000Y-100180000D01*
X52970000Y-102790000D02*
X52970000Y-100180000D01*
X52970000Y-109200000D02*
X52970000Y-106710000D01*
%TO.C,J1*%
X72500000Y-104180000D02*
X80620000Y-104180000D01*
X72500000Y-106620000D02*
X72500000Y-104180000D01*
X75320000Y-104180000D02*
X75320000Y-106620000D01*
X80620000Y-104180000D02*
X80620000Y-106620000D01*
X80620000Y-106620000D02*
X72500000Y-106620000D01*
D14*
%TO.C,J3*%
X75850000Y-84375000D02*
X75850000Y-87450000D01*
X75850000Y-87450000D02*
X88650000Y-87450000D01*
X88650000Y-80050000D02*
X78250000Y-80050000D01*
X88650000Y-87450000D02*
X88650000Y-80050000D01*
D13*
%TO.C,C4*%
X71520000Y-89250000D02*
X72530000Y-89250000D01*
X72020000Y-90010000D02*
X72020000Y-88490000D01*
X72960000Y-89250000D02*
G75*
G02*
X62960000Y-89250000I-5000000J0D01*
G01*
X62960000Y-89250000D02*
G75*
G02*
X72960000Y-89250000I5000000J0D01*
G01*
%TD*%
M02*
