%TF.GenerationSoftware,KiCad,Pcbnew,8.0.2*%
%TF.CreationDate,2024-12-31T23:00:35-06:00*%
%TF.ProjectId,LampBoardModule,4c616d70-426f-4617-9264-4d6f64756c65,rev?*%
%TF.SameCoordinates,Original*%
%TF.FileFunction,Soldermask,Top*%
%TF.FilePolarity,Negative*%
%FSLAX46Y46*%
G04 Gerber Fmt 4.6, Leading zero omitted, Abs format (unit mm)*
G04 Created by KiCad (PCBNEW 8.0.2) date 2024-12-31 23:00:35*
%MOMM*%
%LPD*%
G01*
G04 APERTURE LIST*
G04 Aperture macros list*
%AMRoundRect*
0 Rectangle with rounded corners*
0 $1 Rounding radius*
0 $2 $3 $4 $5 $6 $7 $8 $9 X,Y pos of 4 corners*
0 Add a 4 corners polygon primitive as box body*
4,1,4,$2,$3,$4,$5,$6,$7,$8,$9,$2,$3,0*
0 Add four circle primitives for the rounded corners*
1,1,$1+$1,$2,$3*
1,1,$1+$1,$4,$5*
1,1,$1+$1,$6,$7*
1,1,$1+$1,$8,$9*
0 Add four rect primitives between the rounded corners*
20,1,$1+$1,$2,$3,$4,$5,0*
20,1,$1+$1,$4,$5,$6,$7,0*
20,1,$1+$1,$6,$7,$8,$9,0*
20,1,$1+$1,$8,$9,$2,$3,0*%
G04 Aperture macros list end*
%ADD10RoundRect,0.218750X0.256250X-0.218750X0.256250X0.218750X-0.256250X0.218750X-0.256250X-0.218750X0*%
%ADD11RoundRect,0.200000X0.275000X-0.200000X0.275000X0.200000X-0.275000X0.200000X-0.275000X-0.200000X0*%
%ADD12RoundRect,0.135000X-0.185000X0.135000X-0.185000X-0.135000X0.185000X-0.135000X0.185000X0.135000X0*%
%ADD13RoundRect,0.140000X-0.140000X-0.170000X0.140000X-0.170000X0.140000X0.170000X-0.140000X0.170000X0*%
%ADD14R,0.700000X1.250000*%
%ADD15RoundRect,0.200000X-0.200000X-0.275000X0.200000X-0.275000X0.200000X0.275000X-0.200000X0.275000X0*%
%ADD16R,3.500000X1.600000*%
%ADD17R,9.750000X12.200000*%
%ADD18RoundRect,0.200000X-0.275000X0.200000X-0.275000X-0.200000X0.275000X-0.200000X0.275000X0.200000X0*%
%ADD19RoundRect,0.200000X0.200000X0.275000X-0.200000X0.275000X-0.200000X-0.275000X0.200000X-0.275000X0*%
%ADD20RoundRect,0.140000X-0.170000X0.140000X-0.170000X-0.140000X0.170000X-0.140000X0.170000X0.140000X0*%
%ADD21C,1.650000*%
%ADD22C,5.161000*%
%ADD23RoundRect,0.225000X0.250000X-0.225000X0.250000X0.225000X-0.250000X0.225000X-0.250000X-0.225000X0*%
%ADD24RoundRect,0.140000X0.170000X-0.140000X0.170000X0.140000X-0.170000X0.140000X-0.170000X-0.140000X0*%
%ADD25RoundRect,0.218750X0.218750X0.256250X-0.218750X0.256250X-0.218750X-0.256250X0.218750X-0.256250X0*%
%ADD26RoundRect,0.250000X1.000000X0.650000X-1.000000X0.650000X-1.000000X-0.650000X1.000000X-0.650000X0*%
%ADD27RoundRect,0.150000X0.650000X0.150000X-0.650000X0.150000X-0.650000X-0.150000X0.650000X-0.150000X0*%
%ADD28C,4.700000*%
%ADD29RoundRect,0.140000X0.140000X0.170000X-0.140000X0.170000X-0.140000X-0.170000X0.140000X-0.170000X0*%
%ADD30O,2.000000X3.600000*%
%ADD31R,2.470000X0.980000*%
%ADD32R,2.470000X3.600000*%
%ADD33R,0.850000X0.300000*%
%ADD34RoundRect,0.250000X0.250000X0.475000X-0.250000X0.475000X-0.250000X-0.475000X0.250000X-0.475000X0*%
%ADD35RoundRect,0.218750X-0.218750X-0.256250X0.218750X-0.256250X0.218750X0.256250X-0.218750X0.256250X0*%
%ADD36R,0.660000X0.420000*%
%ADD37R,0.570000X0.600000*%
%ADD38R,2.100000X2.400000*%
%ADD39R,1.200000X1.100000*%
%ADD40RoundRect,0.050000X0.387500X0.050000X-0.387500X0.050000X-0.387500X-0.050000X0.387500X-0.050000X0*%
%ADD41RoundRect,0.050000X0.050000X0.387500X-0.050000X0.387500X-0.050000X-0.387500X0.050000X-0.387500X0*%
%ADD42R,3.200000X3.200000*%
%ADD43RoundRect,0.218750X-0.256250X0.218750X-0.256250X-0.218750X0.256250X-0.218750X0.256250X0.218750X0*%
%ADD44RoundRect,0.250000X0.262500X0.450000X-0.262500X0.450000X-0.262500X-0.450000X0.262500X-0.450000X0*%
%ADD45O,1.500000X3.700000*%
%ADD46O,3.200000X1.500000*%
%ADD47R,1.800000X1.800000*%
%ADD48C,1.800000*%
%ADD49R,2.025000X2.025000*%
%ADD50C,2.025000*%
%ADD51C,1.600000*%
G04 APERTURE END LIST*
D10*
%TO.C,D8*%
X87300000Y-91687500D03*
X87300000Y-90112500D03*
%TD*%
D11*
%TO.C,R6*%
X118600000Y-94625000D03*
X118600000Y-92975000D03*
%TD*%
D12*
%TO.C,R31*%
X53400000Y-80090000D03*
X53400000Y-81110000D03*
%TD*%
D13*
%TO.C,C2*%
X87095000Y-102150000D03*
X88055000Y-102150000D03*
%TD*%
%TO.C,C1*%
X88270000Y-128000000D03*
X89230000Y-128000000D03*
%TD*%
D14*
%TO.C,Q1*%
X77850000Y-102100000D03*
X79750000Y-102100000D03*
X78800000Y-100100000D03*
%TD*%
D15*
%TO.C,R12*%
X112462500Y-118140000D03*
X114112500Y-118140000D03*
%TD*%
D16*
%TO.C,IC1*%
X58741000Y-94040000D03*
X58741000Y-88960000D03*
D17*
X48466000Y-91500000D03*
%TD*%
D18*
%TO.C,R2*%
X54800000Y-119075000D03*
X54800000Y-120725000D03*
%TD*%
D15*
%TO.C,R14*%
X112462500Y-120140000D03*
X114112500Y-120140000D03*
%TD*%
D11*
%TO.C,R22*%
X109000000Y-94325000D03*
X109000000Y-92675000D03*
%TD*%
D19*
%TO.C,R5*%
X76725000Y-109500000D03*
X75075000Y-109500000D03*
%TD*%
D20*
%TO.C,C21*%
X84375000Y-119220000D03*
X84375000Y-120180000D03*
%TD*%
D18*
%TO.C,R21*%
X115000000Y-92675000D03*
X115000000Y-94325000D03*
%TD*%
%TO.C,R29*%
X53100000Y-119075000D03*
X53100000Y-120725000D03*
%TD*%
D15*
%TO.C,R8*%
X119575000Y-115200000D03*
X121225000Y-115200000D03*
%TD*%
D21*
%TO.C,SW1*%
X116500000Y-112000000D03*
X111500000Y-112000000D03*
X116500000Y-97500000D03*
X111500000Y-97500000D03*
X114000000Y-97500000D03*
D22*
X119700000Y-105000000D03*
X108300000Y-105000000D03*
%TD*%
D23*
%TO.C,C23*%
X113000000Y-92775000D03*
X113000000Y-91225000D03*
%TD*%
D10*
%TO.C,D1*%
X56800000Y-120687500D03*
X56800000Y-119112500D03*
%TD*%
D24*
%TO.C,C12*%
X83200000Y-106180000D03*
X83200000Y-105220000D03*
%TD*%
D25*
%TO.C,D4*%
X76587500Y-107700000D03*
X75012500Y-107700000D03*
%TD*%
D24*
%TO.C,C9*%
X101400000Y-112280000D03*
X101400000Y-111320000D03*
%TD*%
D20*
%TO.C,C15*%
X81250000Y-118220000D03*
X81250000Y-119180000D03*
%TD*%
%TO.C,C14*%
X85625000Y-119200000D03*
X85625000Y-120160000D03*
%TD*%
D26*
%TO.C,D11*%
X58600000Y-113700000D03*
X54600000Y-113700000D03*
%TD*%
D15*
%TO.C,R17*%
X74175000Y-102200000D03*
X75825000Y-102200000D03*
%TD*%
D27*
%TO.C,U2*%
X95350000Y-125905000D03*
X95350000Y-124635000D03*
X95350000Y-123365000D03*
X95350000Y-122095000D03*
X88150000Y-122095000D03*
X88150000Y-123365000D03*
X88150000Y-124635000D03*
X88150000Y-125905000D03*
%TD*%
D28*
%TO.C,H3*%
X121000000Y-128750000D03*
%TD*%
D25*
%TO.C,D6*%
X110075000Y-116100000D03*
X108500000Y-116100000D03*
%TD*%
D23*
%TO.C,C24*%
X111000000Y-92775000D03*
X111000000Y-91225000D03*
%TD*%
D25*
%TO.C,D5*%
X110075000Y-118100000D03*
X108500000Y-118100000D03*
%TD*%
D13*
%TO.C,C17*%
X89720000Y-111200000D03*
X90680000Y-111200000D03*
%TD*%
D29*
%TO.C,C6*%
X58730000Y-86500000D03*
X57770000Y-86500000D03*
%TD*%
D11*
%TO.C,R9*%
X100300000Y-98025000D03*
X100300000Y-96375000D03*
%TD*%
D13*
%TO.C,C3*%
X84895000Y-102200000D03*
X85855000Y-102200000D03*
%TD*%
D30*
%TO.C,SW2*%
X68750000Y-104700000D03*
X64050000Y-104700000D03*
X59350000Y-104700000D03*
%TD*%
D31*
%TO.C,CR1*%
X98842700Y-86978500D03*
X98842700Y-84678500D03*
X98842700Y-82378500D03*
D32*
X93182700Y-84678500D03*
%TD*%
D13*
%TO.C,C11*%
X98720000Y-93500000D03*
X99680000Y-93500000D03*
%TD*%
D33*
%TO.C,IC2*%
X95525000Y-94750000D03*
X95525000Y-95250000D03*
X95525000Y-95750000D03*
X95525000Y-96250000D03*
X98675000Y-96250000D03*
X98675000Y-95750000D03*
X98675000Y-95250000D03*
X98675000Y-94750000D03*
%TD*%
D28*
%TO.C,H1*%
X48000000Y-80750000D03*
%TD*%
D15*
%TO.C,R13*%
X112462500Y-116140000D03*
X114112500Y-116140000D03*
%TD*%
D28*
%TO.C,H4*%
X121000000Y-80750000D03*
%TD*%
D34*
%TO.C,C5*%
X60350000Y-96900000D03*
X58450000Y-96900000D03*
%TD*%
D20*
%TO.C,C13*%
X82500000Y-118220000D03*
X82500000Y-119180000D03*
%TD*%
D25*
%TO.C,D10*%
X110075000Y-122100000D03*
X108500000Y-122100000D03*
%TD*%
D35*
%TO.C,D9*%
X73112500Y-112800000D03*
X74687500Y-112800000D03*
%TD*%
D36*
%TO.C,Q2*%
X75600000Y-96350000D03*
X75600000Y-95700000D03*
X75600000Y-95050000D03*
X75600000Y-94400000D03*
X72200000Y-94400000D03*
X72200000Y-95050000D03*
X72200000Y-95700000D03*
D37*
X74050000Y-96820000D03*
D36*
X72200000Y-96350000D03*
D38*
X73400000Y-95370000D03*
D37*
X74050000Y-93920000D03*
%TD*%
D15*
%TO.C,R18*%
X112462500Y-122140000D03*
X114112500Y-122140000D03*
%TD*%
D12*
%TO.C,R4*%
X114200000Y-80290000D03*
X114200000Y-81310000D03*
%TD*%
D24*
%TO.C,C10*%
X95400000Y-93380000D03*
X95400000Y-92420000D03*
%TD*%
D20*
%TO.C,C16*%
X89800000Y-115720000D03*
X89800000Y-116680000D03*
%TD*%
D39*
%TO.C,Y1*%
X86150000Y-99450000D03*
X88050000Y-99450000D03*
X88050000Y-97950000D03*
X86150000Y-97950000D03*
%TD*%
D28*
%TO.C,H2*%
X48000000Y-128750000D03*
%TD*%
D24*
%TO.C,C18*%
X84625000Y-106180000D03*
X84625000Y-105220000D03*
%TD*%
D18*
%TO.C,R16*%
X70600000Y-112775000D03*
X70600000Y-114425000D03*
%TD*%
D12*
%TO.C,R3*%
X56000000Y-80110000D03*
X56000000Y-81130000D03*
%TD*%
D18*
%TO.C,R19*%
X77800000Y-95175000D03*
X77800000Y-96825000D03*
%TD*%
D11*
%TO.C,R10*%
X93900000Y-98025000D03*
X93900000Y-96375000D03*
%TD*%
D40*
%TO.C,U1*%
X88250000Y-115100000D03*
X88250000Y-114700000D03*
X88250000Y-114300000D03*
X88250000Y-113900000D03*
X88250000Y-113500000D03*
X88250000Y-113100000D03*
X88250000Y-112700000D03*
X88250000Y-112300000D03*
X88250000Y-111900000D03*
X88250000Y-111500000D03*
X88250000Y-111100000D03*
X88250000Y-110700000D03*
X88250000Y-110300000D03*
X88250000Y-109900000D03*
D41*
X87412500Y-109062500D03*
X87012500Y-109062500D03*
X86612500Y-109062500D03*
X86212500Y-109062500D03*
X85812500Y-109062500D03*
X85412500Y-109062500D03*
X85012500Y-109062500D03*
X84612500Y-109062500D03*
X84212500Y-109062500D03*
X83812500Y-109062500D03*
X83412500Y-109062500D03*
X83012500Y-109062500D03*
X82612500Y-109062500D03*
X82212500Y-109062500D03*
D40*
X81375000Y-109900000D03*
X81375000Y-110300000D03*
X81375000Y-110700000D03*
X81375000Y-111100000D03*
X81375000Y-111500000D03*
X81375000Y-111900000D03*
X81375000Y-112300000D03*
X81375000Y-112700000D03*
X81375000Y-113100000D03*
X81375000Y-113500000D03*
X81375000Y-113900000D03*
X81375000Y-114300000D03*
X81375000Y-114700000D03*
X81375000Y-115100000D03*
D41*
X82212500Y-115937500D03*
X82612500Y-115937500D03*
X83012500Y-115937500D03*
X83412500Y-115937500D03*
X83812500Y-115937500D03*
X84212500Y-115937500D03*
X84612500Y-115937500D03*
X85012500Y-115937500D03*
X85412500Y-115937500D03*
X85812500Y-115937500D03*
X86212500Y-115937500D03*
X86612500Y-115937500D03*
X87012500Y-115937500D03*
X87412500Y-115937500D03*
D42*
X84812500Y-112500000D03*
%TD*%
D29*
%TO.C,C19*%
X79855000Y-111450000D03*
X78895000Y-111450000D03*
%TD*%
D23*
%TO.C,C8*%
X101512700Y-84675000D03*
X101512700Y-83125000D03*
%TD*%
D15*
%TO.C,R11*%
X90375000Y-92200000D03*
X92025000Y-92200000D03*
%TD*%
D20*
%TO.C,C22*%
X80000000Y-118220000D03*
X80000000Y-119180000D03*
%TD*%
D43*
%TO.C,D2*%
X57800000Y-80012500D03*
X57800000Y-81587500D03*
%TD*%
D11*
%TO.C,R7*%
X120800000Y-94625000D03*
X120800000Y-92975000D03*
%TD*%
D43*
%TO.C,D3*%
X112200000Y-80312500D03*
X112200000Y-81887500D03*
%TD*%
D44*
%TO.C,R15*%
X85512500Y-91700000D03*
X83687500Y-91700000D03*
%TD*%
D11*
%TO.C,R23*%
X103200000Y-112325000D03*
X103200000Y-110675000D03*
%TD*%
D12*
%TO.C,R30*%
X54700000Y-80110000D03*
X54700000Y-81130000D03*
%TD*%
D11*
%TO.C,R20*%
X80200000Y-96825000D03*
X80200000Y-95175000D03*
%TD*%
D29*
%TO.C,C20*%
X79605000Y-115200000D03*
X78645000Y-115200000D03*
%TD*%
D15*
%TO.C,R28*%
X71475000Y-109500000D03*
X73125000Y-109500000D03*
%TD*%
D25*
%TO.C,D7*%
X110075000Y-120100000D03*
X108500000Y-120100000D03*
%TD*%
D13*
%TO.C,C7*%
X99532700Y-80178500D03*
X100492700Y-80178500D03*
%TD*%
D45*
%TO.C,J4*%
X52500000Y-104750000D03*
X46500000Y-104750000D03*
D46*
X50000000Y-100100000D03*
%TD*%
D47*
%TO.C,J1*%
X74020000Y-105400000D03*
D48*
X76560000Y-105400000D03*
X79100000Y-105400000D03*
%TD*%
D49*
%TO.C,J3*%
X78250000Y-84375000D03*
D50*
X81750000Y-84375000D03*
X85250000Y-84375000D03*
%TD*%
D51*
%TO.C,C4*%
X70500000Y-89250000D03*
X65420000Y-89250000D03*
%TD*%
M02*
